<svg width="139" height="139" viewBox="0 0 139 139" fill="none" xmlns="http://www.w3.org/2000/svg">
    <g filter="url(#filter0_f_126_8)">
        <path d="M69.5014 69.5013L69.5035 69.5034L69.5066 69.5063L69.5106 69.5101L69.5157 69.5148L69.5218 69.5203L69.5289 69.5267L69.537 69.5339L69.5462 69.5419L69.5565 69.5507L69.5678 69.5602L69.5802 69.5706L69.5937 69.5816L69.6083 69.5934L69.6241 69.6059L69.6409 69.6191L69.659 69.633L69.6781 69.6475L69.6984 69.6627L69.72 69.6785L69.7426 69.6949L69.7665 69.7119L69.7916 69.7295L69.8179 69.7476L69.8454 69.7663L69.8742 69.7855L69.9041 69.8052L69.9354 69.8253L69.9679 69.846L70.0016 69.8671L70.0366 69.8886L70.0729 69.9105L70.1105 69.9329L70.1494 69.9556L70.1895 69.9786L70.231 70.002L70.2738 70.0257L70.3179 70.0498L70.3633 70.074L70.4101 70.0986L70.4582 70.1234L70.5076 70.1484L70.5584 70.1736L70.6105 70.199L70.664 70.2246L70.7188 70.2503L70.775 70.2761L70.8325 70.302L70.8914 70.328L70.9517 70.3541L71.0134 70.3802L71.0764 70.4064L71.1408 70.4325L71.2066 70.4587L71.2738 70.4848L71.3424 70.5108L71.4123 70.5368L71.4836 70.5626L71.5563 70.5884L71.6304 70.614L71.7059 70.6395L71.7827 70.6647L71.861 70.6898L71.9406 70.7147L72.0216 70.7393L72.104 70.7637L72.1878 70.7878L72.273 70.8116L72.3595 70.8351L72.4474 70.8582L72.5367 70.881L72.6274 70.9034L72.7194 70.9254L72.8128 70.947L72.9075 70.9681L73.0037 70.9888L73.1011 71.009L73.1999 71.0287L73.3001 71.0479L73.4016 71.0665L73.5044 71.0846L73.6086 71.1021L73.714 71.119L73.8208 71.1353L73.929 71.151L74.0384 71.166L74.1491 71.1803L74.2611 71.1939L74.3744 71.2068L74.489 71.2189L74.6048 71.2304L74.7219 71.241L74.8403 71.2508L74.9599 71.2599L75.0807 71.2681L75.2028 71.2754L75.3261 71.2819L75.4506 71.2875L75.5764 71.2922L75.7033 71.2959L75.8314 71.2988L75.9606 71.3006L76.091 71.3015L76.2226 71.3014L76.3553 71.3003L76.4892 71.2981L76.6241 71.2949L76.7602 71.2906L76.8974 71.2853L77.0356 71.2788L77.1749 71.2712L77.3153 71.2625L77.4567 71.2527L77.5992 71.2416L77.7426 71.2294L77.8871 71.216L78.0326 71.2013L78.179 71.1855L78.3264 71.1683L78.4748 71.1499L78.6241 71.1303L78.7743 71.1093L78.9254 71.087L79.0774 71.0634L79.2303 71.0385L79.384 71.0122L79.5386 70.9845L79.6941 70.9554L79.8503 70.9249L80.0073 70.8931L80.1651 70.8598L80.3237 70.825L80.483 70.7888L80.6431 70.7512L80.8039 70.712L80.9653 70.6714L81.1275 70.6292L81.2903 70.5855L81.4537 70.5403L81.6178 70.4936L81.7825 70.4453L81.9477 70.3954L82.1136 70.344L82.28 70.291L82.4469 70.2363L82.6143 70.1801L82.7822 70.1222L82.9507 70.0627L83.1195 70.0016L83.2888 69.9388L83.4585 69.8744L83.6286 69.8082L83.7991 69.7404L83.97 69.6709L84.1412 69.5997L84.3127 69.5268L84.4845 69.4522L84.6566 69.3759L84.8289 69.2978L85.0015 69.218L85.1742 69.1365L85.3472 69.0532L85.5204 68.9681L85.6936 68.8813L85.8671 68.7927L86.0406 68.7023L86.2142 68.6102L86.3879 68.5162L86.5616 68.4205L86.7354 68.3229L86.9091 68.2236L87.0829 68.1224L87.2565 68.0195L87.4302 67.9147L87.6037 67.8081L87.7771 67.6996L87.9504 67.5894L88.1235 67.4773L88.2965 67.3633L88.4692 67.2476L88.6417 67.13L88.814 67.0105L88.986 66.8892L89.1578 66.7661L89.3292 66.6411L89.5002 66.5143L89.671 66.3857L89.8413 66.2551L90.0112 66.1228L90.1807 65.9886L90.3498 65.8525L90.5184 65.7146L90.6864 65.5749L90.854 65.4333L91.021 65.2899L91.1875 65.1446L91.3534 64.9975L91.5186 64.8486L91.6833 64.6978L91.8472 64.5452L92.0105 64.3908L92.1731 64.2346L92.335 64.0765L92.4961 63.9166L92.6565 63.7549L92.816 63.5914L92.9748 63.4261L93.1327 63.259L93.2897 63.0901L93.4459 62.9195L93.6011 62.747L93.7555 62.5728L93.9089 62.3968L94.0612 62.2191L94.2127 62.0396L94.363 61.8583L94.5124 61.6753L94.6607 61.4906L94.8079 61.3041L94.954 61.116L95.0989 60.9261L95.2427 60.7346L95.3854 60.5413L95.5268 60.3464L95.667 60.1498L95.806 59.9515L95.9437 59.7516L96.0802 59.5501L96.2153 59.3469L96.3492 59.1421L96.4816 58.9357L96.6128 58.7277L96.7425 58.5182L96.8708 58.307L96.9977 58.0943L97.1231 57.8801L97.2471 57.6643L97.3696 57.447L97.4906 57.2282L97.61 57.0079L97.7279 56.7861L97.8443 56.5628L97.959 56.3381L98.0721 56.112L98.1836 55.8844L98.2935 55.6554L98.4017 55.4251L98.5082 55.1933L98.613 54.9602L98.7161 54.7257L98.8175 54.4899L98.9171 54.2528L99.0149 54.0144L99.1109 53.7747L99.2051 53.5338L99.2975 53.2916L99.388 53.0481L99.4767 52.8035L99.5635 52.5577L99.6484 52.3106L99.7314 52.0624L99.8124 51.8131L99.8916 51.5627L99.9687 51.3111L100.044 51.0585L100.117 50.8048L100.188 50.55L100.257 50.2942L100.324 50.0374L100.389 49.7797L100.452 49.5209L100.513 49.2612L100.572 49.0006L100.629 48.7391L100.683 48.4767L100.736 48.2134L100.786 47.9493L100.834 47.6843L100.88 47.4186L100.924 47.152L100.965 46.8848L101.005 46.6167L101.042 46.348L101.077 46.0786L101.109 45.8085L101.14 45.5377L101.168 45.2664L101.194 44.9944L101.217 44.7218L101.238 44.4487L101.257 44.1751L101.274 43.9009L101.288 43.6263L101.3 43.3512L101.309 43.0757L101.316 42.7997L101.321 42.5234L101.324 42.2467L101.324 41.9696L101.321 41.6923L101.317 41.4146L101.31 41.1367L101.3 40.8585L101.288 40.5801L101.274 40.3015L101.257 40.0228L101.238 39.7439L101.216 39.4648L101.192 39.1857L101.165 38.9065L101.136 38.6273L101.104 38.348L101.07 38.0688L101.034 37.7895L100.995 37.5104L100.954 37.2313L100.91 36.9523L100.863 36.6734L100.815 36.3948L100.763 36.1163L100.709 35.838L100.653 35.5599L100.594 35.2821L100.533 35.0046L100.469 34.7274L100.403 34.4505L100.334 34.174L100.263 33.8979L100.189 33.6223L100.113 33.347L100.034 33.0722L99.9528 32.798L99.8691 32.5242L99.7829 32.251L99.6942 31.9784L99.603 31.7063L99.5093 31.4349L99.4132 31.1641L99.3146 30.8941L99.2135 30.6247L99.11 30.356L99.004 30.0881L98.8955 29.821L98.7846 29.5547L98.6712 29.2892L98.5555 29.0246L98.4372 28.7608L98.3166 28.498L98.1935 28.2361L98.068 27.9752L97.9401 27.7152L97.8097 27.4563L97.677 27.1983L97.5419 26.9415L97.4044 26.6857L97.2646 26.4311L97.1224 26.1776L96.9778 25.9252L96.8309 25.6741L96.6816 25.4241L96.53 25.1754L96.3761 24.9279L96.2199 24.6818L96.0614 24.4369L95.9006 24.1934L95.7375 23.9512L95.5722 23.7104L95.4046 23.471L95.2348 23.2331L95.0627 22.9966L94.8884 22.7615L94.7119 22.528L94.5332 22.296L94.3524 22.0656L94.1693 21.8367L93.9842 21.6094L93.7969 21.3837L93.6074 21.1597L93.4159 20.9373L93.2222 20.7167L93.0265 20.4977L92.8287 20.2804L92.6288 20.0649L92.4269 19.8512L92.223 19.6393L92.0171 19.4292L91.8092 19.2209L91.5994 19.0144L91.3876 18.8099L91.1738 18.6073L90.9581 18.4065L90.7405 18.2078L90.5211 18.0109L90.2997 17.8161L90.0766 17.6232L89.8515 17.4324L89.6247 17.2436L89.3961 17.0569L89.1657 16.8723L88.9336 16.6897L88.6997 16.5093L88.4641 16.331L88.2268 16.1549L87.9878 15.9809L87.7472 15.8091L87.5049 15.6396L87.261 15.4722L87.0155 15.3071L86.7685 15.1442L86.5199 14.9837L86.2697 14.8254L86.0181 14.6694L85.765 14.5158L85.5104 14.3644L85.2543 14.2155L84.9969 14.0689L84.738 13.9247L84.4777 13.7829L84.2162 13.6435L83.9532 13.5066L83.689 13.3721L83.4235 13.24L83.1567 13.1104L82.8887 12.9834L82.6194 12.8588L82.349 12.7367L82.0774 12.6171L81.8047 12.5001L81.5309 12.3856L81.2559 12.2737L80.9799 12.1644L80.7029 12.0576L80.4248 11.9535L80.1457 11.8519L79.8657 11.753L79.5847 11.6566L79.3028 11.563L79.02 11.4719L78.7364 11.3836L78.4518 11.2979L78.1665 11.2148L77.8804 11.1345L77.5935 11.0568L77.3059 10.9819L77.0176 10.9096L76.7286 10.8401L76.4389 10.7732L76.1486 10.7091L75.8577 10.6478L75.5662 10.5892L75.2741 10.5333L74.9815 10.4802L74.6884 10.4299L74.3949 10.3823L74.1009 10.3375L73.8065 10.2954L73.5116 10.2561L73.2164 10.2197L72.9209 10.186L72.6251 10.1551L72.3289 10.127L72.0325 10.1016L71.7359 10.0791L71.4391 10.0594L71.1421 10.0425L70.8449 10.0284L70.5477 10.0171L70.2503 10.0086L69.9528 10.0029L69.6554 10.0001L69.3579 10L69.0604 10.0027L68.7629 10.0083L68.4655 10.0167L68.1683 10.0278L67.8711 10.0418L67.5741 10.0586L67.2773 10.0782L66.9806 10.1006L66.6842 10.1258L66.3881 10.1538L66.0922 10.1845L65.7967 10.2181L65.5015 10.2545L65.2066 10.2936L64.9122 10.3355L64.6182 10.3802L64.3246 10.4277L64.0315 10.4779L63.7389 10.5309L63.4468 10.5866L63.1553 10.6451L62.8643 10.7064L62.574 10.7703L62.2843 10.837L61.9952 10.9065L61.7069 10.9786L61.4192 11.0534L61.1323 11.131L60.8462 11.2112L60.5608 11.2941L60.2763 11.3797L59.9926 11.468L59.7097 11.5589L59.4278 11.6524L59.1468 11.7486L58.8667 11.8475L58.5876 11.9489L58.3095 12.0529L58.0324 12.1596L57.7563 12.2688L57.4813 12.3806L57.2074 12.495L56.9347 12.6119L56.663 12.7313L56.3925 12.8533L56.1233 12.9778L55.8552 13.1047L55.5883 13.2342L55.3228 13.3662L55.0585 13.5006L54.7955 13.6374L54.5338 13.7767L54.2735 13.9184L54.0146 14.0625L53.7571 14.2089L53.501 14.3578L53.2463 14.509L52.9931 14.6625L52.7414 14.8184L52.4912 14.9766L52.2425 15.1371L51.9954 15.2998L51.7499 15.4648L51.5059 15.6321L51.2636 15.8016L51.0229 15.9732L50.7838 16.1471L50.5464 16.3232L50.3108 16.5013L50.0768 16.6817L49.8446 16.8641L49.6141 17.0487L49.3854 17.2353L49.1585 17.424L48.9334 17.6147L48.7101 17.8075L48.4887 18.0022L48.2692 18.199L48.0515 18.3977L47.8357 18.5983L47.6219 18.8009L47.41 19.0053L47.2 19.2117L46.9921 19.4199L46.7861 19.6299L46.5821 19.8418L46.3801 20.0554L46.1802 20.2708L45.9823 20.488L45.7864 20.7069L45.5927 20.9275L45.4011 21.1498L45.2115 21.3738L45.0241 21.5994L44.8388 21.8266L44.6557 22.0554L44.4748 22.2858L44.296 22.5177L44.1194 22.7511L43.945 22.9861L43.7728 23.2225L43.6029 23.4604L43.4352 23.6997L43.2698 23.9405L43.1066 24.1826L42.9457 24.4261L42.7871 24.6709L42.6308 24.917L42.4768 25.1644L42.3251 25.413L42.1757 25.6629L42.0287 25.914L41.884 26.1663L41.7417 26.4198L41.6017 26.6744L41.4641 26.9301L41.3289 27.1869L41.1961 27.4448L41.0657 27.7037L40.9377 27.9636L40.812 28.2245L40.6889 28.4863L40.5681 28.7491L40.4497 29.0128L40.3338 29.2774L40.2204 29.5429L40.1094 29.8091L40.0008 30.0762L39.8947 30.3441L39.791 30.6127L39.6898 30.8821L39.5911 31.1521L39.4949 31.4229L39.4011 31.6943L39.3098 31.9663L39.221 32.2389L39.1347 32.5121L39.0509 32.7858L38.9695 33.06L38.8907 33.3348L38.8143 33.61L38.7404 33.8857L38.669 34.1618L38.6001 34.4382L38.5337 34.7151L38.4698 34.9923L38.4084 35.2698L38.3495 35.5476L38.2931 35.8256L38.2391 36.1039L38.1877 36.3824L38.1387 36.6611L38.0922 36.9399L38.0482 37.2189L38.0067 37.498L37.9677 37.7771L37.9311 38.0564L37.897 38.3356L37.8654 38.6149L37.8362 38.8941L37.8095 39.1733L37.7852 39.4524L37.7634 39.7315L37.744 40.0104L37.7271 40.2892L37.7126 40.5678L37.7005 40.8462L37.6908 41.1243L37.6836 41.4023L37.6787 41.68L37.6763 41.9573L37.6762 42.2344L37.6786 42.5111L37.6833 42.7875L37.6903 43.0634L37.6998 43.339L37.7115 43.6141L37.7257 43.8888L37.7421 44.1629L37.7609 44.4366L37.782 44.7097L37.8054 44.9823L37.8311 45.2543L37.8591 45.5257L37.8893 45.7965L37.9218 46.0666L37.9566 46.336L37.9936 46.6048L38.0328 46.8729L38.0742 47.1402L38.1179 47.4068L38.1637 47.6725L38.2117 47.9375L38.2619 48.2017L38.3142 48.465L38.3687 48.7274L38.4253 48.989L38.484 49.2497L38.5448 49.5094L38.6077 49.7682L38.6726 50.026L38.7396 50.2829L38.8087 50.5387L38.8798 50.7935L38.9528 51.0472L39.0279 51.2999L39.105 51.5515L39.184 51.802L39.265 52.0514L39.3479 52.2996L39.4327 52.5467L39.5194 52.7926L39.608 53.0373L39.6984 53.2808L39.7907 53.5231L39.8849 53.7641L39.9808 54.0038L40.0786 54.2423L40.1781 54.4794L40.2793 54.7153L40.3824 54.9498L40.4871 55.183L40.5935 55.4148L40.7017 55.6452L40.8114 55.8743L40.9229 56.1019L41.0359 56.3281L41.1506 56.5529L41.2669 56.7762L41.3847 56.9981L41.5041 57.2184L41.625 57.4373L41.7474 57.6547L41.8713 57.8705L41.9967 58.0848L42.1235 58.2976L42.2518 58.5088L42.3815 58.7185L42.5125 58.9265L42.6449 59.133L42.7787 59.3379L42.9138 59.5411L43.0502 59.7427L43.1878 59.9427L43.3268 60.141L43.4669 60.3377L43.6083 60.5327L43.7509 60.726L43.8947 60.9177L44.0396 61.1076L44.1856 61.2958L44.3328 61.4823L44.481 61.6671L44.6303 61.8502L44.7806 62.0315L44.932 62.2111L45.0844 62.389L45.2377 62.565L45.392 62.7393L45.5472 62.9119L45.7033 63.0826L45.8603 63.2516L46.0182 63.4187L46.1769 63.5841L46.3364 63.7477L46.4967 63.9095L46.6578 64.0694L46.8197 64.2276L46.9822 64.3839L47.1455 64.5384L47.3094 64.6911L47.474 64.8419L47.6393 64.991L47.8051 65.1381L47.9716 65.2835L48.1386 65.427L48.3061 65.5687L48.4742 65.7085L48.6427 65.8465L48.8118 65.9826L48.9812 66.1169L49.1512 66.2493L49.3215 66.3799L49.4922 66.5087L49.6632 66.6356L49.8346 66.7606L50.0063 66.8838L50.1783 67.0052L50.3506 67.1247L50.5231 67.2424L50.6959 67.3582L50.8688 67.4722L51.0419 67.5844L51.2152 67.6948L51.3886 67.8033L51.5621 67.91L51.7357 68.0148L51.9094 68.1179L52.0831 68.2191L52.2569 68.3186L52.4306 68.4162L52.6044 68.512L52.7781 68.606L52.9517 68.6983L53.1252 68.7887L53.2986 68.8774L53.472 68.9643L53.6451 69.0494L53.8181 69.1328L53.9909 69.2145L54.1635 69.2943L54.3358 69.3725L54.5079 69.4489L54.6797 69.5236L54.8512 69.5965L55.0224 69.6678L55.1933 69.7374L55.3638 69.8053L55.5339 69.8715L55.7037 69.936L55.873 69.9988L56.0419 70.0601L56.2103 70.1196L56.3782 70.1776L56.5457 70.2339L56.7126 70.2886L56.8791 70.3417L57.0449 70.3932L57.2102 70.4431L57.3749 70.4915L57.539 70.5383L57.7025 70.5836L57.8653 70.6273L58.0275 70.6695L58.189 70.7102L58.3498 70.7495L58.5099 70.7872L58.6692 70.8234L58.8278 70.8583L58.9857 70.8916L59.1427 70.9236L59.299 70.9541L59.4545 70.9832L59.6091 71.011L59.7629 71.0373L59.9158 71.0623L60.0679 71.086L60.219 71.1083L60.3693 71.1294L60.5186 71.1491L60.667 71.1675L60.8145 71.1847L60.961 71.2007L61.1065 71.2154L61.251 71.2288L61.3945 71.2411L61.537 71.2522L61.6785 71.2621L61.8189 71.2709L61.9582 71.2785L62.0965 71.285L62.2337 71.2904L62.3699 71.2947L62.5049 71.298L62.6388 71.3002L62.7715 71.3014L62.9031 71.3015L63.0336 71.3007L63.1629 71.2989L63.2911 71.2961L63.418 71.2924L63.5438 71.2877L63.6684 71.2822L63.7917 71.2757L63.9139 71.2684L64.0348 71.2603L64.1544 71.2513L64.2728 71.2414L64.39 71.2308L64.5059 71.2195L64.6205 71.2073L64.7339 71.1945L64.846 71.1809L64.9567 71.1666L65.0662 71.1516L65.1744 71.136L65.2812 71.1198L65.3868 71.1029L65.491 71.0854L65.5939 71.0673L65.6954 71.0487L65.7957 71.0296L65.8945 71.0099L65.9921 70.9897L66.0882 70.969L66.183 70.9479L66.2765 70.9264L66.3686 70.9044L66.4593 70.882L66.5486 70.8592L66.6366 70.8361L66.7232 70.8126L66.8084 70.7889L66.8923 70.7648L66.9747 70.7404L67.0558 70.7158L67.1355 70.6909L67.2138 70.6659L67.2907 70.6406L67.3663 70.6151L67.4404 70.5895L67.5132 70.5638L67.5846 70.5379L67.6546 70.512L67.7232 70.4859L67.7904 70.4598L67.8563 70.4337L67.9207 70.4075L67.9838 70.3814L68.0456 70.3553L68.1059 70.3292L68.1649 70.3032L68.2225 70.2772L68.2787 70.2514L68.3336 70.2257L68.3872 70.2001L68.4393 70.1747L68.4902 70.1495L68.5397 70.1245L68.5878 70.0997L68.6346 70.0751L68.6801 70.0508L68.7243 70.0268L68.7671 70.0031L68.8087 69.9797L68.8489 69.9566L68.8878 69.9339L68.9254 69.9115L68.9618 69.8896L68.9969 69.868L69.0307 69.8469L69.0632 69.8263L69.0945 69.8061L69.1245 69.7863L69.1533 69.7671L69.1809 69.7484L69.2073 69.7303L69.2324 69.7127L69.2563 69.6956L69.2791 69.6792L69.3006 69.6634L69.321 69.6482L69.3402 69.6336L69.3583 69.6197L69.3752 69.6065L69.391 69.594L69.4057 69.5821L69.4192 69.571L69.4317 69.5607L69.4431 69.5511L69.4534 69.5423L69.4626 69.5342L69.4708 69.527L69.4779 69.5206L69.484 69.515L69.4892 69.5103L69.4933 69.5065L69.4964 69.5035L69.4985 69.5014L69.4993 69.5007L69.4977 69.5023L69.4952 69.505L69.4918 69.5085L69.4875 69.5131L69.4824 69.5187L69.4764 69.5253L69.4696 69.533L69.462 69.5417L69.4536 69.5514L69.4444 69.5622L69.4344 69.5741L69.4237 69.5871L69.4123 69.6012L69.4001 69.6164L69.3872 69.6327L69.3737 69.6502L69.3595 69.6688L69.3446 69.6886L69.3291 69.7095L69.313 69.7316L69.2963 69.7549L69.279 69.7794L69.2611 69.8051L69.2427 69.8321L69.2237 69.8602L69.2043 69.8896L69.1843 69.9203L69.1639 69.9521L69.143 69.9853L69.1217 70.0197L69.1 70.0554L69.0778 70.0923L69.0553 70.1306L69.0324 70.1701L69.0092 70.211L68.9856 70.2532L68.9617 70.2966L68.9376 70.3414L68.9131 70.3876L68.8885 70.435L68.8636 70.4838L68.8384 70.5339L68.8131 70.5854L68.7876 70.6382L68.762 70.6924L68.7362 70.7479L68.7104 70.8048L68.6844 70.8631L68.6583 70.9227L68.6322 70.9837L68.6061 71.0461L68.5799 71.1099L68.5538 71.175L68.5277 71.2415L68.5016 71.3094L68.4756 71.3787L68.4497 71.4493L68.4239 71.5214L68.3982 71.5948L68.3727 71.6696L68.3473 71.7458L68.3221 71.8234L68.2971 71.9024L68.2724 71.9827L68.2479 72.0645L68.2237 72.1476L68.1997 72.2321L68.1761 72.318L68.1528 72.4052L68.1298 72.4939L68.1072 72.5839L68.085 72.6753L68.0633 72.768L68.0419 72.8621L68.021 72.9576L68.0006 73.0544L67.9806 73.1525L67.9612 73.252L67.9423 73.3529L67.9239 73.4551L67.9061 73.5586L67.889 73.6635L67.8724 73.7696L67.8564 73.8771L67.8411 73.9859L67.8265 74.096L67.8125 74.2074L67.7993 74.3201L67.7868 74.4341L67.775 74.5493L67.764 74.6658L67.7537 74.7836L67.7443 74.9026L67.7357 75.0229L67.728 75.1443L67.7211 75.2671L67.715 75.391L67.7099 75.5161L67.7057 75.6425L67.7024 75.77L67.7001 75.8987L67.6988 76.0286L67.6984 76.1596L67.699 76.2918L67.7007 76.4251L67.7034 76.5595L67.7072 76.6951L67.712 76.8317L67.7179 76.9694L67.725 77.1082L67.7331 77.2481L67.7425 77.389L67.7529 77.531L67.7646 77.674L67.7774 77.8179L67.7915 77.9629L67.8068 78.1089L67.8233 78.2559L67.8411 78.4038L67.8601 78.5526L67.8805 78.7024L67.9021 78.8531L67.9251 79.0047L67.9494 79.1572L67.9751 79.3105L68.0021 79.4647L68.0305 79.6197L68.0603 79.7756L68.0915 79.9322L68.1241 80.0897L68.1582 80.2479L68.1937 80.4068L68.2306 80.5666L68.2691 80.727L68.309 80.8881L68.3504 81.0499L68.3934 81.2124L68.4378 81.3756L68.4838 81.5394L68.5314 81.7037L68.5805 81.8687L68.6312 82.0343L68.6835 82.2004L68.7373 82.3671L68.7928 82.5343L68.8499 82.702L68.9086 82.8702L68.969 83.0388L69.031 83.2079L69.0946 83.3774L69.1599 83.5474L69.2269 83.7177L69.2956 83.8884L69.366 84.0594L69.4381 84.2307L69.5119 84.4024L69.5874 84.5743L69.6646 84.7466L69.7436 84.919L69.8243 85.0917L69.9068 85.2646L69.991 85.4377L70.077 85.6109L70.1647 85.7842L70.2542 85.9577L70.3455 86.1313L70.4386 86.305L70.5335 86.4787L70.6302 86.6524L70.7287 86.8262L70.829 86.9999L70.9311 87.1736L71.035 87.3473L71.1407 87.5208L71.2483 87.6943L71.3577 87.8677L71.4689 88.0409L71.582 88.2139L71.6968 88.3868L71.8136 88.5594L71.9321 88.7318L72.0525 88.9039L72.1748 89.0758L72.2989 89.2474L72.4248 89.4186L72.5526 89.5895L72.6822 89.76L72.8137 89.9301L72.947 90.0999L73.0822 90.2691L73.2192 90.4379L73.3581 90.6063L73.4988 90.7741L73.6413 90.9414L73.7857 91.1081L73.9319 91.2743L74.08 91.4398L74.2299 91.6048L74.3816 91.7691L74.5351 91.9327L74.6905 92.0956L74.8477 92.2578L75.0067 92.4193L75.1675 92.58L75.3302 92.74L75.4946 92.8991L75.6608 93.0574L75.8289 93.2149L75.9987 93.3715L76.1703 93.5272L76.3437 93.6819L76.5188 93.8358L76.6957 93.9886L76.8744 94.1405L77.0548 94.2914L77.237 94.4412L77.4209 94.59L77.6065 94.7378L77.7938 94.8844L77.9829 95.0299L78.1736 95.1742L78.3661 95.3175L78.5602 95.4595L78.756 95.6003L78.9535 95.7399L79.1526 95.8782L79.3533 96.0153L79.5557 96.151L79.7597 96.2855L79.9654 96.4186L80.1726 96.5504L80.3814 96.6808L80.5918 96.8098L80.8038 96.9373L81.0173 97.0635L81.2323 97.1882L81.4489 97.3114L81.667 97.4331L81.8866 97.5532L82.1077 97.6719L82.3302 97.789L82.5542 97.9045L82.7797 98.0184L83.0066 98.1307L83.2349 98.2413L83.4646 98.3503L83.6957 98.4576L83.9281 98.5633L84.162 98.6672L84.3971 98.7694L84.6336 98.8698L84.8714 98.9685L85.1105 99.0654L85.3508 99.1604L85.5924 99.2537L85.8353 99.3451L86.0794 99.4347L86.3246 99.5224L86.5711 99.6082L86.8187 99.6921L87.0675 99.7741L87.3174 99.8541L87.5684 99.9322L87.8206 100.008L88.0738 100.082L88.328 100.155L88.5833 100.225L88.8396 100.293L89.0969 100.359L89.3552 100.423L89.6144 100.485L89.8746 100.544L90.1357 100.602L90.3977 100.658L90.6606 100.711L90.9243 100.762L91.1889 100.812L91.4542 100.859L91.7204 100.903L91.9873 100.946L92.255 100.986L92.5234 101.025L92.7925 101.06L93.0622 101.094L93.3327 101.126L93.6038 101.155L93.8754 101.182L94.1477 101.206L94.4206 101.228L94.6939 101.248L94.9678 101.266L95.2422 101.281L95.5171 101.294L95.7924 101.305L96.0682 101.313L96.3444 101.319L96.6209 101.323L96.8978 101.324L97.175 101.323L97.4525 101.319L97.7303 101.313L98.0084 101.305L98.2867 101.294L98.5652 101.281L98.8438 101.265L99.1227 101.247L99.4017 101.227L99.6807 101.204L99.9599 101.178L100.239 101.15L100.518 101.12L100.798 101.087L101.077 101.052L101.356 101.014L101.635 100.974L101.914 100.931L102.193 100.886L102.472 100.838L102.751 100.788L103.029 100.736L103.307 100.68L103.585 100.623L103.863 100.563L104.14 100.5L104.417 100.435L104.694 100.367L104.97 100.297L105.246 100.225L105.521 100.15L105.796 100.072L106.071 99.992L106.345 99.9095L106.618 99.8245L106.891 99.737L107.164 99.647L107.435 99.5545L107.706 99.4595L107.977 99.3621L108.246 99.2622L108.515 99.1599L108.784 99.055L109.051 98.9477L109.318 98.838L109.584 98.7258L109.849 98.6112L110.113 98.4941L110.376 98.3746L110.639 98.2527L110.9 98.1283L111.16 98.0016L111.42 97.8724L111.678 97.7408L111.936 97.6069L112.192 97.4705L112.447 97.3318L112.701 97.1907L112.954 97.0473L113.206 96.9015L113.456 96.7533L113.706 96.6028L113.954 96.45L114.201 96.2949L114.446 96.1375L114.69 95.9778L114.933 95.8158L115.174 95.6516L115.415 95.485L115.653 95.3163L115.89 95.1453L116.126 94.972L116.36 94.7966L116.593 94.619L116.824 94.4391L117.054 94.2571L117.282 94.073L117.508 93.8867L117.733 93.6983L117.956 93.5077L118.178 93.3151L118.398 93.1203L118.616 92.9235L118.832 92.7246L119.047 92.5237L119.259 92.3208L119.47 92.1158L119.68 91.9089L119.887 91.7L120.092 91.4891L120.296 91.2762L120.498 91.0615L120.697 90.8448L120.895 90.6262L121.091 90.4058L121.285 90.1835L121.476 89.9594L121.666 89.7334L121.854 89.5056L122.039 89.2761L122.223 89.0448L122.404 88.8117L122.584 88.5769L122.761 88.3404L122.936 88.1022L123.109 87.8624L123.279 87.6209L123.448 87.3778L123.614 87.1331L123.778 86.8868L123.94 86.6389L124.099 86.3895L124.256 86.1386L124.411 85.8861L124.563 85.6322L124.713 85.3769L124.861 85.1201L125.006 84.8619L125.149 84.6023L125.29 84.3413L125.428 84.0791L125.564 83.8154L125.697 83.5505L125.828 83.2844L125.956 83.0169L126.082 82.7483L126.205 82.4784L126.326 82.2074L126.444 81.9352L126.56 81.6619L126.673 81.3874L126.783 81.1119L126.891 80.8354L126.997 80.5578L127.1 80.2792L127.2 79.9996L127.297 79.7191L127.392 79.4376L127.485 79.1553L127.574 78.872L127.661 78.5879L127.746 78.303L127.827 78.0172L127.906 77.7307L127.982 77.4434L128.056 77.1554L128.127 76.8668L128.195 76.5774L128.26 76.2874L128.323 75.9967L128.383 75.7055L128.44 75.4137L128.494 75.1214L128.546 74.8285L128.595 74.5352L128.641 74.2414L128.685 73.9472L128.725 73.6525L128.763 73.3575L128.798 73.0621L128.83 72.7664L128.86 72.4704L128.886 72.1742L128.91 71.8777L128.931 71.5809L128.949 71.284L128.965 70.9869L128.978 70.6897L128.987 70.3923L128.994 70.0949L128.999 69.7975L129 69.5L128.999 69.2289L128.995 68.9314L128.988 68.634L128.979 68.3367L128.966 68.0394L128.951 67.7423L128.933 67.4454L128.912 67.1486L128.889 66.8521L128.862 66.5558L128.833 66.2598L128.801 65.9641L128.766 65.6686L128.729 65.3736L128.688 65.0789L128.645 64.7846L128.599 64.4908L128.551 64.1974L128.499 63.9045L128.445 63.6122L128.388 63.3203L128.328 63.029L128.266 62.7383L128.201 62.4483L128.133 62.1589L128.062 61.8701L127.989 61.582L127.913 61.2947L127.834 61.0081L127.753 60.7223L127.669 60.4373L127.582 60.1531L127.493 59.8698L127.401 59.5874L127.306 59.3058L127.209 59.0252L127.109 58.7455L127.006 58.4668L126.901 58.1892L126.793 57.9125L126.683 57.6369L126.57 57.3624L126.454 57.089L126.336 56.8167L126.216 56.5456L126.093 56.2756L125.967 56.0068L125.839 55.7393L125.709 55.473L125.576 55.208L125.44 54.9442L125.302 54.6818L125.162 54.4208L125.019 54.161L124.874 53.9027L124.727 53.6458L124.577 53.3903L124.424 53.1363L124.27 52.8837L124.113 52.6327L123.954 52.3831L123.792 52.1351L123.629 51.8887L123.463 51.6438L123.294 51.4006L123.124 51.1589L122.951 50.9189L122.777 50.6806L122.6 50.444L122.42 50.209L122.239 49.9758L122.056 49.7443L121.87 49.5146L121.683 49.2867L121.493 49.0606L121.302 48.8363L121.108 48.6138L120.912 48.3932L120.715 48.1745L120.515 47.9576L120.314 47.7427L120.11 47.5297L119.905 47.3186L119.698 47.1095L119.489 46.9024L119.278 46.6973L119.066 46.4941L118.851 46.293L118.635 46.094L118.417 45.897L118.197 45.7021L117.976 45.5092L117.753 45.3185L117.528 45.1299L117.302 44.9434L117.074 44.7591L116.845 44.5769L116.614 44.3969L116.381 44.219L116.147 44.0434L115.911 43.87L115.674 43.6988L115.436 43.5298L115.196 43.3631L114.955 43.1986L114.712 43.0364L114.468 42.8765L114.222 42.7189L113.976 42.5636L113.728 42.4106L113.479 42.2599L113.228 42.1115L112.977 41.9655L112.724 41.8219L112.47 41.6806L112.215 41.5416L111.958 41.4051L111.701 41.2709L111.443 41.1391L111.184 41.0097L110.923 40.8828L110.662 40.7582L110.4 40.636L110.136 40.5163L109.872 40.399L109.607 40.2842L109.342 40.1718L109.075 40.0618L108.808 39.9543L108.539 39.8493L108.27 39.7467L108.001 39.6466L107.73 39.5489L107.459 39.4538L107.188 39.3611L106.915 39.2709L106.643 39.1831L106.369 39.0979L106.095 39.0151L105.821 38.9349L105.546 38.8571L105.27 38.7818L104.995 38.709L104.718 38.6387L104.442 38.5709L104.165 38.5056L103.887 38.4427L103.61 38.3824L103.332 38.3246L103.054 38.2692L102.775 38.2163L102.497 38.166L102.218 38.1181L101.939 38.0727L101.66 38.0297L101.381 37.9893L101.102 37.9513L100.822 37.9158L100.543 37.8828L100.264 37.8522L99.9847 37.8241L99.7055 37.7985L99.4264 37.7753L99.1475 37.7545L98.8686 37.7362L98.5899 37.7203L98.3114 37.7068L98.0331 37.6958L97.755 37.6872L97.4772 37.681L97.1996 37.6772L96.9224 37.6758L96.6455 37.6768L96.3689 37.6801L96.0927 37.6859L95.8169 37.6939L95.5416 37.7044L95.2666 37.7172L94.9922 37.7323L94.7182 37.7498L94.4448 37.7696L94.1719 37.7917L93.8996 37.8161L93.6279 37.8427L93.3567 37.8717L93.0862 37.9029L92.8164 37.9364L92.5472 37.9721L92.2788 38.0101L92.011 38.0503L91.744 38.0927L91.4778 38.1373L91.2124 38.1841L90.9478 38.233L90.684 38.2841L90.421 38.3374L90.159 38.3928L89.8978 38.4503L89.6375 38.5099L89.3782 38.5716L89.1198 38.6354L88.8624 38.7012L88.606 38.7691L88.3506 38.8391L88.0963 38.911L87.843 38.985L87.5908 39.0609L87.3397 39.1388L87.0897 39.2187L86.8408 39.3005L86.593 39.3842L86.3465 39.4698L86.1011 39.5574L85.8569 39.6468L85.614 39.738L85.3722 39.8311L85.1318 39.9261L84.8926 40.0228L84.6547 40.1213L84.4181 40.2216L84.1828 40.3236L83.9489 40.4274L83.7163 40.5328L83.4851 40.64L83.2552 40.7489L83.0268 40.8594L82.7998 40.9715L82.5742 41.0853L82.3501 41.2006L82.1274 41.3176L81.9062 41.4361L81.6864 41.5561L81.4682 41.6777L81.2515 41.8008L81.0363 41.9253L80.8227 42.0513L80.6106 42.1788L80.4 42.3077L80.1911 42.4379L79.9837 42.5696L79.7779 42.7026L79.5738 42.8369L79.3712 42.9726L79.1703 43.1095L78.9711 43.2477L78.7735 43.3872L78.5775 43.5279L78.3832 43.6698L78.1907 43.8129L77.9997 43.9572L77.8105 44.1026L77.6231 44.2491L77.4373 44.3967L77.2532 44.5454L77.0709 44.6952L76.8904 44.846L76.7115 44.9978L76.5345 45.1505L76.3592 45.3043L76.1856 45.459L76.0139 45.6146L75.8439 45.7711L75.6757 45.9285L75.5093 46.0867L75.3447 46.2458L75.1819 46.4057L75.0209 46.5663L74.8617 46.7277L74.7044 46.8899L74.5489 47.0528L74.3951 47.2163L74.2433 47.3806L74.0932 47.5454L73.945 47.7109L73.7986 47.877L73.654 48.0437L73.5113 48.211L73.3705 48.3787L73.2314 48.547L73.0943 48.7158L72.9589 48.885L72.8255 49.0547L72.6938 49.2248L72.564 49.3953L72.4361 49.5661L72.31 49.7373L72.1857 49.9089L72.0633 50.0807L71.9427 50.2528L71.824 50.4252L71.7071 50.5978L71.5921 50.7707L71.4789 50.9437L71.3675 51.1169L71.2579 51.2902L71.1502 51.4637L71.0443 51.6372L70.9402 51.8109L70.838 51.9846L70.7375 52.1583L70.6389 52.3321L70.542 52.5058L70.447 52.6795L70.3537 52.8532L70.2623 53.0268L70.1726 53.2003L70.0847 53.3737L69.9985 53.5469L69.9142 53.72L69.8316 53.8929L69.7507 54.0656L69.6716 54.2381L69.5942 54.4103L69.5185 54.5823L69.4446 54.754L69.3723 54.9253L69.3018 55.0964L69.233 55.2671L69.1658 55.4375L69.1003 55.6074L69.0365 55.777L68.9744 55.9461L68.9139 56.1148L68.855 56.283L68.7978 56.4508L68.7422 56.618L68.6882 56.7847L68.6358 56.9509L68.5849 57.1165L68.5357 57.2816L68.488 57.446L68.4419 57.6098L68.3973 57.773L68.3542 57.9356L68.3126 58.0975L68.2726 58.2587L68.234 58.4192L68.1969 58.5789L68.1613 58.738L68.1271 58.8963L68.0943 59.0538L68.063 59.2105L68.0331 59.3664L68.0046 59.5215L67.9774 59.6758L67.9517 59.8292L67.9272 59.9817L67.9041 60.1334L67.8824 60.2842L67.8619 60.434L67.8427 60.583L67.8248 60.731L67.8082 60.878L67.7928 61.0241L67.7786 61.1691L67.7657 61.3132L67.7539 61.4563L67.7433 61.5984L67.7339 61.7394L67.7257 61.8793L67.7185 62.0182L67.7125 62.1561L67.7076 62.2928L67.7037 62.4284L67.7009 62.563L67.6991 62.6964L67.6984 62.8286L67.6987 62.9598L67.7 63.0897L67.7022 63.2185L67.7054 63.3462L67.7095 63.4726L67.7146 63.5979L67.7205 63.7219L67.7273 63.8447L67.735 63.9663L67.7435 64.0867L67.7529 64.2058L67.763 64.3237L67.774 64.4403L67.7857 64.5557L67.7981 64.6698L67.8113 64.7826L67.8252 64.8941L67.8398 65.0043L67.855 65.1132L67.8709 65.2208L67.8875 65.3271L67.9046 65.4321L67.9223 65.5357L67.9406 65.638L67.9595 65.739L67.9789 65.8386L67.9988 65.9369L68.0192 66.0338L68.04 66.1294L68.0613 66.2236L68.0831 66.3165L68.1052 66.408L68.1278 66.4981L68.1507 66.5869L68.174 66.6743L68.1976 66.7603L68.2215 66.8449L68.2457 66.9281L68.2702 67.01L68.2949 67.0905L68.3199 67.1696L68.345 67.2473L68.3704 67.3236L68.3959 67.3985L68.4216 67.4721L68.4474 67.5443L68.4733 67.615L68.4993 67.6844L68.5254 67.7525L68.5515 67.8191L68.5776 67.8843L68.6038 67.9482L68.6299 68.0107L68.656 68.0718L68.6821 68.1316L68.7081 68.19L68.7339 68.247L68.7597 68.3027L68.7854 68.357L68.8109 68.4099L68.8362 68.4615L68.8613 68.5118L68.8863 68.5607L68.911 68.6082L68.9354 68.6545L68.9596 68.6994L68.9835 68.743L69.0071 68.7852L69.0303 68.8262L69.0533 68.8659L69.0758 68.9042L69.098 68.9413L69.1198 68.9771L69.1411 69.0116L69.1621 69.0449L69.1825 69.0769L69.2025 69.1076L69.222 69.1371L69.241 69.1654L69.2595 69.1924L69.2774 69.2183L69.2947 69.2429L69.3115 69.2663L69.3277 69.2885L69.3433 69.3096L69.3582 69.3294L69.3725 69.3482L69.3861 69.3657L69.399 69.3822L69.4112 69.3975L69.4227 69.4116L69.4335 69.4247L69.4435 69.4367L69.4528 69.4476L69.4613 69.4575L69.469 69.4662L69.4758 69.474L69.4819 69.4807L69.4871 69.4864L69.4914 69.491L69.4949 69.4947L69.4975 69.4974L69.4987 69.4987M69.5014 69.5013L69.5002 69.5002M69.5014 69.5013L69.5024 69.5024L69.505 69.5051L69.5084 69.5087L69.5127 69.5134L69.5179 69.519L69.5239 69.5256L69.5307 69.5333L69.5384 69.5421L69.5468 69.5519L69.556 69.5627L69.566 69.5747L69.5768 69.5877L69.5883 69.6018L69.6005 69.6171L69.6133 69.6335L69.6269 69.651L69.6412 69.6696L69.6561 69.6895L69.6716 69.7105L69.6878 69.7326L69.7045 69.756L69.7218 69.7805L69.7397 69.8063L69.7582 69.8333L69.7771 69.8615L69.7966 69.891L69.8166 69.9216L69.837 69.9536L69.8579 69.9868L69.8793 70.0213L69.901 70.057L69.9232 70.094L69.9457 70.1323L69.9686 70.1719L69.9919 70.2128L70.0155 70.2551L70.0393 70.2986L70.0635 70.3434L70.0879 70.3896L70.1126 70.4371L70.1376 70.486L70.1627 70.5362L70.188 70.5877L70.2135 70.6406L70.2391 70.6948L70.2649 70.7504L70.2908 70.8074L70.3168 70.8657L70.3428 70.9254L70.3689 70.9865L70.3951 71.0489L70.4212 71.1127L70.4474 71.1779L70.4735 71.2445L70.4995 71.3124L70.5256 71.3818L70.5515 71.4525L70.5773 71.5246L70.6029 71.5981L70.6285 71.673L70.6538 71.7492L70.679 71.8269L70.704 71.9059L70.7287 71.9863L70.7532 72.0681L70.7774 72.1513L70.8013 72.2359L70.825 72.3218L70.8483 72.4092L70.8712 72.4978L70.8938 72.5879L70.9159 72.6793L70.9377 72.7721L70.959 72.8663L70.9799 72.9618L71.0003 73.0587L71.0203 73.1569L71.0397 73.2565L71.0585 73.3574L71.0769 73.4597L71.0946 73.5632L71.1118 73.6682L71.1284 73.7744L71.1443 73.8819L71.1596 73.9908L71.1742 74.1009L71.1881 74.2124L71.2013 74.3251L71.2138 74.4391L71.2255 74.5545L71.2365 74.671L71.2467 74.7888L71.2561 74.9079L71.2646 75.0282L71.2724 75.1498L71.2792 75.2725L71.2852 75.3965L71.2903 75.5217L71.2945 75.6481L71.2977 75.7757L71.3 75.9044L71.3013 76.0344L71.3016 76.1655L71.3009 76.2977L71.2992 76.431L71.2965 76.5655L71.2926 76.7011L71.2878 76.8378L71.2818 76.9756L71.2747 77.1144L71.2665 77.2543L71.2571 77.3953L71.2466 77.5373L71.2349 77.6803L71.222 77.8244L71.2079 77.9694L71.1925 78.1154L71.1759 78.2624L71.1581 78.4104L71.139 78.5593L71.1186 78.7091L71.0969 78.8598L71.0738 79.0114L71.0495 79.1639L71.0237 79.3173L70.9967 79.4715L70.9682 79.6266L70.9384 79.7825L70.9071 79.9392L70.8744 80.0967L70.8403 80.2549L70.8047 80.4139L70.7677 80.5737L70.7292 80.7341L70.6892 80.8953L70.6477 81.0571L70.6047 81.2197L70.5602 81.3828L70.5141 81.5466L70.4665 81.7111L70.4173 81.8761L70.3665 82.0417L70.3142 82.2078L70.2602 82.3745L70.2047 82.5417L70.1475 82.7094L70.0887 82.8776L70.0283 83.0463L69.9662 83.2154L69.9025 83.385L69.8371 83.5549L69.77 83.7252L69.7013 83.8959L69.6308 84.067L69.5587 84.2384L69.4848 84.41L69.4092 84.582L69.3319 84.7542L69.2529 84.9267L69.1721 85.0994L69.0895 85.2723L69.0052 85.4453L68.9192 85.6186L68.8314 85.7919L68.7418 85.9654L68.6504 86.139L68.5572 86.3127L68.4622 86.4864L68.3655 86.6601L68.2669 86.8339L68.1665 87.0076L68.0644 87.1813L67.9604 87.355L67.8545 87.5285L67.7469 87.702L67.6374 87.8754L67.5261 88.0486L67.413 88.2216L67.298 88.3944L67.1812 88.5671L67.0626 88.7394L66.9421 88.9116L66.8198 89.0834L66.6956 89.255L66.5696 89.4262L66.4417 89.5971L66.312 89.7676L66.1804 89.9377L66.047 90.1074L65.9118 90.2766L65.7747 90.4454L65.6357 90.6137L65.495 90.7815L65.3523 90.9488L65.2079 91.1155L65.0616 91.2816L64.9134 91.4472L64.7635 91.6121L64.6116 91.7763L64.458 91.9399L64.3026 92.1028L64.1453 92.265L63.9862 92.4265L63.8253 92.5872L63.6626 92.7471L63.498 92.9062L63.3317 93.0644L63.1636 93.2219L62.9937 93.3784L62.822 93.5341L62.6486 93.6888L62.4734 93.8426L62.2964 93.9954L62.1176 94.1472L61.9371 94.2981L61.7549 94.4479L61.5709 94.5966L61.3852 94.7443L61.1978 94.8909L61.0087 95.0363L60.8179 95.1806L60.6254 95.3238L60.4312 95.4658L60.2353 95.6065L60.0377 95.746L59.8385 95.8843L59.6377 96.0213L59.4352 96.157L59.2312 96.2914L59.0255 96.4245L58.8182 96.5562L58.6093 96.6865L58.3988 96.8155L58.1868 96.943L57.9732 97.0691L57.7581 97.1937L57.5414 97.3168L57.3233 97.4384L57.1036 97.5585L56.8825 97.6771L56.6599 97.7941L56.4358 97.9096L56.2103 98.0234L55.9833 98.1356L55.7549 98.2462L55.5252 98.3551L55.294 98.4624L55.0615 98.5679L54.8276 98.6718L54.5924 98.7739L54.3559 98.8742L54.118 98.9728L53.8789 99.0696L53.6385 99.1646L53.3968 99.2578L53.1539 99.3492L52.9098 99.4386L52.6645 99.5262L52.4179 99.612L52.1703 99.6958L51.9214 99.7777L51.6715 99.8576L51.4204 99.9356L51.1682 100.012L50.915 100.086L50.6607 100.158L50.4053 100.228L50.149 100.296L49.8916 100.362L49.6333 100.426L49.374 100.487L49.1138 100.547L48.8527 100.605L48.5906 100.66L48.3277 100.714L48.064 100.765L47.7994 100.814L47.534 100.861L47.2678 100.905L47.0008 100.948L46.7331 100.988L46.4647 101.026L46.1956 101.062L45.9258 101.096L45.6553 101.127L45.3842 101.156L45.1125 101.183L44.8402 101.207L44.5673 101.229L44.2939 101.249L44.02 101.267L43.7456 101.282L43.4707 101.295L43.1953 101.306L42.9195 101.314L42.6434 101.32L42.3668 101.323L42.0899 101.324L41.8127 101.323L41.5352 101.319L41.2573 101.313L40.9793 101.305L40.701 101.294L40.4225 101.28L40.1438 101.265L39.8649 101.246L39.5859 101.226L39.3069 101.203L39.0277 101.177L38.7485 101.149L38.4692 101.119L38.19 101.086L37.9107 101.05L37.6315 101.012L37.3524 100.972L37.0734 100.929L36.7945 100.884L36.5157 100.836L36.2371 100.786L35.9587 100.733L35.6806 100.678L35.4027 100.62L35.125 100.56L34.8477 100.497L34.5707 100.432L34.294 100.364L34.0178 100.294L33.7419 100.221L33.4664 100.146L33.1915 100.069L32.917 99.9884L32.643 99.9058L32.3695 99.8206L32.0967 99.733L31.8244 99.6429L31.5527 99.5503L31.2816 99.4553L31.0112 99.3577L30.7415 99.2577L30.4726 99.1553L30.2043 99.0503L29.9369 98.9429L29.6702 98.8331L29.4044 98.7208L29.1394 98.606L28.8752 98.4889L28.612 98.3693L28.3497 98.2472L28.0884 98.1228L27.828 97.9959L27.5686 97.8666L27.3102 97.7349L27.0529 97.6009L26.7967 97.4644L26.5416 97.3256L26.2875 97.1844L26.0347 97.0408L25.783 96.8949L25.5325 96.7467L25.2833 96.5961L25.0353 96.4432L24.7885 96.288L24.5431 96.1305L24.299 95.9707L24.0562 95.8086L23.8148 95.6442L23.5748 95.4776L23.3363 95.3087L23.0991 95.1376L22.8635 94.9643L22.6293 94.7888L22.3966 94.611L22.1655 94.4311L21.936 94.249L21.708 94.0648L21.4816 93.8784L21.2569 93.6899L21.0338 93.4992L20.8124 93.3065L20.5926 93.1116L20.3746 92.9147L20.1584 92.7158L19.9439 92.5148L19.7312 92.3117L19.5203 92.1067L19.3112 91.8997L19.104 91.6907L18.8986 91.4797L18.6951 91.2667L18.4936 91.0519L18.2939 90.8351L18.0963 90.6165L17.9006 90.396L17.7069 90.1736L17.5152 89.9494L17.3255 89.7233L17.1379 89.4955L16.9523 89.2658L16.7689 89.0344L16.5875 88.8013L16.4083 88.5664L16.2312 88.3299L16.0563 88.0916L15.8836 87.8517L15.7131 87.6101L15.5447 87.367L15.3787 87.1222L15.2148 86.8758L15.0533 86.6279L14.894 86.3784L14.737 86.1274L14.5824 85.8749L14.43 85.6209L14.2801 85.3655L14.1324 85.1087L13.9872 84.8504L13.8444 84.5907L13.7039 84.3297L13.5659 84.0674L13.4304 83.8037L13.2972 83.5387L13.1666 83.2725L13.0384 83.005L12.9128 82.7363L12.7896 82.4664L12.6689 82.1953L12.5508 81.9231L12.4352 81.6497L12.3222 81.3752L12.2117 81.0997L12.1039 80.8231L11.9986 80.5454L11.8959 80.2668L11.7958 79.9872L11.6984 79.7066L11.6036 79.4251L11.5114 79.1427L11.4219 78.8594L11.335 78.5753L11.2508 78.2903L11.1693 78.0045L11.0905 77.718L11.0143 77.4307L10.9409 77.1426L10.8702 76.8539L10.8022 76.5645L10.7369 76.2745L10.6744 75.9838L10.6146 75.6926L10.5575 75.4008L10.5032 75.1084L10.4517 74.8155L10.4029 74.5222L10.3569 74.2283L10.3136 73.9341L10.2731 73.6394L10.2355 73.3444L10.2006 73.049L10.1684 72.7533L10.1391 72.4573L10.1126 72.161L10.0889 71.8645L10.0679 71.5677L10.0498 71.2708L10.0345 70.9737L10.022 70.6765L10.0123 70.3791L10.0054 70.0817L10.0013 69.7843L10 69.4868L10.0015 69.1893L10.0059 68.8918L10.013 68.5944L10.023 68.2971L10.0357 67.9998L10.0513 67.7028L10.0697 67.4058L10.0909 67.1091L10.1148 66.8126L10.1416 66.5163L10.1712 66.2204L10.2035 65.9247L10.2387 65.6293L10.2766 65.3343L10.3173 65.0397L10.3608 64.7455L10.4071 64.4517L10.4561 64.1584L10.5079 63.8656L10.5625 63.5732L10.6198 63.2815L10.6798 62.9903L10.7426 62.6997L10.8081 62.4097L10.8763 62.1203L10.9473 61.8317L11.021 61.5437L11.0973 61.2565L11.1764 60.97L11.2582 60.6843L11.3426 60.3994L11.4297 60.1153L11.5195 59.8321L11.6119 59.5498L11.7069 59.2684L11.8046 58.9879L11.9049 58.7083L12.0078 58.4298L12.1133 58.1522L12.2215 57.8757L12.3321 57.6003L12.4454 57.3259L12.5612 57.0526L12.6795 56.7805L12.8004 56.5095L12.9238 56.2397L13.0497 55.9711L13.1781 55.7037L13.309 55.4376L13.4423 55.1728L13.5781 54.9092L13.7163 54.647L13.857 54.3861L14 54.1266L14.1455 53.8684L14.2933 53.6117L14.4435 53.3564L14.596 53.1026L14.7509 52.8502L14.9081 52.5993L15.0675 52.35L15.2293 52.1022L15.3933 51.856L15.5596 51.6113L15.7281 51.3683L15.8988 51.1269L16.0718 50.8871L16.2469 50.649L16.4241 50.4126L16.6036 50.1779L16.7851 49.9449L16.9687 49.7136L17.1545 49.4842L17.3423 49.2565L17.5321 49.0306L17.724 48.8065L17.9179 48.5843L18.1137 48.364L18.3116 48.1455L18.5114 47.9289L18.7131 47.7142L18.9168 47.5015L19.1223 47.2906L19.3297 47.0818L19.5389 46.875L19.75 46.6701L19.9629 46.4672L20.1775 46.2664L20.3939 46.0676L20.6121 45.8709L20.832 45.6763L21.0535 45.4837L21.2768 45.2933L21.5016 45.1049L21.7282 44.9187L21.9563 44.7347L22.186 44.5528L22.4172 44.373L22.65 44.1955L22.8843 44.0202L23.1201 43.847L23.3574 43.6761L23.5961 43.5075L23.8362 43.341L24.0777 43.1769L24.3206 43.015L24.5648 42.8554L24.8104 42.6981L25.0572 42.5431L25.3054 42.3904L25.5547 42.24L25.8053 42.092L26.0571 41.9463L26.3101 41.8029L26.5642 41.6619L26.8194 41.5233L27.0757 41.3871L27.3331 41.2532L27.5916 41.1217L27.8511 40.9927L28.1115 40.866L28.373 40.7418L28.6354 40.62L28.8987 40.5006L29.1629 40.3836L29.428 40.2691L29.6939 40.157L29.9606 40.0474L30.2281 39.9402L30.4964 39.8355L30.7655 39.7332L31.0352 39.6334L31.3057 39.5361L31.5768 39.4413L31.8485 39.3489L32.1209 39.259L32.3938 39.1716L32.6673 39.0867L32.9413 39.0043L33.2159 38.9243L33.4909 38.8469L33.7664 38.7719L34.0423 38.6995L34.3186 38.6295L34.5953 38.562L34.8723 38.497L35.1497 38.4345L35.4273 38.3745L35.7053 38.317L35.9834 38.262L36.2619 38.2095L36.5405 38.1594L36.8192 38.1119L37.0982 38.0668L37.3772 38.0242L37.6563 37.9841L37.9355 37.9465L38.2148 37.9113L38.494 37.8786L38.7733 37.8483L39.0525 37.8206L39.3317 37.7952L39.6107 37.7724L39.8897 37.7519L40.1685 37.7339L40.4472 37.7184L40.7257 37.7052L41.004 37.6945L41.282 37.6862L41.5598 37.6803L41.8373 37.6769L42.1145 37.6758L42.3914 37.6771L42.6679 37.6807L42.9441 37.6868L43.2198 37.6952L43.4951 37.706L43.7699 37.7191L44.0443 37.7345L44.3182 37.7523L44.5916 37.7724L44.8644 37.7948L45.1366 37.8195L45.4083 37.8465L45.6793 37.8757L45.9497 37.9073L46.2195 37.941L46.4886 37.9771L46.7569 38.0153L47.0246 38.0558L47.2915 38.0985L47.5576 38.1434L47.8229 38.1905L48.0874 38.2397L48.3511 38.2911L48.6139 38.3446L48.8759 38.4003L49.1369 38.4581L49.3971 38.518L49.6563 38.58L49.9145 38.644L50.1718 38.7102L50.4281 38.7783L50.6833 38.8485L50.9375 38.9207L51.1907 38.995L51.4427 39.0712L51.6937 39.1493L51.9436 39.2295L52.1923 39.3115L52.4399 39.3955L52.6863 39.4814L52.9315 39.5692L53.1755 39.6588L53.4183 39.7503L53.6599 39.8437L53.9002 39.9388L54.1392 40.0358L54.3769 40.1345L54.6133 40.2351L54.8484 40.3373L55.0822 40.4413L55.3146 40.547L55.5456 40.6544L55.7753 40.7635L56.0035 40.8742L56.2304 40.9866L56.4557 41.1006L56.6797 41.2161L56.9022 41.3333L57.1232 41.452L57.3427 41.5722L57.5607 41.694L57.7773 41.8173L57.9922 41.942L58.2057 42.0682L58.4176 42.1959L58.6279 42.3249L58.8366 42.4554L59.0438 42.5872L59.2494 42.7204L59.4533 42.8549L59.6556 42.9907L59.8563 43.1279L60.0553 43.2662L60.2527 43.4059L60.4485 43.5467L60.6425 43.6888L60.8349 43.8321L61.0256 43.9765L61.2145 44.122L61.4018 44.2687L61.5873 44.4165L61.7712 44.5653L61.9532 44.7152L62.1336 44.8661L62.3122 45.0181L62.489 45.171L62.6641 45.3249L62.8374 45.4797L63.0089 45.6354L63.1786 45.792L63.3466 45.9495L63.5127 46.1079L63.6771 46.267L63.8396 46.427L64.0004 46.5878L64.1593 46.7493L64.3164 46.9115L64.4717 47.0745L64.6252 47.2382L64.7768 47.4025L64.9267 47.5675L65.0746 47.733L65.2208 47.8992L65.3651 48.066L65.5075 48.2333L65.6482 48.4011L65.7869 48.5695L65.9239 48.7383L66.0589 48.9076L66.1922 49.0773L66.3236 49.2475L66.4531 49.418L66.5808 49.5889L66.7067 49.7602L66.8307 49.9318L66.9529 50.1036L67.0732 50.2758L67.1917 50.4482L67.3083 50.6208L67.4231 50.7937L67.5361 50.9668L67.6472 51.14L67.7565 51.3133L67.864 51.4868L67.9697 51.6604L68.0735 51.834L68.1755 52.0077L68.2757 52.1815L68.3741 52.3552L68.4707 52.529L68.5655 52.7027L68.6586 52.8763L68.7498 53.0499L68.8392 53.2234L68.9269 53.3968L69.0128 53.57L69.0969 53.743L69.1793 53.9159L69.26 54.0886L69.3389 54.261L69.416 54.4332L69.4914 54.6052L69.5652 54.7768L69.6372 54.9482L69.7075 55.1192L69.7761 55.2898L69.843 55.4601L69.9082 55.63L69.9718 55.7995L70.0338 55.9686L70.094 56.1372L70.1527 56.3054L70.2097 56.4731L70.2651 56.6403L70.3189 56.8069L70.3711 56.973L70.4217 57.1385L70.4707 57.3035L70.5182 57.4679L70.5642 57.6316L70.6086 57.7947L70.6514 57.9572L70.6928 58.119L70.7327 58.2801L70.771 58.4405L70.8079 58.6002L70.8434 58.7591L70.8774 58.9173L70.9099 59.0747L70.9411 59.2313L70.9708 59.3871L70.9991 59.5421L71.0261 59.6963L71.0517 59.8496L71.0759 60.002L71.0988 60.1536L71.1204 60.3042L71.1407 60.4539L71.1597 60.6027L71.1775 60.7506L71.1939 60.8975L71.2092 61.0434L71.2232 61.1884L71.236 61.3324L71.2476 61.4753L71.258 61.6172L71.2672 61.7581L71.2754 61.8979L71.2824 62.0367L71.2882 62.1743L71.293 62.3109L71.2967 62.4464L71.2994 62.5808L71.301 62.7141L71.3016 62.8462L71.3012 62.9771L71.2998 63.107L71.2974 63.2356L71.2941 63.3631L71.2899 63.4894L71.2847 63.6145L71.2786 63.7383L71.2717 63.861L71.2639 63.9825L71.2553 64.1027L71.2458 64.2216L71.2356 64.3393L71.2245 64.4558L71.2127 64.571L71.2002 64.6849L71.1869 64.7975L71.1729 64.9088L71.1582 65.0189L71.1429 65.1276L71.1269 65.235L71.1103 65.3412L71.0931 65.4459L71.0753 65.5494L71.0569 65.6515L71.038 65.7523L71.0185 65.8518L70.9985 65.9499L70.9781 66.0467L70.9572 66.1421L70.9358 66.2361L70.914 66.3288L70.8918 66.4201L70.8692 66.51L70.8462 66.5986L70.8229 66.6858L70.7992 66.7716L70.7753 66.8561L70.751 66.9391L70.7265 67.0208L70.7018 67.1011L70.6768 67.18L70.6516 67.2575L70.6262 67.3337L70.6007 67.4084L70.575 67.4818L70.5492 67.5538L70.5232 67.6244L70.4972 67.6936L70.4712 67.7614L70.445 67.8279L70.4189 67.8929L70.3927 67.9566L70.3666 68.0189L70.3405 68.0799L70.3145 68.1395L70.2885 68.1977L70.2626 68.2545L70.2369 68.31L70.2112 68.3641L70.1857 68.4169L70.1604 68.4683L70.1353 68.5183L70.1104 68.5671L70.0858 68.6145L70.0614 68.6605L70.0372 68.7053L70.0134 68.7487L69.9898 68.7908L69.9666 68.8316L69.9437 68.8711L69.9212 68.9093L69.8991 68.9462L69.8773 68.9818L69.856 69.0162L69.8352 69.0492L69.8148 69.0811L69.7949 69.1116L69.7754 69.141L69.7565 69.1691L69.7381 69.196L69.7203 69.2216L69.703 69.2461L69.6863 69.2693L69.6702 69.2914L69.6547 69.3123L69.6399 69.332L69.6257 69.3506L69.6122 69.368L69.5993 69.3843L69.5872 69.3994L69.5758 69.4134L69.5651 69.4264L69.5552 69.4382L69.546 69.449L69.5376 69.4587L69.5301 69.4673L69.5233 69.4749L69.5174 69.4815L69.5123 69.487L69.5081 69.4916L69.5047 69.4951L69.5022 69.4977L69.5007 69.4993M69.5002 69.5002L69.5007 69.4993M69.5002 69.5002L69.4987 69.4987M69.5007 69.4993L69.5015 69.4985L69.5037 69.4963L69.5069 69.4933L69.5111 69.4894L69.5162 69.4847L69.5224 69.4791L69.5296 69.4726L69.5378 69.4654L69.5471 69.4573L69.5574 69.4484L69.5688 69.4388L69.5814 69.4284L69.595 69.4173L69.6097 69.4054L69.6255 69.3929L69.6425 69.3796L69.6606 69.3657L69.6799 69.3511L69.7003 69.3359L69.7219 69.32L69.7447 69.3035L69.7687 69.2865L69.7939 69.2689L69.8203 69.2507L69.8479 69.232L69.8768 69.2127L69.9069 69.193L69.9382 69.1728L69.9708 69.1521L70.0047 69.131L70.0398 69.1094L70.0762 69.0874L70.1139 69.0651L70.1529 69.0423L70.1932 69.0192L70.2348 68.9958L70.2777 68.9721L70.3219 68.948L70.3674 68.9237L70.4143 68.8992L70.4625 68.8743L70.5121 68.8493L70.5629 68.8241L70.6152 68.7987L70.6688 68.7731L70.7237 68.7474L70.78 68.7215L70.8377 68.6956L70.8967 68.6696L70.9572 68.6435L71.0189 68.6174L71.0821 68.5912L71.1466 68.5651L71.2125 68.539L71.2798 68.5129L71.3485 68.4868L71.4186 68.4609L71.49 68.435L71.5628 68.4093L71.6371 68.3837L71.7127 68.3582L71.7896 68.333L71.868 68.3079L71.9478 68.283L72.0289 68.2584L72.1114 68.2341L72.1953 68.21L72.2806 68.1862L72.3673 68.1628L72.4553 68.1397L72.5447 68.1169L72.6355 68.0946L72.7276 68.0726L72.8212 68.0511L72.916 68.03L73.0123 68.0093L73.1098 67.9892L73.2088 67.9695L73.309 67.9504L73.4107 67.9318L73.5136 67.9137L73.6179 67.8963L73.7235 67.8794L73.8304 67.8632L73.9386 67.8476L74.0481 67.8327L74.159 67.8184L74.2711 67.8049L74.3845 67.792L74.4992 67.7799L74.6152 67.7686L74.7324 67.758L74.8509 67.7483L74.9706 67.7393L75.0915 67.7312L75.2137 67.7239L75.3371 67.7175L75.4618 67.712L75.5876 67.7074L75.7146 67.7037L75.8428 67.701L75.9722 67.6992L76.1027 67.6984L76.2344 67.6986L76.3672 67.6998L76.5011 67.7021L76.6362 67.7054L76.7723 67.7097L76.9096 67.7152L77.0479 67.7217L77.1873 67.7294L77.3278 67.7382L77.4693 67.7482L77.6119 67.7594L77.7554 67.7717L77.9 67.7852L78.0455 67.8L78.1921 67.8159L78.3396 67.8332L78.488 67.8517L78.6374 67.8715L78.7877 67.8926L78.9389 67.915L79.091 67.9387L79.2439 67.9638L79.3977 67.9902L79.5524 68.018L79.7079 68.0472L79.8642 68.0778L80.0213 68.1098L80.1792 68.1432L80.3378 68.1781L80.4972 68.2144L80.6573 68.2522L80.8182 68.2915L80.9797 68.3323L81.1419 68.3745L81.3048 68.4183L81.4683 68.4637L81.6324 68.5106L81.7971 68.559L81.9624 68.609L82.1283 68.6606L82.2948 68.7138L82.4617 68.7685L82.6292 68.8249L82.7972 68.8829L82.9656 68.9426L83.1345 69.0039L83.3039 69.0668L83.4736 69.1314L83.6438 69.1977L83.8143 69.2656L83.9852 69.3353L84.1564 69.4066L84.3279 69.4796L84.4998 69.5544L84.6719 69.6309L84.8442 69.7091L85.0168 69.7891L85.1896 69.8708L85.3626 69.9542L85.5357 70.0394L85.7091 70.1264L85.8825 70.2152L86.056 70.3057L86.2296 70.398L86.4033 70.4921L86.5771 70.588L86.7508 70.6857L86.9246 70.7853L87.0983 70.8866L87.272 70.9897L87.4456 71.0947L87.6191 71.2014L87.7925 71.31L87.9658 71.4205L88.1389 71.5327L88.3118 71.6468L88.4845 71.7627L88.6571 71.8805L88.8293 72.0001L89.0013 72.1215L89.173 72.2448L89.3444 72.37L89.5154 72.497L89.6861 72.6258L89.8564 72.7565L90.0263 72.889L90.1958 73.0234L90.3648 73.1596L90.5333 73.2976L90.7013 73.4375L90.8689 73.5793L91.0358 73.7229L91.2022 73.8683L91.3681 74.0156L91.5333 74.1647L91.6979 74.3156L91.8618 74.4683L92.025 74.6229L92.1875 74.7793L92.3493 74.9376L92.5104 75.0976L92.6707 75.2595L92.8302 75.4231L92.9888 75.5886L93.1467 75.7558L93.3036 75.9249L93.4597 76.0957L93.6149 76.2683L93.7691 76.4427L93.9224 76.6188L94.0747 76.7968L94.2261 76.9764L94.3763 77.1578L94.5256 77.341L94.6738 77.5258L94.8209 77.7124L94.9669 77.9007L95.1117 78.0908L95.2554 78.2825L95.398 78.4759L95.5393 78.6709L95.6794 78.8677L95.8183 79.0661L95.9559 79.2661L96.0923 79.4678L96.2273 79.6711L96.361 79.8761L96.4933 80.0826L96.6243 80.2907L96.7539 80.5005L96.8821 80.7117L97.0089 80.9246L97.1342 81.139L97.258 81.3549L97.3804 81.5723L97.5013 81.7913L97.6206 82.0117L97.7383 82.2336L97.8545 82.457L97.9691 82.6818L98.0821 82.9081L98.1935 83.1358L98.3032 83.3649L98.4112 83.5954L98.5176 83.8273L98.6223 84.0605L98.7252 84.2951L98.8264 84.531L98.9258 84.7682L99.0235 85.0067L99.1193 85.2466L99.2134 85.4876L99.3056 85.7299L99.396 85.9735L99.4845 86.2182L99.5711 86.4642L99.6559 86.7113L99.7387 86.9596L99.8196 87.209L99.8985 87.4596L99.9755 87.7112L100.05 87.964L100.123 88.2178L100.194 88.4726L100.263 88.7285L100.33 88.9853L100.395 89.2432L100.458 89.502L100.519 89.7618L100.577 90.0225L100.634 90.2841L100.688 90.5466L100.74 90.81L100.79 91.0742L100.838 91.3392L100.884 91.605L100.928 91.8716L100.969 92.139L101.008 92.407L101.045 92.6758L101.08 92.9453L101.112 93.2155L101.142 93.4863L101.17 93.7577L101.196 94.0297L101.219 94.3023L101.24 94.5755L101.259 94.8492L101.275 95.1234L101.289 95.398L101.301 95.6732L101.31 95.9487L101.317 96.2247L101.322 96.5011L101.324 96.7778L101.324 97.0549L101.321 97.3323L101.316 97.61L101.309 97.8879L101.299 98.1661L101.287 98.4445L101.272 98.7232L101.255 99.0019L101.236 99.2809L101.214 99.5599L101.189 99.839L101.163 100.118L101.133 100.397L101.102 100.677L101.067 100.956L101.031 101.235L100.992 101.514L100.95 101.793L100.906 102.072L100.859 102.351L100.81 102.63L100.759 102.908L100.704 103.187L100.648 103.465L100.589 103.743L100.527 104.02L100.463 104.297L100.397 104.574L100.328 104.85L100.256 105.126L100.182 105.402L100.106 105.677L100.027 105.952L99.9455 106.226L99.8615 106.5L99.7751 106.773L99.6862 107.046L99.5948 107.318L99.5009 107.589L99.4045 107.86L99.3057 108.13L99.2044 108.399L99.1007 108.668L98.9944 108.936L98.8858 109.203L98.7746 109.469L98.6611 109.734L98.5451 109.999L98.4266 110.262L98.3057 110.525L98.1824 110.787L98.0567 111.048L97.9286 111.308L97.798 111.567L97.6651 111.824L97.5298 112.081L97.3921 112.337L97.252 112.591L97.1096 112.845L96.9648 113.097L96.8177 113.348L96.6682 113.598L96.5164 113.847L96.3623 114.094L96.2059 114.34L96.0472 114.585L95.8862 114.828L95.7229 115.07L95.5574 115.311L95.3896 115.55L95.2196 115.788L95.0473 116.024L94.8728 116.259L94.6961 116.493L94.5173 116.724L94.3362 116.955L94.153 117.183L93.9676 117.411L93.7801 117.636L93.5905 117.86L93.3987 118.082L93.2049 118.303L93.009 118.522L92.811 118.739L92.611 118.954L92.4089 119.168L92.2048 119.379L91.9987 119.589L91.7907 119.797L91.5806 120.004L91.3687 120.208L91.1547 120.411L90.9389 120.611L90.7211 120.81L90.5015 121.006L90.28 121.201L90.0566 121.394L89.8315 121.584L89.6045 121.773L89.3757 121.959L89.1452 122.144L88.9128 122.326L88.6788 122.507L88.4431 122.685L88.2056 122.861L87.9665 123.034L87.7257 123.206L87.4833 123.375L87.2393 123.542L86.9937 123.707L86.7465 123.87L86.4977 124.03L86.2475 124.188L85.9957 124.344L85.7424 124.498L85.4877 124.649L85.2315 124.798L84.9739 124.944L84.7149 125.088L84.4546 125.23L84.1928 125.369L83.9298 125.505L83.6655 125.64L83.3998 125.772L83.1329 125.901L82.8648 126.028L82.5955 126.152L82.325 126.274L82.0533 126.393L81.7804 126.51L81.5065 126.624L81.2315 126.736L80.9553 126.845L80.6782 126.952L80.4 127.056L80.1209 127.157L79.8408 127.256L79.5597 127.352L79.2777 127.445L78.9949 127.536L78.7111 127.624L78.4265 127.71L78.1411 127.792L77.855 127.872L77.568 127.95L77.2803 128.025L76.992 128.097L76.7029 128.166L76.4131 128.232L76.1228 128.296L75.8318 128.357L75.5403 128.416L75.2482 128.471L74.9555 128.524L74.6624 128.574L74.3688 128.622L74.0748 128.666L73.7803 128.708L73.4854 128.747L73.1902 128.783L72.8946 128.817L72.5988 128.847L72.3026 128.875L72.0062 128.9L71.7096 128.923L71.4127 128.942L71.1157 128.959L70.8185 128.973L70.5212 128.984L70.2239 128.992L69.9264 128.997L69.6289 129L69.3314 129L69.034 128.997L68.7365 128.991L68.4391 128.982L68.1419 128.971L67.8447 128.957L67.5477 128.94L67.2509 128.92L66.9543 128.897L66.6579 128.872L66.3618 128.844L66.066 128.813L65.7704 128.779L65.4753 128.742L65.1805 128.703L64.8861 128.661L64.5921 128.616L64.2985 128.568L64.0055 128.517L63.7129 128.464L63.4209 128.408L63.1294 128.349L62.8385 128.288L62.5482 128.224L62.2586 128.157L61.9696 128.087L61.6813 128.015L61.3937 127.94L61.1069 127.862L60.8208 127.781L60.5355 127.698L60.251 127.612L59.9674 127.524L59.6847 127.433L59.4028 127.339L59.1219 127.243L58.8419 127.144L58.5628 127.042L58.2848 126.938L58.0078 126.831L57.7318 126.721L57.457 126.609L57.1832 126.495L56.9105 126.378L56.6389 126.258L56.3686 126.136L56.0994 126.011L55.8314 125.884L55.5647 125.754L55.2992 125.622L55.0351 125.487L54.7722 125.35L54.5107 125.211L54.2505 125.069L53.9917 124.925L53.7343 124.778L53.4783 124.629L53.2238 124.477L52.9707 124.324L52.7191 124.168L52.4691 124.009L52.2205 123.849L51.9735 123.686L51.7281 123.52L51.4843 123.353L51.2421 123.183L51.0016 123.011L50.7627 122.837L50.5254 122.661L50.2899 122.483L50.0561 122.302L49.824 122.119L49.5937 121.935L49.3652 121.748L49.1384 121.559L48.9135 121.368L48.6904 121.175L48.4691 120.98L48.2498 120.783L48.0323 120.585L47.8167 120.384L47.603 120.181L47.3913 119.976L47.1815 119.77L46.9737 119.561L46.7679 119.351L46.564 119.139L46.3623 118.925L46.1625 118.71L45.9648 118.493L45.7691 118.274L45.5756 118.053L45.3841 117.83L45.1948 117.606L45.0076 117.38L44.8225 117.153L44.6395 116.924L44.4588 116.694L44.2802 116.462L44.1038 116.228L43.9296 115.993L43.7577 115.756L43.5879 115.518L43.4204 115.279L43.2552 115.038L43.0922 114.796L42.9315 114.552L42.7731 114.307L42.617 114.061L42.4632 113.814L42.3117 113.565L42.1626 113.315L42.0157 113.064L41.8713 112.811L41.7292 112.558L41.5894 112.303L41.452 112.047L41.317 111.79L41.1844 111.532L41.0542 111.273L40.9264 111.013L40.801 110.752L40.678 110.49L40.5575 110.227L40.4394 109.964L40.3237 109.699L40.2104 109.433L40.0996 109.167L39.9913 108.9L39.8854 108.632L39.7819 108.363L39.681 108.094L39.5825 107.824L39.4865 107.553L39.3929 107.282L39.3018 107.009L39.2133 106.737L39.1272 106.464L39.0435 106.19L38.9624 105.916L38.8838 105.641L38.8076 105.365L38.734 105.09L38.6628 104.814L38.5941 104.537L38.528 104.26L38.4643 103.983L38.4031 103.705L38.3444 103.428L38.2882 103.15L38.2345 102.871L38.1832 102.593L38.1345 102.314L38.0882 102.035L38.0444 101.756L38.0031 101.477L37.9643 101.198L37.928 100.919L37.8941 100.64L37.8627 100.36L37.8337 100.081L37.8072 99.8018L37.7832 99.5227L37.7616 99.2437L37.7424 98.9648L37.7257 98.686L37.7114 98.4074L37.6995 98.1291L37.6901 97.8509L37.683 97.573L37.6784 97.2953L37.6762 97.018L37.6763 96.7409L37.6789 96.4643L37.6838 96.1879L37.6911 95.912L37.7007 95.6365L37.7127 95.3614L37.727 95.0868L37.7437 94.8127L37.7627 94.5391L37.784 94.266L37.8076 93.9935L37.8335 93.7215L37.8617 93.4502L37.8921 93.1795L37.9248 92.9094L37.9598 92.64L37.997 92.3713L38.0364 92.1033L38.078 91.836L38.1218 91.5695L38.1679 91.3038L38.2161 91.0389L38.2664 90.7748L38.319 90.5116L38.3736 90.2492L38.4304 89.9877L38.4893 89.7272L38.5503 89.4675L38.6133 89.2088L38.6785 88.9511L38.7457 88.6943L38.8149 88.4386L38.8862 88.1839L38.9594 87.9302L39.0347 87.6776L39.1119 87.4261L39.1911 87.1757L39.2722 86.9264L39.3553 86.6783L39.4403 86.4313L39.5272 86.1856L39.6159 85.941L39.7066 85.6976L39.799 85.4554L39.8933 85.2145L39.9894 84.9749L40.0873 84.7365L40.187 84.4995L40.2884 84.2638L40.3916 84.0294L40.4965 83.7963L40.6031 83.5646L40.7113 83.3343L40.8213 83.1054L40.9329 82.8779L41.0461 82.6518L41.1609 82.4272L41.2773 82.204L41.3952 81.9822L41.5148 81.762L41.6358 81.5433L41.7584 81.326L41.8824 81.1103L42.0079 80.8961L42.1349 80.6835L42.2632 80.4724L42.393 80.2629L42.5242 80.055L42.6567 79.8487L42.7906 79.644L42.9258 79.4409L43.0623 79.2394L43.2001 79.0396L43.3392 78.8414L43.4795 78.6449L43.6209 78.45L43.7636 78.2568L43.9075 78.0653L44.0525 77.8756L44.1986 77.6875L44.3459 77.5011L44.4942 77.3165L44.6436 77.1336L44.794 76.9524L44.9455 76.7729L45.0979 76.5953L45.2514 76.4194L45.4057 76.2452L45.561 76.0728L45.7172 75.9023L45.8743 75.7334L46.0323 75.5664L46.191 75.4012L46.3506 75.2378L46.511 75.0762L46.6722 74.9164L46.8341 74.7584L46.9967 74.6022L47.16 74.4479L47.324 74.2954L47.4887 74.1447L47.654 73.9958L47.8199 73.8488L47.9864 73.7036L48.1534 73.5603L48.321 73.4188L48.4891 73.2791L48.6577 73.1413L48.8268 73.0054L48.9963 72.8712L49.1663 72.739L49.3366 72.6085L49.5074 72.4799L49.6784 72.3532L49.8499 72.2283L50.0216 72.1053L50.1936 71.9841L50.3659 71.8647L50.5385 71.7472L50.7112 71.6315L50.8842 71.5176L51.0573 71.4056L51.2306 71.2955L51.404 71.1871L51.5776 71.0806L51.7512 70.9759L51.9249 70.873L52.0986 70.7719L52.2723 70.6726L52.4461 70.5752L52.6198 70.4795L52.7935 70.3856L52.9671 70.2935L53.1406 70.2033L53.314 70.1147L53.4873 70.028L53.6605 69.943L53.8334 69.8598L54.0062 69.7783L54.1788 69.6986L54.3511 69.6206L54.5232 69.5443L54.6949 69.4698L54.8664 69.397L55.0376 69.3259L55.2084 69.2565L55.3789 69.1887L55.549 69.1227L55.7187 69.0583L55.888 68.9956L56.0568 68.9345L56.2252 68.8751L56.3931 68.8173L56.5605 68.7611L56.7274 68.7066L56.8938 68.6536L57.0596 68.6022L57.2249 68.5525L57.3895 68.5042L57.5536 68.4576L57.717 68.4124L57.8797 68.3688L58.0419 68.3267L58.2033 68.2862L58.364 68.2471L58.524 68.2095L58.6833 68.1733L58.8419 68.1387L58.9997 68.1054L59.1567 68.0736L59.3129 68.0432L59.4682 68.0142L59.6228 67.9866L59.7765 67.9603L59.9294 67.9354L60.0813 67.9119L60.2324 67.8897L60.3826 67.8688L60.5318 67.8492L60.6801 67.8308L60.8275 67.8137L60.9739 67.7979L61.1193 67.7833L61.2638 67.77L61.4072 67.7578L61.5496 67.7468L61.691 67.737L61.8313 67.7283L61.9706 67.7208L62.1088 67.7144L62.2459 67.7091L62.3819 67.7049L62.5168 67.7017L62.6506 67.6996L62.7833 67.6985L62.9148 67.6984L63.0452 67.6994L63.1744 67.7013L63.3024 67.7041L63.4292 67.7079L63.5549 67.7127L63.6794 67.7183L63.8026 67.7248L63.9246 67.7322L64.0454 67.7405L64.165 67.7495L64.2833 67.7594L64.4004 67.7701L64.5161 67.7815L64.6307 67.7937L64.7439 67.8066L64.8559 67.8203L64.9665 67.8346L65.0759 67.8497L65.1839 67.8653L65.2907 67.8817L65.3961 67.8986L65.5002 67.9161L65.603 67.9342L65.7044 67.9529L65.8045 67.9721L65.9032 67.9918L66.0006 68.012L66.0967 68.0327L66.1914 68.0539L66.2847 68.0755L66.3767 68.0975L66.4673 68.1199L66.5565 68.1427L66.6443 68.1659L66.7308 68.1894L66.8159 68.2132L66.8996 68.2373L66.982 68.2617L67.0629 68.2863L67.1425 68.3112L67.2207 68.3363L67.2975 68.3616L67.3729 68.3871L67.4469 68.4127L67.5196 68.4384L67.5908 68.4643L67.6607 68.4903L67.7292 68.5163L67.7963 68.5424L67.8621 68.5686L67.9264 68.5947L67.9894 68.6209L68.051 68.647L68.1112 68.6731L68.1701 68.6991L68.2275 68.725L68.2837 68.7508L68.3384 68.7765L68.3919 68.8021L68.4439 68.8274L68.4946 68.8527L68.544 68.8777L68.592 68.9024L68.6387 68.927L68.6841 68.9513L68.7281 68.9753L68.7709 68.999L68.8123 69.0223L68.8524 69.0454L68.8912 69.0681L68.9287 69.0904L68.965 69.1123L68.9999 69.1338L69.0336 69.1549L69.066 69.1755L69.0972 69.1957L69.1271 69.2153L69.1558 69.2345L69.1833 69.2531L69.2095 69.2712L69.2346 69.2888L69.2584 69.3058L69.281 69.3222L69.3025 69.3379L69.3228 69.3531L69.3419 69.3676L69.3598 69.3814L69.3767 69.3946L69.3923 69.4071L69.4069 69.4188L69.4204 69.4298L69.4327 69.4401L69.444 69.4497L69.4542 69.4584L69.4634 69.4664L69.4715 69.4735L69.4785 69.4799L69.4845 69.4854L69.4896 69.49L69.4936 69.4938L69.4966 69.4967L69.4987 69.4987" stroke="url(#paint0_linear_126_8)"/>
    </g>
    <defs>
        <filter id="filter0_f_126_8" x="0.5" y="0.499977" width="138" height="138" filterUnits="userSpaceOnUse" color-interpolation-filters="sRGB">
            <feFlood flood-opacity="0" result="BackgroundImageFix"/>
            <feBlend mode="normal" in="SourceGraphic" in2="BackgroundImageFix" result="shape"/>
            <feGaussianBlur stdDeviation="4.5" result="effect1_foregroundBlur_126_8"/>
        </filter>
        <linearGradient id="paint0_linear_126_8" x1="129" y1="93.1845" x2="7.94493" y2="75.4572" gradientUnits="userSpaceOnUse">
            <stop stop-color="#94B3FD"/>
            <stop offset="0.499634" stop-color="#FB6BFE"/>
            <stop offset="1" stop-color="#42C2FF"/>
        </linearGradient>
    </defs>
</svg>
