<svg width="80" height="79" viewBox="0 0 80 79" fill="none" xmlns="http://www.w3.org/2000/svg">
    <g filter="url(#filter0_f_124_474)">
        <path d="M41.8947 37.3298L41.8988 37.3256L41.9035 37.3206L41.9087 37.315L41.9146 37.3087L41.921 37.3016L41.928 37.2938L41.9355 37.2853L41.9435 37.2761L41.9521 37.2661L41.9612 37.2553L41.9707 37.2438L41.9808 37.2315L41.9913 37.2184L42.0023 37.2046L42.0137 37.1899L42.0256 37.1745L42.0379 37.1582L42.0506 37.1412L42.0638 37.1233L42.0773 37.1046L42.0912 37.085L42.1054 37.0647L42.1201 37.0434L42.135 37.0214L42.1503 36.9984L42.1659 36.9746L42.1818 36.95L42.198 36.9245L42.2145 36.8981L42.2312 36.8708L42.2482 36.8426L42.2655 36.8136L42.2829 36.7836L42.3006 36.7528L42.3185 36.721L42.3365 36.6884L42.3548 36.6548L42.3732 36.6203L42.3917 36.585L42.4104 36.5487L42.4292 36.5114L42.4481 36.4733L42.4671 36.4342L42.4861 36.3942L42.5053 36.3533L42.5244 36.3115L42.5437 36.2687L42.5629 36.225L42.5822 36.1803L42.6014 36.1348L42.6206 36.0883L42.6399 36.0408L42.659 35.9924L42.6781 35.9431L42.6971 35.8928L42.7161 35.8416L42.7349 35.7895L42.7536 35.7364L42.7722 35.6824L42.7906 35.6275L42.8089 35.5716L42.8271 35.5148L42.845 35.4571L42.8627 35.3984L42.8802 35.3388L42.8975 35.2783L42.9146 35.2169L42.9314 35.1545L42.9479 35.0912L42.9642 35.0271L42.9801 34.9619L42.9958 34.8959L43.0111 34.829L43.0261 34.7612L43.0407 34.6925L43.055 34.6229L43.0689 34.5524L43.0824 34.481L43.0955 34.4087L43.1081 34.3356L43.1204 34.2616L43.1322 34.1867L43.1436 34.1109L43.1544 34.0343L43.1648 33.9569L43.1747 33.8786L43.1841 33.7994L43.193 33.7195L43.2013 33.6387L43.2091 33.557L43.2163 33.4746L43.2229 33.3914L43.229 33.3073L43.2344 33.2225L43.2393 33.1369L43.2435 33.0504L43.2471 32.9633L43.25 32.8753L43.2523 32.7867L43.2539 32.6972L43.2548 32.607L43.2551 32.5161L43.2546 32.4245L43.2534 32.3322L43.2515 32.2391L43.2488 32.1454L43.2454 32.0509L43.2412 31.9558L43.2362 31.8601L43.2305 31.7636L43.224 31.6666L43.2166 31.5688L43.2084 31.4705L43.1995 31.3715L43.1896 31.272L43.1789 31.1718L43.1674 31.0711L43.155 30.9698L43.1417 30.8679L43.1275 30.7654L43.1125 30.6625L43.0965 30.559L43.0796 30.4549L43.0618 30.3504L43.043 30.2454L43.0234 30.1399L43.0027 30.0339L42.9811 29.9275L42.9585 29.8206L42.935 29.7133L42.9105 29.6055L42.8849 29.4974L42.8584 29.3888L42.8309 29.2799L42.8023 29.1706L42.7728 29.061L42.7422 28.951L42.7106 28.8406L42.6779 28.73L42.6442 28.619L42.6094 28.5078L42.5735 28.3963L42.5366 28.2845L42.4986 28.1725L42.4596 28.0602L42.4194 27.9477L42.3782 27.8351L42.3359 27.7222L42.2924 27.6091L42.2479 27.4959L42.2022 27.3825L42.1555 27.269L42.1076 27.1554L42.0585 27.0417L42.0084 26.9279L41.9571 26.814L41.9047 26.7L41.8512 26.586L41.7965 26.472L41.7407 26.3579L41.6837 26.2439L41.6255 26.1298L41.5663 26.0158L41.5058 25.9018L41.4442 25.7879L41.3815 25.6741L41.3175 25.5604L41.2525 25.4467L41.1862 25.3332L41.1188 25.2198L41.0502 25.1066L40.9805 24.9936L40.9095 24.8807L40.8375 24.768L40.7642 24.6555L40.6898 24.5433L40.6142 24.4313L40.5375 24.3196L40.4595 24.2082L40.3804 24.097L40.3002 23.9862L40.2188 23.8756L40.1362 23.7654L40.0524 23.6556L39.9675 23.5462L39.8815 23.4371L39.7942 23.3284L39.7059 23.2202L39.6163 23.1123L39.5257 23.005L39.4339 22.8981L39.3409 22.7916L39.2468 22.6857L39.1516 22.5803L39.0552 22.4754L38.9577 22.371L38.8591 22.2672L38.7593 22.164L38.6585 22.0613L38.5565 21.9593L38.4535 21.8579L38.3493 21.7571L38.244 21.657L38.1377 21.5575L38.0302 21.4587L37.9217 21.3606L37.8121 21.2632L37.7015 21.1665L37.5897 21.0706L37.477 20.9754L37.3632 20.881L37.2483 20.7873L37.1324 20.6945L37.0155 20.6025L36.8976 20.5113L36.7786 20.4209L36.6587 20.3314L36.5377 20.2428L36.4158 20.155L36.2929 20.0681L36.169 19.9822L36.0442 19.8972L35.9184 19.8131L35.7917 19.7299L35.664 19.6477L35.5354 19.5665L35.4059 19.4863L35.2755 19.4071L35.1442 19.3289L35.012 19.2517L34.8789 19.1756L34.745 19.1006L34.6102 19.0266L34.4746 18.9536L34.3381 18.8818L34.2009 18.8111L34.0628 18.7415L33.9239 18.673L33.7842 18.6057L33.6438 18.5395L33.5026 18.4745L33.3606 18.4106L33.2179 18.3479L33.0745 18.2865L32.9303 18.2262L32.7855 18.1672L32.6399 18.1094L32.4937 18.0528L32.3469 17.9975L32.1993 17.9435L32.0512 17.8907L31.9024 17.8392L31.753 17.789L31.603 17.7401L31.4524 17.6925L31.3012 17.6462L31.1495 17.6013L30.9973 17.5577L30.8445 17.5154L30.6912 17.4745L30.5374 17.435L30.3831 17.3968L30.2284 17.36L30.0732 17.3246L29.9176 17.2906L29.7615 17.258L29.605 17.2269L29.4482 17.1971L29.2909 17.1688L29.1333 17.1419L28.9753 17.1164L28.8171 17.0924L28.6584 17.0698L28.4995 17.0487L28.3403 17.0291L28.1809 17.011L28.0211 16.9943L27.8612 16.9791L27.701 16.9654L27.5406 16.9532L27.38 16.9424L27.2193 16.9332L27.0584 16.9255L26.8973 16.9193L26.7362 16.9147L26.5749 16.9115L26.4135 16.9099L26.2521 16.9098L26.0906 16.9112L25.929 16.9142L25.7674 16.9187L25.6059 16.9247L25.4443 16.9323L25.2828 16.9414L25.1213 16.9521L24.9599 16.9643L24.7985 16.9781L24.6372 16.9934L24.4761 17.0103L24.3151 17.0288L24.1542 17.0488L23.9935 17.0703L23.833 17.0935L23.6726 17.1181L23.5125 17.1444L23.3527 17.1722L23.193 17.2015L23.0337 17.2324L22.8746 17.2649L22.7158 17.2989L22.5574 17.3345L22.3992 17.3716L22.2415 17.4103L22.0841 17.4506L21.9271 17.4923L21.7704 17.5357L21.6143 17.5806L21.4585 17.627L21.3032 17.675L21.1484 17.7245L20.9941 17.7755L20.8403 17.8281L20.687 17.8821L20.5342 17.9378L20.382 17.9949L20.2304 18.0536L20.0794 18.1137L19.929 18.1754L19.7792 18.2386L19.63 18.3032L19.4815 18.3694L19.3337 18.437L19.1866 18.5062L19.0402 18.5768L18.8945 18.6489L18.7495 18.7224L18.6053 18.7974L18.4619 18.8739L18.3193 18.9518L18.1775 19.0311L18.0365 19.1118L17.8963 19.194L17.757 19.2776L17.6185 19.3626L17.481 19.4491L17.3443 19.5369L17.2086 19.6261L17.0738 19.7166L16.9399 19.8086L16.807 19.9018L16.6751 19.9965L16.5442 20.0925L16.4143 20.1898L16.2854 20.2884L16.1575 20.3884L16.0307 20.4896L15.9049 20.5922L15.7803 20.696L15.6567 20.8011L15.5342 20.9075L15.4129 21.0151L15.2927 21.1239L15.1736 21.234L15.0557 21.3453L14.939 21.4578L14.8235 21.5715L14.7091 21.6864L14.596 21.8025L14.4842 21.9197L14.3735 22.0381L14.2641 22.1576L14.156 22.2782L14.0492 22.4L13.9437 22.5228L13.8394 22.6467L13.7365 22.7717L13.6349 22.8978L13.5346 23.0249L13.4357 23.1531L13.3382 23.2822L13.242 23.4124L13.1472 23.5435L13.0539 23.6757L12.9619 23.8088L12.8713 23.9428L12.7822 24.0778L12.6945 24.2137L12.6082 24.3506L12.5234 24.4883L12.4401 24.6269L12.3582 24.7663L12.2778 24.9066L12.199 25.0477L12.1216 25.1897L12.0457 25.3324L11.9714 25.476L11.8986 25.6203L11.8273 25.7653L11.7576 25.9111L11.6894 26.0577L11.6228 26.2049L11.5577 26.3528L11.4943 26.5014L11.4324 26.6507L11.3721 26.8006L11.3134 26.9512L11.2563 27.1023L11.2008 27.254L11.1469 27.4064L11.0947 27.5592L11.0441 27.7127L10.9951 27.8666L10.9477 28.0211L10.902 28.176L10.858 28.3315L10.8156 28.4874L10.7748 28.6437L10.7357 28.8005L10.6983 28.9576L10.6626 29.1152L10.6285 29.2731L10.5961 29.4314L10.5654 29.5901L10.5364 29.749L10.509 29.9083L10.4834 30.0678L10.4594 30.2276L10.4372 30.3877L10.4166 30.548L10.3977 30.7085L10.3806 30.8693L10.3651 31.0302L10.3514 31.1912L10.3393 31.3525L10.329 31.5138L10.3203 31.6753L10.3134 31.8368L10.3082 31.9984L10.3046 32.1601L10.3028 32.3219L10.3027 32.4836L10.3043 32.6454L10.3076 32.8071L10.3127 32.9688L10.3194 33.1305L10.3278 33.2921L10.3379 33.4536L10.3497 33.615L10.3632 33.7764L10.3784 33.9375L10.3953 34.0985L10.4139 34.2594L10.4342 34.4201L10.4562 34.5805L10.4798 34.7407L10.5051 34.9007L10.5321 35.0605L10.5608 35.22L10.5911 35.3791L10.6231 35.538L10.6567 35.6965L10.692 35.8548L10.729 36.0126L10.7676 36.1701L10.8078 36.3272L10.8497 36.4838L10.8931 36.6401L10.9382 36.7959L10.985 36.9512L11.0333 37.1061L11.0832 37.2605L11.1347 37.4143L11.1878 37.5677L11.2425 37.7205L11.2988 37.8727L11.3566 38.0244L11.416 38.1755L11.477 38.326L11.5394 38.4759L11.6035 38.6251L11.669 38.7737L11.7361 38.9216L11.8047 39.0689L11.8748 39.2154L11.9463 39.3613L12.0194 39.5064L12.0939 39.6507L12.1699 39.7944L12.2474 39.9372L12.3263 40.0793L12.4066 40.2205L12.4884 40.361L12.5716 40.5006L12.6561 40.6394L12.7421 40.7773L12.8295 40.9144L12.9182 41.0506L13.0083 41.1858L13.0997 41.3202L13.1925 41.4537L13.2866 41.5862L13.382 41.7178L13.4788 41.8484L13.5768 41.978L13.6761 42.1067L13.7767 42.2344L13.8785 42.361L13.9815 42.4866L14.0858 42.6112L14.1913 42.7348L14.2981 42.8573L14.406 42.9787L14.515 43.0991L14.6253 43.2183L14.7367 43.3365L14.8492 43.4535L14.9629 43.5695L15.0777 43.6843L15.1935 43.7979L15.3105 43.9104L15.4285 44.0218L15.5475 44.1319L15.6676 44.2409L15.7888 44.3487L15.9109 44.4553L16.034 44.5607L16.1582 44.6649L16.2832 44.7678L16.4093 44.8695L16.5362 44.97L16.6641 45.0692L16.7929 45.1672L16.9226 45.2638L17.0532 45.3593L17.1846 45.4534L17.3169 45.5462L17.4499 45.6378L17.5838 45.728L17.7185 45.817L17.854 45.9046L17.9903 45.9909L18.1273 46.0759L18.265 46.1595L18.4034 46.2418L18.5426 46.3228L18.6824 46.4024L18.8229 46.4806L18.964 46.5575L19.1058 46.6331L19.2482 46.7072L19.3912 46.78L19.5348 46.8514L19.679 46.9215L19.8237 46.9901L19.9689 47.0574L20.1147 47.1233L20.261 47.1878L20.4077 47.2508L20.555 47.3125L20.7027 47.3728L20.8508 47.4317L20.9993 47.4892L21.1483 47.5452L21.2976 47.5999L21.4473 47.6531L21.5973 47.705L21.7477 47.7554L21.8984 47.8044L22.0495 47.852L22.2008 47.8982L22.3523 47.943L22.5041 47.9863L22.6562 48.0283L22.8085 48.0688L22.9609 48.1079L23.1136 48.1456L23.2664 48.1819L23.4194 48.2167L23.5725 48.2502L23.7258 48.2823L23.8791 48.3129L24.0326 48.3422L24.1861 48.37L24.3396 48.3965L24.4932 48.4215L24.6468 48.4452L24.8004 48.4674L24.954 48.4883L25.1076 48.5078L25.2611 48.5259L25.4146 48.5427L25.568 48.558L25.7213 48.572L25.8745 48.5847L26.0276 48.5959L26.1805 48.6058L26.3333 48.6144L26.4859 48.6216L26.6383 48.6275L26.7905 48.632L26.9425 48.6353L27.0943 48.6371L27.2458 48.6377L27.3971 48.637L27.5481 48.6349L27.6988 48.6316L27.8491 48.6269L27.9992 48.621L28.1489 48.6138L28.2983 48.6053L28.4473 48.5956L28.5959 48.5846L28.7442 48.5724L28.892 48.5589L29.0394 48.5442L29.1863 48.5282L29.3329 48.5111L29.4789 48.4927L29.6245 48.4732L29.7696 48.4524L29.9141 48.4305L30.0582 48.4074L30.2017 48.3831L30.3447 48.3577L30.4871 48.3311L30.629 48.3034L30.7703 48.2746L30.911 48.2447L31.051 48.2136L31.1905 48.1815L31.3293 48.1483L31.4675 48.114L31.605 48.0786L31.7419 48.0422L31.8781 48.0048L32.0136 47.9663L32.1484 47.9268L32.2825 47.8863L32.4158 47.8449L32.5485 47.8024L32.6804 47.7589L32.8115 47.7145L32.9419 47.6692L33.0715 47.6229L33.2003 47.5757L33.3283 47.5276L33.4556 47.4786L33.582 47.4287L33.7076 47.3779L33.8323 47.3262L33.9563 47.2738L34.0793 47.2204L34.2016 47.1663L34.3229 47.1113L34.4434 47.0556L34.563 46.9991L34.6817 46.9418L34.7995 46.8837L34.9164 46.8249L35.0324 46.7654L35.1475 46.7052L35.2616 46.6442L35.3749 46.5826L35.4871 46.5203L35.5985 46.4573L35.7088 46.3937L35.8183 46.3295L35.9267 46.2646L36.0342 46.1992L36.1407 46.1332L36.2463 46.0665L36.3508 45.9994L36.4544 45.9316L36.5569 45.8634L36.6585 45.7946L36.7591 45.7254L36.8586 45.6556L36.9571 45.5854L37.0547 45.5147L37.1512 45.4436L37.2466 45.372L37.3411 45.3L37.4345 45.2277L37.5269 45.1549L37.6182 45.0818L37.7085 45.0083L37.7978 44.9345L37.886 44.8604L37.9732 44.7859L38.0594 44.7112L38.1445 44.6362L38.2285 44.5609L38.3115 44.4853L38.3934 44.4096L38.4743 44.3336L38.5541 44.2574L38.6329 44.181L38.7107 44.1044L38.7873 44.0277L38.863 43.9508L38.9375 43.8738L39.011 43.7967L39.0835 43.7195L39.1549 43.6422L39.2253 43.5648L39.2946 43.4874L39.3629 43.4099L39.4301 43.3324L39.4963 43.2549L39.5615 43.1774L39.6256 43.0999L39.6886 43.0224L39.7507 42.945L39.8117 42.8677L39.8717 42.7904L39.9306 42.7132L39.9886 42.6361L40.0455 42.5591L40.1014 42.4822L40.1563 42.4055L40.2102 42.329L40.2631 42.2526L40.3149 42.1764L40.3658 42.1004L40.4158 42.0246L40.4647 41.9491L40.5126 41.8738L40.5596 41.7987L40.6056 41.7239L40.6507 41.6494L40.6948 41.5752L40.7379 41.5013L40.7801 41.4277L40.8214 41.3544L40.8617 41.2815L40.9012 41.209L40.9397 41.1368L40.9773 41.065L41.0139 40.9936L41.0497 40.9226L41.0846 40.852L41.1187 40.7819L41.1518 40.7122L41.1841 40.6429L41.2155 40.5741L41.2461 40.5058L41.2759 40.438L41.3048 40.3707L41.3329 40.3039L41.3601 40.2376L41.3866 40.1719L41.4123 40.1067L41.4372 40.0421L41.4613 39.978L41.4846 39.9145L41.5072 39.8516L41.529 39.7893L41.5501 39.7276L41.5705 39.6666L41.5901 39.6061L41.6091 39.5463L41.6273 39.4871L41.6449 39.4286L41.6617 39.3708L41.6779 39.3136L41.6935 39.2571L41.7084 39.2014L41.7227 39.1463L41.7363 39.0919L41.7494 39.0382L41.7618 38.9853L41.7737 38.9331L41.7849 38.8816L41.7956 38.8309L41.8058 38.781L41.8154 38.7318L41.8245 38.6833L41.833 38.6357L41.8411 38.5888L41.8487 38.5428L41.8557 38.4975L41.8624 38.453L41.8685 38.4094L41.8742 38.3665L41.8795 38.3245L41.8844 38.2833L41.8888 38.243L41.8929 38.2034L41.8965 38.1648L41.8999 38.1269L41.9028 38.09L41.9054 38.0538L41.9077 38.0186L41.9097 37.9842L41.9113 37.9507L41.9127 37.918L41.9138 37.8863L41.9146 37.8554L41.9152 37.8254L41.9156 37.7962L41.9157 37.768L41.9156 37.7407L41.9154 37.7142L41.9149 37.6887L41.9143 37.664L41.9135 37.6403L41.9125 37.6175L41.9115 37.5955L41.9103 37.5745L41.909 37.5544L41.9077 37.5352L41.9063 37.5169L41.9048 37.4995L41.9032 37.483L41.9016 37.4674L41.9001 37.4527L41.8985 37.439L41.8969 37.4262L41.8953 37.4142L41.8938 37.4032L41.8923 37.3931L41.8909 37.3839L41.8895 37.3756L41.8883 37.3682L41.8871 37.3617L41.8861 37.3561L41.8852 37.3514L41.8844 37.3476L41.8838 37.3447L41.8832 37.3421L41.8836 37.3436L41.8842 37.346L41.8851 37.3493L41.8862 37.3534L41.8876 37.3585L41.8893 37.3644L41.8913 37.3711L41.8937 37.3787L41.8963 37.3871L41.8993 37.3964L41.9026 37.4066L41.9063 37.4175L41.9104 37.4293L41.9149 37.4419L41.9197 37.4553L41.925 37.4696L41.9308 37.4846L41.9369 37.5005L41.9435 37.5171L41.9506 37.5345L41.9582 37.5527L41.9662 37.5717L41.9747 37.5914L41.9838 37.6119L41.9933 37.6331L42.0035 37.6551L42.0141 37.6778L42.0253 37.7012L42.0371 37.7254L42.0494 37.7503L42.0624 37.7759L42.0759 37.8021L42.0901 37.8291L42.1049 37.8567L42.1203 37.885L42.1363 37.914L42.153 37.9436L42.1704 37.9738L42.1884 38.0047L42.2071 38.0362L42.2265 38.0683L42.2467 38.101L42.2675 38.1343L42.289 38.1682L42.3113 38.2026L42.3343 38.2376L42.3581 38.2732L42.3826 38.3093L42.4079 38.3459L42.4339 38.3831L42.4608 38.4207L42.4884 38.4589L42.5168 38.4975L42.546 38.5366L42.5761 38.5762L42.6069 38.6162L42.6386 38.6566L42.6712 38.6975L42.7045 38.7388L42.7388 38.7805L42.7738 38.8226L42.8098 38.865L42.8466 38.9078L42.8843 38.951L42.9228 38.9945L42.9623 39.0384L43.0026 39.0825L43.0439 39.127L43.0861 39.1717L43.1291 39.2167L43.1731 39.262L43.218 39.3076L43.2638 39.3533L43.3106 39.3993L43.3583 39.4455L43.4069 39.4919L43.4565 39.5385L43.507 39.5853L43.5585 39.6322L43.6109 39.6792L43.6643 39.7264L43.7186 39.7737L43.7739 39.8211L43.8302 39.8686L43.8874 39.9162L43.9456 39.9638L44.0048 40.0114L44.065 40.0591L44.1261 40.1068L44.1883 40.1546L44.2514 40.2023L44.3154 40.2499L44.3805 40.2976L44.4466 40.3451L44.5136 40.3927L44.5816 40.4401L44.6506 40.4874L44.7206 40.5347L44.7916 40.5818L44.8636 40.6287L44.9365 40.6755L45.0105 40.7221L45.0854 40.7686L45.1613 40.8149L45.2382 40.8609L45.3161 40.9067L45.3949 40.9523L45.4747 40.9976L45.5556 41.0427L45.6373 41.0874L45.7201 41.1319L45.8038 41.1761L45.8885 41.2199L45.9742 41.2634L46.0608 41.3065L46.1484 41.3493L46.2369 41.3917L46.3264 41.4336L46.4168 41.4752L46.5082 41.5164L46.6005 41.5571L46.6937 41.5973L46.7879 41.6371L46.883 41.6764L46.9791 41.7152L47.076 41.7535L47.1738 41.7913L47.2726 41.8285L47.3723 41.8652L47.4728 41.9013L47.5743 41.9369L47.6766 41.9718L47.7798 42.0062L47.8838 42.0399L47.9888 42.073L48.0945 42.1054L48.2012 42.1372L48.3087 42.1683L48.417 42.1988L48.5261 42.2285L48.636 42.2575L48.7468 42.2859L48.8584 42.3134L48.9707 42.3403L49.0839 42.3663L49.1978 42.3916L49.3125 42.4161L49.4279 42.4398L49.5441 42.4627L49.6611 42.4848L49.7787 42.5061L49.8971 42.5265L50.0162 42.546L50.136 42.5647L50.2566 42.5825L50.3777 42.5994L50.4996 42.6154L50.6221 42.6305L50.7453 42.6447L50.8691 42.6579L50.9935 42.6702L51.1186 42.6816L51.2442 42.692L51.3705 42.7014L51.4973 42.7098L51.6248 42.7172L51.7527 42.7236L51.8813 42.729L52.0103 42.7334L52.1399 42.7367L52.27 42.739L52.4006 42.7402L52.5317 42.7404L52.6632 42.7395L52.7953 42.7375L52.9277 42.7345L53.0606 42.7303L53.194 42.7251L53.3277 42.7187L53.4618 42.7112L53.5963 42.7026L53.7312 42.6928L53.8665 42.6819L54.002 42.6698L54.1379 42.6566L54.2742 42.6422L54.4107 42.6267L54.5475 42.61L54.6845 42.592L54.8219 42.5729L54.9594 42.5526L55.0972 42.5311L55.2352 42.5084L55.3734 42.4845L55.5118 42.4593L55.6504 42.433L55.7891 42.4054L55.9279 42.3765L56.0669 42.3464L56.206 42.3151L56.3451 42.2825L56.4844 42.2487L56.6237 42.2136L56.763 42.1773L56.9024 42.1397L57.0418 42.1008L57.1812 42.0607L57.3206 42.0193L57.4599 41.9766L57.5992 41.9326L57.7384 41.8873L57.8776 41.8408L58.0166 41.793L58.1555 41.7439L58.2943 41.6935L58.433 41.6418L58.5715 41.5888L58.7098 41.5345L58.848 41.479L58.9859 41.4221L59.1236 41.364L59.261 41.3045L59.3982 41.2438L59.5352 41.1817L59.6718 41.1184L59.8081 41.0538L59.9441 40.9879L60.0798 40.9207L60.2151 40.8522L60.35 40.7824L60.4846 40.7113L60.6187 40.6389L60.7524 40.5653L60.8857 40.4903L61.0186 40.4141L61.1509 40.3366L61.2828 40.2579L61.4142 40.1778L61.5451 40.0965L61.6754 40.0139L61.8052 39.9301L61.9344 39.845L62.063 39.7586L62.191 39.671L62.3185 39.5822L62.4452 39.4921L62.5714 39.4008L62.6969 39.3082L62.8217 39.2144L62.9458 39.1194L63.0692 39.0232L63.1919 38.9258L63.3138 38.8271L63.435 38.7273L63.5554 38.6263L63.675 38.524L63.7939 38.4207L63.9119 38.3161L64.0291 38.2103L64.1454 38.1034L64.2609 37.9954L64.3754 37.8862L64.4891 37.7759L64.6019 37.6644L64.7138 37.5519L64.8247 37.4382L64.9347 37.3234L65.0437 37.2075L65.1518 37.0905L65.2588 36.9725L65.3649 36.8534L65.4699 36.7332L65.5739 36.612L65.6768 36.4897L65.7787 36.3664L65.8795 36.2421L65.9792 36.1168L66.0778 35.9904L66.1753 35.8631L66.2716 35.7348L66.3668 35.6056L66.4609 35.4754L66.5538 35.3442L66.6455 35.2121L66.736 35.0791L66.8253 34.9452L66.9134 34.8104L67.0002 34.6747L67.0859 34.5381L67.1702 34.4006L67.2533 34.2623L67.3351 34.1232L67.4156 33.9833L67.4949 33.8425L67.5728 33.7009L67.6494 33.5586L67.7246 33.4154L67.7986 33.2715L67.8711 33.1269L67.9423 32.9815L68.0121 32.8355L68.0806 32.6887L68.1476 32.5412L68.2132 32.393L68.2775 32.2442L68.3403 32.0948L68.4016 31.9447L68.4615 31.7939L68.52 31.6426L68.577 31.4907L68.6326 31.3382L68.6866 31.1852L68.7392 31.0316L68.7903 30.8775L68.8399 30.7229L68.8879 30.5677L68.9345 30.4121L68.9795 30.256L69.0231 30.0995L69.065 29.9426L69.1055 29.7852L69.1443 29.6274L69.1816 29.4692L69.2174 29.3107L69.2516 29.1518L69.2842 28.9926L69.3152 28.833L69.3447 28.6731L69.3725 28.513L69.3988 28.3526L69.4234 28.1919L69.4465 28.031L69.4679 27.8698L69.4877 27.7085L69.5059 27.547L69.5225 27.3853L69.5374 27.2234L69.5508 27.0614L69.5625 26.8993L69.5725 26.7371L69.5809 26.5748L69.5877 26.4124L69.5928 26.25L69.5963 26.0875L69.5981 25.925L69.5983 25.7626L69.5968 25.6001L69.5937 25.4377L69.5889 25.2753L69.5825 25.113L69.5744 24.9508L69.5647 24.7887L69.5532 24.6268L69.5402 24.4649L69.5255 24.3032L69.5091 24.1417L69.491 23.9804L69.4713 23.8193L69.45 23.6585L69.427 23.4978L69.4023 23.3375L69.376 23.1774L69.348 23.0176L69.3184 22.8581L69.2872 22.699L69.2543 22.5402L69.2197 22.3818L69.1835 22.2238L69.1457 22.0661L69.1062 21.9089L69.0652 21.7522L69.0224 21.5958L68.9781 21.44L68.9322 21.2846L68.8846 21.1298L68.8354 20.9755L68.7846 20.8217L68.7322 20.6684L68.6782 20.5158L68.6227 20.3637L68.5655 20.2123L68.5068 20.0614L68.4464 19.9112L68.3846 19.7617L68.3211 19.6128L68.2561 19.4647L68.1895 19.3172L68.1214 19.1704L68.0518 19.0244L67.9806 18.8792L67.9079 18.7347L67.8337 18.591L67.758 18.4481L67.6808 18.3061L67.6021 18.1648L67.5219 18.0245L67.4403 17.8849L67.3571 17.7463L67.2725 17.6086L67.1865 17.4718L67.099 17.3359L67.0101 17.2009L66.9198 17.0669L66.8281 16.9339L66.7349 16.8018L66.6404 16.6708L66.6142 16.6351L66.5179 16.5053L66.4203 16.3766L66.3213 16.249L66.2209 16.1224L66.1192 15.9969L66.0162 15.8724L65.9118 15.7491L65.8062 15.6269L65.6993 15.5058L65.5911 15.3859L65.4816 15.2671L65.3708 15.1495L65.2589 15.0331L65.1456 14.9179L65.0312 14.8039L64.9156 14.6911L64.7987 14.5795L64.6807 14.4692L64.5615 14.3601L64.4412 14.2524L64.3197 14.1458L64.1971 14.0406L64.0734 13.9367L63.9486 13.8341L63.8227 13.7328L63.6957 13.6329L63.5677 13.5343L63.4386 13.4371L63.3084 13.3412L63.1773 13.2467L63.0452 13.1536L62.9121 13.0619L62.778 12.9717L62.6429 12.8828L62.5069 12.7953L62.37 12.7093L62.2322 12.6248L62.0934 12.5417L61.9538 12.46L61.8133 12.3798L61.672 12.3011L61.5298 12.2239L61.3869 12.1482L61.2431 12.074L61.0985 12.0013L60.9532 11.9301L60.8071 11.8604L60.6602 11.7923L60.5127 11.7257L60.3644 11.6607L60.2154 11.5972L60.0658 11.5352L59.9155 11.4749L59.7646 11.4161L59.613 11.3588L59.4609 11.3032L59.3081 11.2491L59.1548 11.1966L59.0009 11.1458L58.8465 11.0965L58.6916 11.0488L58.5361 11.0027L58.3802 10.9583L58.2238 10.9154L58.067 10.8742L57.9097 10.8346L57.752 10.7966L57.5939 10.7603L57.4354 10.7255L57.2765 10.6925L57.1173 10.661L56.9578 10.6312L56.7979 10.603L56.6377 10.5765L56.4773 10.5516L56.3166 10.5284L56.1557 10.5068L55.9945 10.4869L55.8331 10.4686L55.6716 10.4519L55.5098 10.4369L55.3479 10.4236L55.1859 10.4119L55.0237 10.4018L54.8614 10.3934L54.6991 10.3866L54.5367 10.3815L54.3742 10.378L54.2117 10.3762L54.0491 10.376L53.8866 10.3775L53.7241 10.3805L53.5616 10.3853L53.3992 10.3916L53.2368 10.3996L53.0745 10.4092L52.9124 10.4205L52.7503 10.4333L52.5884 10.4478L52.4266 10.4639L52.265 10.4816L52.1036 10.5009L51.9424 10.5218L51.7815 10.5443L51.6207 10.5684L51.4602 10.5941L51.3 10.6214L51.1401 10.6502L50.9805 10.6807L50.8212 10.7127L50.6622 10.7462L50.5036 10.7813L50.3454 10.818L50.1875 10.8562L50.0301 10.8959L49.873 10.9372L49.7165 10.98L49.5603 11.0243L49.4046 11.0701L49.2494 11.1175L49.0947 11.1663L48.9405 11.2166L48.7868 11.2684L48.6337 11.3216L48.4811 11.3763L48.3291 11.4325L48.1777 11.4901L48.0269 11.5492L47.8767 11.6096L47.7272 11.6715L47.5782 11.7348L47.43 11.7995L47.2824 11.8656L47.1355 11.9331L46.9893 12.0019L46.8438 12.0721L46.699 12.1437L46.555 12.2165L46.4118 12.2908L46.2693 12.3663L46.1276 12.4431L45.9867 12.5212L45.8465 12.6007L45.7073 12.6813L45.5688 12.7633L45.4312 12.8465L45.2944 12.9309L45.1586 13.0166L45.0236 13.1035L44.8895 13.1915L44.7562 13.2808L44.624 13.3712L44.4926 13.4629L44.3622 13.5556L44.2327 13.6495L44.1042 13.7445L43.9767 13.8407L43.8501 13.9379L43.7245 14.0362L43.6 14.1356L43.4764 14.2361L43.3539 14.3376L43.2324 14.4401L43.112 14.5436L42.9925 14.6482L42.8742 14.7537L42.7569 14.8603L42.6407 14.9677L42.5256 15.0762L42.4116 15.1855L42.2987 15.2958L42.1869 15.407L42.0762 15.519L41.9667 15.632L41.8582 15.7458L41.751 15.8604L41.6448 15.9759L41.5399 16.0922L41.436 16.2093L41.3334 16.3272L41.2319 16.4458L41.1317 16.5652L41.0326 16.6854L40.9347 16.8062L40.838 16.9278L40.7425 17.05L40.6482 17.173L40.5551 17.2966L40.4633 17.4208L40.3726 17.5456L40.2832 17.6711L40.1951 17.7972L40.1081 17.9238L40.0225 18.0511L39.938 18.1788L39.8548 18.3071L39.7729 18.4359L39.6922 18.5653L39.6128 18.6951L39.5347 18.8253L39.4578 18.956L39.3821 19.0872L39.3078 19.2188L39.2347 19.3507L39.1629 19.4831L39.0923 19.6159L39.0231 19.7489L38.9551 19.8824L38.8883 20.0161L38.8229 20.1502L38.7587 20.2845L38.6959 20.4192L38.6343 20.5541L38.5739 20.6892L38.5149 20.8245L38.4571 20.9601L38.4006 21.0958L38.3454 21.2318L38.2915 21.3679L38.2388 21.5041L38.1874 21.6405L38.1373 21.7769L38.0885 21.9135L38.0409 22.0502L37.9946 22.1869L37.9495 22.3237L37.9057 22.4605L37.8632 22.5973L37.8219 22.7342L37.7819 22.871L37.7431 23.0078L37.7056 23.1445L37.6693 23.2812L37.6342 23.4178L37.6004 23.5543L37.5678 23.6907L37.5365 23.827L37.5063 23.9632L37.4774 24.0992L37.4497 24.2351L37.4231 24.3707L37.3978 24.5062L37.3737 24.6415L37.3508 24.7765L37.329 24.9113L37.3084 25.0458L37.289 25.1801L37.2708 25.3141L37.2537 25.4478L37.2378 25.5812L37.223 25.7142L37.2093 25.847L37.1968 25.9793L37.1854 26.1113L37.1751 26.243L37.1659 26.3742L37.1578 26.505L37.1509 26.6355L37.1449 26.7654L37.1401 26.895L37.1363 27.024L37.1336 27.1526L37.132 27.2808L37.1313 27.4084L37.1317 27.5355L37.1332 27.6621L37.1356 27.7882L37.139 27.9137L37.1435 28.0386L37.1489 28.163L37.1553 28.2868L37.1626 28.4101L37.1709 28.5327L37.1802 28.6547L37.1903 28.7761L37.2014 28.8968L37.2134 29.0169L37.2263 29.1364L37.2401 29.2551L37.2548 29.3732L37.2703 29.4906L37.2867 29.6073L37.3039 29.7233L37.322 29.8386L37.3409 29.9532L37.3606 30.067L37.3811 30.1801L37.4023 30.2924L37.4244 30.404L37.4472 30.5147L37.4707 30.6247L37.495 30.734L37.52 30.8424L37.5458 30.95L37.5722 31.0568L37.5993 31.1628L37.627 31.2679L37.6555 31.3722L37.6846 31.4757L37.7143 31.5783L37.7446 31.6801L37.7755 31.781L37.8071 31.881L37.8392 31.9802L37.8719 32.0785L37.9051 32.1759L37.9389 32.2724L37.9732 32.368L38.008 32.4626L38.0433 32.5564L38.0791 32.6493L38.1153 32.7412L38.152 32.8323L38.1892 32.9224L38.2268 33.0115L38.2648 33.0997L38.3032 33.187L38.342 33.2734L38.3812 33.3587L38.4207 33.4432L38.4606 33.5267L38.5008 33.6092L38.5413 33.6908L38.5821 33.7714L38.6232 33.851L38.6646 33.9297L38.7062 34.0074L38.7481 34.0841L38.7902 34.1599L38.8325 34.2346L38.8751 34.3084L38.9178 34.3813L38.9607 34.4531L39.0037 34.524L39.0469 34.5939L39.0903 34.6628L39.1337 34.7307L39.1772 34.7977L39.2209 34.8637L39.2646 34.9287L39.3083 34.9927L39.3521 35.0557L39.396 35.1178L39.4398 35.1789L39.4837 35.239L39.5275 35.2982L39.5713 35.3563L39.6151 35.4136L39.6588 35.4698L39.7025 35.5251L39.7461 35.5794L39.7895 35.6328L39.8329 35.6852L39.8762 35.7366L39.9193 35.7871L39.9622 35.8367L40.005 35.8853L40.0476 35.933L40.0901 35.9797L40.1323 36.0255L40.1743 36.0704L40.216 36.1144L40.2576 36.1575L40.2988 36.1996L40.3398 36.2408L40.3805 36.2812L40.421 36.3206L40.4611 36.3591L40.5009 36.3968L40.5403 36.4336L40.5794 36.4695L40.6182 36.5045L40.6565 36.5387L40.6945 36.572L40.7321 36.6045L40.7693 36.6361L40.806 36.6669L40.8424 36.6969L40.8783 36.726L40.9137 36.7544L40.9486 36.7819L40.9831 36.8086L41.0171 36.8346L41.0506 36.8598L41.0836 36.8842L41.116 36.9078L41.148 36.9307L41.1793 36.9528L41.2101 36.9742L41.2404 36.9949L41.2701 37.0148L41.2992 37.0341L41.3276 37.0526L41.3555 37.0704L41.3828 37.0876L41.4094 37.1041L41.4354 37.1199L41.4608 37.1351L41.4855 37.1496L41.5096 37.1635L41.5329 37.1768L41.5556 37.1894L41.5776 37.2015L41.5989 37.2129L41.6195 37.2238L41.6394 37.2342L41.6585 37.2439L41.6769 37.2531L41.6946 37.2618L41.7116 37.27L41.7277 37.2776L41.7432 37.2848L41.7578 37.2914L41.7717 37.2976L41.7848 37.3033L41.7971 37.3086L41.8086 37.3134L41.8193 37.3178L41.8292 37.3217L41.8382 37.3253L41.8465 37.3285L41.8539 37.3312L41.8605 37.3337L41.8663 37.3357L41.8712 37.3374L41.8753 37.3388L41.8785 37.3399L41.8817 37.341M41.8947 37.3298L41.8912 37.3334L41.8883 37.3363L41.886 37.3385L41.8844 37.3401L41.8834 37.3411L41.8817 37.341M41.8947 37.3298L41.8998 37.3267L41.905 37.3223L41.911 37.3174L41.9177 37.312L41.9251 37.306L41.9333 37.2996L41.9423 37.2926L41.952 37.2852L41.9625 37.2772L41.9738 37.2689L41.9859 37.2601L41.9988 37.2508L42.0125 37.2411L42.027 37.231L42.0424 37.2205L42.0585 37.2097L42.0755 37.1984L42.0934 37.1868L42.112 37.1748L42.1316 37.1625L42.1519 37.1499L42.1732 37.1369L42.1953 37.1237L42.2182 37.1101L42.2421 37.0963L42.2668 37.0823L42.2924 37.0679L42.3189 37.0534L42.3463 37.0386L42.3746 37.0236L42.4038 37.0084L42.4339 36.9931L42.4648 36.9775L42.4967 36.9618L42.5295 36.946L42.5633 36.93L42.5979 36.9139L42.6335 36.8978L42.6699 36.8815L42.7073 36.8651L42.7457 36.8487L42.7849 36.8323L42.8251 36.8158L42.8662 36.7993L42.9083 36.7828L42.9512 36.7663L42.9951 36.7498L43.04 36.7333L43.0857 36.7169L43.1324 36.7006L43.1801 36.6843L43.2286 36.6681L43.2781 36.6521L43.3286 36.6361L43.3799 36.6203L43.4322 36.6046L43.4854 36.5891L43.5396 36.5738L43.5946 36.5587L43.6506 36.5437L43.7075 36.529L43.7654 36.5145L43.8241 36.5002L43.8838 36.4862L43.9443 36.4725L44.0058 36.459L44.0682 36.4459L44.1315 36.4331L44.1957 36.4206L44.2608 36.4084L44.3268 36.3966L44.3936 36.3851L44.4614 36.374L44.53 36.3634L44.5995 36.3531L44.6699 36.3432L44.7411 36.3338L44.8132 36.3248L44.8862 36.3163L44.96 36.3083L45.0346 36.3007L45.1101 36.2936L45.1864 36.2871L45.2635 36.2811L45.3415 36.2756L45.4202 36.2706L45.4998 36.2663L45.5802 36.2625L45.6614 36.2592L45.7433 36.2566L45.826 36.2546L45.9095 36.2532L45.9938 36.2525L46.0788 36.2524L46.1646 36.2529L46.251 36.2542L46.3383 36.2561L46.4262 36.2587L46.5149 36.262L46.6042 36.266L46.6943 36.2708L46.785 36.2763L46.8765 36.2825L46.9685 36.2896L47.0613 36.2973L47.1547 36.3059L47.2487 36.3153L47.3433 36.3255L47.4386 36.3364L47.5345 36.3482L47.631 36.3609L47.728 36.3744L47.8256 36.3887L47.9238 36.4039L48.0226 36.42L48.1219 36.437L48.2217 36.4549L48.322 36.4736L48.4229 36.4933L48.5242 36.5139L48.626 36.5354L48.7283 36.5579L48.8311 36.5813L48.9343 36.6057L49.0379 36.631L49.142 36.6573L49.2464 36.6846L49.3513 36.7128L49.4566 36.7421L49.5622 36.7724L49.6682 36.8036L49.7745 36.8359L49.8811 36.8692L49.9881 36.9036L50.0954 36.9389L50.203 36.9754L50.3108 37.0128L50.4189 37.0513L50.5273 37.0909L50.6359 37.1316L50.7447 37.1733L50.8538 37.2161L50.963 37.26L51.0724 37.3049L51.182 37.351L51.2917 37.3981L51.4016 37.4464L51.5116 37.4958L51.6217 37.5462L51.7318 37.5978L51.8421 37.6505L51.9524 37.7044L52.0628 37.7593L52.1732 37.8154L52.2837 37.8726L52.3941 37.9309L52.5046 37.9904L52.615 38.0511L52.7253 38.1128L52.8356 38.1757L52.9459 38.2398L53.056 38.305L53.1661 38.3713L53.276 38.4388L53.3858 38.5075L53.4954 38.5773L53.6049 38.6483L53.7142 38.7204L53.8234 38.7936L53.9323 38.8681L54.0409 38.9436L54.1494 39.0204L54.2576 39.0982L54.3655 39.1773L54.4731 39.2575L54.5804 39.3388L54.6874 39.4213L54.7941 39.5049L54.9004 39.5897L55.0063 39.6757L55.1119 39.7628L55.2171 39.851L55.3219 39.9403L55.4262 40.0308L55.5301 40.1225L55.6335 40.2152L55.7365 40.3091L55.839 40.4041L55.9409 40.5003L56.0424 40.5975L56.1433 40.6959L56.2436 40.7954L56.3434 40.896L56.4427 40.9977L56.5413 41.1004L56.6393 41.2043L56.7367 41.3093L56.8334 41.4153L56.9295 41.5224L57.0249 41.6306L57.1196 41.7399L57.2136 41.8502L57.3069 41.9615L57.3995 42.0739L57.4914 42.1874L57.5824 42.3019L57.6727 42.4174L57.7622 42.5339L57.8509 42.6515L57.9388 42.77L58.0259 42.8895L58.1121 43.0101L58.1974 43.1316L58.2819 43.254L58.3655 43.3775L58.4482 43.5019L58.53 43.6272L58.6108 43.7535L58.6907 43.8807L58.7697 44.0089L58.8477 44.1379L58.9247 44.2678L59.0007 44.3987L59.0757 44.5304L59.1496 44.663L59.2226 44.7964L59.2945 44.9307L59.3653 45.0659L59.4351 45.2018L59.5038 45.3386L59.5713 45.4762L59.6378 45.6146L59.7032 45.7538L59.7674 45.8937L59.8305 46.0344L59.8924 46.1759L59.9532 46.3181L60.0128 46.461L60.0712 46.6046L60.1284 46.749L60.1844 46.894L60.2392 47.0397L60.2927 47.186L60.345 47.3331L60.3961 47.4807L60.4459 47.629L60.4944 47.7779L60.5416 47.9274L60.5876 48.0774L60.6322 48.2281L60.6756 48.3793L60.7176 48.531L60.7583 48.6832L60.7976 48.836L60.8356 48.9893L60.8723 49.1431L60.9076 49.2973L60.9415 49.452L60.9741 49.6071L61.0052 49.7627L61.035 49.9187L61.0634 50.075L61.0903 50.2318L61.1159 50.3889L61.14 50.5464L61.1627 50.7042L61.1839 50.8623L61.2037 51.0207L61.2221 51.1794L61.239 51.3384L61.2545 51.4977L61.2685 51.6571L61.281 51.8169L61.292 51.9768L61.3016 52.1369L61.3097 52.2972L61.3162 52.4576L61.3213 52.6182L61.3249 52.779L61.327 52.9398L61.3276 53.1007L61.3266 53.2617L61.3242 53.4228L61.3202 53.5839L61.3147 53.7451L61.3077 53.9062L61.2992 54.0674L61.2891 54.2285L61.2775 54.3896L61.2644 54.5506L61.2497 54.7116L61.2335 54.8724L61.2157 55.0332L61.1964 55.1938L61.1756 55.3543L61.1532 55.5147L61.1293 55.6748L61.1038 55.8348L61.0768 55.9945L61.0483 56.1541L61.0182 56.3133L60.9865 56.4724L60.9533 56.6311L60.9186 56.7896L60.8823 56.9477L60.8445 57.1055L60.8052 57.263L60.7643 57.4201L60.7219 57.5768L60.6779 57.7331L60.6324 57.889L60.5854 58.0445L60.5368 58.1995L60.4867 58.354L60.4351 58.5081L60.382 58.6616L60.3274 58.8147L60.2712 58.9672L60.2136 59.1191L60.1544 59.2705L60.0938 59.4213L60.0316 59.5715L59.968 59.7211L59.9028 59.87L59.8362 60.0183L59.7681 60.166L59.6986 60.3129L59.6275 60.4591L59.555 60.6046L59.4811 60.7494L59.4057 60.8934L59.3289 61.0367L59.2506 61.1792L59.1709 61.3208L59.0898 61.4617L59.0073 61.6017L58.9233 61.7409L58.838 61.8792L58.7513 62.0166L58.6632 62.1532L58.5737 62.2888L58.4828 62.4235L58.3906 62.5573L58.297 62.6901L58.2021 62.8219L58.1059 62.9528L58.0083 63.0826L57.9094 63.2114L57.8092 63.3392L57.7077 63.466L57.605 63.5917L57.5009 63.7163L57.3956 63.8398L57.2891 63.9622L57.1813 64.0836L57.0722 64.2037L56.9619 64.3228L56.8505 64.4406L56.7378 64.5573L56.6239 64.6729L56.5089 64.7872L56.3926 64.9003L56.2753 65.0122L56.1568 65.1228L56.0371 65.2322L55.9163 65.3403L55.7945 65.4472L55.6715 65.5528L55.5475 65.657L55.4224 65.76L55.2962 65.8616L55.169 65.9619L55.0407 66.0609L54.9115 66.1584L54.7812 66.2547L54.65 66.3495L54.5178 66.4429L54.3846 66.535L54.2505 66.6256L54.1154 66.7148L53.9795 66.8026L53.8426 66.8889L53.7048 66.9738L53.5662 67.0572L53.4267 67.1392L53.2863 67.2196L53.1452 67.2986L53.0032 67.376L52.8604 67.452L52.7168 67.5264L52.5725 67.5993L52.4274 67.6707L52.2816 67.7405L52.1351 67.8088L51.9878 67.8755L51.8399 67.9406L51.6912 68.0042L51.542 68.0662L51.3921 68.1266L51.2415 68.1854L51.0904 68.2426L50.9386 68.2982L50.7863 68.3522L50.6335 68.4045L50.4801 68.4553L50.3261 68.5044L50.1717 68.5518L50.0167 68.5976L49.8613 68.6418L49.7054 68.6843L49.5491 68.7252L49.3924 68.7644L49.2353 68.8019L49.0777 68.8377L48.9198 68.8719L48.7616 68.9044L48.603 68.9352L48.444 68.9643L48.2848 68.9918L48.1253 69.0175L47.9655 69.0416L47.8055 69.0639L47.6453 69.0846L47.4848 69.1035L47.3241 69.1208L47.1633 69.1363L47.0022 69.1502L46.8411 69.1623L46.6798 69.1727L46.5184 69.1814L46.3569 69.1884L46.1954 69.1937L46.0337 69.1973L45.8721 69.1992L45.7104 69.1993L45.5487 69.1978L45.387 69.1945L45.2254 69.1895L45.0638 69.1829L44.9023 69.1745L44.7408 69.1644L44.5795 69.1526L44.4183 69.1391L44.2572 69.1239L44.0963 69.107L43.9355 69.0884L43.7749 69.0682L43.6146 69.0462L43.4544 69.0226L43.2945 68.9972L43.1349 68.9702L42.9755 68.9415L42.8165 68.9112L42.6577 68.8791L42.4993 68.8454L42.3412 68.8101L42.1835 68.7731L42.0261 68.7344L41.8692 68.6941L41.7126 68.6522L41.5565 68.6086L41.4008 68.5635L41.2456 68.5166L41.0909 68.4682L40.9367 68.4182L40.7829 68.3665L40.6297 68.3133L40.4771 68.2584L40.325 68.202L40.1735 68.1441L40.0225 68.0845L39.8722 68.0234L39.7225 67.9607L39.5735 67.8965L39.425 67.8308L39.2773 67.7635L39.1303 67.6947L38.9839 67.6244L38.8383 67.5526L38.6933 67.4793L38.5492 67.4045L38.4058 67.3282L38.2631 67.2505L38.1213 67.1714L37.9803 67.0907L37.84 67.0087L37.7006 66.9252L37.5621 66.8403L37.4244 66.754L37.2876 66.6663L37.1517 66.5772L37.0167 66.4868L36.8825 66.395L36.7494 66.3018L36.6171 66.2073L36.4858 66.1115L36.3555 66.0144L36.2262 65.9159L36.0978 65.8162L35.9705 65.7152L35.8441 65.6129L35.7188 65.5094L35.5946 65.4046L35.4714 65.2987L35.3492 65.1915L35.2281 65.083L35.1081 64.9734L34.9892 64.8627L34.8715 64.7507L34.7548 64.6377L34.6393 64.5234L34.5249 64.4081L34.4116 64.2916L34.2996 64.1741L34.1886 64.0555L34.0789 63.9358L33.9704 63.8151L33.863 63.6933L33.7569 63.5705L33.652 63.4467L33.5483 63.3219L33.4459 63.1961L33.3447 63.0694L33.2447 62.9417L33.146 62.8131L33.0486 62.6836L32.9525 62.5532L32.8576 62.4219L32.764 62.2897L32.6718 62.1566L32.5808 62.0227L32.4912 61.888L32.4028 61.7525L32.3158 61.6162L32.2302 61.4791L32.1458 61.3413L32.0628 61.2027L31.9812 61.0634L31.9009 60.9233L31.822 60.7826L31.7445 60.6412L31.6683 60.4991L31.5935 60.3564L31.5201 60.2131L31.4481 60.0691L31.3774 59.9245L31.3082 59.7794L31.2403 59.6337L31.1739 59.4874L31.1088 59.3406L31.0452 59.1933L30.9829 59.0455L30.9221 58.8972L30.8627 58.7485L30.8048 58.5993L30.7482 58.4497L30.6931 58.2996L30.6393 58.1492L30.5871 57.9984L30.5362 57.8472L30.4868 57.6956L30.4388 57.5438L30.3922 57.3916L30.347 57.2391L30.3033 57.0864L30.2611 56.9334L30.2202 56.7801L30.1808 56.6266L30.1428 56.4729L30.1062 56.319L30.0711 56.1649L30.0374 56.0107L30.0051 55.8563L29.9743 55.7017L29.9449 55.5471L29.9169 55.3924L29.8903 55.2376L29.8651 55.0827L29.8414 54.9278L29.819 54.7728L29.7981 54.6178L29.7786 54.4629L29.7604 54.3079L29.7437 54.153L29.7284 53.9982L29.7145 53.8434L29.7019 53.6887L29.6908 53.534L29.681 53.3796L29.6726 53.2252L29.6656 53.071L29.6599 52.9169L29.6556 52.763L29.6526 52.6094L29.651 52.4559L29.6508 52.3026L29.6519 52.1496L29.6543 51.9969L29.658 51.8444L29.6631 51.6922L29.6694 51.5403L29.6771 51.3887L29.6861 51.2374L29.6964 51.0865L29.7079 50.936L29.7208 50.7858L29.7349 50.636L29.7502 50.4866L29.7669 50.3377L29.7847 50.1891L29.8038 50.041L29.8242 49.8934L29.8457 49.7462L29.8685 49.5996L29.8925 49.4534L29.9176 49.3077L29.944 49.1626L29.9715 49.018L30.0002 48.8739L30.0301 48.7304L30.0611 48.5875L30.0932 48.4452L30.1265 48.3035L30.1609 48.1624L30.1964 48.0219L30.2329 47.8821L30.2706 47.7429L30.3094 47.6044L30.3492 47.4666L30.39 47.3294L30.4319 47.193L30.4748 47.0572L30.5188 46.9222L30.5637 46.7879L30.6097 46.6543L30.6566 46.5215L30.7045 46.3895L30.7534 46.2582L30.8032 46.1277L30.854 45.998L30.9056 45.8692L30.9582 45.7411L31.0117 45.6138L31.066 45.4874L31.1213 45.3618L31.1774 45.2371L31.2343 45.1132L31.2921 44.9902L31.3507 44.868L31.4101 44.7468L31.4703 44.6264L31.5312 44.5069L31.593 44.3884L31.6555 44.2707L31.7187 44.154L31.7827 44.0382L31.8473 43.9233L31.9127 43.8094L31.9787 43.6965L32.0455 43.5844L32.1128 43.4734L32.1808 43.3633L32.2495 43.2542L32.3187 43.1461L32.3886 43.0389L32.459 42.9328L32.53 42.8276L32.6016 42.7235L32.6737 42.6203L32.7463 42.5182L32.8194 42.4171L32.8931 42.3169L32.9672 42.2179L33.0418 42.1198L33.1168 42.0228L33.1923 41.9268L33.2682 41.8318L33.3445 41.7379L33.4212 41.6451L33.4982 41.5532L33.5757 41.4625L33.6535 41.3727L33.7316 41.2841L33.81 41.1965L33.8887 41.1099L33.9678 41.0244L34.0471 40.9399L34.1266 40.8566L34.2064 40.7743L34.2864 40.693L34.3667 40.6128L34.4471 40.5337L34.5277 40.4556L34.6085 40.3786L34.6895 40.3027L34.7705 40.2278L34.8517 40.154L34.933 40.0812L35.0144 40.0096L35.0959 39.9389L35.1775 39.8694L35.2591 39.8008L35.3407 39.7334L35.4224 39.667L35.504 39.6016L35.5857 39.5373L35.6673 39.4741L35.7489 39.4119L35.8304 39.3507L35.9119 39.2906L35.9933 39.2315L36.0746 39.1734L36.1557 39.1164L36.2368 39.0604L36.3177 39.0054L36.3985 38.9514L36.4791 38.8984L36.5595 38.8465L36.6397 38.7955L36.7197 38.7456L36.7995 38.6966L36.8791 38.6486L36.9584 38.6017L37.0375 38.5556L37.1162 38.5106L37.1947 38.4665L37.2729 38.4234L37.3508 38.3813L37.4283 38.3401L37.5055 38.2998L37.5824 38.2605L37.6589 38.2221L37.735 38.1846L37.8107 38.148L37.886 38.1123L37.9609 38.0776L38.0354 38.0437L38.1094 38.0107L38.183 37.9786L38.2561 37.9473L38.3288 37.917L38.4009 37.8874L38.4726 37.8587L38.5437 37.8309L38.6144 37.8038L38.6845 37.7776L38.754 37.7522L38.823 37.7276L38.8914 37.7038L38.9593 37.6807L39.0266 37.6584L39.0933 37.6369L39.1593 37.6162L39.2248 37.5961L39.2896 37.5769L39.3538 37.5583L39.4174 37.5404L39.4803 37.5233L39.5426 37.5068L39.6041 37.491L39.665 37.4758L39.7252 37.4614L39.7847 37.4475L39.8435 37.4343L39.9016 37.4218L39.9589 37.4098L40.0155 37.3985L40.0714 37.3877L40.1266 37.3775L40.1809 37.3678L40.2346 37.3588L40.2874 37.3502L40.3395 37.3422L40.3908 37.3347L40.4413 37.3278L40.491 37.3213L40.5399 37.3153L40.588 37.3097L40.6353 37.3046L40.6817 37.3L40.7273 37.2958L40.7721 37.292L40.8161 37.2886L40.8592 37.2856L40.9015 37.283L40.9429 37.2807L40.9835 37.2788L41.0232 37.2772L41.062 37.276L41.1 37.2751L41.1371 37.2745L41.1733 37.2741L41.2086 37.2741L41.2431 37.2743L41.2766 37.2747L41.3093 37.2754L41.3411 37.2763L41.372 37.2774L41.402 37.2787L41.431 37.2802L41.4592 37.2819L41.4865 37.2837L41.5129 37.2856L41.5384 37.2877L41.5629 37.2899L41.5866 37.2922L41.6093 37.2945L41.6311 37.297L41.652 37.2995L41.6721 37.302L41.6911 37.3046L41.7093 37.3072L41.7266 37.3097L41.7429 37.3123L41.7584 37.3149L41.7729 37.3174L41.7866 37.3198L41.7993 37.3222L41.8111 37.3246L41.822 37.3268L41.832 37.3289L41.8411 37.3309L41.8493 37.3328L41.8566 37.3345L41.863 37.336L41.8685 37.3374L41.8731 37.3386L41.8769 37.3396L41.8797 37.3404L41.8817 37.341" stroke="url(#paint0_linear_124_474)"/>
    </g>
    <defs>
        <filter id="filter0_f_124_474" x="0.802734" y="0.875984" width="78.2957" height="77.8233" filterUnits="userSpaceOnUse" color-interpolation-filters="sRGB">
            <feFlood flood-opacity="0" result="BackgroundImageFix"/>
            <feBlend mode="normal" in="SourceGraphic" in2="BackgroundImageFix" result="shape"/>
            <feGaussianBlur stdDeviation="4.5" result="effect1_foregroundBlur_124_474"/>
        </filter>
        <linearGradient id="paint0_linear_124_474" x1="74.635" y1="26.1953" x2="24.8532" y2="57.2292" gradientUnits="userSpaceOnUse">
            <stop stop-color="#94B3FD"/>
            <stop offset="0.499634" stop-color="#FB6BFE"/>
            <stop offset="1" stop-color="#42C2FF"/>
        </linearGradient>
    </defs>
</svg>
