<svg width="115" height="113" viewBox="0 0 115 113" fill="none" xmlns="http://www.w3.org/2000/svg">
    <g filter="url(#filter0_f_126_2)">
        <path d="M57.1674 54.8566L57.1675 54.8546L57.1675 54.8523L57.1675 54.8498L57.1675 54.8471L57.1674 54.8442L57.1674 54.8411L57.1673 54.8377L57.1672 54.8342L57.167 54.8304L57.1668 54.8264L57.1665 54.8222L57.1662 54.8178L57.1659 54.8132L57.1655 54.8083L57.1651 54.8032L57.1645 54.798L57.164 54.7925L57.1633 54.7868L57.1626 54.7809L57.1618 54.7747L57.161 54.7684L57.16 54.7619L57.159 54.7551L57.1579 54.7482L57.1567 54.741L57.1555 54.7336L57.1541 54.7261L57.1526 54.7183L57.151 54.7103L57.1494 54.7021L57.1476 54.6938L57.1457 54.6852L57.1437 54.6764L57.1415 54.6674L57.1393 54.6582L57.1369 54.6489L57.1344 54.6393L57.1318 54.6295L57.1291 54.6196L57.1262 54.6095L57.1231 54.5991L57.12 54.5886L57.1167 54.5779L57.1132 54.567L57.1096 54.556L57.1058 54.5447L57.1019 54.5333L57.0978 54.5217L57.0936 54.5099L57.0892 54.4979L57.0846 54.4858L57.0799 54.4735L57.075 54.461L57.0699 54.4484L57.0646 54.4356L57.0591 54.4226L57.0535 54.4094L57.0477 54.3961L57.0417 54.3827L57.0355 54.3691L57.0291 54.3553L57.0225 54.3414L57.0157 54.3273L57.0086 54.3131L57.0014 54.2987L56.994 54.2842L56.9864 54.2696L56.9785 54.2548L56.9705 54.2398L56.9622 54.2248L56.9537 54.2096L56.945 54.1942L56.936 54.1788L56.9268 54.1632L56.9174 54.1475L56.9077 54.1316L56.8978 54.1157L56.8877 54.0996L56.8773 54.0834L56.8667 54.0671L56.8559 54.0507L56.8448 54.0342L56.8334 54.0176L56.8218 54.0009L56.8099 53.984L56.7978 53.9671L56.7854 53.9501L56.7728 53.933L56.7599 53.9158L56.7467 53.8986L56.7333 53.8812L56.7196 53.8638L56.7056 53.8463L56.6913 53.8287L56.6768 53.811L56.662 53.7933L56.6469 53.7755L56.6315 53.7577L56.6159 53.7397L56.5999 53.7218L56.5837 53.7038L56.5672 53.6857L56.5504 53.6676L56.5333 53.6494L56.5159 53.6312L56.4982 53.613L56.4802 53.5947L56.4619 53.5764L56.4434 53.5581L56.4245 53.5397L56.4053 53.5213L56.3858 53.5029L56.366 53.4845L56.3459 53.4661L56.3255 53.4477L56.3048 53.4292L56.2837 53.4108L56.2624 53.3923L56.2407 53.3739L56.2188 53.3555L56.1965 53.3371L56.1739 53.3187L56.1509 53.3003L56.1277 53.2819L56.1041 53.2636L56.0802 53.2453L56.056 53.227L56.0315 53.2088L56.0066 53.1906L55.9814 53.1724L55.9559 53.1543L55.9301 53.1362L55.9039 53.1182L55.8774 53.1003L55.8506 53.0824L55.8234 53.0646L55.7959 53.0468L55.7681 53.0291L55.74 53.0115L55.7115 52.994L55.6827 52.9766L55.6535 52.9592L55.624 52.9419L55.5942 52.9248L55.5641 52.9077L55.5336 52.8907L55.5028 52.8738L55.4716 52.8571L55.4401 52.8404L55.4083 52.8239L55.3761 52.8075L55.3436 52.7912L55.3108 52.775L55.2776 52.759L55.2441 52.7431L55.2102 52.7274L55.1761 52.7117L55.1415 52.6963L55.1067 52.681L55.0715 52.6658L55.036 52.6508L55.0001 52.636L54.9639 52.6213L54.9274 52.6068L54.8905 52.5924L54.8533 52.5783L54.8158 52.5643L54.7779 52.5505L54.7397 52.5369L54.7012 52.5235L54.6623 52.5103L54.6231 52.4973L54.5836 52.4845L54.5438 52.4719L54.5036 52.4595L54.4631 52.4474L54.4222 52.4354L54.3811 52.4237L54.3396 52.4122L54.2978 52.4009L54.2556 52.3899L54.2132 52.3791L54.1704 52.3686L54.1273 52.3583L54.0839 52.3482L54.0401 52.3384L53.9961 52.3289L53.9517 52.3196L53.907 52.3106L53.862 52.3019L53.8167 52.2934L53.7711 52.2852L53.7252 52.2773L53.679 52.2697L53.6324 52.2623L53.5856 52.2553L53.5384 52.2486L53.491 52.2421L53.4432 52.236L53.3952 52.2301L53.3469 52.2246L53.2982 52.2194L53.2493 52.2145L53.2001 52.21L53.1506 52.2057L53.1008 52.2018L53.0507 52.1982L53.0003 52.195L52.9497 52.1921L52.8988 52.1895L52.8476 52.1873L52.7961 52.1855L52.7443 52.184L52.6923 52.1828L52.64 52.1821L52.5875 52.1817L52.5347 52.1816L52.4816 52.1819L52.4282 52.1827L52.3747 52.1837L52.3208 52.1852L52.2667 52.1871L52.2124 52.1893L52.1578 52.192L52.1029 52.195L52.0479 52.1985L51.9925 52.2023L51.937 52.2066L51.8812 52.2112L51.8252 52.2163L51.7689 52.2218L51.7125 52.2277L51.6558 52.2341L51.5989 52.2408L51.5417 52.2481L51.4844 52.2557L51.4269 52.2638L51.3691 52.2723L51.3111 52.2812L51.253 52.2906L51.1946 52.3005L51.1361 52.3108L51.0773 52.3216L51.0184 52.3328L50.9593 52.3445L50.9 52.3566L50.8405 52.3692L50.7809 52.3823L50.721 52.3959L50.6611 52.4099L50.6009 52.4245L50.5406 52.4395L50.4801 52.4549L50.4195 52.4709L50.3587 52.4874L50.2978 52.5044L50.2367 52.5218L50.1755 52.5398L50.1142 52.5582L50.0527 52.5772L49.9911 52.5967L49.9294 52.6166L49.8676 52.6371L49.8056 52.6581L49.7435 52.6797L49.6813 52.7017L49.6191 52.7243L49.5567 52.7474L49.4942 52.771L49.4316 52.7951L49.3689 52.8198L49.3062 52.845L49.2434 52.8708L49.1805 52.8971L49.1175 52.9239L49.0544 52.9513L48.9913 52.9792L48.9282 53.0077L48.8649 53.0367L48.8017 53.0663L48.7383 53.0964L48.675 53.1271L48.6116 53.1583L48.5482 53.1901L48.4847 53.2224L48.4212 53.2554L48.3577 53.2888L48.2942 53.3229L48.2306 53.3575L48.1671 53.3927L48.1035 53.4285L48.04 53.4648L47.9765 53.5017L47.913 53.5392L47.8494 53.5772L47.786 53.6159L47.7225 53.6551L47.6591 53.6949L47.5957 53.7353L47.5323 53.7763L47.469 53.8178L47.4058 53.86L47.3426 53.9027L47.2794 53.9461L47.2163 53.99L47.1533 54.0345L47.0904 54.0796L47.0275 54.1253L46.9647 54.1716L46.9021 54.2185L46.8395 54.266L46.777 54.3141L46.7146 54.3627L46.6523 54.412L46.5901 54.4619L46.5281 54.5124L46.4661 54.5635L46.4043 54.6152L46.3427 54.6675L46.2811 54.7204L46.2197 54.7739L46.1585 54.828L46.0974 54.8827L46.0365 54.9381L45.9757 54.994L45.9151 55.0505L45.8547 55.1077L45.7945 55.1654L45.7344 55.2238L45.6746 55.2828L45.6149 55.3423L45.5554 55.4025L45.4962 55.4633L45.4371 55.5247L45.3783 55.5867L45.3197 55.6493L45.2613 55.7125L45.2031 55.7764L45.1452 55.8408L45.0875 55.9058L45.0301 55.9715L44.9729 56.0378L44.916 56.1046L44.8594 56.1721L44.803 56.2402L44.7469 56.3088L44.691 56.3781L44.6355 56.448L44.5802 56.5185L44.5253 56.5896L44.4706 56.6612L44.4162 56.7335L44.3622 56.8064L44.3085 56.8799L44.2551 56.954L44.202 57.0287L44.1492 57.1039L44.0968 57.1798L44.0448 57.2563L43.9931 57.3333L43.9417 57.411L43.8907 57.4892L43.8401 57.568L43.7898 57.6475L43.7399 57.7275L43.6904 57.808L43.6413 57.8892L43.5925 57.9709L43.5442 58.0533L43.4963 58.1362L43.4487 58.2197L43.4016 58.3037L43.3549 58.3884L43.3087 58.4736L43.2628 58.5593L43.2174 58.6457L43.1724 58.7326L43.1279 58.8201L43.0838 58.9081L43.0402 58.9967L42.9971 59.0858L42.9544 59.1755L42.9121 59.2658L42.8704 59.3566L42.8291 59.448L42.7883 59.5399L42.748 59.6323L42.7082 59.7253L42.6689 59.8189L42.6302 59.9129L42.5919 60.0075L42.5541 60.1027L42.5169 60.1983L42.4802 60.2945L42.444 60.3913L42.4084 60.4885L42.3733 60.5863L42.3387 60.6845L42.3047 60.7833L42.2713 60.8826L42.2384 60.9824L42.2061 61.0827L42.1744 61.1835L42.1432 61.2849L42.1126 61.3867L42.0826 61.489L42.0532 61.5917L42.0244 61.695L41.9962 61.7988L41.9686 61.903L41.9417 62.0077L41.9153 62.1129L41.8896 62.2185L41.8644 62.3246L41.84 62.4312L41.8161 62.5382L41.7929 62.6457L41.7703 62.7536L41.7484 62.862L41.7271 62.9708L41.7065 63.0801L41.6866 63.1898L41.6673 63.2999L41.6487 63.4104L41.6308 63.5214L41.6136 63.6328L41.597 63.7446L41.5812 63.8568L41.566 63.9694L41.5515 64.0825L41.5377 64.1959L41.5247 64.3097L41.5123 64.4239L41.5007 64.5385L41.4898 64.6535L41.4796 64.7689L41.4701 64.8846L41.4614 65.0007L41.4534 65.1171L41.4462 65.2339L41.4397 65.3511L41.4339 65.4686L41.4289 65.5865L41.4247 65.7047L41.4212 65.8232L41.4185 65.9421L41.4166 66.0613L41.4154 66.1808L41.415 66.3007L41.4154 66.4208L41.4166 66.5412L41.4185 66.662L41.4213 66.783L41.4248 66.9044L41.4292 67.026L41.4343 67.1479L41.4403 67.2701L41.4471 67.3925L41.4546 67.5152L41.463 67.6382L41.4723 67.7614L41.4823 67.8849L41.4932 68.0086L41.5049 68.1326L41.5174 68.2568L41.5308 68.3812L41.545 68.5058L41.56 68.6307L41.5759 68.7558L41.5927 68.881L41.6103 69.0065L41.6287 69.1322L41.6481 69.258L41.6682 69.3841L41.6893 69.5103L41.7112 69.6367L41.734 69.7632L41.7576 69.8899L41.7821 70.0168L41.8075 70.1438L41.8338 70.2709L41.861 70.3982L41.889 70.5256L41.918 70.6532L41.9478 70.7808L41.9785 70.9086L42.0102 71.0365L42.0427 71.1644L42.0761 71.2925L42.1104 71.4207L42.1456 71.5489L42.1818 71.6772L42.2188 71.8056L42.2568 71.934L42.2956 72.0625L42.3354 72.191L42.3761 72.3196L42.4177 72.4482L42.4603 72.5769L42.5037 72.7056L42.5481 72.8343L42.5934 72.963L42.6396 73.0917L42.6868 73.2204L42.7349 73.3491L42.7839 73.4778L42.8339 73.6064L42.8848 73.7351L42.9366 73.8637L42.9894 73.9922L43.0431 74.1207L43.0977 74.2492L43.1533 74.3776L43.2099 74.5059L43.2673 74.6342L43.3258 74.7623L43.3851 74.8904L43.4454 75.0184L43.5067 75.1463L43.5689 75.2741L43.6321 75.4018L43.6962 75.5293L43.7612 75.6567L43.8272 75.784L43.8942 75.9111L43.9621 76.0381L44.031 76.165L44.1008 76.2916L44.1716 76.4182L44.2433 76.5445L44.316 76.6706L44.3896 76.7966L44.4642 76.9223L44.5397 77.0479L44.6162 77.1732L44.6937 77.2984L44.7721 77.4233L44.8515 77.5479L44.9318 77.6724L45.0131 77.7966L45.0953 77.9205L45.1785 78.0442L45.2626 78.1676L45.3477 78.2907L45.4337 78.4136L45.5207 78.5361L45.6087 78.6584L45.6975 78.7804L45.7874 78.902L45.8782 79.0234L45.9699 79.1444L46.0626 79.2651L46.1562 79.3854L46.2508 79.5054L46.3464 79.6251L46.4428 79.7444L46.5402 79.8634L46.6386 79.9819L46.7379 80.1001L46.8381 80.2179L46.9393 80.3353L47.0414 80.4523L47.1445 80.5689L47.2484 80.6851L47.3533 80.8009L47.4592 80.9162L47.566 81.0312L47.6737 81.1456L47.7823 81.2596L47.8918 81.3732L48.0023 81.4863L48.1137 81.5989L48.226 81.7111L48.3392 81.8227L48.4534 81.9339L48.5684 82.0446L48.6844 82.1548L48.8012 82.2644L48.919 82.3736L49.0377 82.4822L49.1573 82.5903L49.2777 82.6978L49.3991 82.8048L49.5214 82.9113L49.6445 83.0172L49.7686 83.1225L49.8935 83.2273L50.0193 83.3314L50.146 83.435L50.2736 83.538L50.402 83.6404L50.5313 83.7422L50.6615 83.8433L50.7925 83.9439L50.9244 84.0438L51.0572 84.1431L51.1908 84.2417L51.3253 84.3397L51.4606 84.437L51.5968 84.5337L51.7338 84.6297L51.8716 84.7251L52.0103 84.8197L52.1498 84.9137L52.2902 85.007L52.4313 85.0995L52.5733 85.1914L52.7161 85.2826L52.8597 85.373L53.0041 85.4627L53.1493 85.5517L53.2954 85.6399L53.4422 85.7274L53.5898 85.8141L53.7382 85.9001L53.8874 85.9853L54.0373 86.0698L54.1881 86.1535L54.3396 86.2363L54.4919 86.3184L54.6449 86.3997L54.7987 86.4802L54.9533 86.5599L55.1086 86.6388L55.2646 86.7168L55.4214 86.7941L55.5789 86.8705L55.7371 86.946L55.8961 87.0207L56.0558 87.0946L56.2162 87.1676L56.3773 87.2398L56.5391 87.311L56.7016 87.3814L56.8648 87.451L57.0287 87.5196L57.1933 87.5874L57.3586 87.6542L57.5245 87.7202L57.6911 87.7852L57.8584 87.8493L58.0263 87.9126L58.1949 87.9748L58.3641 88.0362L58.534 88.0966L58.7045 88.1561L58.8756 88.2146L59.0474 88.2722L59.2197 88.3289L59.3927 88.3845L59.5663 88.4392L59.7405 88.493L59.9153 88.5457L60.0907 88.5975L60.2666 88.6482L60.4431 88.698L60.6202 88.7468L60.7979 88.7946L60.9761 88.8414L61.1549 88.8872L61.3342 88.9319L61.5141 88.9756L61.6944 89.0183L61.8754 89.06L62.0568 89.1007L62.2387 89.1403L62.4212 89.1788L62.6041 89.2163L62.7876 89.2527L62.9715 89.2881L63.1559 89.3225L63.3408 89.3557L63.5262 89.3879L63.712 89.419L63.8983 89.449L64.085 89.478L64.2721 89.5058L64.4597 89.5326L64.6477 89.5583L64.8361 89.5828L65.025 89.6063L65.2142 89.6286L65.4039 89.6499L65.5939 89.67L65.7843 89.689L65.9751 89.7069L66.1663 89.7236L66.3578 89.7392L66.5497 89.7537L66.7419 89.7671L66.9344 89.7793L67.1273 89.7903L67.3206 89.8002L67.5141 89.809L67.7079 89.8166L67.9021 89.8231L68.0965 89.8283L68.2912 89.8325L68.4863 89.8354L68.6815 89.8372L68.8771 89.8378L69.0729 89.8372L69.2689 89.8355L69.4652 89.8326L69.6617 89.8284L69.8585 89.8232L70.0554 89.8167L70.2526 89.809L70.45 89.8001L70.6476 89.79L70.8453 89.7787L71.0433 89.7663L71.2414 89.7526L71.4396 89.7377L71.6381 89.7216L71.8366 89.7042L72.0353 89.6857L72.2342 89.666L72.4331 89.645L72.6322 89.6228L72.8314 89.5994L73.0307 89.5748L73.23 89.549L73.4295 89.5219L73.629 89.4936L73.8286 89.464L74.0282 89.4333L74.2279 89.4012L74.4277 89.368L74.6274 89.3335L74.8272 89.2978L75.027 89.2609L75.2268 89.2227L75.4266 89.1833L75.6264 89.1426L75.8262 89.1007L76.026 89.0575L76.2257 89.0131L76.4254 88.9674L76.625 88.9205L76.8246 88.8724L77.0241 88.823L77.2235 88.7724L77.4228 88.7205L77.6221 88.6673L77.8212 88.6129L78.0202 88.5573L78.2192 88.5004L78.4179 88.4423L78.6166 88.3829L78.8151 88.3222L79.0135 88.2603L79.2116 88.1972L79.4097 88.1328L79.6075 88.0671L79.8052 88.0002L80.0026 87.9321L80.1999 87.8627L80.3969 87.792L80.5937 87.7201L80.7903 87.647L80.9867 87.5726L81.1828 87.4969L81.3786 87.42L81.5742 87.3419L81.7695 87.2625L81.9646 87.1818L82.1593 87.1L82.3537 87.0168L82.5479 86.9325L82.7417 86.8469L82.9352 86.76L83.1284 86.6719L83.3212 86.5826L83.5136 86.492L83.7058 86.4002L83.8975 86.3072L84.0889 86.213L84.2799 86.1175L84.4705 86.0207L84.6607 85.9228L84.8505 85.8236L85.0398 85.7232L85.2288 85.6216L85.4173 85.5187L85.6053 85.4147L85.793 85.3094L85.9801 85.2029L86.1668 85.0952L86.353 84.9863L86.5387 84.8762L86.724 84.7649L86.9087 84.6523L87.0929 84.5386L87.2766 84.4237L87.4598 84.3076L87.6424 84.1903L87.8245 84.0718L88.0061 83.9521L88.187 83.8312L88.3675 83.7091L88.5473 83.5859L88.7265 83.4615L88.9052 83.3359L89.0833 83.2092L89.2607 83.0813L89.4375 82.9522L89.6137 82.822L89.7893 82.6906L89.9642 82.558L90.1385 82.4243L90.3121 82.2895L90.4851 82.1535L90.6573 82.0164L90.8289 81.8781L90.9998 81.7387L91.17 81.5982L91.3395 81.4566L91.5083 81.3138L91.6764 81.17L91.8437 81.025L92.0103 80.8789L92.1761 80.7317L92.3412 80.5834L92.5056 80.434L92.6691 80.2836L92.8319 80.132L92.9939 79.9794L93.1551 79.8256L93.3156 79.6709L93.4752 79.515L93.6339 79.3581L93.7919 79.2001L93.949 79.0411L94.1053 78.881L94.2608 78.7198L94.4154 78.5577L94.5692 78.3945L94.722 78.2303L94.874 78.065L95.0252 77.8987L95.1754 77.7315L95.3247 77.5632L95.4732 77.3939L95.6207 77.2236L95.7673 77.0523L95.913 76.88L96.0577 76.7068L96.2015 76.5325L96.3444 76.3573L96.4863 76.1812L96.6273 76.0041L96.7672 75.826L96.9063 75.647L97.0443 75.467L97.1813 75.2861L97.3174 75.1043L97.4525 74.9215L97.5865 74.7379L97.7195 74.5533L97.8516 74.3678L97.9826 74.1814L98.1125 73.9942L98.2414 73.806L98.3693 73.617L98.4961 73.427L98.6219 73.2363L98.7466 73.0446L98.8702 72.8521L98.9928 72.6588L99.1143 72.4646L99.2346 72.2696L99.3539 72.0738L99.4721 71.8771L99.5892 71.6796L99.7052 71.4813L99.82 71.2822L99.9337 71.0824L100.046 70.8817L100.158 70.6803L100.268 70.478L100.377 70.2751L100.485 70.0713L100.592 69.8668L100.698 69.6616L100.802 69.4556L100.906 69.2489L101.008 69.0415L101.109 68.8334L101.209 68.6245L101.307 68.415L101.405 68.2048L101.501 67.9939L101.596 67.7823L101.69 67.57L101.782 67.3571L101.874 67.1435L101.964 66.9293L102.053 66.7144L102.14 66.499L102.227 66.2828L102.312 66.0661L102.396 65.8488L102.478 65.6309L102.56 65.4123L102.64 65.1932L102.719 64.9735L102.796 64.7533L102.872 64.5325L102.947 64.3111L103.021 64.0892L103.093 63.8668L103.165 63.6438L103.234 63.4203L103.303 63.1964L103.37 62.9719L103.436 62.7469L103.501 62.5214L103.564 62.2955L103.626 62.0691L103.686 61.8422L103.746 61.6149L103.804 61.3871L103.86 61.1589L103.916 60.9303L103.97 60.7012L104.022 60.4718L104.073 60.2419L104.123 60.0117L104.172 59.7811L104.219 59.5501L104.265 59.3187L104.309 59.087L104.352 58.8549L104.394 58.6225L104.435 58.3898L104.474 58.1568L104.511 57.9234L104.547 57.6897L104.582 57.4558L104.616 57.2215L104.648 56.987L104.679 56.7522L104.708 56.5171L104.736 56.2818L104.762 56.0463L104.788 55.8105L104.811 55.5745L104.834 55.3383L104.855 55.1019L104.874 54.8652L104.878 54.8214L104.895 54.5845L104.912 54.3475L104.927 54.1103L104.941 53.873L104.953 53.6355L104.964 53.3979L104.973 53.1601L104.981 52.9223L104.988 52.6843L104.993 52.4462L104.997 52.208L104.999 51.9697L105 51.7314L105 51.4929L104.998 51.2545L104.994 51.0159L104.99 50.7774L104.983 50.5388L104.976 50.3002L104.967 50.0616L104.956 49.8229L104.944 49.5843L104.931 49.3457L104.916 49.1071L104.9 48.8686L104.883 48.6301L104.864 48.3917L104.843 48.1533L104.822 47.915L104.798 47.6767L104.774 47.4386L104.748 47.2005L104.72 46.9626L104.691 46.7248L104.661 46.4871L104.629 46.2496L104.596 46.0122L104.561 45.7749L104.525 45.5378L104.488 45.3009L104.449 45.0642L104.409 44.8276L104.367 44.5913L104.324 44.3552L104.279 44.1193L104.233 43.8836L104.186 43.6481L104.137 43.4129L104.087 43.178L104.036 42.9433L103.983 42.7089L103.928 42.4748L103.873 42.241L103.816 42.0074L103.757 41.7742L103.697 41.5413L103.636 41.3087L103.573 41.0765L103.509 40.8446L103.444 40.6131L103.377 40.3819L103.308 40.1511L103.239 39.9207L103.168 39.6907L103.095 39.4611L103.022 39.2319L102.947 39.0031L102.87 38.7747L102.792 38.5468L102.713 38.3193L102.633 38.0923L102.551 37.8657L102.467 37.6396L102.383 37.414L102.297 37.1888L102.21 36.9642L102.121 36.7401L102.031 36.5165L101.94 36.2934L101.847 36.0708L101.753 35.8488L101.658 35.6273L101.561 35.4064L101.464 35.1861L101.364 34.9663L101.264 34.7471L101.162 34.5285L101.059 34.3105L100.955 34.0931L100.849 33.8763L100.742 33.6602L100.634 33.4447L100.524 33.2298L100.413 33.0156L100.301 32.802L100.188 32.5891L100.073 32.3769L99.9575 32.1653L99.8404 31.9545L99.722 31.7443L99.6024 31.5349L99.4816 31.3261L99.3595 31.1181L99.2363 30.9108L99.1117 30.7043L98.986 30.4985L98.8591 30.2935L98.7309 30.0892L98.6016 29.8857L98.471 29.6829L98.3393 29.481L98.2064 29.2798L98.0723 29.0795L97.937 28.8799L97.8005 28.6812L97.6629 28.4833L97.5241 28.2862L97.3842 28.09L97.2431 27.8946L97.1009 27.7L96.9575 27.5063L96.813 27.3135L96.6674 27.1216L96.5207 26.9305L96.3728 26.7403L96.2239 26.5511L96.0738 26.3627L95.9227 26.1752L95.7704 25.9887L95.6171 25.8031L95.4627 25.6184L95.3072 25.4346L95.1507 25.2518L94.9931 25.0699L94.8344 24.889L94.6747 24.7091L94.514 24.5301L94.3522 24.3521L94.1895 24.1751L94.0256 23.9991L93.8608 23.8241L93.695 23.6501L93.5282 23.4771L93.3604 23.3051L93.1916 23.1341L93.0218 22.9642L92.851 22.7953L92.6793 22.6274L92.5066 22.4606L92.333 22.2948L92.1585 22.1301L91.983 21.9665L91.8065 21.8039L91.6292 21.6424L91.4509 21.482L91.2718 21.3227L91.0917 21.1645L90.9107 21.0073L90.7289 20.8513L90.5462 20.6964L90.3626 20.5426L90.1781 20.3899L89.9928 20.2383L89.8067 20.0879L89.6197 19.9386L89.4318 19.7905L89.2432 19.6435L89.0537 19.4976L88.8634 19.3529L88.6724 19.2094L88.4805 19.067L88.2879 18.9258L88.0944 18.7858L87.9002 18.647L87.7053 18.5093L87.5096 18.3729L87.3131 18.2376L87.1159 18.1035L86.918 17.9707L86.7194 17.839L86.52 17.7086L86.32 17.5794L86.1192 17.4514L85.9178 17.3246L85.7157 17.199L85.5129 17.0747L85.3094 16.9516L85.1053 16.8298L84.9006 16.7092L84.6952 16.5899L84.4892 16.4718L84.2825 16.3549L84.0753 16.2394L83.8674 16.125L83.659 16.012L83.45 15.9002L83.2403 15.7897L83.0302 15.6805L82.8194 15.5725L82.6081 15.4659L82.3963 15.3605L82.1839 15.2564L81.971 15.1536L81.7576 15.0521L81.5437 14.9519L81.3293 14.853L81.1143 14.7554L80.8989 14.6592L80.6831 14.5642L80.4667 14.4705L80.2499 14.3782L80.0327 14.2871L79.815 14.1974L79.5969 14.109L79.3784 14.022L79.1595 13.9362L78.9401 13.8518L78.7204 13.7687L78.5003 13.687L78.2798 13.6066L78.0589 13.5275L77.8377 13.4498L77.6161 13.3734L77.3942 13.2983L77.172 13.2246L76.9494 13.1522L76.7265 13.0812L76.5033 13.0115L76.2799 12.9432L76.0561 12.8762L75.8321 12.8106L75.6078 12.7463L75.3832 12.6834L75.1584 12.6219L74.9333 12.5617L74.708 12.5028L74.4825 12.4453L74.2568 12.3892L74.0309 12.3345L73.8048 12.2811L73.5785 12.229L73.352 12.1783L73.1253 12.129L72.8985 12.0811L72.6715 12.0345L72.4444 11.9892L72.2172 11.9454L71.9899 11.9029L71.7624 11.8617L71.5348 11.822L71.3071 11.7836L71.0794 11.7465L70.8516 11.7108L70.6237 11.6765L70.3957 11.6436L70.1677 11.612L69.9396 11.5818L69.7116 11.5529L69.4834 11.5254L69.2553 11.4993L69.0272 11.4745L68.7991 11.4511L68.571 11.429L68.3429 11.4083L68.1148 11.389L67.8868 11.371L67.6589 11.3544L67.4309 11.3391L67.2031 11.3252L66.9753 11.3126L66.7477 11.3014L66.5201 11.2915L66.2926 11.283L66.0652 11.2759L65.838 11.27L65.6108 11.2656L65.3839 11.2624L65.157 11.2606L64.9303 11.2602L64.7038 11.2611L64.4775 11.2633L64.2513 11.2668L64.0253 11.2717L63.7996 11.2779L63.574 11.2855L63.3487 11.2943L63.1235 11.3045L62.8986 11.316L62.674 11.3289L62.4496 11.343L62.2255 11.3585L62.0016 11.3753L61.778 11.3933L61.5547 11.4127L61.3317 11.4334L61.109 11.4554L60.8866 11.4787L60.6645 11.5033L60.4428 11.5292L60.2214 11.5563L60.0003 11.5848L59.7796 11.6145L59.5592 11.6456L59.3392 11.6779L59.1196 11.7114L58.9004 11.7463L58.6816 11.7824L58.4631 11.8197L58.2451 11.8584L58.0275 11.8983L57.8103 11.9394L57.5936 11.9818L57.3773 12.0254L57.1615 12.0703L56.9461 12.1164L56.7312 12.1638L56.5167 12.2123L56.3027 12.2621L56.0893 12.3132L55.8763 12.3654L55.6638 12.4189L55.4519 12.4736L55.2404 12.5294L55.0295 12.5865L54.8191 12.6448L54.6093 12.7043L54.4 12.7649L54.1913 12.8268L53.9832 12.8898L53.7756 12.954L53.5686 13.0194L53.3622 13.0859L53.1564 13.1536L52.9511 13.2224L52.7465 13.2924L52.5426 13.3636L52.3392 13.4359L52.1365 13.5093L51.9344 13.5839L51.7329 13.6596L51.5322 13.7364L51.332 13.8143L51.1326 13.8933L50.9338 13.9735L50.7357 14.0547L50.5382 14.137L50.3415 14.2205L50.1455 14.305L49.9502 14.3906L49.7556 14.4772L49.5617 14.565L49.3685 14.6538L49.1761 14.7436L48.9845 14.8345L48.7935 14.9265L48.6033 15.0195L48.4139 15.1135L48.2253 15.2085L48.0374 15.3046L47.8503 15.4017L47.664 15.4998L47.4784 15.5989L47.2937 15.699L47.1098 15.8001L46.9267 15.9022L46.7444 16.0053L46.5629 16.1093L46.3822 16.2143L46.2024 16.3203L46.0234 16.4272L45.8453 16.535L45.668 16.6439L45.4915 16.7536L45.316 16.8643L45.1412 16.9759L44.9674 17.0884L44.7944 17.2018L44.6223 17.3162L44.4512 17.4314L44.2808 17.5475L44.1114 17.6645L43.9429 17.7824L43.7753 17.9011L43.6087 18.0207L43.4429 18.1412L43.2781 18.2625L43.1141 18.3847L42.9512 18.5077L42.7891 18.6315L42.628 18.7561L42.4678 18.8816L42.3086 19.0079L42.1504 19.1349L41.9931 19.2628L41.8368 19.3914L41.6814 19.5209L41.527 19.6511L41.3736 19.782L41.2212 19.9138L41.0698 20.0462L40.9193 20.1795L40.7699 20.3134L40.6214 20.4481L40.474 20.5835L40.3275 20.7196L40.1821 20.8565L40.0376 20.994L39.8942 21.1322L39.7519 21.2711L39.6105 21.4107L39.4702 21.551L39.3309 21.6919L39.1926 21.8335L39.0554 21.9757L38.9192 22.1185L38.784 22.262L38.6499 22.4062L38.5169 22.5509L38.3849 22.6962L38.254 22.8422L38.1241 22.9887L37.9953 23.1359L37.8676 23.2836L37.7409 23.4319L37.6153 23.5807L37.4908 23.7301L37.3674 23.8801L37.245 24.0305L37.1237 24.1816L37.0035 24.3331L36.8844 24.4852L36.7664 24.6378L36.6495 24.7908L36.5336 24.9444L36.4189 25.0985L36.3053 25.253L36.1927 25.408L36.0813 25.5635L35.971 25.7194L35.8617 25.8758L35.7536 26.0326L35.6466 26.1899L35.5407 26.3475L35.436 26.5056L35.3323 26.6641L35.2297 26.823L35.1283 26.9823L35.028 27.142L34.9288 27.302L34.8308 27.4624L34.7338 27.6232L34.638 27.7843L34.5433 27.9458L34.4497 28.1076L34.3573 28.2697L34.266 28.4322L34.1758 28.595L34.0868 28.7581L33.9989 28.9214L33.9121 29.0851L33.8264 29.249L33.7419 29.4133L33.6585 29.5777L33.5763 29.7425L33.4952 29.9075L33.4152 30.0727L33.3364 30.2382L33.2587 30.4039L33.1821 30.5698L33.1067 30.7359L33.0324 30.9023L32.9592 31.0688L32.8872 31.2355L32.8163 31.4024L32.7466 31.5694L32.6779 31.7367L32.6105 31.9041L32.5441 32.0716L32.4789 32.2393L32.4149 32.4071L32.3519 32.575L32.2901 32.743L32.2294 32.9112L32.1699 33.0794L32.1115 33.2478L32.0542 33.4162L31.9981 33.5847L31.9431 33.7533L31.8892 33.9219L31.8364 34.0906L31.7848 34.2594L31.7343 34.4282L31.6849 34.597L31.6366 34.7658L31.5895 34.9347L31.5435 35.1036L31.4986 35.2724L31.4548 35.4413L31.4122 35.6102L31.3706 35.779L31.3302 35.9478L31.2908 36.1166L31.2526 36.2853L31.2155 36.454L31.1795 36.6226L31.1446 36.7911L31.1109 36.9596L31.0782 37.128L31.0466 37.2963L31.0161 37.4645L30.9867 37.6327L30.9584 37.8007L30.9312 37.9686L30.905 38.1363L30.88 38.304L30.856 38.4715L30.8332 38.6388L30.8114 38.806L30.7906 38.9731L30.771 39.1399L30.7524 39.3066L30.7349 39.4731L30.7185 39.6395L30.7031 39.8056L30.6888 39.9715L30.6755 40.1373L30.6633 40.3028L30.6522 40.4681L30.6421 40.6331L30.633 40.798L30.625 40.9626L30.618 41.1269L30.6121 41.291L30.6071 41.4548L30.6033 41.6183L30.6004 41.7816L30.5986 41.9446L30.5978 42.1073L30.598 42.2697L30.5992 42.4318L30.6014 42.5936L30.6047 42.7551L30.6089 42.9162L30.6141 43.0771L30.6204 43.2375L30.6276 43.3977L30.6358 43.5575L30.645 43.717L30.6552 43.8761L30.6663 44.0348L30.6784 44.1932L30.6915 44.3511L30.7056 44.5087L30.7206 44.6659L30.7365 44.8228L30.7535 44.9792L30.7713 45.1352L30.7901 45.2908L30.8099 45.4459L30.8306 45.6007L30.8522 45.755L30.8747 45.9089L30.8982 46.0623L30.9225 46.2153L30.9478 46.3679L30.974 46.52L31.0011 46.6716L31.0291 46.8227L31.058 46.9734L31.0878 47.1236L31.1184 47.2733L31.15 47.4225L31.1824 47.5712L31.2157 47.7194L31.2498 47.8671L31.2849 48.0143L31.3207 48.161L31.3574 48.3072L31.395 48.4528L31.4334 48.5979L31.4727 48.7425L31.5127 48.8865L31.5536 49.03L31.5954 49.1729L31.6379 49.3153L31.6812 49.4571L31.7254 49.5983L31.7703 49.739L31.8161 49.879L31.8626 50.0186L31.9099 50.1575L31.958 50.2958L32.0069 50.4336L32.0565 50.5707L32.1069 50.7073L32.1581 50.8432L32.21 50.9785L32.2626 51.1132L32.316 51.2473L32.3701 51.3808L32.425 51.5137L32.4805 51.6459L32.5368 51.7775L32.5938 51.9084L32.6516 52.0387L32.71 52.1684L32.7691 52.2974L32.8289 52.4257L32.8893 52.5534L32.9505 52.6804L33.0123 52.8068L33.0748 52.9325L33.138 53.0575L33.2018 53.1819L33.2662 53.3055L33.3313 53.4285L33.3971 53.5508L33.4634 53.6724L33.5304 53.7934L33.598 53.9136L33.6663 54.0331L33.7351 54.152L33.8045 54.2701L33.8746 54.3875L33.9452 54.5042L34.0164 54.6202L34.0881 54.7355L34.1605 54.85L34.2334 54.9639L34.3069 55.077L34.3809 55.1894L34.4554 55.301L34.5305 55.412L34.6062 55.5222L34.6823 55.6316L34.759 55.7404L34.8362 55.8483L34.9139 55.9556L34.9921 56.0621L35.0709 56.1678L35.1501 56.2728L35.2297 56.377L35.3099 56.4805L35.3905 56.5833L35.4716 56.6852L35.5532 56.7864L35.6352 56.8869L35.7176 56.9866L35.8005 57.0855L35.8839 57.1837L35.9676 57.2811L36.0518 57.3777L36.1364 57.4735L36.2214 57.5686L36.3068 57.6629L36.3926 57.7564L36.4788 57.8492L36.5654 57.9412L36.6523 58.0323L36.7397 58.1227L36.8273 58.2124L36.9154 58.3012L37.0038 58.3893L37.0925 58.4766L37.1816 58.5631L37.271 58.6488L37.3608 58.7337L37.4508 58.8178L37.5412 58.9011L37.6319 58.9837L37.7229 59.0654L37.8142 59.1464L37.9057 59.2266L37.9976 59.306L38.0897 59.3846L38.1821 59.4624L38.2748 59.5394L38.3677 59.6156L38.4609 59.691L38.5543 59.7656L38.648 59.8394L38.7419 59.9125L38.836 59.9847L38.9303 60.0562L39.0249 60.1268L39.1196 60.1967L39.2146 60.2657L39.3098 60.334L39.4051 60.4015L39.5006 60.4681L39.5963 60.534L39.6922 60.5991L39.7883 60.6634L39.8845 60.7269L39.9808 60.7897L40.0773 60.8516L40.174 60.9127L40.2708 60.9731L40.3677 61.0326L40.4647 61.0914L40.5619 61.1494L40.6591 61.2066L40.7565 61.263L40.8539 61.3186L40.9515 61.3734L41.0491 61.4275L41.1468 61.4808L41.2446 61.5333L41.3425 61.585L41.4404 61.6359L41.5384 61.6861L41.6365 61.7354L41.7345 61.7841L41.8327 61.8319L41.9308 61.8789L42.029 61.9252L42.1272 61.9708L42.2254 62.0155L42.3237 62.0595L42.4219 62.1027L42.5202 62.1452L42.6184 62.1869L42.7166 62.2278L42.8148 62.268L42.913 62.3074L43.0112 62.3461L43.1093 62.384L43.2074 62.4212L43.3054 62.4576L43.4034 62.4933L43.5014 62.5282L43.5992 62.5624L43.697 62.5958L43.7948 62.6285L43.8924 62.6605L43.99 62.6917L44.0875 62.7222L44.1849 62.752L44.2822 62.7811L44.3794 62.8094L44.4765 62.837L44.5735 62.8639L44.6704 62.89L44.7671 62.9155L44.8637 62.9402L44.9602 62.9643L45.0565 62.9876L45.1527 63.0102L45.2488 63.0321L45.3447 63.0533L45.4404 63.0739L45.536 63.0937L45.6314 63.1128L45.7266 63.1313L45.8217 63.1491L45.9165 63.1662L46.0112 63.1826L46.1057 63.1983L46.2 63.2134L46.2941 63.2278L46.388 63.2415L46.4817 63.2545L46.5752 63.267L46.6684 63.2787L46.7615 63.2898L46.8543 63.3002L46.9468 63.31L47.0392 63.3192L47.1313 63.3277L47.2231 63.3356L47.3147 63.3428L47.4061 63.3494L47.4972 63.3554L47.588 63.3608L47.6786 63.3655L47.7689 63.3696L47.8589 63.3732L47.9486 63.3761L48.0381 63.3784L48.1273 63.3801L48.2162 63.3812L48.3048 63.3817L48.3931 63.3816L48.4811 63.3809L48.5688 63.3796L48.6562 63.3778L48.7433 63.3754L48.83 63.3724L48.9165 63.3689L49.0026 63.3647L49.0884 63.3601L49.1739 63.3548L49.259 63.3491L49.3438 63.3427L49.4283 63.3358L49.5124 63.3284L49.5961 63.3205L49.6796 63.312L49.7626 63.303L49.8454 63.2934L49.9277 63.2834L50.0097 63.2728L50.0913 63.2617L50.1726 63.2501L50.2535 63.238L50.334 63.2254L50.4142 63.2123L50.4939 63.1988L50.5733 63.1847L50.6523 63.1701L50.7309 63.1551L50.8091 63.1396L50.887 63.1236L50.9644 63.1072L51.0414 63.0903L51.1181 63.0729L51.1943 63.0551L51.2701 63.0369L51.3455 63.0182L51.4205 62.999L51.4951 62.9795L51.5693 62.9595L51.6431 62.939L51.7164 62.9182L51.7894 62.8969L51.8619 62.8752L51.9339 62.8531L52.0056 62.8307L52.0768 62.8078L52.1476 62.7845L52.2179 62.7608L52.2879 62.7367L52.3573 62.7123L52.4264 62.6875L52.495 62.6623L52.5631 62.6367L52.6309 62.6108L52.6981 62.5845L52.765 62.5579L52.8313 62.5309L52.8973 62.5036L52.9627 62.4759L53.0278 62.4479L53.0923 62.4196L53.1564 62.3909L53.2201 62.3619L53.2833 62.3326L53.346 62.303L53.4083 62.2731L53.4701 62.2429L53.5315 62.2123L53.5924 62.1815L53.6528 62.1504L53.7128 62.119L53.7723 62.0873L53.8313 62.0554L53.8898 62.0232L53.9479 61.9907L54.0055 61.9579L54.0627 61.9249L54.1194 61.8917L54.1756 61.8581L54.2313 61.8244L54.2866 61.7904L54.3414 61.7562L54.3957 61.7217L54.4495 61.687L54.5029 61.6521L54.5558 61.617L54.6082 61.5816L54.6602 61.5461L54.7116 61.5104L54.7626 61.4744L54.8131 61.4383L54.8632 61.4019L54.9127 61.3654L54.9618 61.3287L55.0104 61.2919L55.0586 61.2548L55.1062 61.2176L55.1534 61.1802L55.2001 61.1427L55.2464 61.105L55.2921 61.0672L55.3374 61.0292L55.3822 60.9911L55.4265 60.9528L55.4704 60.9145L55.5138 60.8759L55.5567 60.8373L55.5992 60.7985L55.6411 60.7597L55.6826 60.7207L55.7237 60.6816L55.7642 60.6424L55.8043 60.6031L55.8439 60.5638L55.8831 60.5243L55.9218 60.4848L55.96 60.4451L55.9978 60.4054L56.0351 60.3656L56.0719 60.3258L56.1083 60.2859L56.1442 60.2459L56.1796 60.2059L56.2146 60.1658L56.2491 60.1257L56.2832 60.0855L56.3168 60.0453L56.35 60.0051L56.3827 59.9648L56.415 59.9245L56.4468 59.8842L56.4782 59.8439L56.5091 59.8036L56.5395 59.7632L56.5696 59.7228L56.5992 59.6825L56.6283 59.6421L56.657 59.6017L56.6853 59.5614L56.7131 59.521L56.7405 59.4807L56.7675 59.4404L56.794 59.4001L56.8201 59.3599L56.8458 59.3196L56.871 59.2795L56.8958 59.2393L56.9202 59.1992L56.9442 59.1591L56.9678 59.1191L56.9909 59.0792L57.0136 59.0393L57.036 58.9994L57.0579 58.9596L57.0794 58.9199L57.1005 58.8803L57.1212 58.8407L57.1414 58.8012L57.1613 58.7618L57.1808 58.7225L57.1999 58.6832L57.2186 58.6441L57.2369 58.605L57.2549 58.5661L57.2724 58.5272L57.2896 58.4884L57.3064 58.4498L57.3227 58.4112L57.3388 58.3728L57.3544 58.3345L57.3697 58.2963L57.3846 58.2582L57.3992 58.2203L57.4133 58.1824L57.4272 58.1447L57.4406 58.1072L57.4537 58.0698L57.4665 58.0325L57.4789 57.9953L57.491 57.9583L57.5027 57.9215L57.514 57.8848L57.5251 57.8482L57.5358 57.8118L57.5461 57.7756L57.5562 57.7395L57.5659 57.7036L57.5753 57.6679L57.5843 57.6323L57.5931 57.5969L57.6015 57.5616L57.6096 57.5266L57.6174 57.4917L57.6249 57.457L57.6321 57.4224L57.639 57.3881L57.6456 57.354L57.6519 57.32L57.6579 57.2862L57.6636 57.2526L57.6691 57.2193L57.6742 57.1861L57.6791 57.1531L57.6837 57.1203L57.688 57.0877L57.6921 57.0553L57.6959 57.0232L57.6994 56.9912L57.7026 56.9594L57.7057 56.9279L57.7084 56.8966L57.7109 56.8655L57.7132 56.8346L57.7152 56.8039L57.717 56.7734L57.7185 56.7432L57.7198 56.7132L57.7209 56.6834L57.7217 56.6539L57.7224 56.6245L57.7228 56.5955L57.723 56.5666L57.7229 56.538L57.7227 56.5096L57.7223 56.4814L57.7216 56.4535L57.7208 56.4258L57.7197 56.3983L57.7185 56.3711L57.7171 56.3442L57.7155 56.3174L57.7137 56.2909L57.7117 56.2647L57.7095 56.2387L57.7072 56.213L57.7047 56.1875L57.7021 56.1622L57.6993 56.1372L57.6963 56.1124L57.6931 56.0879L57.6899 56.0637L57.6864 56.0397L57.6829 56.0159L57.6791 55.9924L57.6753 55.9692L57.6713 55.9462L57.6672 55.9234L57.6629 55.901L57.6586 55.8787L57.6541 55.8568L57.6495 55.835L57.6448 55.8136L57.6399 55.7924L57.635 55.7714L57.63 55.7507L57.6248 55.7303L57.6196 55.7101L57.6143 55.6902L57.6089 55.6705L57.6034 55.6511L57.5978 55.632L57.5921 55.6131L57.5864 55.5945L57.5806 55.5761L57.5747 55.558L57.5688 55.5401L57.5628 55.5225L57.5567 55.5052L57.5506 55.4881L57.5444 55.4712L57.5382 55.4546L57.532 55.4383L57.5257 55.4222L57.5194 55.4064L57.513 55.3909L57.5066 55.3755L57.5002 55.3605L57.4937 55.3457L57.4873 55.3311L57.4808 55.3168L57.4743 55.3028L57.4678 55.289L57.4612 55.2754L57.4547 55.2621L57.4482 55.249L57.4417 55.2362L57.4352 55.2237L57.4287 55.2113L57.4222 55.1992L57.4157 55.1874L57.4092 55.1758L57.4028 55.1645L57.3964 55.1533L57.39 55.1425L57.3837 55.1318L57.3773 55.1214L57.3711 55.1112L57.3648 55.1013L57.3586 55.0916L57.3525 55.0821L57.3464 55.0729L57.3403 55.0638L57.3343 55.055L57.3284 55.0465L57.3225 55.0381L57.3167 55.03L57.311 55.0221L57.3053 55.0144L57.2997 55.007L57.2942 54.9997L57.2888 54.9927L57.2834 54.9859L57.2782 54.9793L57.273 54.9729L57.2679 54.9667L57.2629 54.9607L57.258 54.9549L57.2532 54.9493L57.2485 54.944L57.2439 54.9388L57.2394 54.9338L57.2351 54.929L57.2308 54.9244L57.2267 54.92L57.2226 54.9158L57.2187 54.9118L57.2149 54.9079L57.2113 54.9043L57.2077 54.9008L57.2043 54.8975L57.2011 54.8944L57.1979 54.8914L57.1949 54.8886L57.1921 54.886L57.1893 54.8836L57.1868 54.8813L57.1844 54.8792L57.1821 54.8772L57.18 54.8754L57.178 54.8738L57.1762 54.8723L57.1745 54.8709L57.173 54.8698L57.1712 54.8679M57.1674 54.8566L57.1674 54.8584L57.1674 54.86L57.1673 54.8614L57.1672 54.8626L57.1671 54.8643L57.1665 54.8655M57.1674 54.8566L57.1686 54.8544L57.169 54.8521L57.1694 54.8496L57.1699 54.847L57.1705 54.8441L57.1711 54.841L57.1718 54.8377L57.1725 54.8341L57.1734 54.8304L57.1743 54.8265L57.1753 54.8224L57.1763 54.818L57.1775 54.8135L57.1788 54.8088L57.1801 54.8038L57.1815 54.7987L57.1831 54.7934L57.1847 54.7878L57.1865 54.7821L57.1883 54.7762L57.1903 54.7701L57.1924 54.7638L57.1946 54.7573L57.1969 54.7506L57.1993 54.7437L57.2019 54.7367L57.2046 54.7294L57.2074 54.722L57.2104 54.7144L57.2135 54.7066L57.2167 54.6986L57.2201 54.6905L57.2237 54.6821L57.2274 54.6736L57.2312 54.665L57.2352 54.6561L57.2393 54.6471L57.2437 54.6379L57.2481 54.6286L57.2528 54.6191L57.2576 54.6094L57.2626 54.5996L57.2677 54.5896L57.2731 54.5794L57.2786 54.5691L57.2843 54.5587L57.2902 54.5481L57.2962 54.5373L57.3025 54.5264L57.309 54.5154L57.3156 54.5042L57.3225 54.4929L57.3295 54.4814L57.3368 54.4698L57.3442 54.4581L57.3519 54.4463L57.3598 54.4343L57.3679 54.4222L57.3762 54.4099L57.3847 54.3976L57.3934 54.3851L57.4024 54.3725L57.4116 54.3598L57.421 54.347L57.4307 54.3341L57.4406 54.3211L57.4507 54.3079L57.461 54.2947L57.4716 54.2814L57.4824 54.2679L57.4935 54.2544L57.5048 54.2408L57.5164 54.2271L57.5282 54.2133L57.5403 54.1995L57.5526 54.1855L57.5651 54.1715L57.5779 54.1574L57.591 54.1433L57.6044 54.129L57.618 54.1147L57.6318 54.1004L57.646 54.086L57.6604 54.0715L57.675 54.057L57.69 54.0424L57.7052 54.0278L57.7207 54.0131L57.7364 53.9984L57.7524 53.9836L57.7688 53.9689L57.7853 53.9541L57.8022 53.9392L57.8194 53.9244L57.8368 53.9095L57.8545 53.8946L57.8726 53.8796L57.8909 53.8647L57.9094 53.8498L57.9283 53.8348L57.9475 53.8199L57.967 53.8049L57.9867 53.79L58.0068 53.775L58.0271 53.7601L58.0478 53.7452L58.0687 53.7303L58.09 53.7154L58.1115 53.7006L58.1334 53.6858L58.1555 53.671L58.178 53.6562L58.2007 53.6415L58.2238 53.6268L58.2472 53.6122L58.2708 53.5976L58.2948 53.5831L58.3191 53.5686L58.3437 53.5542L58.3686 53.5399L58.3938 53.5256L58.4194 53.5114L58.4452 53.4972L58.4714 53.4831L58.4978 53.4692L58.5246 53.4553L58.5517 53.4415L58.5791 53.4277L58.6068 53.4141L58.6348 53.4006L58.6632 53.3872L58.6918 53.3738L58.7208 53.3606L58.75 53.3475L58.7796 53.3346L58.8095 53.3217L58.8398 53.309L58.8703 53.2964L58.9011 53.2839L58.9323 53.2716L58.9638 53.2594L58.9956 53.2473L59.0277 53.2354L59.0601 53.2237L59.0928 53.2121L59.1258 53.2006L59.1592 53.1893L59.1929 53.1782L59.2268 53.1673L59.2611 53.1565L59.2957 53.1459L59.3306 53.1355L59.3658 53.1253L59.4013 53.1152L59.4371 53.1054L59.4733 53.0957L59.5097 53.0863L59.5465 53.077L59.5835 53.068L59.6209 53.0591L59.6585 53.0505L59.6965 53.0421L59.7347 53.0339L59.7733 53.026L59.8121 53.0182L59.8513 53.0107L59.8907 53.0035L59.9305 52.9964L59.9705 52.9897L60.0108 52.9832L60.0515 52.9769L60.0924 52.9708L60.1336 52.9651L60.1751 52.9596L60.2169 52.9543L60.2589 52.9494L60.3013 52.9447L60.3439 52.9403L60.3868 52.9361L60.43 52.9323L60.4734 52.9287L60.5172 52.9255L60.5612 52.9225L60.6055 52.9198L60.65 52.9174L60.6949 52.9154L60.7399 52.9136L60.7853 52.9122L60.8309 52.911L60.8768 52.9102L60.9229 52.9097L60.9693 52.9096L61.016 52.9098L61.0629 52.9103L61.11 52.9111L61.1574 52.9123L61.2051 52.9138L61.2529 52.9157L61.3011 52.9179L61.3494 52.9205L61.398 52.9235L61.4469 52.9268L61.496 52.9304L61.5453 52.9345L61.5948 52.9389L61.6445 52.9437L61.6945 52.9488L61.7447 52.9544L61.7951 52.9603L61.8458 52.9666L61.8966 52.9733L61.9476 52.9804L61.9989 52.9879L62.0503 52.9958L62.102 53.0041L62.1539 53.0128L62.2059 53.0219L62.2581 53.0315L62.3106 53.0414L62.3632 53.0518L62.416 53.0626L62.4689 53.0738L62.5221 53.0854L62.5754 53.0975L62.6289 53.11L62.6826 53.1229L62.7364 53.1363L62.7904 53.1501L62.8445 53.1644L62.8988 53.1791L62.9533 53.1943L63.0079 53.2099L63.0626 53.226L63.1175 53.2425L63.1725 53.2595L63.2277 53.277L63.2829 53.2949L63.3383 53.3133L63.3939 53.3322L63.4495 53.3516L63.5053 53.3714L63.5611 53.3917L63.6171 53.4125L63.6732 53.4338L63.7294 53.4555L63.7857 53.4778L63.8421 53.5005L63.8985 53.5238L63.9551 53.5475L64.0117 53.5717L64.0684 53.5965L64.1252 53.6217L64.1821 53.6474L64.239 53.6737L64.2959 53.7005L64.353 53.7277L64.4101 53.7555L64.4672 53.7838L64.5244 53.8126L64.5816 53.842L64.6389 53.8718L64.6962 53.9022L64.7535 53.9331L64.8108 53.9646L64.8682 53.9965L64.9256 54.029L64.983 54.0621L65.0404 54.0956L65.0978 54.1297L65.1552 54.1644L65.2126 54.1996L65.2699 54.2353L65.3273 54.2715L65.3847 54.3083L65.442 54.3457L65.4993 54.3836L65.5565 54.422L65.6137 54.461L65.6709 54.5006L65.7281 54.5407L65.7851 54.5813L65.8422 54.6225L65.8991 54.6643L65.956 54.7066L66.0129 54.7495L66.0696 54.7929L66.1263 54.8369L66.1829 54.8815L66.2394 54.9266L66.2958 54.9723L66.3521 55.0185L66.4083 55.0653L66.4644 55.1127L66.5204 55.1606L66.5762 55.2091L66.632 55.2582L66.6876 55.3079L66.7431 55.3581L66.7984 55.4088L66.8536 55.4602L66.9087 55.5121L66.9636 55.5646L67.0183 55.6177L67.0729 55.6713L67.1273 55.7255L67.1815 55.7803L67.2356 55.8356L67.2895 55.8915L67.3432 55.948L67.3967 56.0051L67.45 56.0627L67.5031 56.1209L67.556 56.1797L67.6087 56.239L67.6611 56.299L67.7134 56.3595L67.7654 56.4205L67.8172 56.4822L67.8687 56.5444L67.92 56.6072L67.9711 56.6705L68.0219 56.7344L68.0725 56.7989L68.1227 56.864L68.1727 56.9296L68.2225 56.9958L68.272 57.0626L68.3211 57.1299L68.37 57.1978L68.4186 57.2663L68.4669 57.3353L68.5149 57.4049L68.5626 57.4751L68.6099 57.5458L68.657 57.6171L68.7037 57.6889L68.7501 57.7613L68.7962 57.8342L68.8419 57.9078L68.8872 57.9818L68.9323 58.0565L68.9769 58.1316L69.0212 58.2074L69.0652 58.2836L69.1087 58.3605L69.1519 58.4379L69.1947 58.5158L69.2372 58.5942L69.2792 58.6732L69.3208 58.7528L69.362 58.8329L69.4029 58.9135L69.4433 58.9947L69.4833 59.0764L69.5229 59.1586L69.562 59.2414L69.6007 59.3247L69.639 59.4085L69.6768 59.4928L69.7142 59.5777L69.7511 59.6631L69.7876 59.749L69.8236 59.8354L69.8591 59.9224L69.8942 60.0098L69.9288 60.0978L69.9629 60.1863L69.9965 60.2752L70.0297 60.3647L70.0623 60.4547L70.0944 60.5452L70.126 60.6361L70.1571 60.7276L70.1877 60.8195L70.2178 60.912L70.2473 61.0049L70.2763 61.0983L70.3048 61.1922L70.3327 61.2865L70.3601 61.3814L70.3869 61.4767L70.4132 61.5724L70.4389 61.6686L70.4641 61.7653L70.4887 61.8625L70.5127 61.9601L70.5361 62.0581L70.5589 62.1566L70.5812 62.2556L70.6028 62.355L70.6239 62.4548L70.6443 62.5551L70.6642 62.6558L70.6834 62.7569L70.702 62.8584L70.72 62.9604L70.7374 63.0628L70.7541 63.1655L70.7702 63.2687L70.7857 63.3724L70.8005 63.4764L70.8147 63.5808L70.8282 63.6856L70.8411 63.7908L70.8533 63.8963L70.8649 64.0023L70.8757 64.1086L70.8859 64.2154L70.8954 64.3224L70.9043 64.4299L70.9124 64.5377L70.9199 64.6459L70.9267 64.7544L70.9327 64.8633L70.9381 64.9725L70.9428 65.082L70.9467 65.1919L70.95 65.3022L70.9525 65.4127L70.9543 65.5236L70.9553 65.6348L70.9557 65.7463L70.9553 65.8581L70.9542 65.9702L70.9523 66.0826L70.9497 66.1953L70.9463 66.3083L70.9422 66.4216L70.9373 66.5352L70.9317 66.649L70.9253 66.7631L70.9181 66.8775L70.9102 66.9922L70.9015 67.1071L70.892 67.2222L70.8818 67.3376L70.8707 67.4532L70.8589 67.5691L70.8463 67.6852L70.8328 67.8015L70.8186 67.918L70.8036 68.0348L70.7878 68.1518L70.7712 68.2689L70.7538 68.3863L70.7355 68.5038L70.7165 68.6216L70.6966 68.7395L70.6759 68.8576L70.6544 68.9759L70.632 69.0943L70.6088 69.2129L70.5848 69.3317L70.56 69.4506L70.5343 69.5696L70.5078 69.6888L70.4804 69.8081L70.4522 69.9276L70.4232 70.0471L70.3933 70.1668L70.3625 70.2866L70.3309 70.4065L70.2984 70.5264L70.2651 70.6465L70.2309 70.7667L70.1958 70.8869L70.1599 71.0072L70.1231 71.1276L70.0855 71.248L70.0469 71.3685L70.0075 71.489L69.9672 71.6096L69.9261 71.7302L69.884 71.8509L69.8411 71.9716L69.7973 72.0923L69.7526 72.213L69.707 72.3337L69.6605 72.4544L69.6132 72.5751L69.5649 72.6958L69.5157 72.8164L69.4657 72.9371L69.4148 73.0577L69.3629 73.1782L69.3102 73.2988L69.2565 73.4192L69.202 73.5397L69.1466 73.66L69.0902 73.7803L69.033 73.9005L68.9748 74.0206L68.9157 74.1406L68.8558 74.2606L68.7949 74.3804L68.7331 74.5001L68.6704 74.6197L68.6068 74.7392L68.5422 74.8585L68.4768 74.9778L68.4104 75.0968L68.3432 75.2157L68.275 75.3345L68.2059 75.4531L68.1359 75.5715L68.065 75.6898L67.9931 75.8079L67.9204 75.9258L67.8467 76.0434L67.7721 76.1609L67.6966 76.2782L67.6202 76.3953L67.5428 76.5121L67.4646 76.6287L67.3854 76.7451L67.3053 76.8612L67.2243 76.9771L67.1424 77.0927L67.0595 77.208L66.9758 77.3231L66.8911 77.4379L66.8056 77.5525L66.7191 77.6667L66.6317 77.7806L66.5433 77.8942L66.4541 78.0076L66.364 78.1206L66.2729 78.2332L66.181 78.3456L66.0881 78.4576L65.9943 78.5692L65.8996 78.6805L65.804 78.7915L65.7076 78.9021L65.6102 79.0123L65.5119 79.1221L65.4127 79.2315L65.3126 79.3406L65.2116 79.4492L65.1097 79.5574L65.0069 79.6653L64.9032 79.7727L64.7986 79.8796L64.6932 79.9862L64.5868 80.0923L64.4796 80.1979L64.3715 80.3031L64.2625 80.4079L64.1526 80.5121L64.0418 80.6159L63.9302 80.7192L63.8176 80.8221L63.7043 80.9244L63.59 81.0262L63.4748 81.1275L63.3588 81.2283L63.242 81.3286L63.1243 81.4283L63.0057 81.5275L62.8862 81.6262L62.7659 81.7243L62.6448 81.8219L62.5228 81.9189L62.3999 82.0153L62.2762 82.1112L62.1517 82.2064L62.0263 82.3011L61.9001 82.3952L61.7731 82.4887L61.6452 82.5816L61.5165 82.6738L61.387 82.7654L61.2566 82.8565L61.1255 82.9468L60.9935 83.0366L60.8607 83.1256L60.7272 83.2141L60.5928 83.3018L60.4576 83.3889L60.3216 83.4754L60.1848 83.5611L60.0472 83.6462L59.9089 83.7305L59.7697 83.8142L59.6298 83.8972L59.4891 83.9794L59.3476 84.0609L59.2054 84.1418L59.0624 84.2218L58.9187 84.3012L58.7742 84.3798L58.6289 84.4576L58.4829 84.5347L58.3361 84.611L58.1887 84.6866L58.0404 84.7614L57.8915 84.8354L57.7418 84.9086L57.5914 84.9811L57.4403 85.0527L57.2885 85.1235L57.136 85.1935L56.9827 85.2628L56.8288 85.3311L56.6742 85.3987L56.5189 85.4654L56.3629 85.5313L56.2062 85.5964L56.0489 85.6606L55.8908 85.7239L55.7322 85.7864L55.5728 85.848L55.4128 85.9087L55.2522 85.9686L55.0909 86.0276L54.929 86.0857L54.7665 86.1429L54.6033 86.1992L54.4395 86.2545L54.2751 86.309L54.11 86.3626L53.9444 86.4152L53.7782 86.467L53.6114 86.5177L53.444 86.5676L53.276 86.6165L53.1074 86.6645L52.9383 86.7115L52.7686 86.7575L52.5983 86.8026L52.4275 86.8467L52.2561 86.8899L52.0842 86.9321L51.9118 86.9733L51.7388 87.0135L51.5653 87.0527L51.3913 87.0909L51.2168 87.1281L51.0417 87.1644L50.8662 87.1996L50.6902 87.2338L50.5137 87.2669L50.3367 87.2991L50.1593 87.3302L49.9813 87.3603L49.803 87.3894L49.6241 87.4174L49.4448 87.4443L49.2651 87.4703L49.085 87.4951L48.9044 87.5189L48.7234 87.5417L48.542 87.5634L48.3602 87.584L48.1779 87.6035L47.9953 87.622L47.8123 87.6394L47.6289 87.6557L47.4452 87.6709L47.2611 87.685L47.0766 87.698L46.8918 87.7099L46.7066 87.7207L46.5211 87.7305L46.3353 87.7391L46.1491 87.7465L45.9627 87.7529L45.7759 87.7582L45.5888 87.7623L45.4014 87.7653L45.2138 87.7672L45.0258 87.7679L44.8376 87.7675L44.6492 87.7659L44.4604 87.7633L44.2715 87.7594L44.0822 87.7545L43.8928 87.7483L43.7031 87.7411L43.5132 87.7326L43.3231 87.723L43.1328 87.7123L42.9423 87.7003L42.7516 87.6872L42.5608 87.673L42.3697 87.6575L42.1785 87.6409L41.9871 87.6232L41.7956 87.6042L41.604 87.5841L41.4122 87.5627L41.2203 87.5402L41.0282 87.5165L40.8361 87.4916L40.6438 87.4656L40.4515 87.4383L40.2591 87.4098L40.0666 87.3801L39.874 87.3493L39.6814 87.3172L39.4887 87.284L39.296 87.2495L39.1032 87.2138L38.9104 87.177L38.7176 87.1389L38.5248 87.0996L38.3319 87.0591L38.1391 87.0174L37.9463 86.9744L37.7535 86.9303L37.5607 86.8849L37.3679 86.8384L37.1753 86.7906L36.9826 86.7416L36.79 86.6914L36.5975 86.6399L36.4051 86.5873L36.2127 86.5334L36.0205 86.4783L35.8283 86.422L35.6363 86.3645L35.4444 86.3057L35.2526 86.2457L35.0609 86.1845L34.8694 86.1221L34.678 86.0584L34.4868 85.9936L34.2958 85.9275L34.1049 85.8601L33.9143 85.7916L33.7238 85.7218L33.5335 85.6508L33.3434 85.5786L33.1536 85.5052L32.964 85.4305L32.7746 85.3547L32.5855 85.2776L32.3966 85.1993L32.208 85.1197L32.0196 85.039L31.8315 84.957L31.6437 84.8738L31.4563 84.7894L31.2691 84.7038L31.0822 84.617L30.8956 84.5289L30.7094 84.4397L30.5235 84.3492L30.338 84.2575L30.1528 84.1646L29.968 84.0705L29.7835 83.9752L29.5994 83.8787L29.4158 83.781L29.2325 83.6821L29.0496 83.582L28.8671 83.4807L28.685 83.3782L28.5034 83.2745L28.3222 83.1696L28.1415 83.0635L27.9612 82.9562L27.7814 82.8478L27.602 82.7381L27.4232 82.6273L27.2448 82.5153L27.0669 82.4021L26.8895 82.2878L26.7126 82.1722L26.5363 82.0555L26.3605 81.9377L26.1852 81.8186L26.0104 81.6984L25.8362 81.5771L25.6626 81.4546L25.4896 81.3309L25.3171 81.2061L25.1452 81.0801L24.9739 80.953L24.8032 80.8247L24.6331 80.6953L24.4637 80.5648L24.2948 80.4332L24.1266 80.3004L23.9591 80.1664L23.7921 80.0314L23.6259 79.8952L23.4603 79.758L23.2954 79.6196L23.1312 79.4801L22.9676 79.3395L22.8048 79.1978L22.6427 79.055L22.4812 78.9111L22.3205 78.7661L22.1606 78.62L22.0013 78.4729L21.8429 78.3246L21.6851 78.1754L21.5281 78.025L21.3719 77.8736L21.2165 77.721L21.0619 77.5675L20.908 77.4129L20.7549 77.2572L20.6027 77.1006L20.4512 76.9428L20.3006 76.7841L20.1508 76.6243L20.0019 76.4635L19.8537 76.3016L19.7065 76.1388L19.5601 75.9749L19.4145 75.8101L19.2699 75.6442L19.1261 75.4773L18.9832 75.3095L18.8411 75.1407L18.7 74.9709L18.5598 74.8001L18.4205 74.6283L18.2822 74.4556L18.1447 74.282L18.0082 74.1074L17.8726 73.9318L17.738 73.7553L17.6044 73.5779L17.4717 73.3995L17.3399 73.2202L17.2092 73.04L17.0794 72.8589L16.9506 72.6768L16.8228 72.4939L16.6961 72.3101L16.5703 72.1254L16.4455 71.9398L16.3218 71.7533L16.1991 71.566L16.0774 71.3778L15.9568 71.1888L15.8372 70.9989L15.7187 70.8081L15.6012 70.6165L15.4848 70.4241L15.3694 70.2309L15.2552 70.0368L15.142 69.842L15.0299 69.6463L14.9189 69.4498L14.8091 69.2526L14.7003 69.0545L14.5926 68.8557L14.4861 68.6561L14.3806 68.4557L14.2763 68.2546L14.1732 68.0527L14.0712 67.8501L13.9703 67.6468L13.8706 67.4427L13.772 67.2379L13.6746 67.0324L13.5784 66.8262L13.4834 66.6193L13.3895 66.4116L13.2968 66.2034L13.2053 65.9944L13.115 65.7847L13.0259 65.5744L12.938 65.3635L12.8513 65.1518L12.7658 64.9396L12.6816 64.7267L12.5985 64.5132L12.5167 64.2991L12.4361 64.0843L12.3568 63.869L12.2787 63.6531L12.2018 63.4365L12.1262 63.2195L12.0519 63.0018L11.9788 62.7836L11.907 62.5648L11.8364 62.3454L11.7672 62.1256L11.6992 61.9052L11.6324 61.6842L11.567 61.4628L11.5028 61.2409L11.44 61.0184L11.3784 60.7955L11.3182 60.5721L11.2592 60.3482L11.2015 60.1238L11.1452 59.899L11.0902 59.6738L11.0365 59.4481L10.9841 59.222L10.933 58.9954L10.8833 58.7684L10.8349 58.5411L10.7878 58.3133L10.7421 58.0851L10.6977 57.8566L10.6546 57.6277L10.6129 57.3984L10.5726 57.1688L10.5336 56.9388L10.4959 56.7085L10.4596 56.4779L10.4247 56.2469L10.3911 56.0156L10.3589 55.7841L10.3281 55.5522L10.2986 55.32L10.2705 55.0876L10.2438 54.8549L10.2185 54.622L10.1945 54.3887L10.1719 54.1553L10.1507 53.9216L10.1309 53.6877L10.1125 53.4536L10.0955 53.2193L10.0798 52.9848L10.0656 52.7501L10.0527 52.5152L10.0413 52.2801L10.0312 52.0449L10.0225 51.8096L10.0153 51.5741L10.0094 51.3384L10.005 51.1027L10.0019 50.8668L10.0002 50.6308L10 50.3947L10.0012 50.1586L10.0037 49.9223L10.0077 49.686L10.0131 49.4496L10.0199 49.2132L10.0281 48.9767L10.0377 48.7402L10.0488 48.5037L10.0612 48.2672L10.0751 48.0306L10.0904 47.7941L10.1071 47.5576L10.1252 47.3211L10.1447 47.0846L10.1656 46.8482L10.188 46.6118L10.2118 46.3755L10.2369 46.1392L10.2635 45.903L10.2916 45.6669L10.321 45.4309L10.3518 45.195L10.3841 44.9593L10.4177 44.7236L10.4528 44.4881L10.4893 44.2527L10.5272 44.0175L10.5665 43.7824L10.6073 43.5475L10.6494 43.3128L10.6929 43.0783L10.7379 42.8439L10.7842 42.6098L10.832 42.3759L10.8812 42.1422L10.9317 41.9088L10.9837 41.6755L11.0371 41.4426L11.0918 41.2099L11.148 40.9775L11.2055 40.7453L11.2645 40.5134L11.3248 40.2819L11.3866 40.0506L11.4497 39.8197L11.5142 39.589L11.5801 39.3588L11.6474 39.1288L11.7161 38.8992L11.7861 38.67L11.8575 38.4411L11.9303 38.2126L12.0045 37.9845L12.08 37.7568L12.1569 37.5295L12.2352 37.3027L12.3148 37.0762L12.3958 36.8502L12.4781 36.6246L12.5618 36.3994L12.6468 36.1748L12.7332 35.9506L12.821 35.7268L12.9101 35.5036L13.0005 35.2808L13.0922 35.0586L13.1853 34.8368L13.2798 34.6156L13.3755 34.3949L13.4726 34.1747L13.571 33.9551L13.6707 33.7361L13.7717 33.5176L13.874 33.2996L13.9776 33.0823L14.0826 32.8655L14.1888 32.6494L14.2963 32.4338L14.4052 32.2189L14.5153 32.0045L14.6266 31.7908L14.7393 31.5778L14.8532 31.3654L14.9684 31.1536L15.0849 30.9425L15.2026 30.7321L15.3216 30.5224L15.4419 30.3133L15.5634 30.105L15.6861 29.8973L15.8101 29.6904L15.9353 29.4842L16.0617 29.2787L16.1894 29.0739L16.3182 28.8699L16.4483 28.6667L16.5796 28.4642L16.7121 28.2625L16.8458 28.0615L16.9807 27.8613L17.1168 27.662L17.2541 27.4634L17.3925 27.2656L17.5322 27.0686L17.673 26.8725L17.8149 26.6772L17.958 26.4827L18.1023 26.2891L18.2477 26.0963L18.3942 25.9044L18.5419 25.7133L18.6907 25.5232L18.8407 25.3339L18.9917 25.1455L19.1439 24.9579L19.2972 24.7713L19.4515 24.5856L19.607 24.4008L19.7636 24.217L19.9212 24.034L20.0799 23.8521L20.2397 23.671L20.4005 23.4909L20.5624 23.3118L20.7254 23.1336L20.8894 22.9564L21.0544 22.7802L21.2204 22.6049L21.3875 22.4307L21.5556 22.2574L21.7247 22.0852L21.8948 21.9139L22.0659 21.7437L22.238 21.5745L22.4111 21.4064L22.5852 21.2392L22.7602 21.0731L22.9362 20.9081L23.1132 20.7441L23.2911 20.5812L23.4699 20.4193L23.6497 20.2586L23.8304 20.0988L24.012 19.9402L24.1945 19.7827L24.3779 19.6263L24.5623 19.4709L24.7475 19.3167L24.9336 19.1636L25.1206 19.0116L25.3085 18.8607L25.4972 18.711L25.6867 18.5624L25.8771 18.4149L26.0684 18.2686L26.2605 18.1234L26.4534 17.9794L26.6471 17.8366L26.8416 17.6949L27.037 17.5544L27.2331 17.415L27.43 17.2769L27.6276 17.1399L27.8261 17.0041L28.0253 16.8695L28.2252 16.7362L28.4259 16.604L28.6274 16.473L28.8295 16.3432L29.0324 16.2147L29.236 16.0874L29.4403 15.9613L29.6453 15.8364L29.851 15.7128L30.0573 15.5904L30.2643 15.4693L30.472 15.3494L30.6804 15.2308L30.8893 15.1134L31.099 14.9973L31.3092 14.8824L31.5201 14.7688L31.7315 14.6565L31.9436 14.5455L32.1563 14.4357L32.3696 14.3272L32.5834 14.22L32.7978 14.1141L33.0128 14.0095L33.2283 13.9061L33.4443 13.8041L33.6609 13.7034L33.878 13.604L34.0956 13.5059L34.3138 13.4091L34.5324 13.3136L34.7515 13.2194L34.9711 13.1266L35.1912 13.035L35.4118 12.9448L35.6328 12.8559L35.8542 12.7684L36.0761 12.6822L36.2984 12.5973L36.5211 12.5138L36.7442 12.4316L36.9678 12.3507L37.1917 12.2712L37.416 12.193L37.6407 12.1162L37.8657 12.0407L38.0911 11.9666L38.3169 11.8938L38.5429 11.8224L38.7694 11.7524L38.9961 11.6837L39.2231 11.6163L39.4505 11.5504L39.6781 11.4857L39.906 11.4225L40.1342 11.3606L40.3627 11.3001L40.5914 11.241L40.8204 11.1832L41.0496 11.1268L41.279 11.0718L41.5087 11.0181L41.7385 10.9658L41.9686 10.9149L42.1988 10.8654L42.4293 10.8173L42.6599 10.7705L42.8906 10.7251L43.1216 10.6811L43.3526 10.6384L43.5839 10.5972L43.8152 10.5573L44.0467 10.5188L44.2782 10.4817L44.5099 10.4459L44.7417 10.4116L44.9735 10.3786L45.2054 10.347L45.4374 10.3167L45.6694 10.2879L45.9015 10.2604L46.1336 10.2344L46.3658 10.2097L46.5979 10.1863L46.8301 10.1644L47.0623 10.1438L47.2944 10.1246L47.5266 10.1068L47.7587 10.0904L47.9908 10.0753L48.2228 10.0616L48.4548 10.0493L48.6867 10.0383L48.9185 10.0288L49.1503 10.0206L49.382 10.0137L49.6135 10.0082L49.845 10.0041L50.0763 10.0014L50.3076 10L50.5386 10L50.7696 10.0013L51.0004 10.004L51.231 10.0081L51.4614 10.0135L51.6917 10.0203L51.9218 10.0284L52.1517 10.0379L52.3813 10.0487L52.6108 10.0609L52.84 10.0744L53.0691 10.0892L53.2978 10.1054L53.5263 10.1229L53.7546 10.1418L53.9826 10.162L54.2103 10.1835L54.4377 10.2063L54.6648 10.2305L54.8917 10.256L55.1182 10.2828L55.3444 10.3109L55.5703 10.3404L55.7958 10.3711L56.021 10.4032L56.2458 10.4366L56.4703 10.4712L56.6944 10.5072L56.9181 10.5444L57.1414 10.583L57.3644 10.6228L57.5869 10.664L57.8091 10.7064L58.0308 10.7501L58.252 10.795L58.4729 10.8413L58.6933 10.8888L58.9132 10.9376L59.1327 10.9876L59.3517 11.0389L59.5702 11.0914L59.7883 11.1452L60.0058 11.2002L60.2229 11.2565L60.4394 11.314L60.6555 11.3728L60.871 11.4328L61.0859 11.494L61.3004 11.5564L61.5142 11.62L61.7276 11.6849L61.9403 11.7509L62.1525 11.8182L62.3641 11.8867L62.5751 11.9563L62.7856 12.0272L62.9954 12.0992L63.2046 12.1724L63.4132 12.2468L63.6212 12.3224L63.8285 12.3991L64.0352 12.477L64.2413 12.556L64.4467 12.6362L64.6514 12.7175L64.8555 12.8L65.0589 12.8836L65.2616 12.9684L65.4637 13.0542L65.665 13.1412L65.8656 13.2293L66.0656 13.3185L66.2648 13.4088L66.4632 13.5002L66.661 13.5928L66.858 13.6863L67.0543 13.781L67.2498 13.8768L67.4446 13.9736L67.6386 14.0715L67.8318 14.1704L68.0242 14.2704L68.2159 14.3715L68.4068 14.4735L68.5969 14.5767L68.7862 14.6808L68.9746 14.786L69.1623 14.8922L69.3491 14.9994L69.5351 15.1076L69.7203 15.2168L69.9046 15.327L70.0881 15.4381L70.2708 15.5503L70.4526 15.6634L70.6335 15.7775L70.8135 15.8926L70.9927 16.0086L71.171 16.1256L71.3484 16.2435L71.525 16.3623L71.7006 16.4821L71.8753 16.6028L72.0491 16.7244L72.222 16.8469L72.394 16.9703L72.5651 17.0946L72.7352 17.2198L72.9044 17.3459L73.0727 17.4728L73.24 17.6006L73.4063 17.7293L73.5718 17.8588L73.7362 17.9892L73.8997 18.1204L74.0622 18.2525L74.2238 18.3853L74.3843 18.519L74.5439 18.6535L74.7025 18.7888L74.8601 18.9249L75.0167 19.0618L75.1723 19.1995L75.3269 19.3379L75.4805 19.4772L75.6331 19.6171L75.7847 19.7579L75.9352 19.8993L76.0847 20.0415L76.2332 20.1845L76.3806 20.3282L76.5271 20.4725L76.6724 20.6176L76.8167 20.7634L76.96 20.9099L77.1022 21.0571L77.2434 21.2049L77.3835 21.3534L77.5225 21.5026L77.6605 21.6524L77.7974 21.8029L77.9332 21.954L78.068 22.1058L78.2016 22.2582L78.3342 22.4112L78.4657 22.5648L78.5961 22.719L78.7254 22.8738L78.8536 23.0292L78.9807 23.1851L79.1067 23.3417L79.2316 23.4988L79.3554 23.6564L79.4781 23.8146L79.5997 23.9733L79.7201 24.1326L79.8395 24.2924L79.9577 24.4527L80.0748 24.6135L80.1908 24.7748L80.3056 24.9366L80.4193 25.0989L80.5319 25.2617L80.6433 25.4249L80.7536 25.5886L80.8628 25.7527L80.9708 25.9173L81.0777 26.0823L81.1835 26.2478L81.2881 26.4136L81.3915 26.5799L81.4938 26.7466L81.595 26.9136L81.695 27.0811L81.7938 27.2489L81.8915 27.4172L81.9881 27.5857L82.0835 27.7547L82.1777 27.9239L82.2708 28.0935L82.3627 28.2635L82.4534 28.4338L82.543 28.6043L82.6314 28.7752L82.7187 28.9464L82.8048 29.1179L82.8897 29.2896L82.9734 29.4617L83.056 29.634L83.1375 29.8065L83.2177 29.9793L83.2968 30.1524L83.3747 30.3257L83.4515 30.4992L83.527 30.6729L83.6014 30.8469L83.6747 31.021L83.7468 31.1953L83.8176 31.3699L83.8874 31.5445L83.9559 31.7194L84.0233 31.8944L84.0896 32.0696L84.1546 32.245L84.2185 32.4204L84.2812 32.596L84.3428 32.7717L84.4031 32.9476L84.4623 33.1235L84.5204 33.2996L84.5773 33.4757L84.633 33.6519L84.6875 33.8282L84.7409 34.0045L84.7931 34.181L84.8442 34.3574L84.8941 34.5339L84.9428 34.7105L84.9904 34.887L85.0369 35.0636L85.0821 35.2402L85.1262 35.4168L85.1692 35.5934L85.211 35.77L85.2517 35.9466L85.2912 36.1231L85.3296 36.2996L85.3668 36.4761L85.4028 36.6525L85.4378 36.8289L85.4716 37.0052L85.5042 37.1814L85.5357 37.3576L85.5661 37.5336L85.5953 37.7096L85.6235 37.8854L85.6504 38.0612L85.6763 38.2368L85.701 38.4123L85.7246 38.5877L85.7471 38.7629L85.7685 38.938L85.7888 39.1129L85.8079 39.2877L85.8259 39.4623L85.8429 39.6367L85.8587 39.811L85.8734 39.985L85.887 40.1589L85.8995 40.3325L85.911 40.506L85.9213 40.6792L85.9305 40.8522L85.9387 41.025L85.9458 41.1975L85.9518 41.3697L85.9567 41.5418L85.9605 41.7135L85.9633 41.885L85.965 42.0562L85.9657 42.2271L85.9652 42.3978L85.9638 42.5681L85.9612 42.7382L85.9577 42.9079L85.953 43.0773L85.9474 43.2464L85.9407 43.4152L85.9329 43.5836L85.9241 43.7517L85.9143 43.9194L85.9035 44.0868L85.8917 44.2539L85.8788 44.4205L85.8649 44.5868L85.85 44.7527L85.8341 44.9182L85.8172 45.0833L85.7993 45.2481L85.7805 45.4124L85.7606 45.5763L85.7397 45.7398L85.7179 45.9028L85.6951 46.0654L85.6713 46.2276L85.6465 46.3894L85.6208 46.5507L85.5942 46.7115L85.5665 46.8719L85.5379 47.0319L85.5084 47.1913L85.478 47.3503L85.4466 47.5088L85.4142 47.6668L85.381 47.8243L85.3468 47.9813L85.3117 48.1378L85.2757 48.2938L85.2388 48.4493L85.201 48.6042L85.1623 48.7586L85.1227 48.9125L85.0822 49.0659L85.0408 49.2187L84.9986 49.3709L84.9554 49.5227L84.9114 49.6738L84.8666 49.8244L84.8209 49.9744L84.7743 50.1238L84.7269 50.2727L84.6787 50.421L84.6296 50.5687L84.5797 50.7158L84.5289 50.8623L84.4774 51.0082L84.425 51.1535L84.3718 51.2981L84.3179 51.4422L84.2631 51.5856L84.2075 51.7284L84.1512 51.8706L84.094 52.0121L84.0361 52.153L83.9774 52.2933L83.918 52.4329L83.8578 52.5719L83.7968 52.7102L83.7351 52.8478L83.6727 52.9848L83.6095 53.1211L83.5456 53.2567L83.481 53.3917L83.4156 53.526L83.3495 53.6596L83.2828 53.7925L83.2153 53.9247L83.1472 54.0562L83.0783 54.187L83.0088 54.3171L82.9386 54.4465L82.8677 54.5752L82.7962 54.7032L82.724 54.8305L82.6511 54.957L82.5776 55.0829L82.5035 55.2079L82.4287 55.3323L82.3533 55.4559L82.2773 55.5788L82.2007 55.701L82.1235 55.8224L82.0456 55.9431L81.9672 56.063L81.8882 56.1821L81.8086 56.3006L81.7284 56.4182L81.6476 56.5351L81.5663 56.6512L81.4844 56.7666L81.402 56.8812L81.319 56.995L81.2355 57.1081L81.1515 57.2204L81.0669 57.3319L80.9818 57.4426L80.8962 57.5525L80.8101 57.6617L80.7234 57.7701L80.6363 57.8776L80.5487 57.9844L80.4607 58.0904L80.3721 58.1956L80.2831 58.3L80.1936 58.4036L80.1037 58.5064L80.0133 58.6084L79.9224 58.7096L79.8312 58.81L79.7395 58.9096L79.6473 59.0084L79.5548 59.1064L79.4618 59.2035L79.3685 59.2999L79.2747 59.3954L79.1806 59.4901L79.0861 59.584L78.9912 59.6771L78.8959 59.7693L78.8002 59.8607L78.7042 59.9514L78.6079 60.0412L78.5112 60.1301L78.4142 60.2183L78.3168 60.3056L78.2191 60.3921L78.1211 60.4777L78.0228 60.5626L77.9241 60.6466L77.8252 60.7297L77.726 60.8121L77.6265 60.8936L77.5267 60.9743L77.4266 61.0541L77.3263 61.1332L77.2257 61.2114L77.1248 61.2887L77.0237 61.3652L76.9224 61.4409L76.8208 61.5158L76.719 61.5898L76.617 61.663L76.5147 61.7354L76.4123 61.8069L76.3096 61.8776L76.2067 61.9475L76.1037 62.0165L76.0005 62.0847L75.8971 62.1521L75.7935 62.2186L75.6897 62.2843L75.5858 62.3492L75.4818 62.4132L75.3776 62.4765L75.2732 62.5388L75.1687 62.6004L75.0641 62.6611L74.9594 62.721L74.8546 62.7801L74.7496 62.8384L74.6446 62.8958L74.5394 62.9524L74.4342 63.0082L74.3288 63.0632L74.2234 63.1173L74.118 63.1706L74.0124 63.2231L73.9068 63.2748L73.8012 63.3257L73.6955 63.3757L73.5897 63.425L73.4839 63.4734L73.3781 63.521L73.2723 63.5679L73.1664 63.6139L73.0606 63.6591L72.9547 63.7035L72.8488 63.747L72.7429 63.7898L72.6371 63.8318L72.5312 63.873L72.4254 63.9134L72.3196 63.953L72.2139 63.9918L72.1082 64.0299L72.0025 64.0671L71.8969 64.1035L71.7913 64.1392L71.6858 64.1741L71.5804 64.2082L71.475 64.2415L71.3697 64.2741L71.2645 64.3058L71.1594 64.3368L71.0544 64.3671L70.9495 64.3965L70.8447 64.4252L70.74 64.4532L70.6355 64.4804L70.531 64.5068L70.4267 64.5325L70.3225 64.5574L70.2185 64.5815L70.1146 64.605L70.0108 64.6277L69.9072 64.6496L69.8038 64.6708L69.7005 64.6913L69.5974 64.711L69.4945 64.73L69.3917 64.7483L69.2891 64.7658L69.1868 64.7827L69.0846 64.7988L68.9826 64.8142L68.8808 64.8289L68.7792 64.8428L68.6779 64.8561L68.5767 64.8687L68.4758 64.8806L68.3751 64.8918L68.2747 64.9022L68.1744 64.912L68.0745 64.9211L67.9747 64.9296L67.8752 64.9373L67.776 64.9444L67.677 64.9508L67.5783 64.9565L67.4799 64.9616L67.3817 64.966L67.2838 64.9697L67.1862 64.9728L67.0889 64.9753L66.9919 64.9771L66.8952 64.9782L66.7987 64.9787L66.7026 64.9786L66.6068 64.9779L66.5112 64.9765L66.416 64.9745L66.3211 64.9718L66.2266 64.9686L66.1323 64.9647L66.0384 64.9602L65.9449 64.9552L65.8516 64.9495L65.7587 64.9432L65.6662 64.9363L65.574 64.9289L65.4821 64.9208L65.3906 64.9122L65.2995 64.903L65.2087 64.8932L65.1183 64.8829L65.0283 64.872L64.9386 64.8605L64.8493 64.8485L64.7604 64.8359L64.6719 64.8228L64.5837 64.8091L64.496 64.7949L64.4086 64.7801L64.3216 64.7649L64.2351 64.7491L64.1489 64.7327L64.0632 64.7159L63.9778 64.6985L63.8929 64.6807L63.8083 64.6623L63.7242 64.6434L63.6405 64.6241L63.5572 64.6042L63.4744 64.5839L63.392 64.563L63.31 64.5417L63.2284 64.52L63.1473 64.4977L63.0666 64.475L62.9863 64.4518L62.9065 64.4282L62.8272 64.4041L62.7482 64.3796L62.6698 64.3546L62.5917 64.3292L62.5142 64.3034L62.4371 64.2772L62.3604 64.2505L62.2842 64.2234L62.2085 64.1959L62.1332 64.1679L62.0584 64.1396L61.984 64.1109L61.9102 64.0818L61.8368 64.0522L61.7638 64.0223L61.6914 63.9921L61.6194 63.9614L61.5479 63.9304L61.4769 63.899L61.4063 63.8672L61.3363 63.8351L61.2667 63.8027L61.1976 63.7698L61.129 63.7367L61.0609 63.7032L60.9933 63.6694L60.9261 63.6352L60.8595 63.6007L60.7933 63.5659L60.7277 63.5308L60.6625 63.4954L60.5978 63.4596L60.5337 63.4236L60.47 63.3873L60.4068 63.3507L60.3441 63.3138L60.2819 63.2766L60.2203 63.2391L60.1591 63.2014L60.0984 63.1634L60.0383 63.1251L59.9786 63.0866L59.9194 63.0479L59.8608 63.0088L59.8026 62.9696L59.745 62.9301L59.6879 62.8903L59.6312 62.8504L59.5751 62.8102L59.5195 62.7698L59.4644 62.7291L59.4098 62.6883L59.3557 62.6473L59.3021 62.606L59.2491 62.5646L59.1965 62.523L59.1444 62.4812L59.0929 62.4392L59.0419 62.397L58.9913 62.3546L58.9413 62.3121L58.8918 62.2694L58.8428 62.2266L58.7943 62.1836L58.7463 62.1405L58.6988 62.0972L58.6518 62.0537L58.6054 62.0102L58.5594 61.9665L58.5139 61.9226L58.469 61.8787L58.4245 61.8346L58.3806 61.7904L58.3371 61.7462L58.2942 61.7018L58.2517 61.6573L58.2098 61.6127L58.1683 61.568L58.1274 61.5232L58.0869 61.4784L58.047 61.4334L58.0075 61.3884L57.9686 61.3434L57.9301 61.2982L57.8921 61.253L57.8547 61.2077L57.8177 61.1624L57.7812 61.1171L57.7451 61.0717L57.7096 61.0262L57.6746 60.9808L57.64 60.9352L57.606 60.8897L57.5724 60.8441L57.5393 60.7986L57.5066 60.753L57.4745 60.7074L57.4428 60.6618L57.4116 60.6161L57.3809 60.5705L57.3506 60.5249L57.3208 60.4793L57.2915 60.4337L57.2626 60.3882L57.2342 60.3426L57.2063 60.2971L57.1788 60.2516L57.1518 60.2061L57.1253 60.1607L57.0992 60.1153L57.0735 60.07L57.0483 60.0247L57.0236 59.9794L56.9993 59.9342L56.9755 59.8891L56.952 59.8441L56.9291 59.7991L56.9066 59.7541L56.8845 59.7093L56.8628 59.6645L56.8416 59.6198L56.8208 59.5752L56.8004 59.5306L56.7805 59.4862L56.761 59.4419L56.7419 59.3976L56.7232 59.3535L56.7049 59.3094L56.6871 59.2655L56.6696 59.2217L56.6526 59.178L56.636 59.1344L56.6198 59.0909L56.6039 59.0476L56.5885 59.0043L56.5735 58.9612L56.5588 58.9183L56.5446 58.8755L56.5308 58.8328L56.5173 58.7902L56.5042 58.7478L56.4915 58.7056L56.4791 58.6635L56.4672 58.6215L56.4556 58.5798L56.4444 58.5381L56.4335 58.4967L56.423 58.4554L56.4129 58.4142L56.4031 58.3733L56.3937 58.3325L56.3846 58.2919L56.3759 58.2514L56.3675 58.2112L56.3595 58.1711L56.3518 58.1312L56.3444 58.0915L56.3374 58.052L56.3307 58.0127L56.3243 57.9735L56.3183 57.9346L56.3125 57.8959L56.3071 57.8574L56.302 57.819L56.2972 57.7809L56.2927 57.743L56.2886 57.7053L56.2847 57.6678L56.2811 57.6306L56.2778 57.5935L56.2748 57.5567L56.2721 57.5201L56.2697 57.4837L56.2675 57.4475L56.2657 57.4116L56.2641 57.3759L56.2627 57.3404L56.2617 57.3051L56.2609 57.2701L56.2604 57.2353L56.2601 57.2008L56.2601 57.1665L56.2603 57.1324L56.2608 57.0986L56.2615 57.065L56.2625 57.0317L56.2637 56.9986L56.2651 56.9657L56.2667 56.9331L56.2686 56.9008L56.2707 56.8687L56.2731 56.8368L56.2756 56.8052L56.2784 56.7739L56.2813 56.7428L56.2845 56.712L56.2879 56.6814L56.2915 56.6511L56.2952 56.6211L56.2992 56.5913L56.3033 56.5618L56.3076 56.5325L56.3122 56.5035L56.3168 56.4748L56.3217 56.4463L56.3267 56.4181L56.3319 56.3902L56.3373 56.3625L56.3428 56.3351L56.3485 56.3079L56.3543 56.2811L56.3602 56.2545L56.3664 56.2282L56.3726 56.2021L56.379 56.1763L56.3855 56.1508L56.3922 56.1256L56.399 56.1006L56.4059 56.0759L56.4129 56.0515L56.4201 56.0273L56.4273 56.0034L56.4347 55.9798L56.4422 55.9565L56.4497 55.9334L56.4574 55.9106L56.4652 55.8881L56.473 55.8659L56.481 55.8439L56.489 55.8222L56.4971 55.8008L56.5053 55.7796L56.5136 55.7588L56.5219 55.7382L56.5303 55.7178L56.5388 55.6978L56.5473 55.678L56.5559 55.6584L56.5645 55.6392L56.5732 55.6202L56.5819 55.6015L56.5907 55.583L56.5995 55.5649L56.6083 55.547L56.6172 55.5293L56.6261 55.5119L56.635 55.4948L56.644 55.478L56.653 55.4614L56.662 55.4451L56.6709 55.429L56.68 55.4132L56.689 55.3977L56.698 55.3824L56.707 55.3674L56.716 55.3527L56.725 55.3382L56.734 55.3239L56.743 55.3099L56.752 55.2962L56.7609 55.2827L56.7698 55.2695L56.7787 55.2565L56.7876 55.2438L56.7964 55.2313L56.8052 55.2191L56.8139 55.2071L56.8227 55.1953L56.8313 55.1838L56.8399 55.1725L56.8485 55.1615L56.857 55.1507L56.8655 55.1402L56.8739 55.1298L56.8822 55.1198L56.8904 55.1099L56.8986 55.1003L56.9068 55.0909L56.9148 55.0817L56.9228 55.0728L56.9307 55.064L56.9385 55.0555L56.9462 55.0473L56.9538 55.0392L56.9614 55.0313L56.9688 55.0237L56.9761 55.0163L56.9834 55.0091L56.9905 55.0021L56.9976 54.9953L57.0045 54.9887L57.0113 54.9823L57.018 54.9761L57.0246 54.9701L57.0311 54.9643L57.0374 54.9587L57.0436 54.9532L57.0497 54.948L57.0557 54.943L57.0616 54.9381L57.0673 54.9334L57.0728 54.9289L57.0783 54.9246L57.0836 54.9205L57.0887 54.9165L57.0937 54.9127L57.0986 54.9091L57.1033 54.9056L57.1079 54.9023L57.1123 54.8992L57.1165 54.8962L57.1206 54.8934L57.1246 54.8907L57.1283 54.8882L57.132 54.8858L57.1354 54.8836L57.1387 54.8815L57.1418 54.8795L57.1447 54.8777L57.1475 54.8761L57.1501 54.8745L57.1525 54.8731L57.1547 54.8718L57.1568 54.8707L57.1587 54.8696L57.1604 54.8687M57.1604 54.8687L57.1619 54.8679L57.1632 54.8672L57.1643 54.8666L57.1652 54.8661L57.1665 54.8655M57.1604 54.8687L57.1576 54.8691L57.1555 54.8699L57.1532 54.8707L57.1507 54.8716L57.148 54.8725L57.1451 54.8735L57.142 54.8746L57.1386 54.8757L57.135 54.8768L57.1312 54.8779L57.1272 54.8792L57.123 54.8804L57.1185 54.8816L57.1139 54.8829L57.109 54.8842L57.1039 54.8855L57.0985 54.8869L57.093 54.8882L57.0872 54.8896L57.0812 54.891L57.0749 54.8923L57.0685 54.8937L57.0618 54.8951L57.0549 54.8964L57.0478 54.8978L57.0404 54.8991L57.0328 54.9004L57.025 54.9017L57.017 54.903L57.0087 54.9042L57.0002 54.9054L56.9915 54.9066L56.9826 54.9077L56.9734 54.9088L56.964 54.9099L56.9544 54.9109L56.9445 54.9118L56.9345 54.9128L56.9241 54.9136L56.9136 54.9144L56.9029 54.9151L56.8919 54.9158L56.8807 54.9164L56.8692 54.9169L56.8576 54.9173L56.8457 54.9177L56.8336 54.918L56.8213 54.9182L56.8087 54.9183L56.7959 54.9183L56.7829 54.9182L56.7697 54.918L56.7563 54.9177L56.7426 54.9173L56.7287 54.9168L56.7147 54.9162L56.7003 54.9154L56.6858 54.9146L56.6711 54.9136L56.6561 54.9125L56.6409 54.9113L56.6255 54.9099L56.6099 54.9084L56.5941 54.9068L56.5781 54.905L56.5619 54.9031L56.5455 54.901L56.5288 54.8988L56.512 54.8965L56.4949 54.8939L56.4777 54.8912L56.4602 54.8884L56.4426 54.8854L56.4247 54.8822L56.4067 54.8788L56.3884 54.8753L56.37 54.8715L56.3513 54.8676L56.3325 54.8636L56.3135 54.8593L56.2943 54.8548L56.2749 54.8502L56.2553 54.8453L56.2356 54.8402L56.2156 54.835L56.1955 54.8295L56.1752 54.8238L56.1548 54.818L56.1341 54.8119L56.1133 54.8055L56.0923 54.799L56.0712 54.7922L56.0498 54.7852L56.0283 54.778L56.0067 54.7706L55.9849 54.7629L55.9629 54.755L55.9408 54.7468L55.9185 54.7384L55.8961 54.7297L55.8735 54.7208L55.8508 54.7117L55.8279 54.7023L55.8049 54.6926L55.7818 54.6827L55.7585 54.6725L55.7351 54.662L55.7115 54.6513L55.6879 54.6403L55.664 54.6291L55.6401 54.6175L55.6161 54.6057L55.5919 54.5936L55.5676 54.5813L55.5432 54.5686L55.5187 54.5557L55.494 54.5424L55.4693 54.5289L55.4445 54.5151L55.4195 54.501L55.3945 54.4866L55.3693 54.4719L55.3441 54.4568L55.3188 54.4415L55.2934 54.4259L55.2679 54.41L55.2424 54.3937L55.2167 54.3771L55.191 54.3603L55.1652 54.3431L55.1393 54.3256L55.1134 54.3077L55.0874 54.2896L55.0614 54.2711L55.0353 54.2523L55.0091 54.2331L54.9829 54.2136L54.9567 54.1938L54.9304 54.1737L54.9041 54.1532L54.8777 54.1324L54.8513 54.1112L54.8249 54.0897L54.7984 54.0679L54.7719 54.0457L54.7455 54.0232L54.7189 54.0003L54.6924 53.9771L54.6659 53.9535L54.6393 53.9296L54.6128 53.9053L54.5863 53.8806L54.5597 53.8556L54.5332 53.8303L54.5067 53.8045L54.4802 53.7785L54.4537 53.752L54.4272 53.7252L54.4008 53.698L54.3744 53.6705L54.348 53.6426L54.3217 53.6143L54.2954 53.5857L54.2692 53.5567L54.243 53.5273L54.2169 53.4975L54.1908 53.4674L54.1647 53.4369L54.1388 53.406L54.1129 53.3748L54.0871 53.3432L54.0613 53.3112L54.0357 53.2788L54.0101 53.246L53.9846 53.2129L53.9592 53.1794L53.9339 53.1455L53.9087 53.1112L53.8836 53.0766L53.8586 53.0415L53.8337 53.0061L53.8089 52.9703L53.7843 52.9341L53.7598 52.8975L53.7354 52.8606L53.7111 52.8233L53.687 52.7855L53.663 52.7474L53.6391 52.7089L53.6154 52.6701L53.5919 52.6308L53.5685 52.5912L53.5452 52.5512L53.5221 52.5108L53.4992 52.47L53.4765 52.4288L53.4539 52.3872L53.4316 52.3453L53.4094 52.303L53.3874 52.2603L53.3656 52.2172L53.3439 52.1737L53.3225 52.1298L53.3013 52.0856L53.2803 52.041L53.2595 51.996L53.239 51.9506L53.2186 51.9048L53.1985 51.8587L53.1786 51.8122L53.1589 51.7653L53.1395 51.718L53.1203 51.6704L53.1014 51.6223L53.0827 51.574L53.0643 51.5252L53.0461 51.476L53.0282 51.4265L53.0106 51.3766L52.9932 51.3264L52.9761 51.2758L52.9593 51.2248L52.9428 51.1734L52.9265 51.1217L52.9106 51.0696L52.8949 51.0172L52.8796 50.9644L52.8645 50.9112L52.8498 50.8577L52.8353 50.8038L52.8212 50.7496L52.8074 50.695L52.794 50.64L52.7808 50.5847L52.768 50.5291L52.7556 50.4731L52.7434 50.4168L52.7317 50.3601L52.7202 50.3031L52.7092 50.2457L52.6984 50.188L52.6881 50.13L52.6781 50.0716L52.6685 50.0129L52.6592 49.9538L52.6503 49.8945L52.6418 49.8348L52.6337 49.7748L52.626 49.7144L52.6187 49.6538L52.6118 49.5928L52.6052 49.5315L52.5991 49.4699L52.5934 49.408L52.5881 49.3457L52.5832 49.2832L52.5788 49.2204L52.5747 49.1572L52.5711 49.0938L52.5679 49.0301L52.5652 48.966L52.5629 48.9017L52.561 48.8371L52.5596 48.7722L52.5587 48.7071L52.5581 48.6416L52.5581 48.5759L52.5585 48.5099L52.5594 48.4436L52.5607 48.3771L52.5625 48.3102L52.5648 48.2432L52.5676 48.1758L52.5709 48.1083L52.5746 48.0404L52.5788 47.9723L52.5836 47.904L52.5888 47.8354L52.5945 47.7666L52.6007 47.6975L52.6075 47.6283L52.6147 47.5587L52.6225 47.489L52.6308 47.419L52.6396 47.3488L52.6489 47.2784L52.6587 47.2078L52.6691 47.137L52.68 47.0659L52.6915 46.9947L52.7035 46.9233L52.716 46.8516L52.7291 46.7798L52.7427 46.7078L52.7569 46.6356L52.7716 46.5632L52.7869 46.4907L52.8028 46.418L52.8192 46.3451L52.8362 46.272L52.8537 46.1988L52.8718 46.1255L52.8905 46.052L52.9098 45.9783L52.9297 45.9045L52.9501 45.8305L52.9712 45.7564L52.9928 45.6822L53.015 45.6079L53.0378 45.5334L53.0612 45.4588L53.0852 45.3841L53.1098 45.3093L53.1351 45.2344L53.1609 45.1594L53.1873 45.0843L53.2143 45.0091L53.242 44.9338L53.2703 44.8584L53.2992 44.783L53.3287 44.7075L53.3588 44.6319L53.3896 44.5562L53.421 44.4805L53.453 44.4047L53.4856 44.3289L53.5189 44.253L53.5528 44.1771L53.5874 44.1011L53.6226 44.0252L53.6584 43.9491L53.6949 43.8731L53.7321 43.7971L53.7698 43.721L53.8083 43.6449L53.8473 43.5689L53.8871 43.4928L53.9274 43.4167L53.9685 43.3407L54.0102 43.2646L54.0525 43.1886L54.0955 43.1126L54.1392 43.0367L54.1836 42.9608L54.2286 42.8849L54.2742 42.8091L54.3206 42.7333L54.3676 42.6576L54.4152 42.5819L54.4636 42.5063L54.5126 42.4308L54.5623 42.3554L54.6126 42.2801L54.6637 42.2048L54.7154 42.1296L54.7678 42.0546L54.8209 41.9796L54.8746 41.9048L54.929 41.83L54.9841 41.7554L55.0399 41.6809L55.0964 41.6066L55.1535 41.5324L55.2114 41.4583L55.2699 41.3844L55.3291 41.3106L55.389 41.237L55.4495 41.1636L55.5108 41.0903L55.5727 41.0172L55.6353 40.9443L55.6986 40.8715L55.7626 40.799L55.8273 40.7266L55.8927 40.6545L55.9587 40.5826L56.0255 40.5109L56.0929 40.4394L56.161 40.3681L56.2298 40.2971L56.2993 40.2263L56.3694 40.1557L56.4403 40.0854L56.5118 40.0153L56.584 39.9455L56.657 39.876L56.7305 39.8067L56.8048 39.7377L56.8798 39.669L56.9554 39.6006L57.0317 39.5325L57.1087 39.4647L57.1864 39.3971L57.2648 39.3299L57.3438 39.263L57.4235 39.1964L57.5039 39.1302L57.585 39.0643L57.6667 38.9987L57.7492 38.9335L57.8322 38.8686L57.916 38.8041L58.0004 38.7399L58.0855 38.6761L58.1713 38.6127L58.2578 38.5496L58.3449 38.4869L58.4326 38.4247L58.5211 38.3628L58.6101 38.3013L58.6999 38.2402L58.7903 38.1796L58.8814 38.1193L58.9731 38.0595L59.0655 38.0001L59.1585 37.9411L59.2521 37.8826L59.3465 37.8246L59.4414 37.7669L59.537 37.7098L59.6333 37.6531L59.7302 37.5968L59.8277 37.5411L59.9259 37.4858L60.0246 37.431L60.1241 37.3767L60.2241 37.3229L60.3248 37.2696L60.4261 37.2168L60.528 37.1645L60.6306 37.1127L60.7337 37.0615L60.8375 37.0108L60.9419 36.9606L61.0469 36.911L61.1524 36.8619L61.2586 36.8133L61.3654 36.7654L61.4728 36.7179L61.5808 36.6711L61.6894 36.6248L61.7986 36.5791L61.9083 36.534L62.0186 36.4894L62.1295 36.4455L62.241 36.4021L62.3531 36.3594L62.4657 36.3173L62.5789 36.2758L62.6927 36.2349L62.807 36.1946L62.9219 36.155L63.0373 36.116L63.1533 36.0776L63.2698 36.0399L63.3868 36.0029L63.5044 35.9665L63.6225 35.9307L63.7412 35.8957L63.8604 35.8613L63.9801 35.8275L64.1003 35.7945L64.2211 35.7621L64.3423 35.7305L64.4641 35.6995L64.5863 35.6692L64.7091 35.6397L64.8323 35.6108L64.9561 35.5827L65.0803 35.5553L65.205 35.5286L65.3302 35.5026L65.4559 35.4774L65.582 35.4529L65.7086 35.4292L65.8356 35.4062L65.9632 35.3839L66.0911 35.3625L66.2195 35.3418L66.3484 35.3218L66.4776 35.3026L66.6073 35.2842L66.7375 35.2666L66.868 35.2498L66.999 35.2337L67.1304 35.2185L67.2622 35.204L67.3944 35.1904L67.527 35.1775L67.66 35.1655L67.7934 35.1543L67.9271 35.1439L68.0613 35.1343L68.1958 35.1255L68.3306 35.1176L68.4659 35.1105L68.6015 35.1043L68.7374 35.0989L68.8737 35.0943L69.0103 35.0906L69.1473 35.0878L69.2846 35.0858L69.4222 35.0846L69.5601 35.0844L69.6983 35.085L69.8369 35.0865L69.9757 35.0888L70.1149 35.0921L70.2543 35.0962L70.394 35.1012L70.534 35.1071L70.6743 35.1139L70.8148 35.1216L70.9556 35.1302L71.0966 35.1397L71.2379 35.1501L71.3794 35.1614L71.5212 35.1736L71.6632 35.1868L71.8054 35.2008L71.9479 35.2158L72.0905 35.2318L72.2334 35.2486L72.3764 35.2664L72.5197 35.2851L72.6631 35.3048L72.8067 35.3254L72.9505 35.3469L73.0945 35.3694L73.2386 35.3928L73.3829 35.4172L73.5273 35.4425L73.6718 35.4688L73.8165 35.4961L73.9614 35.5243L74.1063 35.5535L74.2514 35.5836L74.3965 35.6148L74.5418 35.6468L74.6872 35.6799L74.8326 35.7139L74.9782 35.749L75.1238 35.785L75.2695 35.8219L75.4152 35.8599L75.561 35.8988L75.7069 35.9388L75.8528 35.9797L75.9987 36.0216L76.1446 36.0645L76.2906 36.1084L76.4366 36.1533L76.5826 36.1992L76.7286 36.2461L76.8746 36.294L77.0205 36.3429L77.1665 36.3928L77.3124 36.4437L77.4583 36.4956L77.6041 36.5485L77.75 36.6025L77.8957 36.6574L78.0414 36.7133L78.187 36.7703L78.3325 36.8283L78.4779 36.8873L78.6233 36.9473L78.7686 37.0083L78.9137 37.0703L79.0587 37.1334L79.2036 37.1974L79.3484 37.2625L79.4931 37.3286L79.6376 37.3958L79.7819 37.4639L79.9261 37.5331L80.0702 37.6033L80.214 37.6745L80.3577 37.7467L80.5012 37.82L80.6445 37.8942L80.7876 37.9695L80.9305 38.0459L81.0732 38.1232L81.2156 38.2016L81.3578 38.281L81.4998 38.3614L81.6415 38.4428L81.783 38.5252L81.9242 38.6087L82.0652 38.6932L82.2059 38.7787L82.3463 38.8652L82.4864 38.9528L82.6262 39.0413L82.7657 39.1309L82.9049 39.2215L83.0438 39.3131L83.1823 39.4058L83.3205 39.4994L83.4584 39.5941L83.5959 39.6898L83.733 39.7864L83.8698 39.8841L84.0062 39.9828L84.1423 40.0826L84.2779 40.1833L84.4132 40.285L84.548 40.3877L84.6825 40.4915L84.8165 40.5962L84.9501 40.7019L85.0833 40.8087L85.216 40.9164L85.3483 41.0251L85.4802 41.1348L85.6115 41.2455L85.7424 41.3572L85.8729 41.4699L86.0028 41.5836L86.1323 41.6982L86.2612 41.8139L86.3897 41.9305L86.5176 42.048L86.645 42.1666L86.7719 42.2862L86.8983 42.4067L87.0241 42.5281L87.1494 42.6506L87.2741 42.774L87.3982 42.8983L87.5218 43.0236L87.6448 43.1499L87.7672 43.2771L87.889 43.4053L88.0102 43.5344L88.1308 43.6645L88.2508 43.7955L88.3701 43.9274L88.4889 44.0603L88.607 44.1941L88.7244 44.3289L88.8413 44.4645L88.9574 44.6011L89.0729 44.7386L89.1877 44.877L89.3018 45.0163L89.4153 45.1566L89.5281 45.2977L89.6401 45.4397L89.7515 45.5827L89.8621 45.7265L89.972 45.8712L90.0812 46.0168L90.1897 46.1633L90.2974 46.3106L90.4043 46.4589L90.5106 46.608L90.616 46.7579L90.7207 46.9088L90.8246 47.0605L90.9277 47.213L91.0301 47.3664L91.1316 47.5206L91.2323 47.6757L91.3323 47.8316L91.4314 47.9884L91.5297 48.1459L91.6271 48.3043L91.7238 48.4635L91.8196 48.6235L91.9145 48.7844L92.0086 48.946L92.1018 49.1084L92.1942 49.2716L92.2857 49.4357L92.3763 49.6005L92.466 49.766L92.5549 49.9324L92.6428 50.0995L92.7299 50.2674L92.816 50.436L92.9012 50.6054L92.9855 50.7755L93.0688 50.9464L93.1513 51.118L93.2327 51.2903L93.3133 51.4634L93.3929 51.6372L93.4715 51.8117L93.5492 51.9869L93.6259 52.1628L93.7016 52.3394L93.7763 52.5167L93.8501 52.6947L93.9228 52.8734L93.9946 53.0527L94.0654 53.2327L94.1351 53.4134L94.2038 53.5947L94.2716 53.7767L94.3383 53.9593L94.4039 54.1425L94.4686 54.3264L94.5322 54.5109L94.5947 54.696L94.6562 54.8818L94.7166 55.0681L94.776 55.255L94.8343 55.4426L94.8915 55.6307L94.9477 55.8194L95.0027 56.0087L95.0567 56.1985L95.1096 56.3889L95.1614 56.5798L95.2121 56.7713L95.2617 56.9634L95.3102 57.1559L95.3576 57.349L95.4038 57.5426L95.449 57.7368L95.493 57.9314L95.5358 58.1265L95.5775 58.3221L95.6181 58.5182L95.6576 58.7148L95.6959 58.9118L95.733 59.1093L95.769 59.3073L95.8038 59.5057L95.8374 59.7045L95.8699 59.9038L95.9012 60.1035L95.9314 60.3036L95.9603 60.5042L95.988 60.7051L96.0146 60.9064L96.04 61.1081L96.0642 61.3102L96.0871 61.5127L96.1089 61.7155L96.1295 61.9187L96.1488 62.1223L96.167 62.3262L96.1839 62.5304L96.1996 62.7349L96.2141 62.9398L96.2273 63.145L96.2393 63.3504L96.2501 63.5562L96.2597 63.7623L96.268 63.9686L96.275 64.1752L96.2808 64.3821L96.2854 64.5892L96.2887 64.7966L96.2908 65.0042L96.2916 65.2121L96.2912 65.4202L96.2895 65.6285L96.2865 65.8369L96.2822 66.0456L96.2767 66.2545L96.27 66.4636L96.2619 66.6728L96.2526 66.8822L96.242 67.0918L96.2301 67.3015L96.217 67.5114L96.2025 67.7213L96.1868 67.9315L96.1698 68.1417L96.1515 68.352L96.1319 68.5625L96.111 68.773L96.0888 68.9836L96.0653 69.1943L96.0406 69.405L96.0145 69.6158L95.9871 69.8267L95.9585 70.0375L95.9285 70.2485L95.8972 70.4594L95.8646 70.6704L95.8308 70.8813L95.7956 71.0923L95.7591 71.3032L95.7213 71.5142L95.6822 71.7251L95.6418 71.9359L95.6 72.1468L95.557 72.3575L95.5126 72.5682L95.467 72.7788L95.42 72.9894L95.3717 73.1998L95.3221 73.4102L95.2712 73.6205L95.219 73.8306L95.1655 74.0406L95.1106 74.2505L95.0545 74.4602L94.997 74.6698L94.9382 74.8792L94.8781 75.0885L94.8167 75.2976L94.754 75.5065L94.6899 75.7152L94.6246 75.9237L94.5579 76.132L94.49 76.3401L94.4207 76.5479L94.3501 76.7555L94.2782 76.9629L94.205 77.17L94.1305 77.3768L94.0547 77.5834L93.9776 77.7897L93.8992 77.9957L93.8194 78.2014L93.7384 78.4068L93.6561 78.6119L93.5725 78.8166L93.4876 79.0211L93.4014 79.2251L93.3138 79.4289L93.225 79.6322L93.1349 79.8352L93.0436 80.0379L92.9509 80.2401L92.8569 80.4419L92.7617 80.6434L92.6652 80.8444L92.5674 81.045L92.4683 81.2452L92.368 81.445L92.2663 81.6443L92.1634 81.8431L92.0593 82.0415L91.9538 82.2394L91.8471 82.4368L91.7392 82.6338L91.6299 82.8302L91.5195 83.0262L91.4077 83.2216L91.2948 83.4165L91.1805 83.6109L91.065 83.8047L90.9483 83.998L90.8304 84.1907L90.7112 84.3829L90.5907 84.5745L90.4691 84.7655L90.3462 84.9559L90.2221 85.1457L90.0968 85.335L89.9702 85.5236L89.8425 85.7115L89.7135 85.8989L89.5833 86.0856L89.4519 86.2717L89.3194 86.4571L89.1856 86.6418L89.0506 86.8259L88.9145 87.0093L88.7771 87.192L88.6386 87.374L88.4989 87.5553L88.358 87.7359L88.216 87.9158L88.0728 88.0949L87.9285 88.2733L87.783 88.451L87.6363 88.6279L87.4885 88.8041L87.3396 88.9795L87.1895 89.1541L87.0383 89.3279L86.8859 89.5009L86.7325 89.6732L86.5779 89.8446L86.4222 90.0152L86.2654 90.185L86.1075 90.354L85.9485 90.5222L85.7884 90.6894L85.6272 90.8559L85.4649 91.0215L85.3016 91.1862L85.1371 91.35L84.9716 91.513L84.8051 91.6751L84.6375 91.8363L84.4688 91.9965L84.2992 92.1559L84.1284 92.3143L83.9566 92.4719L83.7838 92.6285L83.61 92.7841L83.4352 92.9388L83.2593 93.0926L83.0825 93.2454L82.9046 93.3972L82.7258 93.5481L82.546 93.698L82.3651 93.8469L82.1834 93.9948L82.0006 94.1417L81.8169 94.2876L81.6322 94.4325L81.4466 94.5763L81.26 94.7192L81.0725 94.861L80.8841 95.0018L80.6947 95.1415L80.5045 95.2802L80.3133 95.4178L80.1212 95.5543L79.9282 95.6898L79.7344 95.8242L79.5396 95.9575L79.344 96.0898L79.1475 96.2209L78.9501 96.3509L78.7519 96.4799L78.5528 96.6077L78.3529 96.7344L78.1522 96.8599L77.9506 96.9844L77.7482 97.1077L77.545 97.2299L77.341 97.3509L77.1362 97.4707L76.9306 97.5895L76.7243 97.707L76.5171 97.8234L76.3092 97.9386L76.1005 98.0526L75.8911 98.1654L75.6809 98.2771L75.47 98.3875L75.2583 98.4968L75.046 98.6048L74.8329 98.7117L74.6191 98.8173L74.4046 98.9217L74.1894 99.0249L73.9736 99.1268L73.757 99.2275L73.5398 99.327L73.322 99.4252L73.1034 99.5222L72.8843 99.6179L72.6645 99.7124L72.4441 99.8056L72.223 99.8975L72.0014 99.9882L71.7791 100.078L71.5563 100.166L71.3329 100.253L71.1089 100.338L70.8843 100.422L70.6591 100.505L70.4334 100.587L70.2072 100.667L69.9804 100.746L69.7531 100.824L69.5253 100.901L69.297 100.976L69.0682 101.049L68.8389 101.122L68.6091 101.193L68.3788 101.263L68.1481 101.331L67.9169 101.399L67.6852 101.464L67.4531 101.529L67.2206 101.592L66.9877 101.654L66.7543 101.714L66.5205 101.773L66.2864 101.831L66.0518 101.887L65.8169 101.942L65.5816 101.996L65.346 102.048L65.11 102.099L64.8736 102.148L64.6369 102.196L64.3999 102.243L64.1626 102.288L63.925 102.332L63.687 102.375L63.4488 102.416L63.2103 102.456L62.9716 102.494L62.7325 102.531L62.4933 102.567L62.2538 102.601L62.014 102.634L61.774 102.665L61.5338 102.695L61.2934 102.724L61.0528 102.751L60.8121 102.777L60.5711 102.802L60.33 102.825L60.0887 102.846L59.8473 102.866L59.6057 102.885L59.364 102.902L59.1221 102.918L58.8802 102.933L58.6381 102.946L58.396 102.958L58.1538 102.968L57.9114 102.977L57.6691 102.984L57.4266 102.99L57.1842 102.995L56.9416 102.998L56.6991 103L56.4565 103L56.2139 102.999L55.9714 102.996L55.7288 102.992L55.4862 102.987L55.2437 102.98L55.0012 102.972L54.7588 102.963L54.5164 102.952L54.2741 102.939L54.0318 102.925L53.7896 102.91L53.5475 102.893L53.3056 102.875L53.0637 102.856L52.8219 102.835L52.5803 102.812L52.3388 102.788L52.0975 102.763L51.8563 102.737L51.6153 102.709L51.3745 102.679L51.1338 102.648L50.8934 102.616L50.6531 102.582L50.4131 102.547L50.1733 102.511L49.9337 102.473L49.6944 102.434L49.4553 102.393L49.2164 102.351L48.9778 102.308L48.7396 102.263L48.5016 102.217L48.2638 102.169L48.0264 102.12L47.7893 102.069L47.5526 102.018L47.3161 101.965L47.08 101.91L46.8443 101.854L46.6089 101.797L46.3739 101.738L46.1392 101.678L45.905 101.617L45.6711 101.554L45.4376 101.49L45.2046 101.424L44.972 101.357L44.7398 101.289L44.508 101.22L44.2767 101.149L44.0458 101.077L43.8155 101.003L43.5855 100.928L43.3561 100.852L43.1272 100.774L42.8987 100.695L42.6708 100.615L42.4434 100.534L42.2165 100.451L41.9902 100.367L41.7644 100.281L41.5391 100.194L41.3144 100.106L41.0903 100.017L40.8667 99.9261L40.6438 99.8341L40.4214 99.7408L40.1996 99.6463L39.9785 99.5504L39.7579 99.4533L39.538 99.3549L39.3188 99.2553L39.1001 99.1544L38.8822 99.0523L38.6648 98.9488L38.4482 98.8442L38.2322 98.7383L38.0169 98.6311L37.8023 98.5228L37.5884 98.4132L37.3753 98.3023L37.1628 98.1903L36.951 98.077L36.74 97.9626L36.5298 97.8469L36.3202 97.73L36.1115 97.6119L35.9035 97.4927L35.6962 97.3723L35.4898 97.2506L35.2841 97.1278L35.0792 97.0039L34.8751 96.8787L34.6719 96.7525L34.4694 96.625L34.2678 96.4965L34.067 96.3667L33.867 96.2359L33.6679 96.1039L33.4696 95.9708L33.2722 95.8366L33.0757 95.7012L32.88 95.5648L32.6852 95.4272L32.4913 95.2886L32.2983 95.1489L32.1062 95.0081L31.915 94.8662L31.7247 94.7232L31.5354 94.5792L31.347 94.4342L31.1595 94.288L30.9729 94.1409L30.7873 93.9927L30.6027 93.8435L30.419 93.6932L30.2363 93.5419L30.0545 93.3896L29.8738 93.2363L29.694 93.0821L29.5152 92.9268L29.3374 92.7705L29.1606 92.6133L28.9849 92.4551L28.8101 92.2959L28.6364 92.1358L28.4637 91.9747L28.2921 91.8127L28.1214 91.6497L27.9519 91.4858L27.7834 91.321L27.6159 91.1553L27.4495 90.9886L27.2842 90.8211L27.1199 90.6527L26.9568 90.4834L26.7947 90.3132L26.6337 90.1421L26.4738 89.9702L26.315 89.7974L26.1574 89.6238L26.0008 89.4493L25.8453 89.274L25.691 89.0979L25.5378 88.921L25.3858 88.7432L25.2348 88.5646L25.085 88.3853L24.9364 88.2051L24.7889 88.0242L24.6426 87.8425L24.4974 87.6601L24.3534 87.4769L24.2106 87.2929L24.069 87.1082L23.9285 86.9228L23.7892 86.7366L23.6511 86.5498L23.5142 86.3622L23.3785 86.1739L23.244 85.9849L23.1107 85.7953L22.9786 85.6049L22.8477 85.4139L22.718 85.2223L22.5896 85.03L22.4623 84.837L22.3363 84.6434L22.2116 84.4492L22.088 84.2544L21.9657 84.059L21.8447 83.8629L21.7249 83.6663L21.6063 83.4691L21.489 83.2713L21.373 83.0729L21.2582 82.874L21.1446 82.6745L21.0324 82.4745L20.9214 82.2739L20.8116 82.0729L20.7032 81.8713L20.596 81.6692L20.4901 81.4666L20.3855 81.2635L20.2821 81.0599L20.1801 80.8559L20.0793 80.6514L19.9798 80.4464L19.8816 80.241L19.7847 80.0351L19.6892 79.8288L19.5949 79.6221L19.5019 79.415L19.4102 79.2075L19.3198 78.9995L19.2308 78.7912L19.143 78.5826L19.0565 78.3735L18.9714 78.1641L18.8876 77.9543L18.8051 77.7442L18.7239 77.5337L18.644 77.323L18.5655 77.1119L18.4883 76.9005L18.4124 76.6888L18.3378 76.4768L18.2646 76.2645L18.1926 76.052L18.122 75.8392L18.0528 75.6261L17.9848 75.4128L17.9182 75.1993L17.853 74.9855L17.789 74.7715L17.7264 74.5573L17.6651 74.3429L17.6052 74.1283L17.5466 73.9135L17.4893 73.6985L17.4334 73.4834L17.3788 73.2681L17.3255 73.0527L17.2736 72.8371L17.223 72.6214L17.1737 72.4056L17.1258 72.1896L17.0792 71.9736L17.034 71.7574L16.9901 71.5412L16.9475 71.3249L16.9063 71.1085L16.8663 70.8921L16.8278 70.6756L16.7905 70.459L16.7546 70.2425L16.72 70.0259L16.6868 69.8092L16.6549 69.5926L16.6243 69.376L16.595 69.1594L16.5671 68.9428L16.5405 68.7262L16.5152 68.5097L16.4913 68.2932L16.4686 68.0767L16.4473 67.8604L16.4273 67.644L16.4087 67.4278L16.3913 67.2117L16.3753 66.9956L16.3606 66.7797L16.3472 66.5638L16.3351 66.3481L16.3243 66.1325L16.3148 65.9171L16.3066 65.7018L16.2998 65.4866L16.2942 65.2716L16.2899 65.0568L16.287 64.8422L16.2853 64.6277L16.2849 64.4135L16.2858 64.1995L16.2881 63.9856L16.2915 63.772L16.2963 63.5586L16.3024 63.3455L16.3097 63.1326L16.3183 62.92L16.3282 62.7076L16.3394 62.4955L16.3518 62.2837L16.3655 62.0721L16.3804 61.8609L16.3966 61.6499L16.4141 61.4393L16.4328 61.229L16.4528 61.019L16.474 60.8094L16.4965 60.6001L16.5202 60.3911L16.5451 60.1825L16.5713 59.9743L16.5987 59.7665L16.6273 59.559L16.6572 59.3519L16.6882 59.1452L16.7205 58.939L16.754 58.7331L16.7887 58.5277L16.8246 58.3227L16.8617 58.1181L16.9001 57.914L16.9396 57.7103L16.9802 57.5071L17.0221 57.3043L17.0652 57.102L17.1094 56.9002L17.1548 56.6989L17.2014 56.4981L17.2491 56.2978L17.298 56.098L17.3481 55.8987L17.3993 55.7L17.4516 55.5017L17.5051 55.3041L17.5597 55.1069L17.6155 54.9103L17.6724 54.7143L17.7304 54.5188L17.7895 54.3239L17.8497 54.1296L17.911 53.9359L17.9735 53.7428L18.037 53.5503L18.1017 53.3583L18.1674 53.167L18.2342 52.9764L18.3021 52.7863L18.371 52.5969L18.441 52.4081L18.5121 52.22L18.5843 52.0325L18.6575 51.8457L18.7317 51.6595L18.807 51.474L18.8833 51.2892L18.9606 51.1051L19.039 50.9217L19.1183 50.7389L19.1987 50.5569L19.2801 50.3756L19.3625 50.195L19.4459 50.0151L19.5303 49.836L19.6157 49.6575L19.702 49.4799L19.7893 49.3029L19.8776 49.1267L19.9668 48.9513L20.057 48.7766L20.1482 48.6027L20.2402 48.4296L20.3332 48.2572L20.4272 48.0857L20.5221 47.9149L20.6178 47.7449L20.7145 47.5757L20.8121 47.4073L20.9106 47.2397L21.01 47.073L21.1102 46.907L21.2114 46.7419L21.3134 46.5776L21.4163 46.4142L21.52 46.2516L21.6246 46.0898L21.73 45.9289L21.8363 45.7688L21.9434 45.6096L22.0514 45.4513L22.1601 45.2938L22.2697 45.1372L22.38 44.9815L22.4912 44.8266L22.6032 44.6727L22.7159 44.5196L22.8294 44.3675L22.9437 44.2162L23.0588 44.0658L23.1746 43.9163L23.2911 43.7678L23.4084 43.6202L23.5265 43.4734L23.6452 43.3276L23.7647 43.1828L23.8849 43.0388L24.0058 42.8958L24.1275 42.7538L24.2498 42.6126L24.3727 42.4725L24.4964 42.3332L24.6208 42.1949L24.7458 42.0576L24.8714 41.9212L24.9977 41.7858L25.1247 41.6514L25.2523 41.5179L25.3805 41.3854L25.5094 41.2539L25.6388 41.1234L25.7689 40.9938L25.8995 40.8652L26.0308 40.7376L26.1626 40.611L26.295 40.4854L26.428 40.3608L26.5616 40.2372L26.6957 40.1145L26.8303 39.9929L26.9655 39.8723L27.1012 39.7527L27.2374 39.6341L27.3742 39.5165L27.5115 39.3999L27.6492 39.2844L27.7875 39.1698L27.9263 39.0563L28.0655 38.9438L28.2052 38.8323L28.3453 38.7219L28.486 38.6125L28.627 38.5041L28.7685 38.3968L28.9105 38.2904L29.0529 38.1851L29.1956 38.0809L29.3388 37.9777L29.4824 37.8755L29.6264 37.7744L29.7708 37.6743L29.9156 37.5753L30.0607 37.4773L30.2062 37.3803L30.3521 37.2844L30.4983 37.1896L30.6449 37.0958L30.7918 37.003L30.939 36.9113L31.0865 36.8206L31.2344 36.731L31.3825 36.6425L31.5309 36.555L31.6797 36.4686L31.8287 36.3832L31.978 36.2989L32.1276 36.2156L32.2774 36.1334L32.4274 36.0522L32.5777 35.9721L32.7283 35.8931L32.8791 35.8151L33.0301 35.7382L33.1813 35.6623L33.3327 35.5875L33.4843 35.5138L33.6361 35.4411L33.7881 35.3695L33.9402 35.2989L34.0926 35.2294L34.245 35.1609L34.3977 35.0935L34.5505 35.0272L34.7034 34.9619L34.8564 34.8976L35.0096 34.8345L35.1629 34.7723L35.3163 34.7113L35.4698 34.6513L35.6234 34.5923L35.7771 34.5344L35.9308 34.4775L36.0847 34.4217L36.2385 34.3669L36.3925 34.3132L36.5465 34.2605L36.7005 34.2089L36.8546 34.1583L37.0087 34.1088L37.1628 34.0603L37.317 34.0128L37.4711 33.9664L37.6252 33.921L37.7794 33.8766L37.9335 33.8333L38.0875 33.791L38.2416 33.7498L38.3956 33.7095L38.5496 33.6703L38.7035 33.6322L38.8574 33.595L39.0112 33.5589L39.1649 33.5238L39.3186 33.4897L39.4721 33.4566L39.6256 33.4245L39.779 33.3935L39.9322 33.3635L40.0854 33.3344L40.2384 33.3064L40.3913 33.2794L40.5441 33.2533L40.6967 33.2283L40.8492 33.2042L41.0015 33.1812L41.1536 33.1591L41.3056 33.1381L41.4574 33.118L41.6091 33.0989L41.7605 33.0808L41.9118 33.0636L42.0628 33.0474L42.2137 33.0322L42.3643 33.018L42.5147 33.0047L42.6649 32.9924L42.8148 32.981L42.9646 32.9706L43.114 32.9612L43.2632 32.9527L43.4122 32.9451L43.5609 32.9385L43.7093 32.9328L43.8575 32.9281L44.0053 32.9243L44.1529 32.9214L44.3002 32.9195L44.4472 32.9184L44.5938 32.9183L44.7402 32.9191L44.8862 32.9208L45.032 32.9235L45.1774 32.927L45.3224 32.9314L45.4671 32.9367L45.6115 32.9429L45.7555 32.95L45.8991 32.958L46.0424 32.9669L46.1853 32.9766L46.3279 32.9872L46.47 32.9987L46.6118 33.0111L46.7532 33.0243L46.8942 33.0383L47.0348 33.0532L47.1749 33.069L47.3147 33.0856L47.454 33.103L47.5929 33.1213L47.7314 33.1404L47.8695 33.1603L48.0071 33.1811L48.1443 33.2026L48.281 33.225L48.4173 33.2482L48.5531 33.2722L48.6884 33.297L48.8233 33.3226L48.9577 33.3489L49.0916 33.3761L49.2251 33.404L49.358 33.4327L49.4905 33.4622L49.6224 33.4925L49.7539 33.5235L49.8848 33.5552L50.0153 33.5877L50.1452 33.621L50.2746 33.655L50.4035 33.6897L50.5319 33.7252L50.6597 33.7614L50.787 33.7983L50.9137 33.8359L51.0399 33.8743L51.1656 33.9133L51.2907 33.9531L51.4153 33.9935L51.5392 34.0346L51.6627 34.0764L51.7855 34.1189L51.9078 34.1621L52.0295 34.2059L52.1506 34.2504L52.2712 34.2956L52.3911 34.3414L52.5105 34.3879L52.6293 34.435L52.7474 34.4827L52.865 34.5311L52.982 34.5801L53.0983 34.6297L53.2141 34.68L53.3292 34.7308L53.4437 34.7823L53.5576 34.8343L53.6709 34.887L53.7836 34.9402L53.8956 34.994L54.007 35.0484L54.1177 35.1034L54.2278 35.1589L54.3373 35.215L54.4461 35.2716L54.5543 35.3288L54.6618 35.3865L54.7687 35.4448L54.8749 35.5036L54.9805 35.5629L55.0854 35.6228L55.1896 35.6831L55.2932 35.744L55.3961 35.8054L55.4984 35.8672L55.5999 35.9296L55.7008 35.9924L55.801 36.0558L55.9006 36.1196L55.9994 36.1838L56.0976 36.2486L56.1951 36.3138L56.2919 36.3794L56.3881 36.4455L56.4835 36.512L56.5782 36.579L56.6723 36.6463L56.7656 36.7141L56.8583 36.7824L56.9502 36.851L57.0415 36.92L57.132 36.9895L57.2219 37.0593L57.311 37.1295L57.3995 37.2001L57.4872 37.2711L57.5742 37.3424L57.6606 37.4141L57.7462 37.4862L57.8311 37.5586L57.9153 37.6313L57.9987 37.7044L58.0815 37.7778L58.1635 37.8516L58.2449 37.9257L58.3255 38.0001L58.4054 38.0748L58.4845 38.1498L58.563 38.2251L58.6407 38.3007L58.7177 38.3766L58.794 38.4527L58.8696 38.5292L58.9444 38.6059L59.0186 38.6829L59.092 38.7601L59.1646 38.8376L59.2366 38.9153L59.3078 38.9933L59.3784 39.0715L59.4481 39.1499L59.5172 39.2286L59.5855 39.3075L59.6532 39.3865L59.72 39.4658L59.7862 39.5453L59.8517 39.625L59.9164 39.7049L59.9804 39.7849L60.0436 39.8652L60.1062 39.9456L60.168 40.0262L60.2291 40.1069L60.2895 40.1878L60.3492 40.2688L60.4081 40.35L60.4663 40.4313L60.5239 40.5127L60.5806 40.5943L60.6367 40.676L60.6921 40.7578L60.7467 40.8397L60.8006 40.9218L60.8538 41.0039L60.9063 41.0861L60.9581 41.1684L61.0092 41.2508L61.0595 41.3333L61.1092 41.4158L61.1581 41.4984L61.2064 41.581L61.2539 41.6638L61.3007 41.7465L61.3469 41.8293L61.3923 41.9122L61.437 41.9951L61.481 42.078L61.5244 42.1609L61.567 42.2439L61.6089 42.3268L61.6502 42.4098L61.6907 42.4928L61.7306 42.5757L61.7698 42.6587L61.8083 42.7417L61.8461 42.8246L61.8832 42.9075L61.9196 42.9904L61.9554 43.0732L61.9905 43.156L62.0249 43.2388L62.0586 43.3215L62.0917 43.4042L62.1241 43.4868L62.1559 43.5694L62.1869 43.6518L62.2173 43.7342L62.2471 43.8166L62.2762 43.8988L62.3046 43.981L62.3324 44.063L62.3596 44.145L62.386 44.2269L62.4119 44.3087L62.4371 44.3903L62.4616 44.4718L62.4856 44.5533L62.5089 44.6346L62.5315 44.7157L62.5535 44.7968L62.5749 44.8777L62.5957 44.9584L62.6159 45.0391L62.6354 45.1195L62.6543 45.1998L62.6726 45.28L62.6903 45.36L62.7074 45.4398L62.7239 45.5194L62.7397 45.5989L62.755 45.6782L62.7697 45.7573L62.7838 45.8362L62.7973 45.915L62.8102 45.9935L62.8225 46.0718L62.8343 46.15L62.8455 46.2279L62.856 46.3056L62.8661 46.3831L62.8755 46.4604L62.8844 46.5374L62.8928 46.6142L62.9005 46.6908L62.9078 46.7672L62.9144 46.8433L62.9206 46.9192L62.9261 46.9948L62.9312 47.0702L62.9357 47.1453L62.9397 47.2202L62.9431 47.2948L62.946 47.3692L62.9484 47.4433L62.9503 47.5171L62.9516 47.5907L62.9525 47.6639L62.9528 47.7369L62.9526 47.8097L62.952 47.8821L62.9508 47.9542L62.9492 48.0261L62.947 48.0976L62.9444 48.1689L62.9412 48.2398L62.9377 48.3105L62.9336 48.3808L62.929 48.4509L62.924 48.5206L62.9186 48.59L62.9126 48.6591L62.9062 48.7279L62.8994 48.7963L62.8921 48.8645L62.8844 48.9323L62.8762 48.9997L62.8676 49.0669L62.8586 49.1337L62.8492 49.2001L62.8393 49.2663L62.829 49.332L62.8183 49.3975L62.8071 49.4626L62.7956 49.5273L62.7837 49.5917L62.7713 49.6557L62.7586 49.7194L62.7455 49.7827L62.732 49.8457L62.7181 49.9083L62.7038 49.9705L62.6892 50.0324L62.6742 50.0939L62.6588 50.155L62.6431 50.2158L62.627 50.2761L62.6105 50.3362L62.5937 50.3958L62.5766 50.4551L62.5591 50.5139L62.5413 50.5724L62.5232 50.6305L62.5047 50.6883L62.4859 50.7456L62.4668 50.8026L62.4474 50.8591L62.4276 50.9153L62.4076 50.9711L62.3873 51.0265L62.3666 51.0815L62.3457 51.1361L62.3245 51.1903L62.303 51.2441L62.2812 51.2975L62.2591 51.3505L62.2368 51.4031L62.2142 51.4553L62.1913 51.5071L62.1682 51.5585L62.1448 51.6095L62.1212 51.6601L62.0973 51.7103L62.0732 51.7601L62.0489 51.8095L62.0243 51.8585L61.9995 51.907L61.9744 51.9552L61.9492 52.0029L61.9237 52.0503L61.898 52.0972L61.8721 52.1437L61.846 52.1898L61.8198 52.2355L61.7933 52.2808L61.7666 52.3257L61.7397 52.3701L61.7127 52.4142L61.6855 52.4578L61.6581 52.501L61.6305 52.5438L61.6028 52.5862L61.5749 52.6282L61.5469 52.6698L61.5187 52.711L61.4903 52.7517L61.4619 52.7921L61.4332 52.832L61.4045 52.8715L61.3756 52.9106L61.3466 52.9493L61.3174 52.9876L61.2882 53.0255L61.2588 53.063L61.2293 53.1L61.1997 53.1367L61.17 53.1729L61.1403 53.2087L61.1104 53.2442L61.0804 53.2792L61.0503 53.3138L61.0202 53.348L60.99 53.3818L60.9597 53.4153L60.9293 53.4483L60.8989 53.4809L60.8684 53.5131L60.8378 53.5449L60.8072 53.5763L60.7766 53.6073L60.7459 53.6379L60.7151 53.6681L60.6844 53.6979L60.6535 53.7274L60.6227 53.7564L60.5918 53.7851L60.5609 53.8133L60.53 53.8412L60.499 53.8687L60.4681 53.8958L60.4371 53.9225L60.4062 53.9488L60.3752 53.9748L60.3442 54.0003L60.3133 54.0255L60.2823 54.0503L60.2514 54.0748L60.2205 54.0988L60.1896 54.1225L60.1587 54.1458L60.1278 54.1688L60.097 54.1914L60.0662 54.2136L60.0355 54.2355L60.0048 54.257L59.9741 54.2781L59.9435 54.2989L59.9129 54.3193L59.8824 54.3394L59.852 54.3591L59.8216 54.3784L59.7913 54.3974L59.761 54.4161L59.7308 54.4344L59.7007 54.4524L59.6706 54.4701L59.6407 54.4874L59.6108 54.5043L59.581 54.521L59.5513 54.5373L59.5217 54.5532L59.4922 54.5689L59.4628 54.5842L59.4334 54.5992L59.4042 54.6139L59.3751 54.6283L59.3461 54.6423L59.3172 54.656L59.2885 54.6694L59.2598 54.6826L59.2313 54.6954L59.2029 54.7079L59.1746 54.7201L59.1464 54.732L59.1184 54.7436L59.0905 54.7549L59.0627 54.7659L59.0351 54.7767L59.0076 54.7871L58.9803 54.7973L58.9531 54.8072L58.9261 54.8168L58.8992 54.8261L58.8725 54.8352L58.8459 54.844L58.8195 54.8526L58.7932 54.8608L58.7671 54.8688L58.7412 54.8766L58.7154 54.8841L58.6898 54.8913L58.6644 54.8983L58.6391 54.9051L58.6141 54.9116L58.5892 54.9179L58.5644 54.9239L58.5399 54.9297L58.5155 54.9352L58.4914 54.9406L58.4674 54.9457L58.4436 54.9506L58.42 54.9552L58.3966 54.9597L58.3733 54.9639L58.3503 54.968L58.3275 54.9718L58.3048 54.9754L58.2824 54.9788L58.2602 54.982L58.2382 54.9851L58.2163 54.9879L58.1947 54.9905L58.1733 54.993L58.1521 54.9953L58.1311 54.9974L58.1103 54.9993L58.0898 55.0011L58.0694 55.0026L58.0493 55.0041L58.0294 55.0053L58.0097 55.0064L57.9902 55.0074L57.9709 55.0081L57.9519 55.0088L57.933 55.0093L57.9145 55.0096L57.8961 55.0098L57.8779 55.0099L57.86 55.0098L57.8423 55.0096L57.8248 55.0093L57.8076 55.0089L57.7906 55.0083L57.7738 55.0076L57.7572 55.0069L57.7409 55.006L57.7248 55.005L57.7089 55.0038L57.6933 55.0026L57.6779 55.0013L57.6627 54.9999L57.6478 54.9984L57.6331 54.9969L57.6186 54.9952L57.6044 54.9935L57.5904 54.9916L57.5766 54.9897L57.5631 54.9878L57.5498 54.9858L57.5367 54.9837L57.5239 54.9815L57.5113 54.9793L57.499 54.977L57.4868 54.9747L57.475 54.9724L57.4633 54.97L57.4519 54.9675L57.4407 54.9651L57.4298 54.9626L57.4191 54.96L57.4086 54.9574L57.3983 54.9549L57.3883 54.9522L57.3785 54.9496L57.369 54.947L57.3597 54.9443L57.3506 54.9417L57.3418 54.939L57.3331 54.9363L57.3247 54.9337L57.3166 54.931L57.3087 54.9284L57.301 54.9257L57.2935 54.9231L57.2862 54.9205L57.2792 54.9179L57.2724 54.9154L57.2658 54.9129L57.2595 54.9104L57.2534 54.9079L57.2475 54.9055L57.2418 54.9031L57.2363 54.9008L57.231 54.8985L57.226 54.8962L57.2212 54.8941L57.2166 54.8919L57.2122 54.8899L57.208 54.8878L57.2041 54.8859L57.2003 54.884L57.1968 54.8822L57.1935 54.8805L57.1903 54.8788L57.1874 54.8773L57.1847 54.8758L57.1822 54.8744L57.1798 54.8731L57.1777 54.8718L57.1758 54.8707L57.1741 54.8697L57.1725 54.8687L57.1712 54.8679M57.1665 54.8655L57.1677 54.8657L57.1691 54.8666L57.1701 54.8672L57.1712 54.8679" stroke="url(#paint0_linear_126_2)"/>
    </g>
    <defs>
        <filter id="filter0_f_126_2" x="0.5" y="0.5" width="114" height="112" filterUnits="userSpaceOnUse" color-interpolation-filters="sRGB">
            <feFlood flood-opacity="0" result="BackgroundImageFix"/>
            <feBlend mode="normal" in="SourceGraphic" in2="BackgroundImageFix" result="shape"/>
            <feGaussianBlur stdDeviation="4.5" result="effect1_foregroundBlur_126_2"/>
        </filter>
        <linearGradient id="paint0_linear_126_2" x1="105" y1="75.0097" x2="8.44752" y2="60.5665" gradientUnits="userSpaceOnUse">
            <stop stop-color="#94B3FD"/>
            <stop offset="0.499634" stop-color="#FB6BFE"/>
            <stop offset="1" stop-color="#42C2FF"/>
        </linearGradient>
    </defs>
</svg>
