<svg width="70" height="30" viewBox="0 0 70 30" fill="none" xmlns="http://www.w3.org/2000/svg">
    <path d="M7.32856 16.0219L2.04225 9.51413C1.22368 8.50642 1.9408 7 3.23907 7C3.71874 7 4.17109 7.22323 4.46289 7.60394L7.61893 11.7217C8.81974 13.2884 11.1803 13.2884 12.3811 11.7217L15.5371 7.60394C15.8289 7.22323 16.2813 7 16.7609 7C18.0592 7 18.7763 8.50642 17.9578 9.51413L12.6714 16.0219C12.2371 16.5566 12 17.2245 12 17.9134V21C12 22.1046 11.1046 23 10 23C8.89543 23 8 22.1046 8 21V17.9134C8 17.2245 7.76291 16.5566 7.32856 16.0219Z" fill="#00A3FF"/>
    <circle cx="10" cy="9" r="2" fill="#00A3FF"/>
    <path d="M21.2 23.3C19.4667 23.3 18.1267 22.8467 17.18 21.94C16.2467 21.02 15.78 19.7733 15.78 18.2C15.78 16.6267 16.2467 15.3867 17.18 14.48C18.1267 13.56 19.4667 13.1 21.2 13.1C22.9333 13.1 24.2733 13.56 25.22 14.48C26.1667 15.3867 26.64 16.6267 26.64 18.2C26.64 19.7733 26.1667 21.02 25.22 21.94C24.2733 22.8467 22.9333 23.3 21.2 23.3ZM21.2 21.42C22.1467 21.42 22.8667 21.1467 23.36 20.6C23.8533 20.0533 24.1 19.2533 24.1 18.2C24.1 17.16 23.8533 16.3733 23.36 15.84C22.8667 15.2933 22.1467 15.02 21.2 15.02C20.2667 15.02 19.5467 15.2933 19.04 15.84C18.5467 16.3733 18.3 17.16 18.3 18.2C18.3 19.24 18.5467 20.04 19.04 20.6C19.5467 21.1467 20.2667 21.42 21.2 21.42ZM32.3188 23.3C31.1854 23.3 30.3321 22.9867 29.7588 22.36C29.1854 21.7333 28.8988 20.8667 28.8988 19.76V15.28H27.7588C27.4921 15.28 27.3121 15.2333 27.2188 15.14C27.1388 15.0467 27.0988 14.8733 27.0988 14.62V14.08C27.0988 13.8267 27.1388 13.6533 27.2188 13.56C27.3121 13.4533 27.4921 13.4 27.7588 13.4H28.8988V12.3C28.8988 12.02 28.9454 11.76 29.0388 11.52C29.1454 11.2667 29.3054 10.9533 29.5188 10.58C29.5988 10.42 29.6721 10.32 29.7388 10.28C29.8188 10.2267 29.9521 10.2 30.1388 10.2H30.7988C31.0388 10.2 31.2054 10.26 31.2988 10.38C31.4054 10.4867 31.4588 10.6533 31.4588 10.88V13.4H33.8188C34.0854 13.4 34.2588 13.4533 34.3388 13.56C34.4321 13.6533 34.4788 13.8267 34.4788 14.08V14.62C34.4788 14.8733 34.4321 15.0467 34.3388 15.14C34.2588 15.2333 34.0854 15.28 33.8188 15.28H31.4588V19.68C31.4588 20.2933 31.5654 20.74 31.7788 21.02C31.9921 21.2867 32.3588 21.42 32.8788 21.42C33.1854 21.42 33.4454 21.3867 33.6588 21.32C33.8721 21.24 34.1054 21.1133 34.3588 20.94C34.4254 20.8867 34.4988 20.86 34.5788 20.86C34.6588 20.86 34.7388 20.92 34.8188 21.04L35.3988 22C35.4521 22.0667 35.4788 22.14 35.4788 22.22C35.4788 22.3133 35.4121 22.4067 35.2788 22.5C34.4521 23.0333 33.4654 23.3 32.3188 23.3ZM42.2194 23.3C41.1794 23.3 40.2394 23.1267 39.3994 22.78C38.5594 22.42 37.886 21.8733 37.3794 21.14C36.886 20.3933 36.6394 19.4667 36.6394 18.36C36.6394 16.64 37.0994 15.3333 38.0194 14.44C38.9394 13.5467 40.246 13.1 41.9394 13.1C43.6194 13.1 44.886 13.5333 45.7394 14.4C46.606 15.2667 47.0394 16.52 47.0394 18.16C47.0394 18.6267 46.826 18.86 46.3994 18.86H39.0594C39.0594 19.74 39.366 20.42 39.9794 20.9C40.5927 21.3667 41.446 21.6 42.5394 21.6C43.5927 21.6 44.5394 21.36 45.3794 20.88C45.4727 20.8267 45.546 20.8 45.5994 20.8C45.6927 20.8 45.766 20.86 45.8194 20.98L46.2994 21.84C46.3394 21.92 46.3594 21.9933 46.3594 22.06C46.3594 22.1533 46.2994 22.24 46.1794 22.32C45.6327 22.6533 45.0394 22.9 44.3994 23.06C43.7727 23.22 43.046 23.3 42.2194 23.3ZM44.7194 17.38C44.7194 16.5533 44.486 15.9067 44.0194 15.44C43.566 14.9733 42.8794 14.74 41.9594 14.74C41.026 14.74 40.306 14.98 39.7994 15.46C39.306 15.94 39.0594 16.58 39.0594 17.38H44.7194ZM49.7525 23C49.4858 23 49.2925 22.94 49.1725 22.82C49.0525 22.7 48.9925 22.52 48.9925 22.28V13.94C48.9925 13.74 49.0258 13.6 49.0925 13.52C49.1592 13.44 49.2992 13.4 49.5125 13.4H50.5725C50.7192 13.4 50.8258 13.4333 50.8925 13.5C50.9592 13.5533 50.9992 13.6533 51.0125 13.8L51.0725 14.64C51.4592 14.1467 51.8992 13.7667 52.3925 13.5C52.8992 13.2333 53.4992 13.1 54.1925 13.1C54.7792 13.1 55.2858 13.2333 55.7125 13.5C56.1525 13.7533 56.4725 14.1333 56.6725 14.64C57.4058 13.6133 58.4658 13.1 59.8525 13.1C60.7992 13.1 61.5458 13.3867 62.0925 13.96C62.6525 14.5333 62.9325 15.3867 62.9325 16.52V22.28C62.9325 22.52 62.8725 22.7 62.7525 22.82C62.6458 22.94 62.4525 23 62.1725 23H61.2925C61.0258 23 60.8325 22.94 60.7125 22.82C60.5925 22.7 60.5325 22.52 60.5325 22.28V16.66C60.5325 16.0467 60.3992 15.6067 60.1325 15.34C59.8792 15.0733 59.4925 14.94 58.9725 14.94C58.4258 14.94 57.9792 15.12 57.6325 15.48C57.2992 15.84 57.1325 16.3267 57.1325 16.94V22.28C57.1325 22.52 57.0725 22.7 56.9525 22.82C56.8325 22.94 56.6392 23 56.3725 23H55.5525C55.2858 23 55.0925 22.94 54.9725 22.82C54.8525 22.7 54.7925 22.52 54.7925 22.28V16.56C54.7925 16 54.6725 15.5933 54.4325 15.34C54.2058 15.0733 53.8392 14.94 53.3325 14.94C52.7592 14.94 52.2925 15.1333 51.9325 15.52C51.5725 15.8933 51.3925 16.3867 51.3925 17V22.28C51.3925 22.52 51.3325 22.7 51.2125 22.82C51.1058 22.94 50.9125 23 50.6325 23H49.7525ZM66.1839 11.74C65.8639 11.74 65.6172 11.6467 65.4439 11.46C65.2706 11.2733 65.1839 11.0467 65.1839 10.78V10.36C65.1839 10.0933 65.2706 9.86667 65.4439 9.68C65.6172 9.49333 65.8639 9.4 66.1839 9.4H67.0439C67.3639 9.4 67.6106 9.49333 67.7839 9.68C67.9706 9.86667 68.0639 10.0933 68.0639 10.36V10.78C68.0639 11.0467 67.9706 11.2733 67.7839 11.46C67.6106 11.6467 67.3639 11.74 67.0439 11.74H66.1839ZM66.1039 23C65.8372 23 65.6439 22.94 65.5239 22.82C65.4039 22.7 65.3439 22.52 65.3439 22.28V14.14C65.3439 13.8867 65.4039 13.7 65.5239 13.58C65.6439 13.46 65.8372 13.4 66.1039 13.4H67.1439C67.4106 13.4 67.6039 13.46 67.7239 13.58C67.8439 13.7 67.9039 13.8867 67.9039 14.14V22.28C67.9039 22.52 67.8439 22.7 67.7239 22.82C67.6172 22.94 67.4239 23 67.1439 23H66.1039Z" fill="white"/>
</svg>
