<svg width="199" height="203" viewBox="0 0 199 203" fill="none" xmlns="http://www.w3.org/2000/svg">
    <g filter="url(#filter0_f_376_2328)">
        <path d="M95.7632 101.677L95.7612 101.679L95.7578 101.682L95.753 101.685L95.7468 101.69L95.7393 101.697L95.7303 101.704L95.72 101.713L95.7085 101.722L95.6955 101.734L95.6814 101.746L95.6659 101.76L95.6492 101.775L95.6313 101.792L95.6122 101.809L95.5919 101.829L95.5704 101.849L95.5478 101.871L95.524 101.895L95.4992 101.92L95.4733 101.947L95.4463 101.975L95.4182 102.004L95.3892 102.035L95.3592 102.068L95.3281 102.102L95.2962 102.138L95.2633 102.175L95.2295 102.214L95.1948 102.255L95.1593 102.297L95.1229 102.341L95.0857 102.386L95.0477 102.434L95.009 102.483L94.9695 102.533L94.9293 102.586L94.8885 102.64L94.8469 102.696L94.8047 102.753L94.7619 102.813L94.7185 102.874L94.6745 102.937L94.63 103.002L94.585 103.069L94.5395 103.137L94.4935 103.207L94.4471 103.279L94.4003 103.353L94.3531 103.429L94.3056 103.507L94.2577 103.587L94.2095 103.668L94.161 103.752L94.1123 103.837L94.0633 103.924L94.0142 104.013L93.9648 104.104L93.9154 104.197L93.8658 104.292L93.8161 104.389L93.7664 104.488L93.7166 104.588L93.6668 104.691L93.6171 104.796L93.5674 104.902L93.5178 105.011L93.4682 105.121L93.4188 105.234L93.3696 105.348L93.3206 105.465L93.2717 105.583L93.2231 105.703L93.1748 105.826L93.1268 105.95L93.0791 106.076L93.0318 106.205L92.9849 106.335L92.9383 106.467L92.8922 106.601L92.8466 106.737L92.8015 106.875L92.7569 107.015L92.7128 107.157L92.6694 107.301L92.6265 107.447L92.5843 107.595L92.5427 107.745L92.5019 107.897L92.4617 108.05L92.4223 108.206L92.3837 108.364L92.3459 108.523L92.3089 108.684L92.2728 108.848L92.2375 109.013L92.2032 109.18L92.1698 109.349L92.1374 109.52L92.106 109.692L92.0756 109.867L92.0463 110.043L92.0181 110.222L91.9909 110.402L91.9649 110.584L91.9401 110.767L91.9164 110.953L91.8939 111.14L91.8727 111.329L91.8528 111.52L91.8341 111.713L91.8168 111.907L91.8008 112.103L91.7862 112.301L91.7729 112.5L91.7611 112.701L91.7508 112.904L91.7419 113.109L91.7345 113.315L91.7286 113.522L91.7243 113.732L91.7216 113.943L91.7204 114.155L91.7209 114.369L91.723 114.585L91.7268 114.802L91.7323 115.021L91.7395 115.241L91.7484 115.463L91.7591 115.686L91.7716 115.91L91.7859 116.136L91.802 116.364L91.82 116.593L91.8399 116.823L91.8616 117.054L91.8853 117.287L91.9109 117.521L91.9385 117.757L91.9681 117.993L91.9997 118.231L92.0333 118.47L92.0689 118.711L92.1067 118.952L92.1465 119.195L92.1884 119.439L92.2324 119.684L92.2786 119.93L92.3269 120.177L92.3775 120.425L92.4302 120.674L92.4851 120.924L92.5423 121.175L92.6018 121.427L92.6635 121.68L92.7275 121.934L92.7938 122.189L92.8625 122.444L92.9335 122.701L93.0068 122.958L93.0825 123.216L93.1606 123.474L93.2411 123.734L93.324 123.994L93.4094 124.254L93.4972 124.516L93.5874 124.778L93.6802 125.04L93.7754 125.303L93.8731 125.567L93.9733 125.831L94.0761 126.095L94.1814 126.36L94.2892 126.626L94.3996 126.892L94.5126 127.158L94.6282 127.424L94.7463 127.691L94.8671 127.958L94.9905 128.225L95.1165 128.492L95.2451 128.76L95.3764 129.028L95.5103 129.296L95.6469 129.564L95.7861 129.832L95.928 130.1L96.0726 130.367L96.2199 130.635L96.3699 130.903L96.5226 131.171L96.6779 131.439L96.836 131.706L96.9968 131.973L97.1604 132.241L97.3266 132.507L97.4956 132.774L97.6673 133.04L97.8418 133.306L98.019 133.571L98.1989 133.836L98.3816 134.101L98.567 134.365L98.7552 134.628L98.9461 134.891L99.1398 135.154L99.3362 135.416L99.5354 135.677L99.7373 135.938L99.9419 136.197L100.149 136.456L100.36 136.715L100.572 136.972L100.788 137.229L101.006 137.485L101.228 137.74L101.451 137.994L101.678 138.247L101.907 138.499L102.139 138.75L102.374 138.999L102.612 139.248L102.852 139.496L103.095 139.742L103.34 139.988L103.588 140.232L103.839 140.475L104.093 140.716L104.349 140.957L104.608 141.196L104.87 141.433L105.134 141.669L105.401 141.904L105.67 142.137L105.942 142.369L106.217 142.599L106.494 142.827L106.774 143.054L107.057 143.28L107.342 143.503L107.629 143.725L107.919 143.945L108.212 144.164L108.507 144.38L108.805 144.595L109.105 144.808L109.407 145.019L109.712 145.229L110.02 145.436L110.33 145.641L110.642 145.844L110.956 146.046L111.273 146.245L111.593 146.442L111.915 146.637L112.239 146.829L112.565 147.02L112.894 147.208L113.224 147.395L113.558 147.579L113.893 147.76L114.231 147.939L114.57 148.116L114.912 148.291L115.257 148.463L115.603 148.633L115.951 148.8L116.302 148.965L116.654 149.127L117.009 149.287L117.365 149.444L117.724 149.598L118.084 149.75L118.447 149.899L118.811 150.046L119.178 150.19L119.546 150.331L119.916 150.469L120.288 150.605L120.662 150.738L121.037 150.868L121.415 150.995L121.794 151.119L122.175 151.241L122.557 151.359L122.941 151.475L123.327 151.588L123.714 151.697L124.103 151.804L124.494 151.908L124.886 152.008L125.279 152.106L125.674 152.2L126.07 152.291L126.468 152.38L126.867 152.465L127.268 152.546L127.67 152.625L128.073 152.701L128.477 152.773L128.883 152.842L129.289 152.908L129.697 152.97L130.106 153.029L130.517 153.085L130.928 153.138L131.34 153.187L131.754 153.233L132.168 153.275L132.583 153.314L132.999 153.35L133.416 153.382L133.834 153.411L134.253 153.436L134.672 153.458L135.093 153.476L135.514 153.491L135.935 153.502L136.358 153.51L136.78 153.515L137.204 153.515L137.628 153.513L138.052 153.506L138.477 153.496L138.903 153.483L139.329 153.466L139.755 153.445L140.182 153.421L140.609 153.393L141.036 153.361L141.463 153.326L141.891 153.287L142.318 153.245L142.746 153.198L143.174 153.149L143.602 153.095L144.03 153.038L144.458 152.977L144.886 152.912L145.314 152.844L145.742 152.772L146.169 152.696L146.597 152.617L147.024 152.534L147.451 152.447L147.877 152.357L148.303 152.262L148.729 152.164L149.155 152.063L149.58 151.957L150.004 151.848L150.428 151.735L150.851 151.619L151.274 151.498L151.696 151.374L152.118 151.247L152.538 151.115L152.958 150.98L153.378 150.841L153.796 150.699L154.213 150.552L154.63 150.402L155.046 150.249L155.46 150.091L155.874 149.93L156.286 149.766L156.698 149.597L157.108 149.425L157.518 149.249L157.926 149.07L158.333 148.887L158.738 148.7L159.142 148.51L159.545 148.316L159.947 148.118L160.347 147.917L160.746 147.713L161.143 147.504L161.538 147.292L161.932 147.077L162.325 146.858L162.716 146.635L163.105 146.409L163.493 146.18L163.878 145.947L164.262 145.71L164.645 145.47L165.025 145.226L165.403 144.979L165.78 144.729L166.155 144.475L166.527 144.218L166.898 143.957L167.266 143.693L167.633 143.426L167.997 143.155L168.36 142.881L168.72 142.604L169.077 142.323L169.433 142.04L169.786 141.752L170.137 141.462L170.486 141.169L170.832 140.872L171.176 140.572L171.517 140.269L171.856 139.963L172.193 139.654L172.527 139.341L172.858 139.026L173.186 138.707L173.512 138.386L173.836 138.061L174.157 137.734L174.474 137.404L174.79 137.07L175.102 136.734L175.412 136.395L175.718 136.053L176.022 135.708L176.323 135.361L176.621 135.01L176.916 134.657L177.208 134.301L177.497 133.943L177.784 133.582L178.066 133.218L178.346 132.852L178.623 132.483L178.897 132.111L179.167 131.737L179.434 131.36L179.698 130.981L179.959 130.6L180.216 130.216L180.471 129.829L180.721 129.441L180.969 129.05L181.213 128.657L181.454 128.261L181.691 127.863L181.925 127.463L182.155 127.061L182.382 126.657L182.605 126.25L182.825 125.842L183.042 125.431L183.254 125.019L183.463 124.604L183.669 124.188L183.871 123.77L184.069 123.35L184.264 122.927L184.454 122.504L184.642 122.078L184.825 121.651L185.005 121.222L185.181 120.791L185.353 120.359L185.521 119.925L185.686 119.489L185.846 119.052L186.003 118.613L186.156 118.173L186.305 117.732L186.451 117.289L186.592 116.845L186.729 116.4L186.863 115.953L186.992 115.505L187.118 115.056L187.24 114.605L187.357 114.154L187.471 113.701L187.581 113.248L187.686 112.793L187.788 112.338L187.885 111.881L187.979 111.424L188.069 110.965L188.154 110.506L188.235 110.046L188.313 109.586L188.386 109.124L188.455 108.662L188.52 108.199L188.581 107.736L188.638 107.272L188.69 106.808L188.739 106.343L188.783 105.878L188.824 105.412L188.86 104.946L188.892 104.48L188.92 104.013L188.944 103.546L188.963 103.079L188.979 102.612L188.99 102.144L188.997 101.677L188.999 101.421L189 100.953L188.997 100.486L188.989 100.018L188.977 99.5507L188.961 99.0834L188.941 98.6163L188.917 98.1494L188.889 97.6827L188.856 97.2163L188.82 96.7503L188.779 96.2846L188.734 95.8193L188.685 95.3544L188.632 94.89L188.575 94.4262L188.514 93.9629L188.448 93.5001L188.379 93.0381L188.305 92.5766L188.227 92.1159L188.145 91.656L188.06 91.1968L187.97 90.7384L187.876 90.2809L187.778 89.8244L187.676 89.3687L187.569 88.914L187.459 88.4604L187.345 88.0078L187.227 87.5562L187.105 87.1058L186.979 86.6566L186.849 86.2085L186.715 85.7617L186.577 85.3162L186.435 84.872L186.289 84.4291L186.14 83.9876L185.986 83.5475L185.829 83.1089L185.668 82.6718L185.503 82.2362L185.334 81.8022L185.161 81.3697L184.985 80.9389L184.804 80.5098L184.62 80.0824L184.433 79.6567L184.241 79.2327L184.046 78.8106L183.847 78.3903L183.645 77.9719L183.439 77.5554L183.229 77.1409L183.016 76.7283L182.799 76.3177L182.579 75.9092L182.355 75.5027L182.127 75.0983L181.896 74.6961L181.662 74.2961L181.424 73.8982L181.182 73.5026L180.938 73.1092L180.689 72.7182L180.438 72.3295L180.183 71.9431L179.925 71.5591L179.663 71.1775L179.399 70.7984L179.131 70.4217L178.86 70.0475L178.585 69.6759L178.308 69.3068L178.027 68.9404L177.744 68.5765L177.457 68.2153L177.167 67.8567L176.874 67.5009L176.578 67.1478L176.279 66.7974L175.978 66.4498L175.673 66.105L175.365 65.7631L175.055 65.424L174.742 65.0877L174.426 64.7544L174.107 64.424L173.785 64.0966L173.461 63.7721L173.134 63.4507L172.805 63.1322L172.472 62.8168L172.138 62.5045L171.8 62.1952L171.461 61.8891L171.118 61.5861L170.773 61.2863L170.426 60.9896L170.077 60.6961L169.725 60.4059L169.37 60.1189L169.014 59.8351L168.655 59.5546L168.294 59.2774L167.931 59.0035L167.565 58.7329L167.198 58.4657L166.828 58.2018L166.456 57.9413L166.083 57.6842L165.707 57.4305L165.329 57.1802L164.95 56.9334L164.568 56.6901L164.185 56.4502L163.8 56.2137L163.413 55.9808L163.024 55.7514L162.634 55.5256L162.242 55.3032L161.848 55.0844L161.453 54.8692L161.056 54.6575L160.657 54.4495L160.258 54.245L159.856 54.0441L159.453 53.8469L159.049 53.6532L158.644 53.4632L158.237 53.2769L157.829 53.0942L157.419 52.9151L157.009 52.7397L156.597 52.568L156.184 52.4L155.77 52.2356L155.355 52.075L154.939 51.918L154.522 51.7648L154.104 51.6152L153.686 51.4694L153.266 51.3273L152.845 51.1889L152.424 51.0543L152.002 50.9233L151.579 50.7961L151.155 50.6726L150.731 50.5529L150.306 50.4369L149.881 50.3246L149.455 50.2161L149.029 50.1112L148.602 50.0102L148.175 49.9128L147.747 49.8192L147.319 49.7294L146.89 49.6432L146.462 49.5608L146.033 49.4821L145.604 49.4072L145.175 49.3359L144.745 49.2684L144.316 49.2046L143.886 49.1445L143.456 49.0881L143.027 49.0354L142.597 48.9864L142.168 48.941L141.739 48.8994L141.309 48.8614L140.88 48.8271L140.452 48.7964L140.023 48.7694L139.595 48.7461L139.167 48.7263L138.739 48.7102L138.312 48.6977L137.886 48.6888L137.459 48.6835L137.034 48.6818L136.609 48.6836L136.184 48.689L135.76 48.698L135.337 48.7105L134.914 48.7265L134.492 48.7461L134.071 48.7691L133.651 48.7956L133.231 48.8256L132.812 48.8591L132.394 48.896L131.977 48.9363L131.561 48.9801L131.146 49.0272L130.732 49.0777L130.319 49.1316L129.907 49.1889L129.497 49.2495L129.087 49.3134L128.678 49.3806L128.271 49.451L127.865 49.5248L127.46 49.6018L127.057 49.682L126.654 49.7654L126.253 49.852L125.854 49.9418L125.456 50.0347L125.059 50.1308L124.664 50.23L124.27 50.3322L123.878 50.4376L123.487 50.5459L123.098 50.6573L122.711 50.7717L122.325 50.8891L121.941 51.0095L121.558 51.1327L121.177 51.2589L120.798 51.388L120.421 51.5199L120.046 51.6547L119.672 51.7923L119.3 51.9327L118.93 52.0759L118.562 52.2218L118.196 52.3704L117.831 52.5218L117.469 52.6758L117.109 52.8324L116.751 52.9917L116.394 53.1535L116.04 53.3179L115.688 53.4849L115.338 53.6543L114.99 53.8263L114.644 54.0007L114.3 54.1775L113.959 54.3568L113.62 54.5384L113.283 54.7223L112.948 54.9086L112.615 55.0972L112.285 55.288L111.957 55.4811L111.631 55.6764L111.308 55.8738L110.987 56.0734L110.668 56.2751L110.352 56.4789L110.038 56.6848L109.727 56.8926L109.418 57.1025L109.111 57.3144L108.807 57.5282L108.505 57.7439L108.206 57.9614L107.91 58.1808L107.615 58.4021L107.324 58.6251L107.035 58.8499L106.748 59.0763L106.464 59.3045L106.183 59.5344L105.904 59.7658L105.628 59.9989L105.355 60.2335L105.084 60.4697L104.815 60.7074L104.55 60.9465L104.287 61.1871L104.027 61.4291L103.769 61.6724L103.514 61.9171L103.262 62.1632L103.012 62.4104L102.765 62.659L102.521 62.9087L102.279 63.1597L102.041 63.4117L101.805 63.6649L101.571 63.9192L101.341 64.1746L101.113 64.4309L100.888 64.6882L100.666 64.9465L100.446 65.2058L100.229 65.4659L100.015 65.7268L99.804 65.9886L99.5955 66.2512L99.3898 66.5145L99.1868 66.7786L98.9866 67.0434L98.7891 67.3088L98.5944 67.5748L98.4025 67.8415L98.2133 68.1087L98.027 68.3765L97.8433 68.6447L97.6625 68.9134L97.4844 69.1826L97.309 69.4522L97.1364 69.7221L96.9666 69.9924L96.7995 70.263L96.6352 70.5338L96.4736 70.805L96.3147 71.0763L96.1586 71.3478L96.0052 71.6195L95.8545 71.8913L95.7065 72.1632L95.5612 72.4351L95.4187 72.7071L95.2788 72.979L95.1416 73.2509L95.0071 73.5228L94.8753 73.7946L94.7462 74.0662L94.6197 74.3377L94.4958 74.609L94.3746 74.8801L94.256 75.151L94.14 75.4216L94.0266 75.6918L93.9158 75.9618L93.8076 76.2313L93.702 76.5005L93.599 76.7693L93.4985 77.0376L93.4005 77.3054L93.305 77.5728L93.2121 77.8396L93.1217 78.1058L93.0337 78.3715L92.9482 78.6365L92.8652 78.9009L92.7846 79.1646L92.7065 79.4276L92.6308 79.6899L92.5574 79.9515L92.4865 80.2123L92.4179 80.4722L92.3516 80.7314L92.2877 80.9896L92.2262 81.247L92.1669 81.5035L92.1099 81.7591L92.0551 82.0137L92.0026 82.2673L91.9524 82.5199L91.9043 82.7715L91.8585 83.0221L91.8148 83.2715L91.7733 83.5199L91.7339 83.7671L91.6966 84.0132L91.6614 84.2582L91.6283 84.5019L91.5972 84.7444L91.5682 84.9857L91.5412 85.2258L91.5162 85.4645L91.4932 85.702L91.4721 85.9381L91.4529 86.1729L91.4357 86.4064L91.4203 86.6385L91.4068 86.8691L91.3951 87.0984L91.3852 87.3262L91.3772 87.5526L91.3709 87.7774L91.3663 88.0008L91.3635 88.2227L91.3624 88.4431L91.3629 88.6619L91.3651 88.8792L91.3689 89.0949L91.3744 89.309L91.3814 89.5214L91.3899 89.7323L91.4 89.9415L91.4116 90.1491L91.4247 90.3549L91.4392 90.5592L91.4552 90.7617L91.4725 90.9625L91.4912 91.1615L91.5113 91.3589L91.5327 91.5545L91.5554 91.7483L91.5794 91.9403L91.6046 92.1306L91.631 92.319L91.6586 92.5057L91.6874 92.6905L91.7173 92.8735L91.7483 93.0547L91.7804 93.234L91.8136 93.4114L91.8478 93.587L91.883 93.7607L91.9192 93.9325L91.9563 94.1025L91.9943 94.2705L92.0332 94.4366L92.073 94.6008L92.1136 94.7631L92.1551 94.9234L92.1973 95.0818L92.2402 95.2383L92.2839 95.3929L92.3283 95.5454L92.3734 95.6961L92.4191 95.8447L92.4653 95.9914L92.5122 96.1362L92.5597 96.2789L92.6076 96.4197L92.6561 96.5586L92.7051 96.6954L92.7544 96.8303L92.8042 96.9632L92.8544 97.0941L92.9049 97.223L92.9558 97.35L93.007 97.4749L93.0584 97.5979L93.1101 97.7189L93.162 97.8379L93.2141 97.955L93.2664 98.07L93.3188 98.1831L93.3713 98.2943L93.4239 98.4034L93.4765 98.5106L93.5292 98.6158L93.5818 98.7191L93.6344 98.8204L93.687 98.9198L93.7394 99.0172L93.7918 99.1126L93.844 99.2062L93.8961 99.2978L93.9479 99.3875L93.9995 99.4753L94.0509 99.5611L94.102 99.6451L94.1528 99.7272L94.2032 99.8074L94.2533 99.8857L94.3031 99.9621L94.3524 100.037L94.4013 100.109L94.4497 100.18L94.4976 100.249L94.545 100.317L94.5919 100.382L94.6382 100.446L94.6839 100.507L94.729 100.567L94.7735 100.626L94.8173 100.682L94.8604 100.737L94.9028 100.79L94.9445 100.841L94.9854 100.891L95.0255 100.939L95.0648 100.985L95.1033 101.03L95.1409 101.073L95.1776 101.114L95.2134 101.154L95.2483 101.192L95.2823 101.228L95.3153 101.263L95.3473 101.296L95.3783 101.328L95.4082 101.359L95.4371 101.387L95.4649 101.415L95.4916 101.441L95.5172 101.465L95.5416 101.488L95.5648 101.509L95.5869 101.529L95.6078 101.548L95.6275 101.566L95.6459 101.582L95.663 101.596L95.6789 101.61L95.6935 101.622L95.7067 101.633L95.7187 101.642L95.7292 101.651L95.7384 101.658L95.7462 101.664L95.7526 101.669L95.7576 101.672L95.7604 101.675M95.7632 101.677L95.7604 101.679L95.7565 101.682L95.7511 101.686L95.7441 101.691L95.7357 101.697L95.7256 101.704L95.7141 101.711L95.7009 101.72L95.6861 101.729L95.6697 101.74L95.6517 101.751L95.6321 101.763L95.6108 101.776L95.5878 101.789L95.5632 101.804L95.5369 101.819L95.5089 101.834L95.4792 101.851L95.4478 101.868L95.4146 101.885L95.3797 101.903L95.3431 101.922L95.3046 101.942L95.2645 101.961L95.2225 101.982L95.1788 102.003L95.1333 102.024L95.0859 102.045L95.0368 102.067L94.9858 102.09L94.9331 102.112L94.8785 102.135L94.822 102.159L94.7637 102.182L94.7036 102.206L94.6416 102.23L94.5778 102.254L94.512 102.278L94.4445 102.302L94.375 102.327L94.3037 102.351L94.2305 102.376L94.1554 102.4L94.0785 102.425L93.9996 102.449L93.9189 102.474L93.8363 102.498L93.7517 102.522L93.6653 102.546L93.577 102.57L93.4868 102.593L93.3948 102.617L93.3008 102.64L93.2049 102.662L93.1072 102.685L93.0075 102.707L92.906 102.728L92.8026 102.75L92.6973 102.77L92.5902 102.791L92.4811 102.811L92.3702 102.83L92.2574 102.849L92.1428 102.867L92.0263 102.884L91.9079 102.901L91.7877 102.917L91.6657 102.933L91.5418 102.948L91.4161 102.962L91.2886 102.975L91.1592 102.988L91.0281 103L90.8951 103.01L90.7604 103.02L90.6239 103.029L90.4856 103.038L90.3455 103.045L90.2037 103.051L90.0601 103.056L89.9148 103.06L89.7678 103.063L89.619 103.065L89.4686 103.066L89.3164 103.066L89.1626 103.064L89.0071 103.062L88.8499 103.058L88.6911 103.053L88.5307 103.046L88.3687 103.039L88.205 103.03L88.0398 103.019L87.8729 103.008L87.7046 102.995L87.5346 102.98L87.3632 102.964L87.1902 102.947L87.0157 102.928L86.8398 102.907L86.6624 102.885L86.4835 102.862L86.3032 102.836L86.1215 102.81L85.9384 102.781L85.7539 102.751L85.568 102.719L85.3808 102.686L85.1923 102.651L85.0024 102.614L84.8113 102.575L84.6189 102.535L84.4253 102.492L84.2305 102.448L84.0344 102.402L83.8371 102.355L83.6387 102.305L83.4392 102.253L83.2385 102.2L83.0367 102.144L82.8339 102.087L82.63 102.027L82.425 101.966L82.2191 101.902L82.0121 101.837L81.8042 101.769L81.5954 101.7L81.3856 101.628L81.1749 101.554L80.9634 101.478L80.7511 101.4L80.5379 101.319L80.3239 101.237L80.1091 101.152L79.8936 101.065L79.6774 100.976L79.4605 100.885L79.2429 100.791L79.0247 100.695L78.8059 100.597L78.5865 100.497L78.3665 100.394L78.146 100.289L77.9249 100.181L77.7034 100.072L77.4815 99.9593L77.2591 99.8448L77.0363 99.7279L76.8132 99.6085L76.5897 99.4868L76.3659 99.3626L76.1418 99.2361L75.9174 99.107L75.6928 98.9756L75.468 98.8416L75.2431 98.7052L75.018 98.5664L74.7928 98.425L74.5675 98.2812L74.3422 98.1348L74.1168 97.9859L73.8914 97.8346L73.6661 97.6807L73.4409 97.5243L73.2157 97.3653L72.9907 97.2038L72.7658 97.0398L72.5411 96.8732L72.3166 96.704L72.0924 96.5323L71.8684 96.3581L71.6448 96.1813L71.4215 96.0019L71.1986 95.8199L70.976 95.6354L70.7539 95.4482L70.5323 95.2585L70.3111 95.0663L70.0905 94.8714L69.8705 94.674L69.651 94.474L69.4321 94.2714L69.2139 94.0662L68.9964 93.8584L68.7796 93.6481L68.5635 93.4352L68.3482 93.2197L68.1337 93.0016L67.9201 92.781L67.7073 92.5578L67.4954 92.332L67.2845 92.1037L67.0745 91.8728L66.8655 91.6394L66.6575 91.4034L66.4506 91.1649L66.2448 90.9239L66.0401 90.6803L65.8365 90.4341L65.6342 90.1855L65.433 89.9344L65.2331 89.6807L65.0345 89.4246L64.8372 89.1659L64.6412 88.9048L64.4465 88.6412L64.2533 88.3752L64.0615 88.1067L63.8712 87.8358L63.6823 87.5624L63.495 87.2866L63.3093 87.0084L63.1251 86.7278L62.9425 86.4448L62.7616 86.1594L62.5823 85.8717L62.4047 85.5816L62.2289 85.2892L62.0548 84.9945L61.8826 84.6974L61.7121 84.3981L61.5435 84.0964L61.3768 83.7925L61.212 83.4864L61.0491 83.178L60.8882 82.8674L60.7293 82.5546L60.5724 82.2396L60.4175 81.9224L60.2648 81.6031L60.1141 81.2816L59.9656 80.9581L59.8192 80.6324L59.6751 80.3046L59.5331 79.9748L59.3934 79.6429L59.256 79.3091L59.1208 78.9732L58.988 78.6353L58.8576 78.2954L58.7295 77.9537L58.6038 77.6099L58.4806 77.2643L58.3598 76.9169L58.2415 76.5675L58.1257 76.2163L58.0124 75.8633L57.9017 75.5086L57.7935 75.152L57.688 74.7937L57.5851 74.4337L57.4848 74.072L57.3872 73.7086L57.2924 73.3436L57.2002 72.977L57.1108 72.6088L57.0241 72.239L56.9402 71.8676L56.8592 71.4947L56.781 71.1204L56.7056 70.7446L56.6331 70.3673L56.5635 69.9886L56.4968 69.6086L56.433 69.2272L56.3722 68.8444L56.3144 68.4604L56.2596 68.0751L56.2078 67.6885L56.159 67.3007L56.1133 66.9118L56.0707 66.5217L56.0311 66.1304L55.9946 65.7381L55.9613 65.3447L55.9311 64.9502L55.9041 64.5548L55.8802 64.1584L55.8596 63.761L55.8421 63.3627L55.8279 62.9636L55.8168 62.5635L55.8091 62.1627L55.8046 61.7611L55.8034 61.3587L55.8055 60.9556L55.8109 60.5518L55.8196 60.1473L55.8316 59.7422L55.847 59.3366L55.8658 58.9303L55.8879 58.5236L55.9134 58.1163L55.9423 57.7086L55.9746 57.3004L56.0103 56.8919L56.0494 56.483L56.092 56.0738L56.138 55.6643L56.1875 55.2545L56.2404 54.8445L56.2968 54.4343L56.3567 54.024L56.42 53.6136L56.4869 53.203L56.5572 52.7924L56.631 52.3819L56.7084 51.9713L56.7893 51.5608L56.8736 51.1503L56.9616 50.7401L57.053 50.3299L57.148 49.92L57.2465 49.5103L57.3486 49.1009L57.4542 48.6918L57.5633 48.283L57.676 47.8746L57.7923 47.4667L57.9121 47.0591L58.0354 46.6521L58.1624 46.2456L58.2928 45.8396L58.4268 45.4343L58.5644 45.0296L58.7056 44.6255L58.8502 44.2222L58.9985 43.8196L59.1503 43.4177L59.3056 43.0167L59.4645 42.6166L59.6269 42.2173L59.7928 41.8189L59.9623 41.4215L60.1353 41.0251L60.3119 40.6298L60.4919 40.2355L60.6755 39.8423L60.8626 39.4502L61.0532 39.0594L61.2472 38.6697L61.4448 38.2813L61.6458 37.8942L61.8503 37.5084L62.0583 37.1239L62.2698 36.7409L62.4846 36.3592L62.7029 35.9791L62.9247 35.6004L63.1499 35.2233L63.3784 34.8477L63.6104 34.4738L63.8457 34.1015L64.0845 33.7308L64.3266 33.3619L64.572 32.9948L64.8208 32.6294L65.0728 32.2658L65.3282 31.9041L65.5869 31.5442L65.8489 31.1863L66.1142 30.8304L66.3827 30.4764L66.6544 30.1244L66.9293 29.7745L67.2075 29.4267L67.4889 29.0811L67.7734 28.7375L68.061 28.3962L68.3518 28.0571L68.6458 27.7203L68.9428 27.3857L69.2429 27.0535L69.5461 26.7236L69.8523 26.3961L70.1615 26.071L70.4738 25.7484L70.789 25.4282L71.1072 25.1106L71.4283 24.7955L71.7523 24.483L72.0793 24.1731L72.4091 23.8658L72.7418 23.5612L73.0773 23.2593L73.4156 22.9601L73.7567 22.6637L74.1006 22.3701L74.4472 22.0792L74.7965 21.7913L75.1485 21.5062L75.5032 21.224L75.8605 20.9447L76.2204 20.6684L76.5829 20.3951L76.9479 20.1248L77.3155 19.8575L77.6856 19.5933L78.0582 19.3322L78.4333 19.0742L78.8107 18.8194L79.1906 18.5677L79.5728 18.3193L79.9574 18.074L80.3443 17.8321L80.7334 17.5933L81.1249 17.3579L81.5185 17.1258L81.9143 16.8971L82.3123 16.6717L82.7125 16.4498L83.1147 16.2312L83.519 16.0161L83.9254 15.8044L84.3337 15.5962L84.7441 15.3916L85.1564 15.1904L85.5706 14.9928L85.9867 14.7988L86.4046 14.6084L86.8244 14.4216L87.2459 14.2384L87.6692 14.0588L88.0942 13.8829L88.5209 13.7107L88.9492 13.5422L89.3792 13.3775L89.8107 13.2164L90.2438 13.0592L90.6784 12.9057L91.1145 12.756L91.552 12.6101L91.991 12.468L92.4313 12.3298L92.8729 12.1954L93.3159 12.0649L93.7601 11.9382L94.2055 11.8155L94.6522 11.6967L95.1 11.5818L95.5489 11.4708L95.9989 11.3638L96.4499 11.2607L96.902 11.1617L97.355 11.0666L97.809 10.9755L98.2639 10.8884L98.7196 10.8053L99.1762 10.7263L99.6336 10.6513L100.092 10.5803L100.55 10.5134L101.01 10.4506L101.47 10.3918L101.931 10.3371L102.392 10.2865L102.854 10.24L103.316 10.1976L103.779 10.1593L104.242 10.1251L104.706 10.095L105.17 10.069L105.634 10.0472L106.098 10.0295L106.563 10.0159L107.028 10.0065L107.492 10.0012L107.957 10L108.423 10.003L108.888 10.0101L109.353 10.0214L109.818 10.0368L110.283 10.0564L110.748 10.0801L111.212 10.1079L111.677 10.1399L112.141 10.1761L112.605 10.2164L113.068 10.2608L113.531 10.3094L113.994 10.3621L114.457 10.4189L114.918 10.4799L115.38 10.545L115.841 10.6142L116.301 10.6876L116.76 10.765L117.219 10.8465L117.677 10.9322L118.135 11.0219L118.591 11.1157L119.047 11.2136L119.502 11.3156L119.956 11.4216L120.409 11.5317L120.861 11.6458L121.312 11.764L121.762 11.8862L122.211 12.0124L122.659 12.1426L123.105 12.2768L123.551 12.415L123.995 12.5572L124.438 12.7033L124.879 12.8534L125.319 13.0074L125.758 13.1653L126.195 13.3271L126.631 13.4929L127.066 13.6625L127.498 13.836L127.93 14.0133L128.359 14.1945L128.787 14.3795L129.214 14.5683L129.638 14.7608L130.061 14.9572L130.482 15.1573L130.901 15.3611L131.319 15.5687L131.734 15.7799L132.148 15.9949L132.56 16.2135L132.969 16.4357L133.377 16.6616L133.782 16.8911L134.186 17.1241L134.587 17.3607L134.986 17.6009L135.383 17.8446L135.778 18.0918L136.17 18.3424L136.561 18.5965L136.948 18.8541L137.334 19.115L137.717 19.3793L138.098 19.647L138.476 19.9181L138.852 20.1924L139.225 20.47L139.596 20.7509L139.964 21.0351L140.33 21.3224L140.693 21.613L141.053 21.9067L141.411 22.2035L141.766 22.5034L142.118 22.8065L142.467 23.1125L142.814 23.4216L143.158 23.7338L143.499 24.0488L143.837 24.3668L144.172 24.6878L144.504 25.0116L144.834 25.3383L145.16 25.6678L145.483 26.0001L145.804 26.3351L146.121 26.6729L146.435 27.0134L146.746 27.3566L147.054 27.7024L147.359 28.0509L147.661 28.4019L147.96 28.7555L148.255 29.1116L148.547 29.4701L148.836 29.8312L149.121 30.1946L149.403 30.5605L149.682 30.9287L149.958 31.2992L150.23 31.6721L150.499 32.0471L150.765 32.4244L151.027 32.8039L151.285 33.1856L151.54 33.5694L151.792 33.9552L152.04 34.3432L152.285 34.7331L152.526 35.125L152.764 35.5189L152.998 35.9147L153.229 36.3123L153.456 36.7118L153.679 37.1132L153.899 37.5162L154.115 37.9211L154.328 38.3276L154.537 38.7358L154.742 39.1456L154.943 39.557L155.141 39.97L155.335 40.3845L155.526 40.8005L155.713 41.2179L155.896 41.6367L156.075 42.0569L156.251 42.4784L156.422 42.9013L156.59 43.3254L156.755 43.7507L156.915 44.1772L157.072 44.6049L157.225 45.0336L157.374 45.4635L157.519 45.8943L157.66 46.3262L157.798 46.7591L157.932 47.1928L158.062 47.6275L158.188 48.063L158.31 48.4993L158.429 48.9364L158.543 49.3742L158.654 49.8128L158.761 50.252L158.864 50.6918L158.963 51.1322L159.059 51.5731L159.15 52.0145L159.238 52.4565L159.321 52.8988L159.401 53.3416L159.477 53.7847L159.549 54.2281L159.618 54.6718L159.682 55.1158L159.743 55.56L159.799 56.0043L159.852 56.4488L159.901 56.8934L159.947 57.338L159.988 57.7826L160.025 58.2273L160.059 58.6719L160.089 59.1164L160.115 59.5607L160.137 60.0049L160.156 60.4489L160.171 60.8927L160.181 61.3362L160.189 61.7794L160.192 62.2222L160.191 62.6647L160.187 63.1067L160.179 63.5483L160.168 63.9894L160.152 64.43L160.133 64.87L160.11 65.3094L160.084 65.7481L160.053 66.1862L160.02 66.6237L159.982 67.0603L159.941 67.4962L159.896 67.9313L159.847 68.3655L159.795 68.7989L159.74 69.2314L159.68 69.6629L159.618 70.0934L159.551 70.5229L159.481 70.9514L159.408 71.3788L159.331 71.8051L159.251 72.2302L159.167 72.6542L159.079 73.0769L158.989 73.4985L158.894 73.9187L158.797 74.3376L158.696 74.7552L158.591 75.1715L158.484 75.5863L158.373 75.9997L158.258 76.4117L158.141 76.8221L158.02 77.231L157.895 77.6384L157.768 78.0442L157.637 78.4484L157.504 78.851L157.367 79.2518L157.227 79.651L157.083 80.0485L156.937 80.4442L156.788 80.8381L156.635 81.2302L156.48 81.6205L156.321 82.0089L156.16 82.3954L155.995 82.7801L155.828 83.1627L155.658 83.5434L155.485 83.9221L155.309 84.2988L155.13 84.6734L154.948 85.046L154.764 85.4165L154.576 85.7848L154.386 86.151L154.194 86.515L153.998 86.8769L153.801 87.2365L153.6 87.5939L153.397 87.9491L153.191 88.3019L152.983 88.6525L152.772 89.0007L152.559 89.3466L152.343 89.6902L152.125 90.0313L151.904 90.3701L151.681 90.7064L151.456 91.0403L151.228 91.3717L150.998 91.7006L150.766 92.027L150.532 92.3509L150.295 92.6723L150.057 92.9911L149.816 93.3074L149.573 93.6211L149.328 93.9321L149.081 94.2406L148.832 94.5464L148.581 94.8495L148.328 95.15L148.073 95.4478L147.816 95.743L147.558 96.0354L147.297 96.3251L147.035 96.612L146.771 96.8962L146.505 97.1777L146.238 97.4564L145.969 97.7323L145.698 98.0054L145.426 98.2757L145.152 98.5432L144.876 98.8078L144.6 99.0696L144.321 99.3286L144.042 99.5847L143.76 99.838L143.478 100.088L143.194 100.336L142.909 100.581L142.622 100.822L142.335 101.061L142.046 101.297L141.756 101.53L141.465 101.76L141.172 101.987L140.879 102.212L140.585 102.433L140.289 102.651L139.993 102.867L139.695 103.079L139.397 103.289L139.098 103.495L138.798 103.699L138.498 103.9L138.196 104.097L137.894 104.292L137.591 104.484L137.288 104.673L136.983 104.859L136.679 105.042L136.373 105.222L136.067 105.399L135.761 105.573L135.454 105.744L135.147 105.912L134.839 106.077L134.531 106.239L134.222 106.399L133.914 106.555L133.605 106.709L133.295 106.859L132.986 107.007L132.676 107.151L132.366 107.293L132.056 107.432L131.746 107.568L131.436 107.701L131.126 107.831L130.816 107.958L130.506 108.083L130.196 108.204L129.887 108.323L129.577 108.439L129.267 108.552L128.958 108.662L128.649 108.769L128.34 108.874L128.032 108.975L127.723 109.074L127.416 109.17L127.108 109.264L126.801 109.354L126.494 109.442L126.188 109.527L125.883 109.61L125.578 109.689L125.273 109.766L124.969 109.841L124.666 109.912L124.363 109.981L124.061 110.047L123.76 110.111L123.459 110.172L123.159 110.231L122.86 110.287L122.562 110.34L122.264 110.391L121.968 110.439L121.672 110.485L121.377 110.528L121.084 110.569L120.791 110.607L120.499 110.643L120.208 110.676L119.918 110.707L119.63 110.736L119.342 110.762L119.056 110.786L118.77 110.808L118.486 110.827L118.203 110.844L117.921 110.859L117.641 110.871L117.362 110.881L117.083 110.889L116.807 110.895L116.531 110.899L116.257 110.9L115.985 110.9L115.713 110.897L115.444 110.892L115.175 110.885L114.908 110.876L114.643 110.865L114.379 110.853L114.116 110.838L113.855 110.821L113.596 110.802L113.338 110.782L113.082 110.759L112.827 110.735L112.574 110.709L112.323 110.681L112.073 110.651L111.825 110.62L111.578 110.587L111.334 110.552L111.091 110.515L110.85 110.477L110.61 110.437L110.372 110.396L110.136 110.353L109.902 110.309L109.67 110.263L109.439 110.215L109.211 110.166L108.984 110.116L108.759 110.064L108.536 110.011L108.315 109.956L108.095 109.901L107.878 109.844L107.662 109.785L107.449 109.726L107.237 109.665L107.027 109.603L106.82 109.54L106.614 109.475L106.41 109.41L106.208 109.344L106.009 109.276L105.811 109.208L105.615 109.138L105.421 109.068L105.229 108.996L105.04 108.924L104.852 108.851L104.666 108.777L104.483 108.702L104.301 108.626L104.121 108.55L103.944 108.473L103.768 108.395L103.595 108.317L103.424 108.238L103.255 108.158L103.087 108.078L102.922 107.997L102.759 107.915L102.598 107.834L102.439 107.751L102.283 107.668L102.128 107.585L101.975 107.502L101.825 107.418L101.676 107.333L101.53 107.249L101.386 107.164L101.243 107.079L101.103 106.994L100.965 106.908L100.829 106.823L100.695 106.737L100.563 106.651L100.433 106.565L100.305 106.479L100.18 106.393L100.056 106.307L99.9342 106.221L99.8146 106.135L99.697 106.05L99.5813 105.964L99.4677 105.879L99.3561 105.793L99.2465 105.708L99.1389 105.623L99.0333 105.539L98.9297 105.454L98.828 105.37L98.7282 105.287L98.6305 105.204L98.5346 105.121L98.4407 105.038L98.3487 104.956L98.2587 104.875L98.1705 104.794L98.0842 104.713L97.9997 104.633L97.9172 104.554L97.8365 104.475L97.7576 104.397L97.6806 104.319L97.6053 104.242L97.5319 104.166L97.4603 104.091L97.3904 104.016L97.3223 103.942L97.2559 103.869L97.1913 103.797L97.1284 103.726L97.0672 103.655L97.0077 103.585L96.9498 103.517L96.8936 103.449L96.839 103.382L96.7861 103.316L96.7347 103.251L96.685 103.187L96.6368 103.125L96.5901 103.063L96.545 103.002L96.5014 102.943L96.4593 102.884L96.4187 102.827L96.3795 102.771L96.3418 102.716L96.3055 102.662L96.2706 102.61L96.2371 102.559L96.2049 102.509L96.1741 102.46L96.1446 102.413L96.1164 102.367L96.0895 102.322L96.0639 102.278L96.0395 102.237L96.0162 102.196L95.9942 102.157L95.9734 102.119L95.9537 102.083L95.9351 102.048L95.9177 102.014L95.9013 101.983L95.8859 101.952L95.8717 101.923L95.8584 101.896L95.8461 101.87L95.8347 101.846L95.8244 101.823L95.8149 101.802L95.8063 101.783L95.7986 101.765L95.7917 101.748L95.7857 101.734L95.7804 101.721L95.7759 101.71L95.7722 101.7L95.7692 101.692L95.7668 101.686L95.7652 101.681L95.7642 101.678M95.7632 101.677L95.7642 101.678M95.7632 101.677L95.7657 101.677L95.7693 101.677L95.7748 101.677L95.782 101.676M95.7632 101.677L95.7639 101.676M95.7632 101.677L95.7604 101.675M95.7642 101.678L95.7647 101.68L95.766 101.684L95.7678 101.69L95.7701 101.697L95.7729 101.707L95.776 101.718L95.7796 101.731L95.7836 101.745L95.788 101.762L95.7926 101.78L95.7976 101.8L95.8028 101.822L95.8083 101.846L95.814 101.871L95.8199 101.899L95.826 101.928L95.8322 101.959L95.8385 101.992L95.8449 102.026L95.8514 102.063L95.8578 102.101L95.8643 102.141L95.8708 102.183L95.8772 102.227L95.8836 102.273L95.8898 102.32L95.8959 102.37L95.9018 102.421L95.9076 102.474L95.9131 102.529L95.9184 102.586L95.9234 102.645L95.9281 102.705L95.9325 102.767L95.9365 102.831L95.9402 102.897L95.9434 102.965L95.9462 103.035L95.9486 103.106L95.9504 103.179L95.9518 103.254L95.9526 103.331L95.9528 103.41L95.9524 103.49L95.9514 103.572L95.9498 103.656L95.9475 103.742L95.9444 103.83L95.9407 103.919L95.9362 104.01L95.9309 104.103L95.9248 104.197L95.9178 104.294L95.91 104.391L95.9013 104.491L95.8917 104.592L95.8811 104.695L95.8696 104.8L95.8571 104.906L95.8436 105.014L95.829 105.124L95.8134 105.235L95.7966 105.348L95.7788 105.463L95.7598 105.579L95.7396 105.696L95.7183 105.815L95.6957 105.936L95.6719 106.058L95.6468 106.182L95.6205 106.308L95.5928 106.434L95.5638 106.563L95.5335 106.692L95.5017 106.824L95.4686 106.956L95.434 107.09L95.398 107.225L95.3605 107.362L95.3215 107.5L95.281 107.64L95.2389 107.781L95.1954 107.923L95.1502 108.066L95.1034 108.211L95.055 108.357L95.0049 108.504L94.9532 108.652L94.8998 108.802L94.8447 108.952L94.7879 109.104L94.7293 109.257L94.669 109.411L94.6069 109.566L94.5429 109.723L94.4772 109.88L94.4096 110.038L94.3402 110.197L94.2689 110.358L94.1957 110.519L94.1206 110.681L94.0436 110.844L93.9646 111.008L93.8837 111.173L93.8007 111.338L93.7158 111.505L93.6289 111.672L93.54 111.84L93.449 112.009L93.356 112.178L93.2609 112.348L93.1637 112.519L93.0645 112.691L92.9631 112.863L92.8596 113.035L92.754 113.208L92.6462 113.382L92.5363 113.556L92.4241 113.731L92.3098 113.906L92.1933 114.082L92.0746 114.258L91.9537 114.434L91.8306 114.611L91.7052 114.788L91.5775 114.965L91.4476 115.143L91.3155 115.321L91.181 115.499L91.0443 115.677L90.9052 115.855L90.7639 116.034L90.6203 116.213L90.4743 116.391L90.326 116.57L90.1754 116.749L90.0225 116.927L89.8672 117.106L89.7095 117.284L89.5495 117.463L89.3871 117.641L89.2224 117.819L89.0553 117.997L88.8858 118.175L88.714 118.352L88.5398 118.529L88.3632 118.706L88.1842 118.883L88.0028 119.059L87.819 119.234L87.6329 119.41L87.4443 119.584L87.2534 119.759L87.0601 119.933L86.8643 120.106L86.6662 120.278L86.4657 120.45L86.2628 120.622L86.0575 120.792L85.8498 120.962L85.6398 121.131L85.4273 121.3L85.2125 121.467L84.9953 121.634L84.7757 121.8L84.5538 121.965L84.3294 122.129L84.1028 122.292L83.8737 122.455L83.6423 122.616L83.4086 122.776L83.1725 122.935L82.9341 123.093L82.6934 123.249L82.4504 123.405L82.205 123.559L81.9573 123.713L81.7074 123.865L81.4551 124.015L81.2006 124.164L80.9438 124.312L80.6847 124.459L80.4234 124.604L80.1599 124.748L79.8941 124.89L79.6261 125.031L79.3559 125.17L79.0835 125.308L78.809 125.444L78.5322 125.578L78.2533 125.711L77.9723 125.842L77.6891 125.972L77.4038 126.1L77.1164 126.226L76.8269 126.35L76.5354 126.472L76.2417 126.593L75.9461 126.711L75.6484 126.828L75.3487 126.943L75.047 127.056L74.7433 127.167L74.4377 127.276L74.1301 127.383L73.8206 127.488L73.5092 127.59L73.1959 127.691L72.8807 127.789L72.5637 127.886L72.2448 127.98L71.9241 128.072L71.6017 128.161L71.2774 128.249L70.9515 128.334L70.6237 128.417L70.2943 128.497L69.9632 128.575L69.6304 128.651L69.296 128.724L68.9599 128.795L68.6223 128.864L68.2831 128.929L67.9423 128.993L67.6 129.054L67.2562 129.112L66.9109 129.168L66.5641 129.221L66.216 129.271L65.8664 129.319L65.5154 129.364L65.1631 129.407L64.8094 129.447L64.4544 129.484L64.0982 129.518L63.7407 129.55L63.382 129.578L63.022 129.604L62.6609 129.627L62.2987 129.648L61.9354 129.665L61.5709 129.68L61.2054 129.691L60.8389 129.7L60.4713 129.706L60.1028 129.709L59.7334 129.709L59.363 129.706L58.9917 129.7L58.6196 129.69L58.2467 129.678L57.8729 129.663L57.4984 129.645L57.1232 129.623L56.7472 129.599L56.3706 129.571L55.9933 129.541L55.6154 129.507L55.237 129.47L54.8579 129.43L54.4784 129.387L54.0984 129.34L53.7179 129.291L53.337 129.238L52.9558 129.182L52.5741 129.123L52.1922 129.06L51.8099 128.994L51.4274 128.925L51.0447 128.853L50.6617 128.777L50.2787 128.698L49.8955 128.616L49.5121 128.531L49.1288 128.442L48.7454 128.35L48.362 128.255L47.9787 128.156L47.5955 128.054L47.2123 127.949L46.8294 127.84L46.4466 127.728L46.064 127.612L45.6816 127.494L45.2996 127.371L44.9179 127.246L44.5365 127.117L44.1555 126.985L43.775 126.849L43.3949 126.71L43.0152 126.568L42.6362 126.422L42.2577 126.273L41.8798 126.12L41.5025 125.964L41.1259 125.805L40.75 125.643L40.3749 125.477L40.0005 125.307L39.6269 125.134L39.2542 124.958L38.8824 124.779L38.5115 124.596L38.1415 124.41L37.7726 124.22L37.4046 124.027L37.0377 123.831L36.6719 123.631L36.3073 123.428L35.9438 123.222L35.5815 123.012L35.2204 122.799L34.8607 122.583L34.5022 122.364L34.145 122.141L33.7893 121.915L33.4349 121.685L33.082 121.453L32.7306 121.217L32.3807 120.977L32.0323 120.735L31.6856 120.489L31.3404 120.24L30.9969 119.988L30.6551 119.733L30.315 119.475L29.9767 119.213L29.6401 118.948L29.3054 118.68L28.9725 118.409L28.6416 118.135L28.3125 117.857L27.9854 117.577L27.6603 117.293L27.3372 117.007L27.0162 116.717L26.6973 116.425L26.3805 116.129L26.0659 115.83L25.7534 115.529L25.4432 115.224L25.1352 114.917L24.8295 114.606L24.5261 114.293L24.225 113.976L23.9264 113.657L23.6301 113.335L23.3363 113.01L23.045 112.683L22.7562 112.352L22.4699 112.019L22.1861 111.683L21.905 111.344L21.6265 111.003L21.3506 110.659L21.0774 110.312L20.807 109.963L20.5392 109.611L20.2743 109.256L20.0121 108.899L19.7528 108.539L19.4963 108.177L19.2427 107.812L18.992 107.445L18.7442 107.076L18.4994 106.704L18.2576 106.329L18.0189 105.952L17.7831 105.573L17.5505 105.192L17.3209 104.808L17.0944 104.422L16.8711 104.034L16.651 103.643L16.4341 103.251L16.2203 102.856L16.0099 102.459L15.8027 102.06L15.5988 101.659L15.3982 101.256L15.2009 100.851L15.007 100.444L14.8165 100.035L14.6294 99.6242L14.4457 99.2115L14.2654 98.7969L14.0887 98.3805L13.9154 97.9624L13.7456 97.5424L13.5794 97.1208L13.4167 96.6975L13.2576 96.2725L13.102 95.8459L12.9501 95.4177L12.8018 94.9879L12.6572 94.5567L12.5162 94.1239L12.3789 93.6897L12.2452 93.2541L12.1153 92.8171L11.9892 92.3787L11.8667 91.939L11.7481 91.498L11.6332 91.0558L11.5221 90.6124L11.4148 90.1678L11.3113 89.7221L11.2117 89.2752L11.1159 88.8273L11.024 88.3783L10.9359 87.9284L10.8517 87.4775L10.7715 87.0256L10.6951 86.5729L10.6227 86.1193L10.5542 85.6649L10.4896 85.2098L10.429 84.7539L10.3724 84.2972L10.3197 83.84L10.271 83.382L10.2263 82.9235L10.1856 82.4645L10.1489 82.0049L10.1162 81.5448L10.0875 81.0843L10.0629 80.6234L10.0423 80.1622L10.0257 79.7006L10.0132 79.2387L10.0048 78.7766L10.0004 78.3142L10 77.8517L10.0037 77.389L10.0115 76.9263L10.0233 76.4635L10.0393 76.0006L10.0593 75.5378L10.0833 75.0751L10.1115 74.6124L10.1437 74.1499L10.18 73.6875L10.2204 73.2254L10.2649 72.7635L10.3135 72.3019L10.3661 71.8406L10.4228 71.3797L10.4836 70.9192L10.5485 70.4592L10.6174 69.9996L10.6905 69.5406L10.7675 69.0821L10.8487 68.6242L10.9339 68.1669L11.0231 67.7104L11.1164 67.2545L11.2138 66.7994L11.3152 66.3451L11.4206 65.8916L11.53 65.439L11.6435 64.9873L11.761 64.5365L11.8825 64.0868L12.008 63.638L12.1374 63.1903L12.2709 62.7437L12.4083 62.2982L12.5497 61.854L12.695 61.4109L12.8443 60.9691L12.9975 60.5285L13.1546 60.0893L13.3156 59.6514L13.4805 59.215L13.6493 58.78L13.822 58.3464L13.9985 57.9144L14.1789 57.4839L14.3631 57.055L14.5511 56.6277L14.7429 56.202L14.9385 55.7781L15.1379 55.3558L15.341 54.9354L15.5479 54.5167L15.7585 54.0999L15.9728 53.6849L16.1908 53.2718L16.4124 52.8607L16.6377 52.4516L16.8667 52.0444L17.0992 51.6393L17.3354 51.2363L17.5751 50.8354L17.8184 50.4366L18.0653 50.04L18.3156 49.6456L18.5695 49.2535L18.8268 48.8636L19.0876 48.476L19.3518 48.0908L19.6194 47.708L19.8904 47.3275L20.1648 46.9495L20.4425 46.574L20.7235 46.201L21.0079 45.8305L21.2955 45.4626L21.5864 45.0972L21.8804 44.7345L22.1777 44.3744L22.4782 44.017L22.7818 43.6624L23.0885 43.3104L23.3983 42.9613L23.7112 42.6149L24.0271 42.2714L24.3461 41.9307L24.668 41.5929L24.9929 41.2581L25.3207 40.9261L25.6515 40.5971L25.9851 40.2712L26.3215 39.9482L26.6608 39.6283L27.0029 39.3114L27.3477 38.9977L27.6953 38.6871L28.0455 38.3796L28.3984 38.0753L28.754 37.7742L29.1122 37.4763L29.4729 37.1816L29.8362 36.8902L30.2021 36.6021L30.5704 36.3173L30.9411 36.0359L31.3143 35.7578L31.6898 35.4831L32.0678 35.2118L32.448 34.9439L32.8305 34.6794L33.2153 34.4184L33.6023 34.1609L33.9915 33.9069L34.3828 33.6564L34.7763 33.4094L35.1719 33.166L35.5695 32.9262L35.9691 32.6899L36.3707 32.4573L36.7743 32.2283L37.1798 32.0029L37.5871 31.7812L37.9963 31.5632L38.4073 31.3489L38.8201 31.1382L39.2346 30.9313L39.6508 30.7282L40.0687 30.5287L40.4882 30.3331L40.9093 30.1412L41.3319 29.9531L41.7561 29.7688L42.1818 29.5883L42.6089 29.4117L43.0374 29.2389L43.4673 29.0699L43.8985 28.9048L44.331 28.7435L44.7648 28.5862L45.1998 28.4327L45.636 28.2831L46.0733 28.1375L46.5117 27.9957L46.9512 27.8579L47.3918 27.724L47.8333 27.594L48.2758 27.468L48.7192 27.3459L49.1636 27.2278L49.6087 27.1136L50.0547 27.0034L50.5014 26.8972L50.9489 26.7949L51.397 26.6966L51.8458 26.6023L52.2952 26.512L52.7452 26.4257L53.1958 26.3434L53.6468 26.265L54.0983 26.1907L54.5503 26.1203L55.0026 26.054L55.4552 25.9916L55.9082 25.9332L56.3615 25.8789L56.815 25.8285L57.2687 25.7821L57.7225 25.7397L58.1764 25.7013L58.6305 25.6669L59.0846 25.6364L59.5387 25.6099L59.9927 25.5875L60.4467 25.5689L60.9006 25.5544L61.3544 25.5438L61.8079 25.5372L62.2613 25.5345L62.7143 25.5358L63.1671 25.541L63.6196 25.5501L64.0717 25.5632L64.5234 25.5801L64.9746 25.601L65.4254 25.6258L65.8756 25.6545L66.3253 25.687L66.7744 25.7235L67.2229 25.7638L67.6707 25.8079L68.1178 25.8559L68.5642 25.9077L69.0098 25.9634L69.4546 26.0228L69.8986 26.0861L70.3417 26.1531L70.7838 26.2239L71.2251 26.2985L71.6653 26.3768L72.1045 26.4588L72.5427 26.5446L72.9798 26.634L73.4158 26.7272L73.8506 26.824L74.2842 26.9244L74.7166 27.0285L75.1478 27.1363L75.5776 27.2476L76.0062 27.3625L76.4333 27.481L76.8591 27.6031L77.2835 27.7286L77.7064 27.8577L78.1279 27.9903L78.5478 28.1264L78.9662 28.2659L79.383 28.4089L79.7981 28.5553L80.2117 28.7051L80.6236 28.8583L81.0337 29.0148L81.4421 29.1747L81.8488 29.3379L82.2537 29.5044L82.6568 29.6741L83.0579 29.8471L83.4573 30.0233L83.8547 30.2028L84.2502 30.3854L84.6437 30.5711L85.0352 30.76L85.4247 30.952L85.8121 31.1471L86.1975 31.3453L86.5808 31.5464L86.9619 31.7506L87.3409 31.9578L87.7177 32.1679L88.0923 32.381L88.4646 32.597L88.8348 32.8158L89.2026 33.0375L89.5681 33.262L89.9313 33.4893L90.2921 33.7194L90.6506 33.9522L91.0066 34.1878L91.3603 34.426L91.7114 34.6669L92.0602 34.9104L92.4064 35.1565L92.7501 35.4052L93.0913 35.6564L93.4299 35.9102L93.766 36.1664L94.0994 36.4251L94.4303 36.6862L94.7585 36.9497L95.0841 37.2155L95.407 37.4837L95.7271 37.7542L96.0446 38.027L96.3594 38.302L96.6714 38.5792L96.9807 38.8586L97.2871 39.1401L97.5908 39.4237L97.8917 39.7094L98.1897 39.9972L98.4849 40.287L98.7773 40.5788L99.0668 40.8725L99.3533 41.1681L99.637 41.4657L99.9178 41.7651L100.196 42.0663L100.471 42.3693L100.743 42.674L101.012 42.9805L101.278 43.2887L101.541 43.5985L101.801 43.9099L102.058 44.223L102.312 44.5376L102.563 44.8537L102.811 45.1713L103.055 45.4903L103.297 45.8108L103.536 46.1326L103.772 46.4558L104.004 46.7804L104.234 47.1062L104.46 47.4332L104.684 47.7615L104.904 48.091L105.121 48.4216L105.335 48.7533L105.546 49.0861L105.754 49.4199L105.958 49.7547L106.16 50.0906L106.358 50.4273L106.553 50.765L106.745 51.1035L106.934 51.4429L107.12 51.7831L107.303 52.124L107.482 52.4657L107.659 52.808L107.832 53.1511L108.002 53.4948L108.169 53.839L108.332 54.1839L108.493 54.5292L108.65 54.8751L108.804 55.2214L108.956 55.5681L109.104 55.9153L109.248 56.2628L109.39 56.6106L109.529 56.9587L109.664 57.3071L109.796 57.6557L109.926 58.0044L110.052 58.3534L110.175 58.7024L110.294 59.0516L110.411 59.4008L110.525 59.75L110.635 60.0993L110.743 60.4485L110.847 60.7976L110.949 61.1466L111.047 61.4955L111.142 61.8442L111.235 62.1927L111.324 62.5409L111.41 62.8889L111.493 63.2366L111.574 63.584L111.651 63.931L111.725 64.2776L111.796 64.6238L111.865 64.9695L111.93 65.3148L111.993 65.6595L112.052 66.0037L112.109 66.3473L112.163 66.6904L112.214 67.0327L112.262 67.3744L112.307 67.7155L112.349 68.0557L112.389 68.3953L112.425 68.734L112.459 69.072L112.491 69.4091L112.519 69.7453L112.545 70.0807L112.568 70.4151L112.588 70.7485L112.606 71.081L112.621 71.4125L112.633 71.743L112.643 72.0724L112.65 72.4007L112.654 72.7279L112.656 73.0539L112.655 73.3788L112.652 73.7025L112.646 74.025L112.638 74.3463L112.628 74.6663L112.614 74.985L112.599 75.3023L112.581 75.6184L112.56 75.9331L112.538 76.2464L112.513 76.5583L112.485 76.8688L112.455 77.1778L112.423 77.4854L112.389 77.7914L112.353 78.096L112.314 78.399L112.273 78.7004L112.23 79.0003L112.185 79.2986L112.137 79.5952L112.088 79.8902L112.036 80.1836L111.983 80.4752L111.927 80.7652L111.87 81.0534L111.81 81.34L111.749 81.6247L111.685 81.9077L111.62 82.1889L111.553 82.4683L111.484 82.7459L111.413 83.0216L111.341 83.2955L111.266 83.5675L111.19 83.8377L111.112 84.1059L111.033 84.3722L110.952 84.6366L110.869 84.899L110.785 85.1595L110.699 85.418L110.611 85.6746L110.522 85.9291L110.432 86.1816L110.34 86.4321L110.247 86.6806L110.152 86.927L110.056 87.1714L109.958 87.4137L109.859 87.6539L109.759 87.8921L109.658 88.1281L109.555 88.362L109.451 88.5938L109.346 88.8236L109.24 89.0511L109.133 89.2766L109.025 89.4998L108.915 89.721L108.805 89.9399L108.694 90.1567L108.581 90.3714L108.468 90.5838L108.354 90.7941L108.239 91.0021L108.123 91.208L108.006 91.4117L107.888 91.6132L107.77 91.8125L107.651 92.0095L107.531 92.2044L107.41 92.397L107.289 92.5874L107.168 92.7756L107.045 92.9616L106.922 93.1454L106.799 93.3269L106.675 93.5062L106.551 93.6833L106.426 93.8582L106.3 94.0308L106.175 94.2012L106.049 94.3694L105.923 94.5354L105.796 94.6992L105.669 94.8607L105.542 95.0201L105.415 95.1772L105.287 95.3322L105.159 95.4849L105.032 95.6354L104.904 95.7838L104.776 95.9299L104.648 96.0739L104.52 96.2157L104.392 96.3553L104.264 96.4928L104.136 96.6281L104.008 96.7612L103.881 96.8922L103.753 97.0211L103.626 97.1478L103.499 97.2724L103.372 97.3949L103.246 97.5153L103.12 97.6336L102.994 97.7499L102.868 97.864L102.743 97.9761L102.618 98.0861L102.494 98.1941L102.37 98.3L102.247 98.404L102.124 98.5059L102.001 98.6058L101.88 98.7037L101.758 98.7997L101.638 98.8937L101.518 98.9857L101.399 99.0758L101.28 99.164L101.162 99.2503L101.045 99.3347L100.929 99.4172L100.813 99.4979L100.698 99.5767L100.584 99.6537L100.471 99.7289L100.359 99.8022L100.247 99.8738L100.137 99.9436L100.028 100.012L99.919 100.078L99.8115 100.143L99.705 100.206L99.5995 100.267L99.495 100.326L99.3917 100.384L99.2894 100.441L99.1883 100.495L99.0883 100.548L98.9894 100.6L98.8917 100.65L98.7953 100.699L98.7 100.745L98.606 100.791L98.5132 100.835L98.4217 100.878L98.3315 100.919L98.2425 100.958L98.155 100.997L98.0687 101.034L97.9838 101.069L97.9003 101.104L97.8182 101.137L97.7375 101.169L97.6582 101.199L97.5804 101.228L97.504 101.257L97.4291 101.284L97.3557 101.309L97.2838 101.334L97.2134 101.357L97.1445 101.38L97.0772 101.401L97.0114 101.422L96.9472 101.441L96.8845 101.459L96.8235 101.477L96.7641 101.493L96.7063 101.509L96.6501 101.523L96.5956 101.537L96.5427 101.55L96.4915 101.562L96.4419 101.573L96.394 101.584L96.3478 101.594L96.3034 101.603L96.2606 101.611L96.2195 101.619L96.1802 101.626L96.1426 101.633L96.1068 101.639L96.0727 101.644L96.0403 101.649L96.0097 101.653L95.9809 101.657L95.9539 101.66L95.9286 101.664L95.9051 101.666L95.8834 101.668L95.8635 101.67L95.8454 101.672L95.8291 101.673L95.8146 101.674L95.8019 101.675L95.7911 101.676L95.782 101.676M95.782 101.676L95.7915 101.677L95.8024 101.678L95.8152 101.678L95.8298 101.679L95.8462 101.68L95.8644 101.681L95.8844 101.682L95.9062 101.684L95.9298 101.686L95.9552 101.688L95.9824 101.691L96.0114 101.694L96.0422 101.698L96.0747 101.702L96.109 101.706L96.1451 101.711L96.1829 101.716L96.2225 101.723L96.2638 101.729L96.3068 101.736L96.3516 101.744L96.3981 101.753L96.4463 101.762L96.4962 101.772L96.5478 101.783L96.6011 101.794L96.6561 101.806L96.7127 101.819L96.771 101.833L96.8309 101.848L96.8925 101.864L96.9556 101.88L97.0204 101.898L97.0868 101.917L97.1548 101.936L97.2243 101.957L97.2954 101.978L97.368 102.001L97.4422 102.025L97.5179 102.049L97.5951 102.075L97.6737 102.103L97.7539 102.131L97.8355 102.16L97.9185 102.191L98.003 102.223L98.0889 102.257L98.1762 102.291L98.2649 102.327L98.3549 102.364L98.4463 102.403L98.539 102.443L98.633 102.485L98.7283 102.528L98.8249 102.572L98.9227 102.618L99.0218 102.665L99.1221 102.714L99.2236 102.764L99.3263 102.816L99.4301 102.87L99.5351 102.925L99.6412 102.981L99.7484 103.04L99.8566 103.1L99.9659 103.161L100.076 103.225L100.188 103.29L100.3 103.356L100.413 103.425L100.528 103.495L100.643 103.567L100.759 103.641L100.876 103.717L100.994 103.794L101.113 103.873L101.232 103.955L101.352 104.038L101.473 104.123L101.595 104.209L101.718 104.298L101.841 104.389L101.965 104.481L102.089 104.576L102.214 104.672L102.34 104.771L102.466 104.871L102.593 104.974L102.72 105.078L102.848 105.185L102.976 105.294L103.105 105.404L103.234 105.517L103.364 105.632L103.493 105.749L103.624 105.868L103.754 105.989L103.885 106.112L104.016 106.237L104.147 106.365L104.278 106.494L104.41 106.626L104.542 106.76L104.673 106.896L104.805 107.034L104.937 107.175L105.069 107.317L105.201 107.462L105.333 107.609L105.465 107.758L105.597 107.91L105.728 108.063L105.86 108.219L105.991 108.377L106.122 108.537L106.253 108.7L106.384 108.864L106.514 109.031L106.644 109.2L106.774 109.372L106.903 109.545L107.032 109.721L107.16 109.899L107.288 110.08L107.416 110.262L107.542 110.447L107.669 110.634L107.795 110.823L107.92 111.015L108.044 111.209L108.168 111.405L108.291 111.603L108.414 111.803L108.535 112.006L108.656 112.211L108.776 112.418L108.895 112.627L109.014 112.839L109.131 113.052L109.247 113.268L109.363 113.486L109.477 113.706L109.591 113.929L109.703 114.153L109.814 114.38L109.925 114.609L110.034 114.84L110.141 115.073L110.248 115.309L110.354 115.546L110.458 115.786L110.561 116.027L110.662 116.271L110.762 116.517L110.861 116.765L110.959 117.015L111.055 117.267L111.149 117.521L111.242 117.777L111.334 118.035L111.424 118.295L111.512 118.557L111.599 118.821L111.684 119.087L111.767 119.355L111.849 119.625L111.929 119.897L112.008 120.171L112.084 120.446L112.159 120.724L112.232 121.003L112.303 121.284L112.373 121.567L112.44 121.852L112.506 122.139L112.569 122.427L112.631 122.717L112.69 123.009L112.748 123.302L112.803 123.598L112.857 123.895L112.908 124.193L112.957 124.494L113.004 124.795L113.049 125.099L113.092 125.404L113.132 125.711L113.171 126.019L113.207 126.328L113.24 126.639L113.272 126.952L113.301 127.266L113.327 127.582L113.352 127.898L113.374 128.217L113.393 128.536L113.41 128.857L113.425 129.18L113.437 129.503L113.447 129.828L113.454 130.154L113.458 130.481L113.46 130.81L113.46 131.139L113.457 131.47L113.451 131.802L113.442 132.135L113.431 132.468L113.417 132.803L113.401 133.139L113.382 133.476L113.36 133.814L113.335 134.153L113.308 134.493L113.278 134.833L113.245 135.175L113.209 135.517L113.17 135.86L113.129 136.203L113.084 136.548L113.037 136.893L112.987 137.239L112.934 137.585L112.878 137.932L112.82 138.28L112.758 138.628L112.693 138.976L112.625 139.325L112.555 139.675L112.481 140.025L112.405 140.375L112.325 140.726L112.242 141.077L112.157 141.428L112.068 141.779L111.976 142.131L111.881 142.483L111.784 142.835L111.683 143.187L111.579 143.54L111.472 143.892L111.361 144.244L111.248 144.597L111.132 144.949L111.012 145.301L110.889 145.653L110.764 146.005L110.635 146.357L110.503 146.709L110.367 147.06L110.229 147.411L110.087 147.762L109.943 148.113L109.795 148.463L109.644 148.813L109.49 149.162L109.333 149.511L109.172 149.859L109.008 150.207L108.842 150.554L108.672 150.9L108.498 151.246L108.322 151.591L108.142 151.936L107.96 152.28L107.774 152.623L107.585 152.965L107.393 153.306L107.197 153.646L106.999 153.986L106.797 154.325L106.592 154.662L106.385 154.999L106.173 155.334L105.959 155.668L105.742 156.002L105.521 156.334L105.298 156.665L105.071 156.994L104.841 157.323L104.608 157.65L104.372 157.975L104.133 158.3L103.891 158.623L103.646 158.944L103.397 159.264L103.146 159.583L102.892 159.9L102.634 160.215L102.374 160.529L102.11 160.841L101.844 161.152L101.574 161.461L101.302 161.768L101.026 162.073L100.748 162.376L100.467 162.678L100.183 162.978L99.8954 163.276L99.6054 163.572L99.3125 163.866L99.0167 164.158L98.7181 164.447L98.4166 164.735L98.1123 165.021L97.8052 165.305L97.4954 165.586L97.1827 165.865L96.8673 166.143L96.5492 166.417L96.2283 166.69L95.9048 166.96L95.5786 167.228L95.2497 167.493L94.9182 167.756L94.584 168.017L94.2473 168.275L93.9079 168.531L93.566 168.784L93.2216 169.034L92.8746 169.282L92.5252 169.527L92.1732 169.77L91.8189 170.01L91.4621 170.247L91.1029 170.482L90.7413 170.714L90.3773 170.943L90.011 171.169L89.6424 171.392L89.2715 171.613L88.8984 171.831L88.523 172.045L88.1454 172.257L87.7656 172.466L87.3837 172.671L86.9996 172.874L86.6134 173.074L86.2251 173.27L85.8348 173.464L85.4425 173.654L85.0482 173.842L84.6519 174.026L84.2536 174.206L83.8535 174.384L83.4514 174.558L83.0475 174.73L82.6418 174.897L82.2343 175.062L81.825 175.223L81.414 175.381L81.0013 175.535L80.5869 175.686L80.1709 175.834L79.7533 175.978L79.334 176.119L78.9133 176.256L78.491 176.39L78.0672 176.52L77.642 176.647L77.2153 176.77L76.7873 176.89L76.3579 177.006L75.9272 177.119L75.4952 177.227L75.062 177.333L74.6275 177.434L74.1918 177.532L73.755 177.626L73.3171 177.717L72.8781 177.803L72.438 177.886L71.9969 177.966L71.5548 178.041L71.1118 178.113L70.6679 178.181L70.2231 178.245L69.7775 178.305L69.331 178.362L68.8838 178.415L68.4359 178.463L67.9873 178.508L67.538 178.55L67.0881 178.587L66.6376 178.62L66.1865 178.65L65.7349 178.675L65.2829 178.697L64.8304 178.715L64.3775 178.728L63.9243 178.738L63.4707 178.744L63.0168 178.746L62.5627 178.744L62.1084 178.738L61.6538 178.728L61.1992 178.714L60.7444 178.697L60.2896 178.675L59.8347 178.649L59.3799 178.619L58.9251 178.585L58.4704 178.547L58.0158 178.506L57.5614 178.46L57.1072 178.41L56.6532 178.356L56.1995 178.298L55.7461 178.237L55.2931 178.171L54.8404 178.101L54.3882 178.027L53.9365 177.949L53.4852 177.867L53.0345 177.782L52.5844 177.692L52.1349 177.598L51.6861 177.5L51.238 177.398L50.7906 177.293L50.344 177.183L49.8981 177.069L49.4532 176.951L49.0091 176.83L48.566 176.704L48.1238 176.574L47.6826 176.441L47.2425 176.304L46.8034 176.162L46.3655 176.017L45.9287 175.868L45.4931 175.715L45.0587 175.558L44.6256 175.397L44.1938 175.232L43.7633 175.063L43.3343 174.891L42.9066 174.714L42.4804 174.534L42.0556 174.35L41.6324 174.162L41.2108 173.971L40.7907 173.776L40.3723 173.576L39.9555 173.374L39.5405 173.167L39.1272 172.957L38.7157 172.743L38.306 172.525L37.8981 172.303L37.4921 172.078L37.0881 171.85L36.6859 171.617L36.2858 171.381L35.8877 171.142L35.4917 170.898L35.0978 170.652L34.7059 170.401L34.3163 170.148L33.9288 169.89L33.5436 169.63L33.1606 169.365L32.7799 169.098L32.4016 168.827L32.0256 168.552L31.652 168.274L31.2808 167.993L30.912 167.709L30.5458 167.421L30.1821 167.13L29.8209 166.835L29.4623 166.537L29.1064 166.237L28.753 165.932L28.4024 165.625L28.0544 165.315L27.7092 165.001L27.3668 164.685L27.0271 164.365L26.6903 164.042L26.3563 163.716L26.0252 163.388L25.697 163.056L25.3717 162.721L25.0494 162.384L24.7301 162.043L24.4138 161.7L24.1006 161.354L23.7904 161.005L23.4833 160.653L23.1794 160.299L22.8786 159.942L22.5809 159.582L22.2865 159.219L21.9953 158.854L21.7074 158.486L21.4227 158.116L21.1413 157.743L20.8633 157.368L20.5886 156.99L20.3172 156.61L20.0493 156.228L19.7847 155.843L19.5236 155.455L19.266 155.066L19.0118 154.674L18.7611 154.28L18.514 153.883L18.2703 153.485L18.0303 153.084L17.7938 152.681L17.5609 152.277L17.3317 151.87L17.106 151.461L16.8841 151.05L16.6657 150.637L16.4511 150.223L16.2402 149.806L16.033 149.388L15.8296 148.967L15.6299 148.546L15.4339 148.122L15.2418 147.697L15.0534 147.27L14.8689 146.841L14.6882 146.411L14.5113 145.979L14.3383 145.546L14.1692 145.111L14.0039 144.675L13.8426 144.237L13.6851 143.799L13.5315 143.358L13.3819 142.917L13.2362 142.474L13.0945 142.03L12.9567 141.585L12.8229 141.139L12.6931 140.691L12.5672 140.243L12.4454 139.794L12.3275 139.343L12.2137 138.892L12.1038 138.44L11.998 137.987L11.8962 137.533L11.7985 137.078L11.7048 136.623L11.6151 136.166L11.5295 135.71L11.4479 135.252L11.3704 134.794L11.297 134.335L11.2276 133.876L11.1623 133.417L11.101 132.956L11.0439 132.496L10.9908 132.035L10.9418 131.574L10.8968 131.113L10.8559 130.651L10.8191 130.189L10.7864 129.727L10.7578 129.265L10.7332 128.802L10.7127 128.34L10.6962 127.878L10.6838 127.415L10.6755 126.953L10.6713 126.491L10.6711 126.029L10.6749 125.567L10.6828 125.105L10.6948 124.644L10.7108 124.183L10.7308 123.722L10.7548 123.261L10.7829 122.801L10.8149 122.342L10.851 121.883L10.8911 121.424L10.9351 120.966L10.9832 120.509L11.0352 120.052L11.0911 119.596L11.1511 119.141L11.2149 118.686L11.2827 118.232L11.3545 117.779L11.4301 117.327L11.5096 116.875L11.5931 116.425L11.6804 115.976L11.7715 115.527L11.8665 115.08L11.9654 114.633L12.0681 114.188L12.1745 113.744L12.2848 113.301L12.3989 112.86L12.5167 112.419L12.6383 111.98L12.7636 111.542L12.8926 111.106L13.0253 110.671L13.1618 110.237L13.3018 109.805L13.4456 109.374L13.5929 108.945L13.7439 108.517L13.8985 108.091L14.0566 107.667L14.2183 107.244L14.3835 106.823L14.5523 106.403L14.7245 105.986L14.9003 105.57L15.0795 105.156L15.2621 104.743L15.4481 104.333L15.6375 103.925L15.8303 103.518L16.0265 103.114L16.2259 102.711L16.4287 102.311L16.6347 101.912L16.844 101.516L17.0566 101.122L17.2723 100.729L17.4912 100.339L17.7133 99.9517L17.9385 99.5662L18.1668 99.183L18.3982 98.802L18.6326 98.4233L18.8701 98.047L19.1106 97.673L19.3541 97.3014L19.6005 96.9323L19.8498 96.5655L20.102 96.2013L20.3571 95.8395L20.615 95.4802L20.8758 95.1235L21.1393 94.7693L21.4056 94.4178L21.6746 94.0688L21.9463 93.7225L22.2207 93.3788L22.4977 93.0378L22.7773 92.6995L23.0595 92.3639L23.3442 92.0311L23.6315 91.701L23.9212 91.3737L24.2134 91.0492L24.5081 90.7276L24.8051 90.4087L25.1045 90.0928L25.4062 89.7797L25.7102 89.4695L26.0165 89.1623L26.325 88.858L26.6358 88.5566L26.9487 88.2582L27.2637 87.9628L27.5809 87.6704L27.9001 87.3811L28.2214 87.0948L28.5447 86.8115L28.8699 86.5313L29.1971 86.2541L29.5262 85.9801L29.8572 85.7092L30.1901 85.4414L30.5247 85.1767L30.8611 84.9152L31.1993 84.6569L31.5391 84.4017L31.8807 84.1497L32.2238 83.9009L32.5686 83.6554L32.915 83.413L33.2628 83.1739L33.6122 82.938L33.9631 82.7053L34.3153 82.476L34.669 82.2499L35.0241 82.027L35.3804 81.8075L35.7381 81.5912L36.097 81.3782L36.4571 81.1686L36.8184 80.9622L37.1809 80.7592L37.5445 80.5595L37.9092 80.3631L38.2749 80.17L38.6416 79.9803L39.0093 79.7939L39.3779 79.6109L39.7475 79.4312L40.1179 79.2549L40.4891 79.0819L40.8612 78.9123L41.234 78.746L41.6075 78.5831L41.9818 78.4236L42.3567 78.2674L42.7322 78.1146L43.1083 77.9651L43.4849 77.819L43.8621 77.6763L44.2397 77.5369L44.6178 77.4008L44.9964 77.2682L45.3752 77.1388L45.7545 77.0129L46.134 76.8902L46.5138 76.7709L46.8939 76.655L47.2742 76.5424L47.6546 76.4331L48.0352 76.3271L48.4158 76.2245L48.7966 76.1251L49.1773 76.0291L49.5581 75.9364L49.9388 75.847L50.3195 75.7608L50.7001 75.678L51.0805 75.5984L51.4608 75.5221L51.8408 75.449L52.2207 75.3791L52.6002 75.3125L52.9795 75.2492L53.3584 75.189L53.737 75.1321L54.1151 75.0783L54.4929 75.0278L54.8701 74.9804L55.2469 74.9361L55.6232 74.895L55.9989 74.8571L56.374 74.8223L56.7484 74.7905L57.1223 74.7619L57.4954 74.7364L57.8679 74.7139L58.2396 74.6945L58.6105 74.6781L58.9806 74.6647L59.3499 74.6544L59.7183 74.647L60.0858 74.6426L60.4524 74.6412L60.8181 74.6428L61.1827 74.6472L61.5464 74.6546L61.909 74.6648L62.2706 74.678L62.631 74.6939L62.9904 74.7128L63.3486 74.7344L63.7056 74.7588L64.0614 74.7861L64.416 74.816L64.7693 74.8488L65.1214 74.8842L65.4721 74.9224L65.8215 74.9632L66.1696 75.0067L66.5162 75.0528L66.8615 75.1015L67.2053 75.1529L67.5476 75.2068L67.8885 75.2632L68.2279 75.3222L68.5657 75.3837L68.902 75.4477L69.2367 75.5141L69.5698 75.583L69.9013 75.6543L70.2311 75.7279L70.5593 75.804L70.8857 75.8824L71.2105 75.963L71.5335 76.046L71.8548 76.1313L72.1744 76.2188L72.4921 76.3085L72.808 76.4004L73.1221 76.4944L73.4343 76.5906L73.7447 76.6889L74.0532 76.7893L74.3597 76.8918L74.6644 76.9963L74.9671 77.1028L75.2679 77.2112L75.5666 77.3217L75.8634 77.434L76.1582 77.5482L76.451 77.6644L76.7417 77.7823L77.0303 77.9021L77.3169 78.0237L77.6014 78.147L77.8839 78.272L78.1642 78.3988L78.4423 78.5272L78.7184 78.6573L78.9923 78.7889L79.264 78.9222L79.5335 79.057L79.8009 79.1934L80.0661 79.3312L80.329 79.4705L80.5898 79.6113L80.8483 79.7535L81.1045 79.897L81.3585 80.0419L81.6103 80.1881L81.8598 80.3357L82.107 80.4844L82.3519 80.6344L82.5945 80.7857L82.8348 80.938L83.0728 81.0916L83.3085 81.2462L83.5419 81.4019L83.7729 81.5587L84.0017 81.7165L84.228 81.8753L84.4521 82.035L84.6737 82.1957L84.8931 82.3572L85.11 82.5197L85.3246 82.6829L85.5369 82.847L85.7468 83.0119L85.9543 83.1775L86.1594 83.3438L86.3622 83.5108L86.5625 83.6785L86.7606 83.8468L86.9562 84.0157L87.1494 84.1851L87.3403 84.3551L87.5288 84.5256L87.7149 84.6966L87.8987 84.868L88.0801 85.0398L88.2591 85.212L88.4357 85.3846L88.6099 85.5575L88.7818 85.7306L88.9514 85.9041L89.1185 86.0778L89.2834 86.2516L89.4458 86.4257L89.606 86.5999L89.7637 86.7742L89.9192 86.9486L90.0723 87.1231L90.2231 87.2976L90.3716 87.4721L90.5177 87.6465L90.6616 87.8209L90.8031 87.9952L90.9424 88.1694L91.0794 88.3435L91.2141 88.5174L91.3466 88.6911L91.4767 88.8645L91.6047 89.0377L91.7304 89.2106L91.8539 89.3832L91.9751 89.5555L92.0942 89.7274L92.211 89.8989L92.3257 90.0699L92.4382 90.2406L92.5485 90.4107L92.6567 90.5804L92.7628 90.7495L92.8667 90.9181L92.9685 91.0861L93.0682 91.2534L93.1658 91.4202L93.2614 91.5863L93.3549 91.7517L93.4464 91.9164L93.5358 92.0804L93.6232 92.2436L93.7086 92.406L93.792 92.5676L93.8735 92.7284L93.953 92.8884L94.0306 93.0474L94.1063 93.2056L94.1801 93.3628L94.2519 93.5191L94.322 93.6745L94.3901 93.8288L94.4565 93.9821L94.521 94.1344L94.5838 94.2856L94.6447 94.4358L94.7039 94.5848L94.7614 94.7327L94.8172 94.8795L94.8712 95.0251L94.9236 95.1696L94.9744 95.3128L95.0235 95.4548L95.0709 95.5956L95.1168 95.7351L95.1611 95.8733L95.2039 96.0102L95.2451 96.1459L95.2849 96.2802L95.3231 96.4131L95.3599 96.5446L95.3952 96.6748L95.4291 96.8036L95.4616 96.9309L95.4927 97.0568L95.5225 97.1813L95.551 97.3043L95.5781 97.4258L95.604 97.5458L95.6286 97.6643L95.652 97.7812L95.6742 97.8967L95.6952 98.0105L95.715 98.1228L95.7337 98.2335L95.7512 98.3426L95.7677 98.4501L95.7832 98.556L95.7976 98.6603L95.8109 98.7629L95.8233 98.8638L95.8348 98.9631L95.8453 99.0607L95.8549 99.1567L95.8636 99.2509L95.8714 99.3434L95.8784 99.4342L95.8847 99.5233L95.8901 99.6106L95.8948 99.6962L95.8987 99.78L95.902 99.8621L95.9046 99.9424L95.9065 100.021L95.9078 100.098L95.9086 100.173L95.9087 100.246L95.9083 100.317L95.9074 100.387L95.9061 100.455L95.9042 100.521L95.902 100.585L95.8993 100.647L95.8963 100.708L95.8929 100.766L95.8892 100.823L95.8852 100.878L95.8809 100.931L95.8764 100.983L95.8716 101.032L95.8667 101.08L95.8617 101.126L95.8565 101.17L95.8512 101.212L95.8458 101.252L95.8404 101.29L95.8349 101.327L95.8295 101.362L95.8241 101.395L95.8188 101.426L95.8135 101.455L95.8084 101.482L95.8034 101.508L95.7986 101.532L95.794 101.554L95.7896 101.574L95.7854 101.592L95.7816 101.609L95.778 101.623L95.7748 101.636L95.7719 101.647L95.7694 101.657L95.7674 101.664L95.7657 101.67L95.7646 101.674L95.7639 101.676M95.7639 101.676L95.7651 101.673L95.7667 101.668L95.7688 101.662L95.7717 101.654L95.7752 101.644L95.7794 101.632L95.7843 101.619L95.7899 101.604L95.7964 101.588L95.8036 101.57L95.8117 101.55L95.8206 101.528L95.8304 101.505L95.8411 101.481L95.8527 101.454L95.8652 101.427L95.8788 101.397L95.8933 101.367L95.9088 101.334L95.9254 101.3L95.943 101.265L95.9617 101.228L95.9815 101.19L96.0025 101.15L96.0246 101.108L96.0479 101.066L96.0724 101.022L96.0981 100.976L96.125 100.929L96.1532 100.881L96.1827 100.831L96.2135 100.781L96.2457 100.728L96.2791 100.675L96.314 100.62L96.3502 100.564L96.3878 100.507L96.4269 100.449L96.4674 100.389L96.5094 100.328L96.5528 100.266L96.5978 100.203L96.6443 100.139L96.6923 100.074L96.7419 100.007L96.793 99.9401L96.8458 99.8717L96.9001 99.8023L96.9561 99.7319L97.0138 99.6606L97.073 99.5883L97.134 99.5151L97.1967 99.441L97.261 99.3661L97.3271 99.2903L97.3949 99.2137L97.4645 99.1363L97.5359 99.0581L97.609 98.9792L97.6839 98.8995L97.7606 98.8191L97.8392 98.7381L97.9196 98.6564L98.0018 98.5741L98.0859 98.4912L98.1719 98.4077L98.2597 98.3236L98.3494 98.239L98.4411 98.154L98.5347 98.0684L98.6301 97.9824L98.7276 97.896L98.827 97.8092L98.9283 97.722L99.0316 97.6345L99.1369 97.5466L99.2441 97.4585L99.3534 97.3701L99.4646 97.2815L99.5779 97.1926L99.6932 97.1036L99.8105 97.0144L99.9298 96.9251L100.051 96.8357L100.175 96.7463L100.3 96.6568L100.427 96.5673L100.557 96.4777L100.689 96.3883L100.822 96.2989L100.958 96.2096L101.096 96.1204L101.236 96.0314L101.378 95.9426L101.522 95.8539L101.668 95.7656L101.816 95.6774L101.967 95.5896L102.119 95.5021L102.273 95.415L102.43 95.3283L102.589 95.2419L102.749 95.156L102.912 95.0706L103.077 94.9857L103.244 94.9013L103.413 94.8174L103.585 94.7342L103.758 94.6515L103.933 94.5695L104.111 94.4882L104.29 94.4076L104.472 94.3277L104.655 94.2485L104.841 94.1702L105.029 94.0927L105.219 94.016L105.41 93.9401L105.604 93.8652L105.8 93.7913L105.998 93.7182L106.198 93.6462L106.4 93.5752L106.604 93.5052L106.81 93.4363L107.018 93.3685L107.228 93.3018L107.44 93.2363L107.654 93.172L107.869 93.1089L108.087 93.047L108.307 92.9864L108.529 92.9271L108.752 92.8691L108.977 92.8125L109.205 92.7573L109.434 92.7034L109.665 92.651L109.898 92.6001L110.133 92.5506L110.369 92.5027L110.607 92.4563L110.848 92.4114L111.089 92.3682L111.333 92.3265L111.579 92.2866L111.826 92.2483L112.075 92.2117L112.325 92.1768L112.578 92.1436L112.831 92.1123L113.087 92.0827L113.344 92.055L113.603 92.0291L113.864 92.005L114.126 91.9829L114.389 91.9627L114.654 91.9445L114.921 91.9282L115.189 91.9139L115.459 91.9016L115.73 91.8914L116.003 91.8832L116.277 91.8771L116.552 91.8731L116.829 91.8713L117.107 91.8716L117.387 91.874L117.667 91.8787L117.95 91.8856L118.233 91.8947L118.518 91.9061L118.803 91.9197L119.091 91.9357L119.379 91.954L119.668 91.9746L119.959 91.9976L120.251 92.023L120.543 92.0507L120.837 92.0809L121.132 92.1135L121.428 92.1486L121.725 92.1861L122.022 92.2261L122.321 92.2687L122.621 92.3137L122.921 92.3613L123.223 92.4115L123.525 92.4642L123.828 92.5195L124.132 92.5775L124.436 92.638L124.742 92.7012L125.048 92.767L125.354 92.8355L125.661 92.9067L125.969 92.9806L126.278 93.0572L126.587 93.1365L126.896 93.2186L127.206 93.3034L127.516 93.3909L127.827 93.4813L128.139 93.5744L128.45 93.6703L128.762 93.769L129.074 93.8705L129.387 93.9749L129.7 94.0821L130.013 94.1921L130.326 94.305L130.639 94.4208L130.953 94.5394L131.266 94.6609L131.58 94.7854L131.894 94.9127L132.207 95.0429L132.521 95.176L132.834 95.3121L133.148 95.451L133.461 95.5929L133.774 95.7378L134.087 95.8856L134.4 96.0363L134.713 96.19L135.025 96.3466L135.337 96.5062L135.648 96.6688L135.959 96.8343L136.27 97.0028L136.58 97.1743L136.89 97.3487L137.199 97.5261L137.508 97.7065L137.816 97.8899L138.124 98.0762L138.43 98.2655L138.737 98.4578L139.042 98.6531L139.347 98.8514L139.651 99.0526L139.954 99.2568L140.256 99.4639L140.557 99.6741L140.857 99.8872L141.157 100.103L141.455 100.322L141.753 100.544L142.049 100.769L142.344 100.997L142.639 101.228L142.932 101.461L143.223 101.698L143.514 101.938L143.803 102.18L144.092 102.426L144.378 102.674L144.664 102.925L144.948 103.179L145.23 103.436L145.511 103.696L145.791 103.959L146.069 104.224L146.346 104.492L146.621 104.764L146.894 105.038L147.166 105.314L147.436 105.594L147.704 105.876L147.971 106.162L148.236 106.45L148.499 106.74L148.76 107.034L149.019 107.33L149.277 107.629L149.532 107.93L149.786 108.234L150.037 108.541L150.286 108.851L150.534 109.163L150.779 109.477L151.022 109.795L151.263 110.115L151.502 110.437L151.739 110.762L151.973 111.09L152.206 111.42L152.435 111.752L152.663 112.087L152.888 112.425L153.111 112.764L153.331 113.107L153.549 113.451L153.764 113.798L153.977 114.148L154.188 114.5L154.395 114.854L154.601 115.21L154.803 115.569L155.003 115.929L155.2 116.292L155.395 116.658L155.587 117.025L155.776 117.395L155.962 117.766L156.146 118.14L156.327 118.516L156.504 118.894L156.679 119.274L156.851 119.656L157.021 120.04L157.187 120.425L157.35 120.813L157.51 121.203L157.667 121.594L157.821 121.988L157.972 122.383L158.12 122.78L158.265 123.179L158.407 123.579L158.546 123.981L158.681 124.385L158.813 124.79L158.942 125.197L159.068 125.606L159.19 126.016L159.309 126.428L159.425 126.841L159.537 127.256L159.646 127.672L159.752 128.089L159.855 128.508L159.954 128.929L160.049 129.35L160.141 129.773L160.23 130.197L160.315 130.622L160.397 131.048L160.475 131.476L160.55 131.905L160.621 132.334L160.688 132.765L160.752 133.197L160.813 133.63L160.869 134.063L160.923 134.498L160.972 134.933L161.018 135.37L161.06 135.807L161.099 136.245L161.134 136.683L161.165 137.123L161.193 137.563L161.217 138.003L161.237 138.444L161.253 138.886L161.266 139.329L161.274 139.771L161.28 140.214L161.281 140.658L161.278 141.102L161.272 141.547L161.262 141.991L161.248 142.436L161.231 142.881L161.209 143.327L161.184 143.772L161.155 144.218L161.122 144.664L161.085 145.109L161.044 145.555L161 146.001L160.952 146.447L160.899 146.892L160.843 147.338L160.783 147.783L160.72 148.228L160.652 148.673L160.58 149.117L160.505 149.561L160.426 150.005L160.343 150.449L160.256 150.892L160.165 151.334L160.07 151.776L159.971 152.218L159.869 152.658L159.762 153.099L159.652 153.538L159.538 153.977L159.42 154.415L159.298 154.852L159.173 155.289L159.043 155.725L158.91 156.159L158.773 156.593L158.632 157.026L158.487 157.458L158.338 157.889L158.186 158.318L158.029 158.747L157.869 159.174L157.705 159.601L157.538 160.026L157.366 160.449L157.191 160.872L157.012 161.293L156.829 161.713L156.643 162.131L156.453 162.548L156.259 162.963L156.061 163.377L155.86 163.789L155.655 164.2L155.446 164.609L155.234 165.016L155.018 165.422L154.799 165.826L154.575 166.228L154.349 166.628L154.118 167.027L153.884 167.423L153.647 167.818L153.406 168.211L153.161 168.601L152.913 168.99L152.662 169.377L152.407 169.761L152.148 170.143L151.887 170.524L151.621 170.902L151.353 171.277L151.08 171.651L150.805 172.022L150.526 172.391L150.244 172.758L149.959 173.122L149.67 173.484L149.378 173.843L149.083 174.2L148.785 174.554L148.483 174.905L148.178 175.254L147.87 175.601L147.559 175.945L147.245 176.286L146.928 176.624L146.608 176.96L146.285 177.293L145.958 177.623L145.629 177.95L145.297 178.275L144.962 178.596L144.624 178.915L144.283 179.23L143.939 179.543L143.593 179.853L143.243 180.159L142.891 180.463L142.536 180.763L142.179 181.061L141.819 181.355L141.456 181.646L141.09 181.934L140.722 182.218L140.351 182.5L139.978 182.778L139.602 183.053L139.224 183.324L138.844 183.592L138.461 183.857L138.075 184.119L137.687 184.377L137.297 184.631L136.905 184.882L136.51 185.13L136.113 185.374L135.714 185.615L135.313 185.852L134.91 186.085L134.504 186.315L134.097 186.542L133.687 186.764L133.276 186.983L132.862 187.199L132.447 187.41L132.03 187.618L131.61 187.823L131.189 188.023L130.767 188.22L130.342 188.413L129.916 188.602L129.488 188.787L129.059 188.969L128.627 189.147L128.195 189.321L127.76 189.491L127.325 189.657L126.887 189.819L126.449 189.977L126.009 190.132L125.567 190.282L125.125 190.429L124.681 190.571L124.235 190.71L123.789 190.844L123.341 190.975L122.893 191.102L122.443 191.224L121.992 191.343L121.54 191.457L121.087 191.568L120.633 191.674L120.178 191.776L119.723 191.875L119.266 191.969L118.809 192.059L118.351 192.145L117.892 192.227L117.433 192.305L116.973 192.379L116.512 192.448L116.051 192.514L115.59 192.575L115.127 192.632L114.665 192.685L114.202 192.734L113.739 192.779L113.275 192.82L112.811 192.857L112.347 192.889L111.882 192.917L111.418 192.941L110.953 192.961L110.488 192.977L110.023 192.989L109.558 192.997L109.093 193L108.629 192.999L108.164 192.994L107.699 192.985L107.235 192.972L106.771 192.955L106.307 192.934L105.843 192.908L105.38 192.879L104.917 192.845L104.454 192.807L103.992 192.765L103.531 192.719L103.07 192.669L102.609 192.615L102.149 192.557L101.69 192.494L101.232 192.428L100.774 192.358L100.317 192.283L99.8603 192.205L99.4048 192.122L98.9502 192.036L98.4965 191.945L98.0437 191.85L97.5919 191.752L97.1411 191.65L96.6914 191.543L96.2428 191.433L95.7952 191.318L95.3489 191.2L94.9037 191.078L94.4598 190.952L94.0171 190.822L93.5757 190.689L93.1357 190.551L92.697 190.41L92.2598 190.264L91.824 190.115L91.3897 189.963L90.9568 189.806L90.5256 189.646L90.0959 189.482L89.6679 189.314L89.2414 189.142L88.8167 188.967L88.3937 188.788L87.9724 188.606L87.553 188.42L87.1353 188.23L86.7195 188.037L86.3056 187.84L85.8935 187.64L85.4835 187.436L85.0754 187.229L84.6693 187.018L84.2652 186.804L83.8633 186.586L83.4634 186.365L83.0656 186.14L82.6701 185.913L82.2767 185.681L81.8855 185.447L81.4966 185.209L81.11 184.968L80.7256 184.724L80.3437 184.476L79.964 184.226L79.5868 183.972L79.212 183.715L78.8396 183.455L78.4698 183.192L78.1024 182.925L77.7375 182.656L77.3753 182.384L77.0155 182.109L76.6585 181.83L76.304 181.549L75.9522 181.265L75.6031 180.978L75.2567 180.689L74.913 180.396L74.572 180.101L74.2339 179.803L73.8986 179.502L73.566 179.199L73.2364 178.893L72.9096 178.584L72.5857 178.273L72.2647 177.959L71.9466 177.642L71.6315 177.324L71.3194 177.002L71.0103 176.678L70.7041 176.352L70.4011 176.024L70.101 175.693L69.8041 175.359L69.5102 175.024L69.2195 174.686L68.9319 174.346L68.6474 174.004L68.3661 173.66L68.088 173.313L67.813 172.965L67.5413 172.615L67.2728 172.262L67.0076 171.907L66.7456 171.551L66.4869 171.193L66.2314 170.832L65.9793 170.47L65.7304 170.107L65.4849 169.741L65.2428 169.374L65.004 169.004L64.7685 168.634L64.5364 168.261L64.3078 167.887L64.0825 167.512L63.8606 167.135L63.6421 166.756L63.427 166.376L63.2154 165.995L63.0073 165.612L62.8025 165.228L62.6013 164.843L62.4035 164.456L62.2092 164.068L62.0183 163.679L61.831 163.288L61.6471 162.897L61.4668 162.505L61.2899 162.111L61.1166 161.716L60.9468 161.321L60.7805 160.924L60.6177 160.527L60.4584 160.128L60.3027 159.729L60.1505 159.329L60.0018 158.929L59.8567 158.527L59.7151 158.125L59.5771 157.722L59.4426 157.319L59.3116 156.915L59.1842 156.51L59.0602 156.105L58.9399 155.699L58.8231 155.293L58.7098 154.887L58.6 154.48L58.4938 154.073L58.3911 153.666L58.2919 153.258L58.1963 152.85L58.1041 152.442L58.0155 152.034L57.9304 151.625L57.8488 151.217L57.7707 150.808L57.696 150.4L57.6249 149.991L57.5572 149.583L57.4931 149.175L57.4323 148.766L57.3751 148.358L57.3212 147.95L57.2709 147.543L57.2239 147.135L57.1804 146.728L57.1403 146.322L57.1036 145.915L57.0703 145.509L57.0403 145.104L57.0138 144.699L56.9906 144.294L56.9707 143.89L56.9542 143.487L56.941 143.084L56.9312 142.682L56.9246 142.28L56.9213 141.879L56.9213 141.479L56.9245 141.08L56.931 140.681L56.9407 140.283L56.9537 139.886L56.9698 139.49L56.9891 139.095L57.0116 138.701L57.0372 138.308L57.066 137.916L57.0979 137.525L57.1329 137.135L57.1709 136.746L57.2121 136.358L57.2563 135.971L57.3035 135.586L57.3537 135.201L57.4069 134.818L57.4631 134.437L57.5223 134.056L57.5843 133.677L57.6493 133.299L57.7172 132.923L57.7879 132.548L57.8615 132.175L57.938 131.803L58.0172 131.432L58.0992 131.063L58.184 130.696L58.2716 130.33L58.3618 129.965L58.4548 129.603L58.5504 129.242L58.6487 128.882L58.7495 128.525L58.853 128.169L58.9591 127.814L59.0678 127.462L59.1789 127.111L59.2926 126.762L59.4087 126.415L59.5273 126.07L59.6484 125.727L59.7718 125.386L59.8976 125.046L60.0258 124.709L60.1563 124.373L60.2891 124.039L60.4242 123.708L60.5615 123.378L60.701 123.051L60.8427 122.725L60.9866 122.402L61.1327 122.08L61.2808 121.761L61.431 121.444L61.5833 121.129L61.7376 120.817L61.8939 120.506L62.0522 120.198L62.2124 119.891L62.3745 119.588L62.5385 119.286L62.7044 118.986L62.8721 118.689L63.0415 118.394L63.2128 118.102L63.3858 117.812L63.5604 117.524L63.7368 117.238L63.9148 116.955L64.0945 116.674L64.2757 116.396L64.4584 116.12L64.6427 115.846L64.8285 115.575L65.0158 115.306L65.2045 115.039L65.3946 114.775L65.5861 114.514L65.7789 114.255L65.973 113.998L66.1684 113.744L66.3651 113.493L66.563 113.243L66.7621 112.997L66.9623 112.753L67.1637 112.511L67.3661 112.272L67.5696 112.035L67.7742 111.801L67.9797 111.57L68.1862 111.341L68.3937 111.114L68.6021 110.89L68.8113 110.669L69.0214 110.45L69.2323 110.234L69.444 110.02L69.6564 109.809L69.8696 109.601L70.0834 109.395L70.2979 109.191L70.513 108.991L70.7288 108.792L70.9451 108.596L71.1619 108.403L71.3792 108.213L71.597 108.025L71.8153 107.839L72.0339 107.656L72.2529 107.476L72.4723 107.298L72.692 107.123L72.912 106.95L73.1322 106.78L73.3527 106.612L73.5733 106.447L73.7941 106.285L74.0151 106.125L74.2362 105.967L74.4573 105.812L74.6785 105.659L74.8997 105.509L75.1208 105.362L75.342 105.217L75.563 105.074L75.784 104.934L76.0048 104.797L76.2255 104.662L76.446 104.529L76.6662 104.398L76.8862 104.271L77.106 104.145L77.3254 104.022L77.5445 103.902L77.7632 103.783L77.9816 103.667L78.1995 103.554L78.417 103.443L78.634 103.334L78.8505 103.227L79.0665 103.123L79.282 103.021L79.4968 102.922L79.7111 102.824L79.9247 102.729L80.1377 102.636L80.35 102.546L80.5615 102.457L80.7724 102.371L80.9825 102.287L81.1917 102.206L81.4002 102.126L81.6079 102.048L81.8147 101.973L82.0206 101.9L82.2256 101.828L82.4297 101.759L82.6328 101.692L82.8349 101.627L83.0361 101.564L83.2362 101.503L83.4352 101.444L83.6333 101.387L83.8302 101.332L84.026 101.278L84.2206 101.227L84.4141 101.178L84.6065 101.13L84.7976 101.084L84.9875 101.04L85.1762 100.998L85.3636 100.958L85.5498 100.919L85.7346 100.882L85.9182 100.847L86.1004 100.814L86.2812 100.782L86.4607 100.752L86.6388 100.723L86.8155 100.696L86.9908 100.671L87.1646 100.647L87.3369 100.625L87.5078 100.604L87.6772 100.585L87.8451 100.567L88.0115 100.551L88.1763 100.536L88.3396 100.522L88.5013 100.51L88.6614 100.499L88.82 100.49L88.9769 100.482L89.1322 100.475L89.2859 100.469L89.4379 100.464L89.5882 100.461L89.7369 100.459L89.8839 100.458L90.0292 100.458L90.1728 100.459L90.3147 100.462L90.4549 100.465L90.5933 100.469L90.7299 100.474L90.8649 100.481L90.998 100.488L91.1293 100.496L91.2589 100.505L91.3867 100.515L91.5127 100.525L91.6369 100.537L91.7592 100.549L91.8798 100.562L91.9985 100.575L92.1153 100.59L92.2304 100.605L92.3436 100.62L92.4549 100.636L92.5644 100.653L92.672 100.671L92.7778 100.688L92.8817 100.707L92.9837 100.726L93.0838 100.745L93.1821 100.764L93.2785 100.784L93.373 100.805L93.4656 100.826L93.5563 100.847L93.6452 100.868L93.7322 100.889L93.8172 100.911L93.9005 100.933L93.9818 100.955L94.0612 100.977L94.1387 101L94.2144 101.022L94.2882 101.045L94.3601 101.067L94.4301 101.09L94.4983 101.112L94.5646 101.134L94.629 101.157L94.6916 101.179L94.7523 101.201L94.8111 101.223L94.8681 101.244L94.9233 101.266L94.9766 101.287L95.0281 101.308L95.0777 101.329L95.1256 101.349L95.1716 101.369L95.2159 101.388L95.2583 101.407L95.2989 101.426L95.3378 101.444L95.3749 101.462L95.4102 101.479L95.4438 101.496L95.4756 101.512L95.5057 101.527L95.5341 101.542L95.5607 101.557L95.5857 101.57L95.6089 101.583L95.6305 101.595L95.6504 101.607L95.6686 101.617L95.6852 101.627L95.7002 101.636L95.7136 101.644L95.7253 101.652L95.7355 101.658L95.744 101.664L95.7511 101.668L95.7565 101.672L95.7604 101.675M95.7639 101.676L95.7628 101.676L95.7604 101.675" stroke="url(#paint0_linear_376_2328)"/>
    </g>
    <defs>
        <filter id="filter0_f_376_2328" x="0.5" y="0.5" width="198" height="202" filterUnits="userSpaceOnUse" color-interpolation-filters="sRGB">
            <feFlood flood-opacity="0" result="BackgroundImageFix"/>
            <feBlend mode="normal" in="SourceGraphic" in2="BackgroundImageFix" result="shape"/>
            <feGaussianBlur stdDeviation="4.5" result="effect1_foregroundBlur_376_2328"/>
        </filter>
        <linearGradient id="paint0_linear_376_2328" x1="189" y1="137.922" x2="6.74332" y2="111.816" gradientUnits="userSpaceOnUse">
            <stop stop-color="#94B3FD"/>
            <stop offset="0.499634" stop-color="#FB6BFE"/>
            <stop offset="1" stop-color="#42C2FF"/>
        </linearGradient>
    </defs>
</svg>
