<svg width="167" height="168" viewBox="0 0 167 168" fill="none" xmlns="http://www.w3.org/2000/svg">
    <g filter="url(#filter0_f_534_281)">
        <path fill-rule="evenodd" clip-rule="evenodd" d="M156.984 84.2374L156.981 84.6124L156.972 84.9873L156.958 85.3621L156.938 85.7367L156.913 86.111L156.882 86.485L156.845 86.8586L156.802 87.2317L156.754 87.6043L156.7 87.9764L156.641 88.3477L156.576 88.7183L156.506 89.0882L156.43 89.4571L156.348 89.8252L156.261 90.1923L156.168 90.5583L156.07 90.9232L155.966 91.2869L155.857 91.6494L155.742 92.0106L155.622 92.3704L155.496 92.7288L155.365 93.0857L155.229 93.441L155.087 93.7948L154.94 94.1468L154.788 94.4971L154.631 94.8457L154.468 95.1923L154.3 95.5371L154.127 95.8799L153.949 96.2206L153.766 96.5593L153.577 96.8958L153.384 97.2301L153.186 97.5622L152.983 97.8919L152.775 98.2193L152.562 98.5443L152.344 98.8667L152.121 99.1867L151.894 99.5041L151.662 99.8188L151.425 100.131L151.184 100.44L150.938 100.747L150.688 101.05L150.433 101.351L150.173 101.649L149.91 101.944L149.642 102.236L149.37 102.525L149.093 102.811L148.813 103.093L148.528 103.372L148.239 103.649L147.946 103.922L147.65 104.191L147.349 104.457L147.044 104.72L146.736 104.979L146.424 105.235L146.108 105.488L145.789 105.737L145.466 105.982L145.14 106.223L144.81 106.461L144.477 106.696L144.141 106.926L143.801 107.153L143.458 107.377L143.112 107.596L142.763 107.811L142.411 108.023L142.056 108.231L141.698 108.435L141.337 108.635L140.974 108.831L140.608 109.023L140.239 109.211L139.868 109.396L139.494 109.576L139.118 109.752L138.739 109.924L138.358 110.092L137.975 110.256L137.59 110.416L137.203 110.572L136.814 110.723L136.423 110.871L136.03 111.014L135.635 111.154L135.238 111.289L134.84 111.42L134.44 111.547L134.039 111.67L133.636 111.788L133.232 111.903L132.827 112.013L132.42 112.119L132.012 112.221L131.603 112.319L131.193 112.413L130.782 112.502L130.37 112.588L129.957 112.669L129.544 112.746L129.129 112.819L128.715 112.888L128.299 112.953L127.883 113.014L127.467 113.071L127.05 113.124L126.633 113.172L126.216 113.217L125.799 113.258L125.381 113.295L124.964 113.327L124.546 113.356L124.129 113.381L123.712 113.402L123.295 113.419L122.878 113.433L122.462 113.442L122.046 113.448L121.631 113.45L121.216 113.448L120.802 113.442L120.389 113.433L119.976 113.42L119.564 113.404L119.153 113.384L118.743 113.36L118.334 113.333L117.926 113.302L117.519 113.268L117.113 113.231L116.708 113.19L116.305 113.146L115.903 113.098L115.502 113.048L115.103 112.994L114.706 112.937L114.309 112.877L113.915 112.813L113.522 112.747L113.131 112.678L112.741 112.605L112.354 112.53L111.968 112.452L111.584 112.371L111.202 112.287L110.822 112.201L110.444 112.112L110.068 112.021L109.695 111.926L109.323 111.83L108.954 111.73L108.587 111.629L108.222 111.525L107.859 111.419L107.499 111.31L107.142 111.2L106.786 111.087L106.434 110.972L106.083 110.855L105.736 110.736L105.391 110.615L105.048 110.493L104.708 110.368L104.371 110.242L104.037 110.114L103.705 109.984L103.376 109.853L103.05 109.721L102.727 109.587L102.406 109.451L102.089 109.315L101.774 109.177L101.462 109.037L101.154 108.897L100.848 108.756L100.545 108.613L100.245 108.47L99.9481 108.325L99.6542 108.18L99.3634 108.034L99.0757 107.888L98.791 107.741L98.5094 107.593L98.2309 107.444L97.9555 107.295L97.6832 107.146L97.414 106.997L97.148 106.847L96.885 106.697L96.6253 106.547L96.3686 106.396L96.1151 106.246L95.8648 106.096L95.6176 105.945L95.3735 105.795L95.1326 105.646L94.8948 105.496L94.6602 105.347L94.4287 105.198L94.2003 105.05L93.975 104.902L93.7529 104.755L93.5339 104.608L93.3179 104.463L93.1051 104.318L92.8953 104.173L92.6886 104.03L92.485 103.888L92.2844 103.746L92.0868 103.606L91.8922 103.467L91.7006 103.329L91.5119 103.192L91.3262 103.057L91.1435 102.922L90.9637 102.79L90.7867 102.658L90.6126 102.529L90.4414 102.401L90.273 102.274L90.1074 102.149L89.9445 102.026L89.7844 101.905L89.627 101.785L89.4723 101.667L89.3202 101.552L89.1707 101.438L89.0239 101.326L88.8796 101.216L88.7379 101.109L88.5986 101.003L88.4618 100.9L88.3274 100.799L88.1954 100.701L88.0658 100.604L87.9385 100.511L87.8135 100.419L87.6907 100.33L87.5701 100.244L87.4516 100.16L87.3353 100.079L87.2211 100L87.1089 99.924L86.9987 99.8507L86.8905 99.7802L86.7841 99.7124L86.6796 99.6475L86.577 99.5854L86.4761 99.5262L86.3769 99.4699L86.2794 99.4165L86.1836 99.3662L86.0893 99.3188L85.9966 99.2744L85.9054 99.2331L85.8156 99.1949L85.7272 99.1598L85.6401 99.1278L85.5544 99.099L85.4698 99.0734L85.3865 99.0509L85.3043 99.0317L85.2232 99.0157L85.1431 99.003L85.064 98.9935L84.9858 98.9873L84.9085 98.9845L84.832 98.9849L84.7563 98.9887L84.6814 98.9958L84.607 99.0063L84.5333 99.0202L84.4601 99.0374L84.3875 99.058L84.3153 99.0821L84.2434 99.1095L84.1719 99.1403L84.1007 99.1745L84.0297 99.2121L83.9589 99.2532L83.8882 99.2976L83.8176 99.3455L83.7469 99.3968L83.6762 99.4515L83.6054 99.5096L83.5345 99.5711L83.4633 99.636L83.3918 99.7043L83.3201 99.776L83.2479 99.8511L83.1753 99.9295L83.1022 100.011L83.0286 100.096L82.9544 100.185L82.8795 100.277L82.8039 100.372L82.7275 100.47L82.6504 100.572L82.5723 100.677L82.4934 100.785L82.4135 100.896L82.3325 101.011L82.2505 101.128L82.1673 101.249L82.0829 101.373L81.9974 101.5L81.9105 101.631L81.8223 101.764L81.7327 101.9L81.6417 102.039L81.5492 102.182L81.4552 102.327L81.3596 102.475L81.2624 102.626L81.1634 102.78L81.0628 102.936L80.9604 103.096L80.8562 103.258L80.7502 103.423L80.6422 103.59L80.5323 103.76L80.4204 103.933L80.3064 104.108L80.1904 104.286L80.0723 104.466L79.952 104.649L79.8296 104.834L79.7049 105.021L79.5779 105.211L79.4486 105.403L79.3169 105.597L79.1829 105.793L79.0464 105.992L78.9075 106.192L78.7661 106.395L78.6222 106.599L78.4757 106.805L78.3266 107.014L78.1749 107.224L78.0206 107.435L77.8635 107.649L77.7038 107.864L77.5413 108.08L77.376 108.299L77.208 108.518L77.0371 108.739L76.8634 108.962L76.6868 109.186L76.5074 109.411L76.325 109.637L76.1397 109.864L75.9514 110.093L75.7602 110.322L75.566 110.553L75.3687 110.784L75.1685 111.017L74.9652 111.25L74.7589 111.483L74.5495 111.718L74.337 111.953L74.1214 112.188L73.9027 112.424L73.6809 112.661L73.456 112.897L73.228 113.134L72.9968 113.372L72.7625 113.609L72.525 113.846L72.2844 114.084L72.0407 114.321L71.7938 114.559L71.5437 114.796L71.2905 115.033L71.0342 115.27L70.7747 115.506L70.512 115.742L70.2462 115.977L69.9773 116.212L69.7052 116.446L69.4301 116.68L69.1518 116.913L68.8704 117.145L68.5859 117.376L68.2983 117.606L68.0077 117.835L67.714 118.063L67.4173 118.29L67.1176 118.516L66.8148 118.74L66.5091 118.964L66.2003 119.185L65.8887 119.405L65.5741 119.624L65.2566 119.841L64.9362 120.057L64.6129 120.271L64.2868 120.483L63.9579 120.693L63.6262 120.901L63.2918 121.107L62.9546 121.312L62.6147 121.514L62.2722 121.714L61.927 121.912L61.5792 122.108L61.2288 122.301L60.8759 122.492L60.5205 122.68L60.1626 122.866L59.8023 123.049L59.4396 123.23L59.0746 123.408L58.7072 123.584L58.3375 123.756L57.9656 123.926L57.5916 124.093L57.2153 124.257L56.837 124.418L56.4566 124.576L56.0742 124.731L55.6898 124.882L55.3035 125.031L54.9153 125.176L54.5253 125.318L54.1335 125.457L53.74 125.592L53.3448 125.723L52.9479 125.852L52.5495 125.976L52.1496 126.098L51.7482 126.215L51.3454 126.329L50.9412 126.439L50.5358 126.545L50.129 126.648L49.7211 126.747L49.3121 126.842L48.902 126.933L48.4908 127.02L48.0787 127.103L47.6657 127.182L47.2519 127.257L46.8372 127.328L46.4219 127.395L46.0059 127.458L45.5893 127.516L45.1722 127.57L44.7546 127.621L44.3365 127.666L43.9182 127.708L43.4996 127.745L43.0807 127.778L42.6617 127.807L42.2426 127.831L41.8235 127.85L41.4045 127.866L40.9855 127.877L40.5667 127.883L40.1482 127.885L39.73 127.882L39.3122 127.875L38.8948 127.863L38.4779 127.847L38.0616 127.826L37.646 127.801L37.231 127.771L36.8169 127.737L36.4036 127.697L35.9912 127.654L35.5799 127.605L35.1695 127.552L34.7603 127.495L34.3524 127.432L33.9456 127.365L33.5402 127.294L33.1362 127.218L32.7337 127.137L32.3327 127.051L31.9333 126.961L31.5356 126.867L31.1397 126.767L30.7455 126.663L30.3533 126.555L29.9629 126.442L29.5746 126.324L29.1884 126.202L28.8043 126.075L28.4225 125.943L28.0429 125.807L27.6657 125.667L27.2909 125.522L26.9185 125.372L26.5488 125.218L26.1816 125.06L25.8171 124.897L25.4554 124.73L25.0964 124.558L24.7403 124.382L24.3872 124.201L24.0371 124.016L23.69 123.827L23.346 123.634L23.0052 123.436L22.6677 123.234L22.3335 123.028L22.0026 122.818L21.6752 122.604L21.3512 122.386L21.0308 122.163L20.714 121.937L20.4008 121.706L20.0914 121.472L19.7857 121.233L19.4839 120.991L19.1859 120.745L18.8919 120.495L18.6018 120.241L18.3158 119.984L18.0339 119.723L17.7562 119.458L17.4826 119.19L17.2133 118.918L16.9482 118.642L16.6875 118.364L16.4312 118.081L16.1794 117.796L15.932 117.507L15.6891 117.215L15.4508 116.919L15.2172 116.621L14.9882 116.319L14.7638 116.014L14.5443 115.706L14.3295 115.396L14.1195 115.082L13.9144 114.765L13.7142 114.446L13.5189 114.124L13.3286 113.799L13.1433 113.472L12.963 113.142L12.7878 112.81L12.6177 112.475L12.4527 112.137L12.2929 111.798L12.1383 111.456L11.9888 111.112L11.8447 110.766L11.7058 110.417L11.5722 110.067L11.4439 109.714L11.3209 109.36L11.2034 109.004L11.0912 108.646L10.9844 108.286L10.883 107.925L10.7871 107.562L10.6966 107.198L10.6116 106.832L10.532 106.465L10.458 106.096L10.3895 105.726L10.3265 105.355L10.269 104.983L10.2171 104.61L10.1707 104.235L10.1299 103.86L10.0946 103.484L10.0649 103.107L10.0408 102.73L10.0222 102.351L10.0093 101.972L10.0018 101.593L10 101.213L10.0037 100.833L10.013 100.452L10.0279 100.071L10.0483 99.6897L10.0742 99.3084L10.1057 98.927L10.1428 98.5456L10.1853 98.1642L10.2334 97.783L10.287 97.402L10.346 97.0212L10.4106 96.6408L10.4806 96.2607L10.556 95.8811L10.6369 95.502L10.7232 95.1235L10.8148 94.7456L10.9119 94.3684L11.0143 93.992L11.122 93.6165L11.235 93.2418L11.3533 92.8681L11.4768 92.4954L11.6056 92.1238L11.7395 91.7534L11.8787 91.3841L12.023 91.0162L12.1723 90.6495L12.3268 90.2843L12.4863 89.9205L12.6508 89.5582L12.8203 89.1975L12.9948 88.8383L13.1741 88.4809L13.3583 88.1252L13.5474 87.7713L13.7412 87.4193L13.9398 87.0692L14.1431 86.721L14.3511 86.3748L14.5637 86.0307L14.7809 85.6887L15.0026 85.3489L15.2289 85.0113L15.4595 84.676L15.6946 84.343L15.9341 84.0123L16.1778 83.6841L16.4258 83.3584L16.678 83.0352L16.9344 82.7145L17.1948 82.3964L17.4594 82.081L17.7279 81.7683L18.0004 81.4583L18.2767 81.1511L18.5569 80.8467L18.8409 80.5452L19.1287 80.2466L19.4201 79.9509L19.7151 79.6582L20.0136 79.3685L20.3157 79.0819L20.6212 78.7983L20.9301 78.5179L21.2423 78.2406L21.5577 77.9665L21.8764 77.6957L22.1982 77.4281L22.523 77.1637L22.8509 76.9027L23.1817 76.645L23.5154 76.3907L23.8519 76.1398L24.1912 75.8923L24.5332 75.6482L24.8778 75.4076L25.2249 75.1704L25.5746 74.9368L25.9266 74.7067L26.2811 74.4802L26.6378 74.2572L26.9968 74.0378L27.3579 73.822L27.7211 73.6098L28.0863 73.4012L28.4535 73.1963L28.8226 72.995L29.1935 72.7974L29.5662 72.6035L29.9406 72.4132L30.3165 72.2267L30.694 72.0438L31.073 71.8646L31.4534 71.6892L31.8352 71.5174L32.2182 71.3494L32.6024 71.1851L32.9877 71.0245L33.3741 70.8676L33.7615 70.7145L34.1499 70.565L34.5391 70.4193L34.929 70.2773L35.3197 70.139L35.7111 70.0043L36.103 69.8734L36.4955 69.7461L36.8884 69.6225L37.2817 69.5026L37.6753 69.3863L38.0691 69.2737L38.4631 69.1647L38.8572 69.0592L39.2514 68.9574L39.6456 68.8592L40.0396 68.7645L40.4335 68.6733L40.8272 68.5857L41.2206 68.5016L41.6136 68.4209L42.0063 68.3437L42.3984 68.27L42.7901 68.1996L43.1811 68.1326L43.5714 68.069L43.961 68.0088L44.3499 67.9518L44.7378 67.8981L45.1249 67.8477L45.511 67.8004L45.8961 67.7564L46.28 67.7155L46.6629 67.6777L47.0445 67.6431L47.4248 67.6114L47.8039 67.5828L48.1815 67.5572L48.5577 67.5345L48.9325 67.5147L49.3056 67.4978L49.6772 67.4837L50.0472 67.4724L50.4154 67.4638L50.7819 67.458L51.1466 67.4548L51.5095 67.4542L51.8704 67.4562L52.2294 67.4608L52.5864 67.4678L52.9413 67.4772L53.2942 67.4891L53.6449 67.5033L53.9935 67.5198L54.3398 67.5386L54.6839 67.5595L55.0256 67.5826L55.365 67.6079L55.702 67.6351L56.0366 67.6644L56.3687 67.6956L56.6983 67.7288L57.0254 67.7637L57.3499 67.8005L57.6718 67.839L57.991 67.8792L58.3076 67.921L58.6214 67.9644L58.9325 68.0093L59.2408 68.0557L59.5464 68.1035L59.8491 68.1527L60.1489 68.2031L60.4459 68.2548L60.7399 68.3077L61.031 68.3617L61.3192 68.4168L61.6044 68.4729L61.8865 68.5299L62.1657 68.5879L62.4418 68.6466L62.7149 68.7062L62.9848 68.7664L63.2517 68.8274L63.5155 68.8889L63.7762 68.951L64.0337 69.0135L64.2881 69.0765L64.5393 69.1398L64.7873 69.2035L65.0322 69.2673L65.2739 69.3314L65.5124 69.3956L65.7476 69.4598L65.9797 69.5241L66.2086 69.5883L66.4342 69.6524L66.6567 69.7163L66.8759 69.7799L67.0919 69.8433L67.3047 69.9064L67.5143 69.969L67.7207 70.0311L67.9238 70.0927L68.1238 70.1538L68.3206 70.2142L68.5142 70.2738L68.7046 70.3328L68.8918 70.3909L69.0759 70.4481L69.2568 70.5044L69.4346 70.5597L69.6093 70.614L69.7808 70.6671L69.9493 70.7191L70.1147 70.7699L70.277 70.8194L70.4363 70.8677L70.5925 70.9145L70.7458 70.9599L70.8961 71.0038L71.0434 71.0462L71.1877 71.087L71.3292 71.1262L71.4677 71.1636L71.6034 71.1994L71.7362 71.2333L71.8663 71.2654L71.9935 71.2957L72.118 71.3239L72.2397 71.3503L72.3588 71.3745L72.4752 71.3967L72.5889 71.4168L72.7001 71.4347L72.8087 71.4504L72.9147 71.4638L73.0183 71.475L73.1194 71.4838L73.218 71.4902L73.3143 71.4942L73.4082 71.4957L73.4998 71.4948L73.5892 71.4913L73.6763 71.4852L73.7612 71.4765L73.8439 71.4651L73.9246 71.451L74.0032 71.4343L74.0798 71.4147L74.1544 71.3924L74.227 71.3673L74.2978 71.3393L74.3667 71.3084L74.4339 71.2746L74.4993 71.2379L74.563 71.1981L74.625 71.1554L74.6855 71.1097L74.7444 71.0609L74.8018 71.0091L74.8577 70.9542L74.9122 70.8961L74.9654 70.8349L75.0173 70.7705L75.0679 70.703L75.1173 70.6323L75.1656 70.5583L75.2128 70.4811L75.2589 70.4007L75.3041 70.317L75.3483 70.2301L75.3917 70.1398L75.4342 70.0463L75.476 69.9494L75.517 69.8493L75.5574 69.7458L75.5972 69.639L75.6364 69.5288L75.6751 69.4153L75.7134 69.2984L75.7514 69.1782L75.789 69.0546L75.8263 68.9277L75.8634 68.7974L75.9003 68.6638L75.9372 68.5268L75.974 68.3864L76.0108 68.2427L76.0477 68.0957L76.0847 67.9453L76.1219 67.7916L76.1593 67.6346L76.197 67.4742L76.2351 67.3106L76.2736 67.1437L76.3125 66.9735L76.352 66.8L76.392 66.6233L76.4327 66.4433L76.474 66.2601L76.5161 66.0737L76.5589 65.8842L76.6026 65.6914L76.6473 65.4956L76.6928 65.2966L76.7394 65.0944L76.7871 64.8893L76.8358 64.681L76.8858 64.4698L76.937 64.2555L76.9894 64.0383L77.0432 63.8181L77.0983 63.595L77.1549 63.369L77.2129 63.1402L77.2725 62.9085L77.3337 62.674L77.3965 62.4368L77.4609 62.1969L77.5271 61.9543L77.5951 61.709L77.6649 61.4611L77.7366 61.2106L77.8102 60.9576L77.8857 60.7021L77.9633 60.4442L78.0429 60.1838L78.1246 59.9211L78.2084 59.656L78.2944 59.3886L78.3827 59.1191L78.4732 58.8473L78.566 58.5734L78.6612 58.2973L78.7587 58.0193L78.8587 57.7392L78.9611 57.4571L79.066 57.1732L79.1735 56.8874L79.2835 56.5998L79.3961 56.3105L79.5114 56.0195L79.6293 55.7268L79.75 55.4325L79.8734 55.1367L79.9995 54.8395L80.1285 54.5408L80.2603 54.2407L80.3949 53.9394L80.5324 53.6368L80.6728 53.333L80.8162 53.028L80.9625 52.722L81.1118 52.415L81.2641 52.107L81.4195 51.7981L81.5779 51.4885L81.7393 51.178L81.9039 50.8668L82.0716 50.555L82.2424 50.2426L82.4163 49.9297L82.5934 49.6163L82.7737 49.3025L82.9571 48.9884L83.1438 48.6741L83.3337 48.3595L83.5268 48.0448L83.7231 47.7301L83.9227 47.4153L84.1255 47.1006L84.3316 46.7861L84.5409 46.4717L84.7535 46.1576L84.9694 45.8438L85.1885 45.5304L85.411 45.2175L85.6367 44.9051L85.8657 44.5934L86.0979 44.2822L86.3334 43.9718L86.5722 43.6623L86.8143 43.3535L87.0596 43.0457L87.3082 42.7389L87.56 42.4332L87.8151 42.1286L88.0734 41.8252L88.3349 41.5231L88.5996 41.2223L88.8676 40.923L89.1386 40.6251L89.4129 40.3287L89.6903 40.0339L89.9709 39.7408L90.2545 39.4494L90.5413 39.1599L90.8311 38.8722L91.1241 38.5864L91.42 38.3026L91.7189 38.0209L92.0209 37.7413L92.3258 37.4639L92.6337 37.1888L92.9444 36.9159L93.2581 36.6455L93.5746 36.3775L93.894 36.112L94.2161 35.8491L94.5411 35.5888L94.8687 35.3311L95.1991 35.0763L95.5321 34.8242L95.8678 34.575L96.2061 34.3288L96.5469 34.0855L96.8903 33.8453L97.2361 33.6081L97.5844 33.3742L97.9351 33.1434L98.2882 32.9159L98.6436 32.6918L99.0013 32.471L99.3612 32.2537L99.7234 32.0399L100.088 31.8295L100.454 31.6228L100.822 31.4198L101.193 31.2204L101.565 31.0248L101.94 30.8329L102.316 30.6449L102.694 30.4608L103.074 30.2807L103.455 30.1045L103.838 29.9323L104.223 29.7642L104.609 29.6003L104.997 29.4404L105.387 29.2848L105.777 29.1334L106.169 28.9864L106.562 28.8436L106.957 28.7052L107.353 28.5711L107.749 28.4416L108.147 28.3164L108.546 28.1958L108.946 28.0798L109.346 27.9683L109.748 27.8614L110.15 27.7591L110.552 27.6615L110.956 27.5686L111.36 27.4804L111.764 27.3969L112.169 27.3183L112.574 27.2444L112.98 27.1754L113.386 27.1112L113.792 27.0519L114.198 26.9974L114.604 26.9479L115.01 26.9033L115.416 26.8637L115.822 26.829L116.227 26.7993L116.633 26.7746L117.038 26.7549L117.442 26.7402L117.846 26.7306L118.25 26.726L118.653 26.7265L119.055 26.732L119.456 26.7426L119.857 26.7583L120.257 26.7791L120.655 26.8049L121.053 26.8359L121.45 26.8719L121.845 26.913L122.239 26.9593L122.632 27.0106L123.024 27.067L123.414 27.1285L123.803 27.1951L124.19 27.2668L124.575 27.3435L124.959 27.4253L125.341 27.5121L125.721 27.604L126.099 27.701L126.475 27.8029L126.849 27.9099L127.221 28.0219L127.591 28.1388L127.959 28.2607L128.324 28.3876L128.687 28.5194L129.048 28.6561L129.406 28.7977L129.761 28.9442L130.114 29.0955L130.464 29.2516L130.812 29.4126L131.157 29.5783L131.498 29.7488L131.837 29.924L132.173 30.1039L132.506 30.2884L132.836 30.4776L133.162 30.6714L133.486 30.8698L133.806 31.0727L134.123 31.2801L134.436 31.492L134.746 31.7083L135.052 31.929L135.355 32.1541L135.654 32.3834L135.95 32.6171L136.241 32.855L136.529 33.0972L136.814 33.3435L137.094 33.5938L137.37 33.8483L137.643 34.1068L137.911 34.3693L138.176 34.6357L138.436 34.906L138.692 35.1802L138.944 35.4581L139.191 35.7398L139.434 36.0252L139.673 36.3143L139.908 36.6069L140.138 36.9031L140.364 37.2028L140.585 37.5059L140.801 37.8124L141.013 38.1222L141.221 38.4353L141.423 38.7516L141.621 39.0711L141.815 39.3937L142.003 39.7193L142.187 40.0479L142.366 40.3795L142.54 40.7139L142.709 41.0511L142.873 41.3911L143.033 41.7338L143.187 42.0791L143.336 42.427L143.481 42.7774L143.62 43.1302L143.754 43.4854L143.883 43.843L144.007 44.2028L144.126 44.5647L144.24 44.9289L144.349 45.295L144.452 45.6632L144.551 46.0333L144.644 46.4053L144.731 46.7791L144.814 47.1546L144.891 47.5318L144.964 47.9106L145.031 48.2909L145.092 48.6727L145.148 49.0559L145.199 49.4405L145.245 49.8263L145.286 50.2133L145.321 50.6015L145.351 50.9907L145.375 51.381L145.395 51.7722L145.409 52.1642L145.418 52.557L145.421 52.9506L145.419 53.3449L145.412 53.7397L145.4 54.1351L145.382 54.5309L145.36 54.9272L145.331 55.3238L145.298 55.7206L145.26 56.1176L145.216 56.5148L145.167 56.912L145.113 57.3093L145.054 57.7065L144.99 58.1035L144.92 58.5003L144.846 58.8969L144.766 59.2932L144.682 59.689L144.592 60.0845L144.498 60.4794L144.398 60.8737L144.293 61.2673L144.184 61.6603L144.07 62.0525L143.951 62.4439L143.827 62.8343L143.698 63.2238L143.564 63.6123L143.426 63.9998L143.283 64.3861L143.135 64.7712L142.983 65.155L142.826 65.5376L142.664 65.9188L142.498 66.2985L142.328 66.6768L142.153 67.0535L141.974 67.4287L141.79 67.8022L141.602 68.174L141.41 68.5441L141.214 68.9123L141.013 69.2787L140.808 69.6432L140.6 70.0058L140.387 70.3663L140.17 70.7248L139.949 71.0812L139.724 71.4354L139.496 71.7874L139.264 72.1372L139.028 72.4847L138.788 72.8298L138.545 73.1726L138.298 73.513L138.048 73.8509L137.794 74.1863L137.536 74.5191L137.276 74.8494L137.012 75.177L136.745 75.502L136.474 75.8243L136.201 76.1438L135.925 76.4606L135.645 76.7746L135.363 77.0857L135.077 77.394L134.789 77.6994L134.499 78.0018L134.205 78.3013L133.909 78.5978L133.61 78.8913L133.309 79.1817L133.005 79.4691L132.699 79.7534L132.391 80.0345L132.08 80.3126L131.768 80.5874L131.453 80.8591L131.136 81.1275L130.817 81.3928L130.496 81.6548L130.174 81.9135L129.849 82.169L129.523 82.4212L129.196 82.6701L128.866 82.9156L128.535 83.1579L128.203 83.3968L127.87 83.6323L127.535 83.8645L127.198 84.0934L126.861 84.3188L126.523 84.5409L126.183 84.7596L125.843 84.9749L125.501 85.1869L125.159 85.3954L124.816 85.6006L124.473 85.8023L124.128 86.0007L123.784 86.1957L123.438 86.3873L123.093 86.5755L122.747 86.7604L122.4 86.9418L122.054 87.12L121.707 87.2947L121.36 87.4662L121.013 87.6343L120.666 87.7991L120.32 87.9605L119.973 88.1187L119.627 88.2736L119.281 88.4253L118.936 88.5737L118.59 88.7188L118.246 88.8608L117.902 88.9995L117.558 89.1351L117.215 89.2676L116.873 89.3969L116.532 89.5231L116.192 89.6462L115.853 89.7662L115.514 89.8832L115.177 89.9973L114.841 90.1083L114.506 90.2164L114.172 90.3215L113.839 90.4238L113.508 90.5232L113.178 90.6198L112.85 90.7136L112.523 90.8046L112.198 90.8929L111.874 90.9785L111.552 91.0614L111.232 91.1418L110.914 91.2195L110.597 91.2947L110.282 91.3673L109.97 91.4375L109.659 91.5053L109.35 91.5707L109.043 91.6337L108.739 91.6944L108.437 91.7529L108.136 91.8092L107.839 91.8632L107.543 91.9152L107.25 91.965L106.959 92.0128L106.67 92.0587L106.385 92.1025L106.101 92.1445L105.82 92.1846L105.542 92.223L105.266 92.2595L104.993 92.2944L104.723 92.3276L104.455 92.3592L104.191 92.3893L103.929 92.4179L103.67 92.445L103.413 92.4707L103.16 92.4951L102.909 92.5182L102.662 92.54L102.417 92.5607L102.176 92.5803L101.937 92.5987L101.701 92.6162L101.469 92.6327L101.24 92.6483L101.013 92.663L100.79 92.6769L100.57 92.6901L100.354 92.7026L100.14 92.7145L99.9296 92.7258L99.7224 92.7366L99.5184 92.7469L99.3177 92.7569L99.1202 92.7665L98.926 92.7758L98.7351 92.7849L98.5475 92.7938L98.3631 92.8025L98.182 92.8113L98.0043 92.82L97.8298 92.8288L97.6587 92.8377L97.4908 92.8468L97.3263 92.8561L97.1651 92.8656L97.0072 92.8756L96.8526 92.8859L96.7013 92.8967L96.5534 92.908L96.4087 92.9198L96.2673 92.9323L96.1292 92.9455L95.9944 92.9594L95.8628 92.9741L95.7345 92.9896L95.6095 93.0061L95.4877 93.0235L95.3691 93.0419L95.2537 93.0614L95.1415 93.082L95.0325 93.1038L94.9267 93.1268L94.824 93.151L94.7244 93.1766L94.628 93.2036L94.5346 93.2321L94.4443 93.262L94.357 93.2934L94.2727 93.3265L94.1914 93.3611L94.1131 93.3975L94.0378 93.4356L93.9653 93.4754L93.8958 93.5172L93.8291 93.5607L93.7652 93.6062L93.7041 93.6537L93.6458 93.7032L93.5902 93.7547L93.5373 93.8084L93.4871 93.8642L93.4395 93.9221L93.3945 93.9823L93.3521 94.0448L93.3121 94.1096L93.2747 94.1768L93.2397 94.2463L93.2071 94.3183L93.1769 94.3927L93.149 94.4696L93.1234 94.5491L93.1 94.6312L93.0789 94.7158L93.0599 94.8031L93.0429 94.8931L93.0281 94.9858L93.0153 95.0813L93.0044 95.1795L92.9955 95.2805L92.9884 95.3844L92.9832 95.4911L92.9798 95.6007L92.9781 95.7132L92.9781 95.8286L92.9797 95.947L92.9829 96.0684L92.9876 96.1928L92.9938 96.3203L93.0015 96.4508L93.0105 96.5843L93.0208 96.721L93.0324 96.8607L93.0452 97.0036L93.0592 97.1497L93.0743 97.2988L93.0905 97.4512L93.1076 97.6067L93.1257 97.7655L93.1447 97.9274L93.1645 98.0926L93.185 98.261L93.2063 98.4326L93.2283 98.6075L93.2508 98.7856L93.2739 98.9669L93.2975 99.1516L93.3215 99.3394L93.3459 99.5306L93.3706 99.725L93.3956 99.9227L93.4207 100.124L93.446 100.328L93.4714 100.535L93.4968 100.746L93.5222 100.96L93.5474 101.177L93.5726 101.398L93.5975 101.621L93.6221 101.848L93.6464 102.078L93.6704 102.312L93.6939 102.548L93.7168 102.788L93.7393 103.03L93.7611 103.276L93.7822 103.525L93.8026 103.778L93.8222 104.033L93.841 104.291L93.8589 104.553L93.8758 104.817L93.8917 105.084L93.9065 105.355L93.9201 105.628L93.9326 105.904L93.9439 106.184L93.9539 106.466L93.9625 106.751L93.9697 107.038L93.9754 107.329L93.9797 107.622L93.9823 107.918L93.9834 108.217L93.9827 108.518L93.9804 108.822L93.9763 109.129L93.9704 109.438L93.9625 109.75L93.9528 110.064L93.9411 110.38L93.9273 110.699L93.9115 111.021L93.8936 111.344L93.8735 111.67L93.8512 111.998L93.8266 112.328L93.7998 112.661L93.7706 112.995L93.7389 113.332L93.7049 113.671L93.6684 114.011L93.6293 114.354L93.5877 114.698L93.5435 115.044L93.4966 115.392L93.4471 115.741L93.3949 116.092L93.3398 116.445L93.282 116.8L93.2214 117.155L93.1579 117.513L93.0915 117.871L93.0221 118.231L92.9498 118.592L92.8745 118.954L92.7962 119.318L92.7148 119.682L92.6303 120.048L92.5427 120.415L92.4519 120.782L92.358 121.15L92.2609 121.519L92.1605 121.889L92.0569 122.26L91.95 122.631L91.8399 123.002L91.7264 123.374L91.6096 123.747L91.4894 124.119L91.3658 124.492L91.2389 124.866L91.1085 125.239L90.9748 125.612L90.8376 125.986L90.6969 126.359L90.5528 126.733L90.4052 127.106L90.2541 127.478L90.0995 127.851L89.9414 128.223L89.7798 128.595L89.6147 128.966L89.446 129.336L89.2738 129.706L89.0981 130.075L88.9189 130.444L88.7361 130.811L88.5498 131.178L88.3599 131.543L88.1665 131.907L87.9696 132.271L87.7691 132.633L87.5651 132.994L87.3576 133.353L87.1466 133.711L86.9321 134.067L86.714 134.422L86.4925 134.776L86.2675 135.127L86.0391 135.477L85.8072 135.825L85.5718 136.172L85.333 136.516L85.0909 136.858L84.8453 137.198L84.5964 137.536L84.3441 137.872L84.0884 138.205L83.8295 138.536L83.5672 138.864L83.3017 139.191L83.033 139.514L82.761 139.835L82.4859 140.153L82.2075 140.469L81.926 140.781L81.6414 141.091L81.3538 141.398L81.0631 141.702L80.7693 142.003L80.4726 142.3L80.1729 142.595L79.8703 142.886L79.5648 143.174L79.2564 143.458L78.9453 143.739L78.6314 144.017L78.3147 144.291L77.9953 144.562L77.6733 144.829L77.3486 145.092L77.0214 145.351L76.6917 145.607L76.3594 145.858L76.0248 146.106L75.6877 146.35L75.3483 146.59L75.0065 146.825L74.6625 147.057L74.3163 147.284L73.9679 147.508L73.6175 147.727L73.2649 147.941L72.9104 148.151L72.5538 148.357L72.1954 148.559L71.8351 148.755L71.4731 148.948L71.1092 149.136L70.7437 149.319L70.3766 149.497L70.0078 149.671L69.6376 149.84L69.2659 150.004L68.8927 150.164L68.5183 150.318L68.1425 150.468L67.7655 150.613L67.3873 150.753L67.008 150.888L66.6277 151.018L66.2464 151.142L65.8641 151.262L65.481 151.377L65.0971 151.486L64.7124 151.591L64.3271 151.69L63.9411 151.784L63.5546 151.873L63.1676 151.956L62.7802 152.035L62.3924 152.108L62.0043 152.175L61.616 152.238L61.2275 152.295L60.839 152.347L60.4504 152.393L60.0618 152.434L59.6734 152.469L59.2851 152.5L58.897 152.524L58.5092 152.544L58.1218 152.558L57.7349 152.566L57.3484 152.569L56.9625 152.567L56.5773 152.559L56.1927 152.546L55.8089 152.527L55.426 152.503L55.0439 152.473L54.6628 152.438L54.2828 152.398L53.9038 152.352L53.5261 152.3L53.1495 152.243L52.7743 152.181L52.4004 152.113L52.0279 152.04L51.657 151.962L51.2876 151.878L50.9199 151.789L50.5538 151.694L50.1895 151.594L49.827 151.489L49.4664 151.378L49.1078 151.263L48.7512 151.141L48.3966 151.015L48.0442 150.884L47.694 150.747L47.3461 150.605L47.0005 150.458L46.6573 150.305L46.3165 150.148L45.9783 149.985L45.6426 149.818L45.3096 149.645L44.9792 149.468L44.6516 149.285L44.3268 149.098L44.0049 148.906L43.6858 148.708L43.3698 148.507L43.0568 148.3L42.7469 148.088L42.4401 147.872L42.1365 147.651L41.8362 147.425L41.5391 147.195L41.2455 146.96L40.9552 146.721L40.6684 146.477L40.3851 146.229L40.1053 145.977L39.8292 145.72L39.5567 145.459L39.2878 145.193L39.0228 144.924L38.7615 144.65L38.5041 144.372L38.2505 144.09L38.0009 143.804L37.7552 143.515L37.5135 143.221L37.2759 142.923L37.0423 142.622L36.8129 142.317L36.5877 142.008L36.3666 141.696L36.1498 141.38L35.9372 141.06L35.7289 140.738L35.525 140.411L35.3255 140.082L35.1303 139.749L34.9396 139.413L34.7533 139.073L34.5715 138.731L34.3943 138.386L34.2215 138.037L34.0534 137.686L33.8898 137.332L33.7309 136.975L33.5766 136.615L33.4269 136.253L33.282 135.888L33.1417 135.521L33.0062 135.151L32.8753 134.779L32.7493 134.404L32.628 134.027L32.5115 133.648L32.3998 133.267L32.2929 132.884L32.1908 132.498L32.0936 132.111L32.0011 131.722L31.9136 131.331L31.8309 130.939L31.753 130.544L31.68 130.149L31.6119 129.751L31.5487 129.352L31.4903 128.952L31.4368 128.551L31.3882 128.148L31.3444 127.744L31.3055 127.339L31.2715 126.932L31.2423 126.525L31.218 126.117L31.1986 125.708L31.184 125.298L31.1742 124.888L31.1692 124.477L31.1691 124.065L31.1737 123.653L31.1831 123.241L31.1973 122.828L31.2163 122.414L31.2399 122.001L31.2684 121.587L31.3015 121.173L31.3393 120.759L31.3817 120.346L31.4288 119.932L31.4805 119.518L31.5368 119.105L31.5977 118.692L31.6631 118.279L31.7331 117.867L31.8075 117.455L31.8864 117.044L31.9698 116.633L32.0575 116.223L32.1496 115.814L32.246 115.405L32.3468 114.997L32.4518 114.59L32.5611 114.185L32.6746 113.78L32.7922 113.376L32.914 112.974L33.0398 112.572L33.1697 112.172L33.3036 111.773L33.4415 111.376L33.5833 110.98L33.729 110.585L33.8785 110.192L34.0318 109.801L34.1889 109.411L34.3497 109.023L34.5141 108.636L34.6821 108.252L34.8538 107.869L35.0289 107.488L35.2075 107.109L35.3895 106.732L35.5748 106.357L35.7635 105.984L35.9554 105.614L36.1506 105.245L36.3489 104.879L36.5502 104.515L36.7547 104.153L36.9621 103.793L37.1724 103.436L37.3857 103.081L37.6017 102.729L37.8205 102.379L38.042 102.032L38.2662 101.687L38.4929 101.345L38.7222 101.006L38.9539 100.669L39.188 100.335L39.4245 100.004L39.6633 99.6749L39.9042 99.349L40.1474 99.026L40.3926 98.7057L40.6399 98.3884L40.8891 98.0739L41.1402 97.7624L41.3932 97.4538L41.648 97.1481L41.9045 96.8455L42.1626 96.5458L42.4223 96.2492L42.6835 95.9556L42.9462 95.665L43.2103 95.3775L43.4757 95.0931L43.7423 94.8119L44.0101 94.5337L44.2791 94.2586L44.5491 93.9867L44.8202 93.718L45.0921 93.4524L45.3649 93.19L45.6385 92.9307L45.9129 92.6747L46.1879 92.4218L46.4635 92.1721L46.7396 91.9256L47.0162 91.6823L47.2932 91.4422L47.5705 91.2053L47.8481 90.9716L48.1258 90.7411L48.4038 90.5138L48.6817 90.2897L48.9597 90.0687L49.2377 89.851L49.5155 89.6364L49.7931 89.4249L50.0704 89.2167L50.3475 89.0115L50.6241 88.8095L50.9004 88.6107L51.1761 88.4149L51.4512 88.2222L51.7257 88.0326L51.9995 87.8461L52.2725 87.6626L52.5447 87.4822L52.8161 87.3047L53.0865 87.1303L53.3559 86.9588L53.6242 86.7903L53.8914 86.6247L54.1574 86.462L54.4222 86.3022L54.6857 86.1453L54.9478 85.9912L55.2086 85.8399L55.4678 85.6913L55.7256 85.5455L55.9817 85.4025L56.2362 85.2621L56.4891 85.1244L56.7402 84.9893L56.9895 84.8568L57.237 84.7269L57.4826 84.5995L57.7262 84.4746L57.9678 84.3521L58.2074 84.2321L58.4449 84.1145L58.6803 83.9992L58.9135 83.8862L59.1444 83.7755L59.3731 83.667L59.5994 83.5607L59.8234 83.4565L60.0449 83.3545L60.264 83.2545L60.4807 83.1566L60.6947 83.0606L60.9063 82.9665L61.1152 82.8744L61.3214 82.7841L61.5249 82.6955L61.7258 82.6088L61.9238 82.5237L62.1191 82.4403L62.3116 82.3585L62.5011 82.2783L62.6878 82.1995L62.8716 82.1223L63.0524 82.0464L63.2302 81.9719L63.4051 81.8987L63.5768 81.8268L63.7456 81.7561L63.9112 81.6865L64.0737 81.618L64.2331 81.5506L64.3893 81.4842L64.5423 81.4188L64.6922 81.3542L64.8388 81.2904L64.9822 81.2275L65.1223 81.1653L65.2591 81.1037L65.3927 81.0428L65.5229 80.9825L65.6499 80.9226L65.7735 80.8632L65.8938 80.8042L66.0107 80.7456L66.1243 80.6872L66.2345 80.6291L66.3414 80.5712L66.4448 80.5134L66.5449 80.4557L66.6416 80.3979L66.7349 80.3401L66.8248 80.2823L66.9113 80.2243L66.9945 80.166L67.0742 80.1075L67.1506 80.0487L67.2235 79.9895L67.2931 79.9299L67.3593 79.8698L67.4222 79.8091L67.4817 79.7479L67.5378 79.686L67.5906 79.6234L67.6401 79.56L67.6862 79.4959L67.729 79.4308L67.7686 79.3649L67.8048 79.2979L67.8378 79.23L67.8676 79.1609L67.8941 79.0908L67.9174 79.0194L67.9375 78.9468L67.9544 78.873L67.9682 78.7978L67.9789 78.7212L67.9865 78.6432L67.991 78.5636L67.9924 78.4826L67.9908 78.4L67.9862 78.3157L67.9786 78.2298L67.9681 78.1421L67.9547 78.0527L67.9384 77.9614L67.9192 77.8683L67.8972 77.7733L67.8724 77.6763L67.8449 77.5773L67.8147 77.4763L67.7818 77.3732L67.7462 77.268L67.708 77.1606L67.6673 77.051L67.6241 76.9392L67.5783 76.8251L67.5301 76.7087L67.4795 76.5899L67.4265 76.4687L67.3712 76.345L67.3136 76.2189L67.2538 76.0903L67.1918 75.9592L67.1277 75.8255L67.0615 75.6891L66.9932 75.5502L66.9229 75.4086L66.8507 75.2643L66.7765 75.1172L66.7005 74.9674L66.6227 74.8148L66.5431 74.6594L66.4619 74.5012L66.3789 74.3402L66.2944 74.1762L66.2084 74.0093L66.1208 73.8395L66.0318 73.6668L65.9414 73.4911L65.8497 73.3124L65.7567 73.1307L65.6625 72.9459L65.5671 72.7582L65.4707 72.5673L65.3731 72.3734L65.2746 72.1765L65.1751 71.9764L65.0748 71.7732L64.9737 71.5669L64.8717 71.3574L64.7691 71.1448L64.6659 70.9291L64.562 70.7102L64.4576 70.4881L64.3528 70.2629L64.2476 70.0345L64.142 69.803L64.0361 69.5683L63.93 69.3304L63.8238 69.0893L63.7174 68.845L63.611 68.5976L63.5046 68.347L63.3983 68.0933L63.2922 67.8364L63.1862 67.5763L63.0805 67.3131L62.9751 67.0468L62.8702 66.7773L62.7656 66.5047L62.6616 66.229L62.5581 65.9503L62.4553 65.6684L62.3532 65.3835L62.2518 65.0955L62.1512 64.8045L62.0515 64.5105L61.9527 64.2135L61.8549 63.9136L61.7582 63.6106L61.6626 63.3047L61.5681 62.996L61.4749 62.6843L61.3829 62.3698L61.2924 62.0524L61.2032 61.7322L61.1154 61.4093L61.0292 61.0835L60.9446 60.7551L60.8616 60.424L60.7803 60.0902L60.7008 59.7537L60.623 59.4147L60.5471 59.0731L60.4731 58.729L60.4011 58.3824L60.3311 58.0333L60.2632 57.6818L60.1974 57.3279L60.1338 56.9717L60.0724 56.6132L60.0133 56.2524L59.9566 55.8895L59.9022 55.5243L59.8502 55.157L59.8008 54.7876L59.7538 54.4162L59.7094 54.0428L59.6677 53.6674L59.6287 53.2902L59.5923 52.9111L59.5587 52.5302L59.5279 52.1475L59.5 51.7631L59.475 51.3771L59.4529 50.9895L59.4338 50.6004L59.4177 50.2097L59.4046 49.8176L59.3947 49.4242L59.3879 49.0294L59.3842 48.6333L59.3838 48.2361L59.3866 47.8376L59.3927 47.4381L59.4021 47.0376L59.4149 46.636L59.431 46.2336L59.4506 45.8302L59.4736 45.4261L59.5001 45.0213L59.53 44.6157L59.5635 44.2096L59.6006 43.8029L59.6412 43.3957L59.6855 42.9881L59.7334 42.5801L59.785 42.1719L59.8402 41.7634L59.8991 41.3547L59.9618 40.946L60.0282 40.5372L60.0983 40.1284L60.1723 39.7197L60.25 39.3113L60.3315 38.903L60.4169 38.495L60.5061 38.0874L60.5992 37.6803L60.6961 37.2736L60.7969 36.8675L60.9016 36.4621L61.0102 36.0573L61.1226 35.6533L61.239 35.2502L61.3593 34.848L61.4835 34.4468L61.6117 34.0466L61.7437 33.6476L61.8797 33.2497L62.0196 32.8531L62.1634 32.4578L62.3112 32.064L62.4629 31.6716L62.6184 31.2807L62.7779 30.8914L62.9414 30.5038L63.1087 30.118L63.2799 29.7339L63.4549 29.3518L63.6339 28.9716L63.8167 28.5934L64.0034 28.2173L64.1939 27.8433L64.3882 27.4716L64.5863 27.1021L64.7882 26.735L64.9939 26.3704L65.2034 26.0082L65.4165 25.6486L65.6334 25.2916L65.854 24.9372L66.0783 24.5857L66.3062 24.2369L66.5377 23.891L66.7729 23.5481L67.0116 23.2082L67.2539 22.8713L67.4996 22.5376L67.7489 22.2071L68.0017 21.8798L68.2578 21.5559L68.5174 21.2353L68.7803 20.9182L69.0466 20.6046L69.3161 20.2946L69.5889 19.9881L69.865 19.6854L70.1442 19.3864L70.4266 19.0911L70.7121 18.7997L71.0007 18.5123L71.2923 18.2287L71.5869 17.9492L71.8844 17.6738L72.1849 17.4025L72.4882 17.1353L72.7943 16.8724L73.1032 16.6138L73.4148 16.3594L73.7291 16.1095L74.046 15.8639L74.3655 15.6229L74.6876 15.3863L75.0121 15.1543L75.3391 14.927L75.6684 14.7042L76.0001 14.4862L76.3341 14.2729L76.6702 14.0644L77.0086 13.8607L77.349 13.6619L77.6916 13.4679L78.0361 13.2789L78.3826 13.0949L78.7309 12.9159L79.0812 12.7419L79.4331 12.5731L79.7868 12.4093L80.1422 12.2507L80.4992 12.0972L80.8577 11.949L81.2177 11.806L81.5791 11.6683L81.9419 11.5359L82.3059 11.4088L82.6712 11.287L83.0377 11.1706L83.4053 11.0597L83.774 10.9541L84.1436 10.854L84.5142 10.7593L84.8856 10.6701L85.2578 10.5864L85.6307 10.5083L86.0043 10.4356L86.3785 10.3686L86.7532 10.307L87.1284 10.2511L87.5041 10.2007L87.88 10.1559L88.2562 10.1168L88.6326 10.0832L89.0092 10.0553L89.3858 10.033L89.7625 10.0164L90.1391 10.0054L90.5156 10L90.8918 10.0003L91.2679 10.0062L91.6435 10.0178L92.0189 10.035L92.3937 10.0578L92.768 10.0863L93.1418 10.1205L93.5149 10.1602L93.8872 10.2056L94.2588 10.2566L94.6295 10.3132L94.9993 10.3754L95.3681 10.4432L95.7359 10.5166L96.1026 10.5955L96.468 10.68L96.8323 10.77L97.1952 10.8655L97.5568 10.9665L97.9169 11.073L98.2755 11.1849L98.6326 11.3023L98.988 11.4251L99.3418 11.5534L99.6938 11.6869L100.044 11.8258L100.392 11.9701L100.739 12.1196L101.083 12.2744L101.425 12.4345L101.766 12.5997L102.104 12.7701L102.44 12.9457L102.773 13.1264L103.104 13.3122L103.433 13.503L103.759 13.6988L104.083 13.8996L104.404 14.1053L104.723 14.3159L105.039 14.5314L105.352 14.7517L105.663 14.9768L105.97 15.2066L106.275 15.4411L106.577 15.6803L106.875 15.924L107.171 16.1724L107.464 16.4252L107.753 16.6825L108.04 16.9442L108.323 17.2103L108.603 17.4807L108.879 17.7554L109.152 18.0343L109.422 18.3174L109.688 18.6046L109.951 18.8958L110.21 19.1911L110.466 19.4903L110.718 19.7934L110.967 20.1004L111.211 20.4111L111.452 20.7256L111.69 21.0438L111.923 21.3656L112.153 21.6909L112.379 22.0198L112.6 22.352L112.818 22.6877L113.032 23.0267L113.242 23.3689L113.448 23.7144L113.65 24.0629L113.848 24.4146L114.042 24.7692L114.232 25.1268L114.417 25.4873L114.599 25.8506L114.776 26.2166L114.949 26.5853L115.118 26.9567L115.282 27.3306L115.443 27.707L115.599 28.0858L115.75 28.4669L115.898 28.8504L116.041 29.2361L116.18 29.6239L116.314 30.0138L116.444 30.4057L116.57 30.7996L116.692 31.1954L116.809 31.5929L116.921 31.9923L117.029 32.3933L117.133 32.7959L117.233 33.2L117.328 33.6056L117.419 34.0126L117.505 34.421L117.587 34.8306L117.664 35.2414L117.737 35.6533L117.806 36.0663L117.871 36.4803L117.931 36.8952L117.986 37.3109L118.037 37.7274L118.084 38.1447L118.127 38.5626L118.165 38.981L118.199 39.4L118.229 39.8194L118.254 40.2392L118.276 40.6593L118.293 41.0796L118.305 41.5001L118.314 41.9207L118.318 42.3414L118.318 42.762L118.314 43.1826L118.306 43.6029L118.294 44.0231L118.278 44.443L118.257 44.8625L118.233 45.2816L118.205 45.7003L118.172 46.1184L118.136 46.5359L118.096 46.9527L118.052 47.3688L118.004 47.7841L117.952 48.1986L117.897 48.6122L117.838 49.0248L117.775 49.4363L117.708 49.8468L117.638 50.2562L117.565 50.6644L117.487 51.0713L117.407 51.4769L117.322 51.8811L117.235 52.2839L117.144 52.6852L117.049 53.085L116.952 53.4833L116.851 53.8799L116.746 54.2748L116.639 54.668L116.529 55.0594L116.415 55.449L116.299 55.8367L116.179 56.2224L116.057 56.6062L115.932 56.988L115.804 57.3677L115.673 57.7453L115.539 58.1208L115.403 58.494L115.265 58.865L115.123 59.2338L114.979 59.6002L114.833 59.9643L114.685 60.326L114.534 60.6852L114.38 61.042L114.225 61.3963L114.067 61.748L113.908 62.0972L113.746 62.4438L113.582 62.7877L113.416 63.1289L113.249 63.4675L113.08 63.8033L112.908 64.1364L112.736 64.4667L112.561 64.7942L112.385 65.1189L112.208 65.4407L112.029 65.7596L111.849 66.0756L111.667 66.3887L111.485 66.6989L111.301 67.0061L111.115 67.3103L110.929 67.6115L110.742 67.9097L110.554 68.2049L110.365 68.497L110.175 68.7861L109.985 69.072L109.793 69.355L109.602 69.6348L109.409 69.9115L109.216 70.1851L109.023 70.4556L108.829 70.723L108.635 70.9873L108.441 71.2484L108.247 71.5064L108.052 71.7612L107.858 72.0129L107.663 72.2615L107.469 72.507L107.275 72.7493L107.081 72.9884L106.887 73.2245L106.693 73.4574L106.5 73.6872L106.308 73.914L106.116 74.1376L105.924 74.3581L105.733 74.5755L105.543 74.7899L105.354 75.0012L105.165 75.2095L104.978 75.4147L104.791 75.6169L104.605 75.8161L104.421 76.0124L104.237 76.2056L104.055 76.396L103.874 76.5834L103.694 76.7679L103.515 76.9494L103.338 77.1282L103.163 77.3041L102.989 77.4772L102.816 77.6475L102.645 77.815L102.476 77.9798L102.308 78.1418L102.143 78.3012L101.979 78.458L101.817 78.6121L101.657 78.7636L101.499 78.9126L101.343 79.059L101.189 79.2029L101.037 79.3444L100.887 79.4835L100.74 79.6201L100.595 79.7544L100.452 79.8864L100.312 80.0161L100.174 80.1436L100.038 80.2688L99.9049 80.3919L99.7743 80.5129L99.6463 80.6318L99.5209 80.7486L99.3981 80.8635L99.2781 80.9764L99.1607 81.0874L99.0461 81.1965L98.9343 81.3038L98.8253 81.4093L98.7192 81.5131L98.6159 81.6152L98.5156 81.7157L98.4183 81.8145L98.3239 81.9118L98.2325 82.0077L98.1442 82.1021L98.0589 82.1951L97.9768 82.2867L97.8978 82.3771L97.8219 82.4662L97.7491 82.5541L97.6796 82.6408L97.6133 82.7265L97.5502 82.8111L97.4903 82.8947L97.4337 82.9774L97.3804 83.0592L97.3304 83.1402L97.2838 83.2204L97.2404 83.2999L97.2004 83.3787L97.1637 83.4569L97.1305 83.5345L97.1006 83.6116L97.074 83.6883L97.0509 83.7646L97.0312 83.8405L97.0149 83.9161L97.002 83.9915L96.9925 84.0667L96.9864 84.1418L96.9837 84.2168L96.9845 84.2918L96.9887 84.3669L96.9963 84.442L97.0074 84.5173L97.0218 84.5928L97.0397 84.6686L97.0609 84.7446L97.0856 84.8211L97.1136 84.8979L97.1451 84.9753L97.1799 85.0531L97.2181 85.1316L97.2596 85.2107L97.3044 85.2905L97.3526 85.3711L97.4041 85.4524L97.4589 85.5346L97.5169 85.6177L97.5783 85.7018L97.6428 85.7869L97.7106 85.873L97.7816 85.9603L97.8558 86.0487L97.9331 86.1384L98.0135 86.2293L98.0971 86.3216L98.1837 86.4152L98.2734 86.5102L98.3661 86.6067L98.4619 86.7047L98.5606 86.8043L98.6622 86.9055L98.7667 87.0084L98.8742 87.1129L98.9844 87.2193L99.0975 87.3274L99.2134 87.4373L99.332 87.5492L99.4533 87.6629L99.5772 87.7787L99.7038 87.8965L99.833 88.0163L99.9648 88.1382L100.099 88.2623L100.236 88.3885L100.375 88.517L100.516 88.6477L100.66 88.7808L100.806 88.9161L100.955 89.0538L101.105 89.194L101.258 89.3366L101.413 89.4816L101.57 89.6292L101.729 89.7793L101.89 89.932L102.053 90.0873L102.217 90.2452L102.384 90.4058L102.552 90.5691L102.722 90.7351L102.894 90.9039L103.067 91.0755L103.242 91.2498L103.418 91.427L103.596 91.607L103.775 91.7899L103.955 91.9757L104.137 92.1644L104.32 92.3561L104.504 92.5507L104.689 92.7483L104.875 92.9489L105.062 93.1524L105.25 93.359L105.439 93.5687L105.629 93.7814L105.82 93.9971L106.011 94.2159L106.202 94.4379L106.395 94.6629L106.588 94.891L106.781 95.1222L106.974 95.3566L107.168 95.594L107.363 95.8346L107.557 96.0783L107.751 96.3252L107.946 96.5752L108.14 96.8283L108.335 97.0846L108.529 97.344L108.723 97.6065L108.917 97.8722L109.11 98.141L109.304 98.4129L109.496 98.6879L109.688 98.966L109.88 99.2473L110.071 99.5316L110.261 99.8189L110.45 100.109L110.639 100.403L110.827 100.699L111.013 100.999L111.199 101.302L111.384 101.607L111.567 101.916L111.75 102.227L111.93 102.542L112.11 102.859L112.288 103.179L112.465 103.502L112.64 103.828L112.814 104.157L112.986 104.488L113.156 104.823L113.325 105.16L113.491 105.5L113.656 105.842L113.819 106.187L113.98 106.535L114.139 106.885L114.295 107.238L114.45 107.594L114.602 107.952L114.752 108.312L114.9 108.675L115.045 109.04L115.187 109.407L115.328 109.777L115.465 110.149L115.6 110.523L115.732 110.9L115.862 111.278L115.989 111.659L116.113 112.042L116.234 112.426L116.352 112.813L116.467 113.202L116.579 113.592L116.688 113.984L116.794 114.378L116.897 114.774L116.996 115.171L117.092 115.57L117.185 115.971L117.275 116.373L117.361 116.776L117.443 117.181L117.523 117.587L117.598 117.995L117.67 118.403L117.739 118.813L117.804 119.224L117.865 119.636L117.922 120.049L117.976 120.463L118.026 120.878L118.072 121.294L118.115 121.71L118.153 122.127L118.187 122.545L118.218 122.964L118.244 123.382L118.267 123.802L118.285 124.221L118.3 124.641L118.31 125.062L118.317 125.482L118.319 125.903L118.317 126.323L118.31 126.744L118.3 127.165L118.285 127.585L118.267 128.005L118.244 128.425L118.216 128.845L118.185 129.264L118.149 129.683L118.108 130.101L118.064 130.519L118.015 130.936L117.962 131.352L117.904 131.767L117.842 132.182L117.776 132.595L117.705 133.008L117.63 133.419L117.55 133.829L117.466 134.238L117.378 134.646L117.285 135.053L117.188 135.458L117.087 135.861L116.981 136.263L116.871 136.663L116.756 137.062L116.637 137.458L116.514 137.853L116.386 138.246L116.254 138.637L116.118 139.026L115.977 139.413L115.832 139.798L115.682 140.18L115.529 140.56L115.371 140.938L115.209 141.313L115.042 141.686L114.871 142.056L114.696 142.424L114.517 142.789L114.334 143.151L114.147 143.51L113.955 143.866L113.759 144.219L113.56 144.57L113.356 144.917L113.148 145.261L112.936 145.602L112.72 145.939L112.501 146.273L112.277 146.604L112.049 146.931L111.818 147.255L111.583 147.575L111.344 147.892L111.101 148.204L110.855 148.514L110.605 148.819L110.351 149.12L110.094 149.418L109.833 149.711L109.568 150L109.301 150.286L109.029 150.567L108.755 150.844L108.477 151.117L108.195 151.385L107.911 151.649L107.623 151.909L107.332 152.164L107.038 152.415L106.741 152.661L106.441 152.903L106.138 153.14L105.832 153.373L105.523 153.6L105.211 153.823L104.897 154.041L104.579 154.255L104.26 154.463L103.937 154.667L103.612 154.865L103.285 155.059L102.955 155.247L102.623 155.431L102.288 155.609L101.951 155.782L101.612 155.95L101.271 156.113L100.928 156.271L100.582 156.423L100.235 156.571L99.886 156.712L99.535 156.849L99.1822 156.98L98.8277 157.106L98.4715 157.226L98.1137 157.341L97.7544 157.451L97.3936 157.555L97.0314 157.653L96.6679 157.746L96.3031 157.834L95.9371 157.916L95.5699 157.992L95.2016 158.063L94.8324 158.128L94.4622 158.188L94.091 158.242L93.7191 158.29L93.3464 158.333L92.973 158.37L92.599 158.402L92.2244 158.428L91.8494 158.448L91.4739 158.463L91.098 158.472L90.7219 158.475L90.3455 158.473L89.969 158.465L89.5924 158.452L89.2157 158.432L88.8391 158.408L88.4626 158.377L88.0862 158.341L87.7101 158.299L87.3343 158.252L86.9589 158.199L86.5839 158.141L86.2094 158.077L85.8355 158.007L85.4622 157.932L85.0895 157.851L84.7177 157.765L84.3466 157.673L83.9765 157.576L83.6073 157.474L83.2391 157.366L82.872 157.252L82.5061 157.133L82.1413 157.009L81.7778 156.88L81.4157 156.745L81.0549 156.605L80.6955 156.459L80.3377 156.309L79.9815 156.153L79.6268 155.992L79.2739 155.826L78.9227 155.655L78.5733 155.479L78.2258 155.297L77.8802 155.111L77.5366 154.92L77.195 154.724L76.8555 154.523L76.5181 154.317L76.1829 154.106L75.85 153.891L75.5194 153.671L75.1911 153.446L74.8652 153.216L74.5418 152.982L74.2209 152.744L73.9025 152.5L73.5868 152.253L73.2737 152.001L72.9633 151.745L72.6557 151.484L72.3508 151.219L72.0488 150.95L71.7496 150.677L71.4534 150.4L71.1602 150.118L70.8699 149.833L70.5828 149.544L70.2987 149.251L70.0177 148.954L69.7399 148.653L69.4653 148.349L69.194 148.041L68.9259 147.729L68.6611 147.414L68.3997 147.095L68.1417 146.773L67.8871 146.448L67.6359 146.119L67.3882 145.787L67.144 145.452L66.9033 145.113L66.6662 144.772L66.4327 144.428L66.2028 144.081L65.9765 143.731L65.7539 143.378L65.535 143.022L65.3198 142.664L65.1083 142.303L64.9005 141.94L64.6965 141.574L64.4963 141.206L64.2999 140.836L64.1073 140.463L63.9186 140.088L63.7336 139.711L63.5526 139.332L63.3754 138.951L63.202 138.568L63.0326 138.183L62.8671 137.796L62.7054 137.408L62.5477 137.018L62.3939 136.626L62.2439 136.233L62.098 135.839L61.9559 135.443L61.8178 135.045L61.6836 134.647L61.5533 134.248L61.4269 133.847L61.3045 133.445L61.186 133.043L61.0713 132.639L60.9606 132.235L60.8538 131.83L60.7509 131.424L60.6518 131.018L60.5567 130.611L60.4653 130.203L60.3779 129.796L60.2942 129.387L60.2144 128.979L60.1384 128.57L60.0662 128.162L59.9977 127.753L59.933 127.344L59.872 126.935L59.8148 126.527L59.7612 126.118L59.7113 125.71L59.6651 125.302L59.6224 124.895L59.5834 124.488L59.548 124.082L59.5161 123.676L59.4877 123.271L59.4628 122.866L59.4413 122.462L59.4233 122.059L59.4087 121.657L59.3975 121.256L59.3895 120.856L59.3849 120.457L59.3836 120.059L59.3855 119.662L59.3906 119.267L59.3988 118.873L59.4101 118.48L59.4246 118.088L59.442 117.698L59.4625 117.31L59.4859 116.923L59.5123 116.538L59.5415 116.154L59.5736 115.772L59.6084 115.392L59.646 115.014L59.6862 114.638L59.7292 114.263L59.7747 113.891L59.8228 113.52L59.8734 113.152L59.9264 112.785L59.9819 112.421L60.0397 112.059L60.0999 111.699L60.1623 111.342L60.2269 110.987L60.2936 110.634L60.3625 110.283L60.4334 109.936L60.5063 109.59L60.5812 109.247L60.6579 108.907L60.7365 108.569L60.8168 108.233L60.8989 107.901L60.9826 107.571L61.068 107.244L61.1549 106.919L61.2433 106.598L61.3331 106.279L61.4243 105.963L61.5168 105.649L61.6106 105.339L61.7056 105.032L61.8018 104.727L61.899 104.425L61.9972 104.127L62.0964 103.831L62.1965 103.538L62.2975 103.249L62.3992 102.962L62.5017 102.679L62.6048 102.398L62.7085 102.121L62.8128 101.847L62.9175 101.575L63.0227 101.307L63.1282 101.042L63.234 100.781L63.3401 100.522L63.4463 100.266L63.5527 100.014L63.6591 99.765L63.7655 99.519L63.8718 99.2762L63.978 99.0366L64.084 98.8001L64.1897 98.5668L64.2952 98.3367L64.4002 98.1097L64.5048 97.8859L64.609 97.6653L64.7126 97.4479L64.8156 97.2335L64.9179 97.0224L65.0194 96.8143L65.1202 96.6094L65.2202 96.4076L65.3192 96.209L65.4173 96.0134L65.5144 95.8209L65.6104 95.6314L65.7052 95.445L65.7989 95.2617L65.8913 95.0813L65.9824 94.904L66.0722 94.7296L66.1605 94.5582L66.2474 94.3897L66.3328 94.2242L66.4166 94.0615L66.4988 93.9017L66.5793 93.7448L66.6581 93.5907L66.7351 93.4394L66.8102 93.2908L66.8835 93.145L66.9549 93.0019L67.0243 92.8615L67.0916 92.7237L67.1569 92.5886L67.2201 92.4561L67.2811 92.3261L67.3399 92.1986L67.3965 92.0736L67.4507 91.9511L67.5026 91.831L67.5522 91.7132L67.5993 91.5979L67.6439 91.4848L67.686 91.374L67.7256 91.2654L67.7626 91.159L67.797 91.0547L67.8287 90.9526L67.8577 90.8525L67.884 90.7544L67.9075 90.6583L67.9282 90.5642L67.9461 90.4719L67.9611 90.3815L67.9732 90.2929L67.9824 90.206L67.9886 90.1208L67.9919 90.0373L67.9921 89.9554L67.9893 89.875L67.9834 89.7962L67.9745 89.7188L67.9624 89.6429L67.9472 89.5683L67.9288 89.495L67.9073 89.423L67.8825 89.3522L67.8545 89.2825L67.8233 89.214L67.7888 89.1465L67.7511 89.08L67.7101 89.0145L67.6658 88.9498L67.6181 88.886L67.5672 88.823L67.5129 88.7607L67.4552 88.6992L67.3942 88.6382L67.3298 88.5778L67.2621 88.5179L67.191 88.4585L67.1165 88.3995L67.0386 88.3408L66.9573 88.2824L66.8727 88.2243L66.7846 88.1664L66.6932 88.1085L66.5983 88.0508L66.5001 87.9931L66.3985 87.9353L66.2935 87.8774L66.1852 87.8194L66.0734 87.7612L65.9583 87.7027L65.8399 87.644L65.7181 87.5848L65.593 87.5252L65.4645 87.4651L65.3328 87.4045L65.1977 87.3433L65.0594 87.2815L64.9178 87.2189L64.7729 87.1557L64.6249 87.0915L64.4736 87.0266L64.3191 86.9607L64.1615 86.8938L64.0007 86.826L63.8368 86.757L63.6697 86.6869L63.4996 86.6157L63.3265 86.5432L63.1503 86.4694L62.9711 86.3943L62.789 86.3178L62.6039 86.2399L62.4159 86.1605L62.225 86.0795L62.0313 85.997L61.8347 85.9129L61.6354 85.827L61.4333 85.7395L61.2286 85.6502L61.0211 85.559L60.811 85.466L60.5984 85.3711L60.3831 85.2742L60.1654 85.1754L59.9452 85.0744L59.7225 84.9715L59.4974 84.8663L59.2701 84.7591L59.0404 84.6496L58.8084 84.5378L58.5742 84.4238L58.3379 84.3075L58.0994 84.1888L57.8589 84.0676L57.6164 83.9441L57.3719 83.8181L57.1254 83.6895L56.8771 83.5584L56.627 83.4248L56.3751 83.2885L56.1215 83.1496L55.8662 83.008L55.6093 82.8637L55.3509 82.7167L55.091 82.5669L54.8296 82.4143L54.5668 82.259L54.3027 82.1007L54.0374 81.9396L53.7708 81.7756L53.5031 81.6087L53.2343 81.4389L52.9644 81.2661L52.6936 81.0903L52.4219 80.9115L52.1493 80.7297L51.8759 80.5448L51.6018 80.3569L51.327 80.1659L51.0516 79.9718L50.7756 79.7747L50.4992 79.5744L50.2224 79.371L49.9452 79.1644L49.6677 78.9547L49.39 78.7419L49.1121 78.5258L48.8342 78.3066L48.5562 78.0843L48.2782 77.8587L48.0003 77.6299L47.7226 77.398L47.4452 77.1628L47.168 76.9245L46.8912 76.683L46.6148 76.4382L46.3389 76.1903L46.0636 75.9391L45.7888 75.6848L45.5148 75.4273L45.2416 75.1666L44.9692 74.9028L44.6976 74.6358L44.427 74.3656L44.1575 74.0923L43.889 73.8158L43.6217 73.5363L43.3556 73.2536L43.0908 72.9678L42.8273 72.6789L42.5653 72.387L42.3048 72.092L42.0458 71.794L41.7884 71.493L41.5327 71.1889L41.2787 70.882L41.0266 70.572L40.7763 70.2591L40.5279 69.9434L40.2816 69.6247L40.0373 69.3032L39.7951 68.9789L39.5551 68.6518L39.3174 68.3219L39.082 67.9893L38.8489 67.6539L38.6183 67.3159L38.3902 66.9752L38.1646 66.632L37.9416 66.2861L37.7213 65.9377L37.5038 65.5868L37.289 65.2334L37.0771 64.8776L36.868 64.5194L36.662 64.1589L36.4589 63.796L36.2589 63.4308L36.062 63.0635L35.8683 62.6939L35.6779 62.3222L35.4907 61.9484L35.3068 61.5726L35.1264 61.1947L34.9493 60.8149L34.7758 60.4331L34.6058 60.0495L34.4394 59.6641L34.2766 59.277L34.1175 58.8881L33.9621 58.4975L33.8105 58.1053L33.6627 57.7116L33.5187 57.3164L33.3787 56.9197L33.2426 56.5216L33.1105 56.1222L32.9824 55.7215L32.8584 55.3195L32.7385 54.9164L32.6228 54.5122L32.5112 54.1069L32.4039 53.7007L32.3008 53.2935L32.2019 52.8854L32.1075 52.4765L32.0173 52.0668L31.9316 51.6564L31.8502 51.2454L31.7733 50.8339L31.7009 50.4218L31.633 50.0093L31.5696 49.5964L31.5108 49.1832L31.4566 48.7697L31.407 48.356L31.362 47.9423L31.3216 47.5284L31.2859 47.1146L31.2549 46.7008L31.2287 46.2872L31.2071 45.8738L31.1903 45.4606L31.1783 45.0478L31.171 44.6354L31.1685 44.2234L31.1709 43.812L31.178 43.4013L31.19 42.9911L31.2068 42.5818L31.2284 42.1732L31.2549 41.7655L31.2863 41.3588L31.3225 40.9531L31.3636 40.5484L31.4095 40.1449L31.4604 39.7427L31.5161 39.3417L31.5766 38.9421L31.6421 38.5439L31.7124 38.1472L31.7876 37.752L31.8676 37.3585L31.9525 36.9667L32.0423 36.5766L32.1369 36.1884L32.2363 35.802L32.3406 35.4177L32.4497 35.0353L32.5635 34.6551L32.6822 34.277L32.8056 33.9012L32.9338 33.5276L33.0668 33.1564L33.2045 32.7877L33.3469 32.4214L33.4939 32.0577L33.6457 31.6966L33.8021 31.3382L33.9631 30.9825L34.1288 30.6297L34.299 30.2797L34.4738 29.9327L34.6531 29.5887L34.8369 29.2477L35.0252 28.9099L35.2179 28.5752L35.4151 28.2438L35.6166 27.9157L35.8225 27.5909L36.0327 27.2696L36.2472 26.9517L36.4659 26.6374L36.6889 26.3266L36.9161 26.0195L37.1473 25.7161L37.3827 25.4165L37.6222 25.1207L37.8657 24.8287L38.1132 24.5407L38.3646 24.2566L38.6199 23.9765L38.8791 23.7005L39.1421 23.4287L39.4088 23.161L39.6793 22.8975L39.9535 22.6383L40.2312 22.3833L40.5126 22.1328L40.7975 21.8866L41.0859 21.6449L41.3777 21.4077L41.6729 21.175L41.9714 20.9469L42.2733 20.7235L42.5783 20.5046L42.8865 20.2905L43.1978 20.0811L43.5122 19.8764L43.8296 19.6766L44.1499 19.4816L44.4732 19.2915L44.7993 19.1063L45.1281 18.9261L45.4597 18.7508L45.7939 18.5805L46.1308 18.4153L46.4702 18.2551L46.812 18.1L47.1563 17.9501L47.503 17.8053L47.852 17.6656L48.2032 17.5312L48.5565 17.4019L48.912 17.2779L49.2696 17.1592L49.6291 17.0458L49.9905 16.9376L50.3538 16.8347L50.7189 16.7372L51.0858 16.6451L51.4543 16.5583L51.8244 16.4768L52.196 16.4008L52.5691 16.3302L52.9436 16.2649L53.3195 16.2051L53.6966 16.1507L54.0749 16.1018L54.4543 16.0583L54.8349 16.0202L55.2164 15.9876L55.5989 15.9604L55.9822 15.9386L56.3664 15.9224L56.7512 15.9115L57.1368 15.9062L57.5229 15.9062L57.9096 15.9118L58.2968 15.9227L58.6844 15.9391L59.0723 15.9609L59.4604 15.9881L59.8488 16.0207L60.2373 16.0588L60.6259 16.1022L61.0145 16.1509L61.403 16.2051L61.7914 16.2645L62.1797 16.3293L62.5676 16.3995L62.9552 16.4749L63.3425 16.5555L63.7293 16.6415L64.1155 16.7326L64.5012 16.829L64.8863 16.9306L65.2706 17.0373L65.6542 17.1492L66.0369 17.2661L66.4188 17.3882L66.7997 17.5153L67.1795 17.6474L67.5583 17.7846L67.936 17.9267L68.3124 18.0737L68.6876 18.2257L69.0615 18.3825L69.434 18.5441L69.805 18.7105L70.1746 18.8817L70.5426 19.0576L70.9091 19.2382L71.2738 19.4235L71.6369 19.6133L71.9981 19.8077L72.3576 20.0066L72.7151 20.21L73.0708 20.4178L73.4244 20.6301L73.776 20.8466L74.1256 21.0675L74.473 21.2926L74.8182 21.5219L75.1612 21.7553L75.5019 21.9929L75.8403 22.2345L76.1763 22.4801L76.5098 22.7297L76.841 22.9831L77.1696 23.2404L77.4956 23.5015L77.8191 23.7664L78.1399 24.0349L78.4581 24.307L78.7735 24.5827L79.0862 24.8619L79.3961 25.1446L79.7032 25.4307L80.0074 25.7201L80.3086 26.0128L80.607 26.3087L80.9024 26.6077L81.1948 26.9099L81.4841 27.2151L81.7704 27.5233L82.0536 27.8343L82.3336 28.1483L82.6106 28.465L82.8843 28.7844L83.1548 29.1065L83.4221 29.4312L83.6861 29.7584L83.9469 30.0881L84.2043 30.4202L84.4585 30.7546L84.7092 31.0913L84.9567 31.4302L85.2007 31.7712L85.4413 32.1143L85.6786 32.4594L85.9124 32.8064L86.1427 33.1553L86.3696 33.506L86.593 33.8584L86.813 34.2125L87.0294 34.5682L87.2424 34.9254L87.4518 35.284L87.6577 35.6441L87.8601 36.0054L88.059 36.368L88.2543 36.7318L88.4461 37.0968L88.6344 37.4627L88.8191 37.8296L89.0003 38.1975L89.1779 38.5662L89.3521 38.9356L89.5227 39.3058L89.6897 39.6766L89.8532 40.0479L90.0133 40.4198L90.1698 40.7921L90.3228 41.1647L90.4723 41.5377L90.6183 41.9108L90.7609 42.2842L90.9 42.6576L91.0356 43.0311L91.1679 43.4045L91.2967 43.7778L91.4221 44.1509L91.5441 44.5238L91.6627 44.8965L91.7781 45.2687L91.89 45.6405L91.9987 46.0118L92.1041 46.3826L92.2062 46.7528L92.3051 47.1222L92.4008 47.4909L92.4933 47.8588L92.5826 48.2259L92.6688 48.592L92.7519 48.9571L92.8319 49.3212L92.9089 49.6842L92.9829 50.046L93.0538 50.4066L93.1218 50.7659L93.1869 51.1238L93.2491 51.4804L93.3085 51.8355L93.365 52.1891L93.4188 52.5411L93.4698 52.8916L93.5181 53.2403L93.5638 53.5874L93.6068 53.9327L93.6473 54.2761L93.6852 54.6177L93.7206 54.9573L93.7535 55.295L93.784 55.6307L93.8122 55.9643L93.838 56.2958L93.8616 56.6251L93.8829 56.9522L93.902 57.2771L93.9189 57.5997L93.9338 57.92L93.9466 58.2378L93.9574 58.5533L93.9663 58.8663L93.9733 59.1768L93.9784 59.4848L93.9817 59.7902L93.9832 60.093L93.9831 60.3932L93.9813 60.6907L93.9779 60.9855L93.973 61.2775L93.9666 61.5668L93.9587 61.8533L93.9495 62.1369L93.939 62.4177L93.9271 62.6955L93.9141 62.9705L93.8999 63.2425L93.8846 63.5116L93.8683 63.7776L93.8509 64.0407L93.8326 64.3007L93.8135 64.5576L93.7935 64.8115L93.7728 65.0622L93.7513 65.3099L93.7292 65.5544L93.7065 65.7958L93.6833 66.034L93.6596 66.269L93.6355 66.5009L93.611 66.7295L93.5862 66.955L93.5612 67.1772L93.536 67.3962L93.5107 67.6119L93.4853 67.8244L93.4599 68.0336L93.4346 68.2396L93.4093 68.4423L93.3843 68.6418L93.3594 68.838L93.3348 69.0309L93.3106 69.2206L93.2868 69.407L93.2634 69.5902L93.2406 69.7701L93.2183 69.9467L93.1966 70.1201L93.1756 70.2903L93.1554 70.4572L93.136 70.6209L93.1174 70.7814L93.0997 70.9387L93.0831 71.0928L93.0674 71.2437L93.0528 71.3915L93.0393 71.5361L93.027 71.6776L93.016 71.8159L93.0062 71.9512L92.9978 72.0834L92.9908 72.2125L92.9853 72.3385L92.9813 72.4616L92.9788 72.5816L92.9779 72.6987L92.9787 72.8128L92.9811 72.924L92.9854 73.0323L92.9914 73.1377L92.9993 73.2403L93.0091 73.34L93.0208 73.437L93.0346 73.5312L93.0503 73.6227L93.0682 73.7114L93.0882 73.7975L93.1103 73.881L93.1347 73.9619L93.1613 74.0402L93.1903 74.116L93.2216 74.1894L93.2552 74.2602L93.2913 74.3287L93.3299 74.3947L93.3709 74.4585L93.4145 74.5199L93.4607 74.5791L93.5094 74.6361L93.5609 74.6909L93.615 74.7436L93.6718 74.7942L93.7313 74.8428L93.7937 74.8894L93.8588 74.934L93.9268 74.9767L93.9977 75.0176L94.0715 75.0566L94.1481 75.0939L94.2278 75.1295L94.3104 75.1635L94.396 75.1958L94.4847 75.2265L94.5764 75.2558L94.6712 75.2835L94.769 75.3099L94.87 75.3349L94.9741 75.3586L95.0814 75.381L95.1918 75.4023L95.3055 75.4223L95.4223 75.4413L95.5423 75.4593L95.6656 75.4763L95.7921 75.4923L95.9219 75.5074L96.0549 75.5218L96.1912 75.5353L96.3308 75.5482L96.4736 75.5604L96.6198 75.572L96.7693 75.583L96.9221 75.5936L97.0781 75.6038L97.2375 75.6135L97.4002 75.623L97.5663 75.6322L97.7356 75.6411L97.9082 75.65L98.0842 75.6587L98.2634 75.6675L98.446 75.6762L98.6318 75.685L98.821 75.694L99.0134 75.7032L99.209 75.7126L99.408 75.7223L99.6102 75.7325L99.8156 75.743L100.024 75.754L100.236 75.7656L100.451 75.7777L100.669 75.7905L100.891 75.8041L101.115 75.8184L101.343 75.8335L101.574 75.8494L101.808 75.8664L102.044 75.8843L102.284 75.9032L102.527 75.9233L102.773 75.9445L103.022 75.9669L103.274 75.9906L103.529 76.0155L103.786 76.0419L104.047 76.0696L104.31 76.0989L104.576 76.1296L104.845 76.162L105.116 76.1959L105.391 76.2316L105.667 76.2689L105.947 76.3081L106.229 76.349L106.513 76.3918L106.8 76.4366L107.09 76.4833L107.382 76.532L107.676 76.5828L107.973 76.6357L108.272 76.6908L108.573 76.748L108.876 76.8075L109.182 76.8693L109.489 76.9333L109.799 76.9998L110.111 77.0687L110.424 77.14L110.74 77.2138L111.057 77.2901L111.377 77.369L111.698 77.4505L112.02 77.5346L112.345 77.6214L112.671 77.711L112.998 77.8032L113.327 77.8983L113.657 77.9961L113.989 78.0968L114.322 78.2004L114.657 78.3069L114.992 78.4163L115.329 78.5287L115.667 78.644L116.006 78.7624L116.346 78.8839L116.686 79.0084L117.028 79.136L117.37 79.2667L117.713 79.4005L118.057 79.5375L118.401 79.6777L118.746 79.8211L119.092 79.9678L119.437 80.1176L119.783 80.2707L120.13 80.4271L120.476 80.5868L120.823 80.7498L121.17 80.916L121.517 81.0856L121.864 81.2586L122.21 81.4349L122.557 81.6145L122.903 81.7975L123.249 81.9839L123.594 82.1736L123.939 82.3668L124.284 82.5633L124.628 82.7632L124.971 82.9665L125.314 83.1732L125.656 83.3832L125.997 83.5967L126.337 83.8135L126.676 84.0338L127.014 84.2574L127.35 84.4844L127.686 84.7147L128.02 84.9484L128.353 85.1855L128.685 85.4259L129.015 85.6697L129.344 85.9167L129.671 86.1671L129.996 86.4208L130.32 86.6777L130.642 86.938L130.961 87.2014L131.279 87.4681L131.595 87.738L131.909 88.0112L132.221 88.2874L132.531 88.5669L132.838 88.8494L133.143 89.1351L133.445 89.4239L133.745 89.7157L134.043 90.0105L134.338 90.3084L134.63 90.6092L134.92 90.913L135.207 91.2197L135.491 91.5293L135.772 91.8417L136.05 92.1569L136.325 92.475L136.597 92.7958L136.866 93.1193L137.132 93.4455L137.394 93.7743L137.653 94.1057L137.909 94.4397L138.161 94.7763L138.41 95.1153L138.655 95.4567L138.897 95.8006L139.135 96.1468L139.369 96.4953L139.6 96.8461L139.826 97.1992L140.049 97.5544L140.268 97.9117L140.483 98.2711L140.694 98.6325L140.901 98.996L141.104 99.3613L141.303 99.7286L141.497 100.098L141.688 100.469L141.874 100.841L142.055 101.215L142.233 101.591L142.406 101.969L142.574 102.348L142.738 102.728L142.897 103.11L143.052 103.493L143.202 103.877L143.348 104.263L143.489 104.65L143.625 105.038L143.757 105.427L143.883 105.817L144.005 106.208L144.122 106.599L144.234 106.992L144.341 107.385L144.444 107.779L144.541 108.174L144.633 108.569L144.721 108.965L144.803 109.361L144.88 109.757L144.952 110.154L145.019 110.551L145.081 110.948L145.138 111.345L145.19 111.742L145.236 112.139L145.278 112.537L145.314 112.933L145.345 113.33L145.37 113.727L145.391 114.123L145.406 114.518L145.416 114.914L145.421 115.308L145.42 115.702L145.414 116.095L145.403 116.488L145.387 116.879L145.365 117.27L145.338 117.66L145.306 118.049L145.268 118.436L145.225 118.823L145.177 119.208L145.124 119.592L145.065 119.975L145.001 120.356L144.932 120.736L144.857 121.114L144.777 121.49L144.692 121.865L144.602 122.238L144.507 122.609L144.406 122.978L144.3 123.345L144.189 123.711L144.073 124.074L143.952 124.435L143.826 124.794L143.694 125.15L143.558 125.504L143.416 125.856L143.269 126.205L143.118 126.552L142.961 126.896L142.8 127.238L142.633 127.576L142.462 127.912L142.286 128.245L142.104 128.576L141.919 128.903L141.728 129.227L141.532 129.548L141.332 129.866L141.127 130.181L140.918 130.493L140.704 130.801L140.485 131.106L140.262 131.408L140.035 131.706L139.802 132.001L139.566 132.292L139.325 132.579L139.08 132.863L138.83 133.143L138.577 133.419L138.319 133.691L138.057 133.96L137.79 134.225L137.52 134.485L137.246 134.742L136.968 134.995L136.686 135.243L136.4 135.488L136.11 135.728L135.817 135.964L135.519 136.196L135.219 136.423L134.914 136.646L134.606 136.865L134.295 137.079L133.98 137.289L133.662 137.494L133.34 137.695L133.015 137.892L132.687 138.083L132.356 138.27L132.022 138.453L131.685 138.631L131.344 138.804L131.001 138.972L130.655 139.135L130.307 139.294L129.955 139.448L129.601 139.597L129.244 139.742L128.885 139.881L128.523 140.016L128.159 140.145L127.793 140.27L127.424 140.389L127.053 140.504L126.68 140.614L126.305 140.719L125.928 140.818L125.549 140.913L125.168 141.003L124.786 141.087L124.401 141.167L124.015 141.241L123.627 141.31L123.238 141.375L122.847 141.434L122.455 141.488L122.061 141.537L121.667 141.581L121.271 141.62L120.874 141.654L120.475 141.682L120.076 141.706L119.676 141.724L119.275 141.738L118.873 141.746L118.471 141.749L118.068 141.747L117.664 141.74L117.26 141.729L116.855 141.712L116.45 141.69L116.044 141.663L115.639 141.631L115.233 141.594L114.827 141.552L114.42 141.505L114.014 141.453L113.608 141.397L113.202 141.335L112.797 141.269L112.391 141.198L111.986 141.122L111.581 141.041L111.177 140.955L110.774 140.865L110.37 140.77L109.968 140.67L109.566 140.566L109.165 140.457L108.765 140.343L108.366 140.225L107.967 140.102L107.57 139.975L107.174 139.844L106.779 139.708L106.385 139.567L105.992 139.423L105.601 139.273L105.21 139.12L104.822 138.963L104.435 138.801L104.049 138.635L103.665 138.465L103.283 138.291L102.902 138.113L102.523 137.931L102.146 137.745L101.77 137.556L101.397 137.362L101.025 137.165L100.656 136.964L100.288 136.759L99.9228 136.551L99.5595 136.339L99.1984 136.123L98.8394 135.904L98.4828 135.682L98.1284 135.456L97.7764 135.228L97.4268 134.995L97.0796 134.76L96.7348 134.521L96.3926 134.28L96.0529 134.035L95.7158 133.788L95.3813 133.537L95.0495 133.284L94.7204 133.028L94.3939 132.769L94.0703 132.507L93.7494 132.243L93.4313 131.977L93.1161 131.707L92.8037 131.436L92.4942 131.162L92.1877 130.886L91.8841 130.607L91.5835 130.327L91.2859 130.044L90.9914 129.76L90.6998 129.473L90.4114 129.184L90.126 128.894L89.8438 128.602L89.5646 128.308L89.2886 128.012L89.0158 127.715L88.7461 127.417L88.4797 127.117L88.2164 126.815L87.9563 126.513L87.6995 126.209L87.4459 125.904L87.1955 125.597L86.9484 125.29L86.7046 124.982L86.464 124.673L86.2266 124.363L85.9926 124.052L85.7618 123.741L85.5343 123.429L85.3101 123.116L85.0891 122.803L84.8715 122.489L84.6571 122.175L84.4459 121.861L84.2381 121.547L84.0335 121.232L83.8321 120.917L83.634 120.603L83.4391 120.288L83.2475 119.973L83.0591 119.659L82.8739 119.344L82.6918 119.03L82.513 118.717L82.3373 118.404L82.1648 118.091L81.9954 117.779L81.8292 117.467L81.666 117.156L81.5059 116.846L81.3489 116.537L81.195 116.229L81.044 115.921L80.896 115.614L80.7511 115.309L80.609 115.004L80.4699 114.701L80.3337 114.399L80.2004 114.098L80.0699 113.799L79.9422 113.501L79.8173 113.204L79.6951 112.909L79.5757 112.616L79.459 112.324L79.3449 112.033L79.2335 111.745L79.1246 111.458L79.0183 111.173L78.9145 110.89L78.8132 110.609L78.7143 110.33L78.6179 110.053L78.5238 109.777L78.432 109.504L78.3425 109.234L78.2553 108.965L78.1703 108.699L78.0874 108.435L78.0067 108.173L77.928 107.914L77.8513 107.657L77.7767 107.403L77.704 107.151L77.6332 106.901L77.5642 106.655L77.497 106.411L77.4316 106.169L77.3679 105.93L77.3058 105.694L77.2454 105.461L77.1865 105.231L77.1291 105.003L77.0732 104.779L77.0187 104.557L76.9655 104.338L76.9137 104.122L76.8631 103.909L76.8137 103.699L76.7654 103.492L76.7183 103.289L76.6721 103.088L76.627 102.89L76.5828 102.696L76.5395 102.505L76.497 102.316L76.4552 102.132L76.4142 101.95L76.3738 101.771L76.3341 101.596L76.2949 101.424L76.2561 101.255L76.2179 101.09L76.18 100.928L76.1424 100.769L76.1051 100.613L76.068 100.461L76.031 100.312L75.9942 100.167L75.9574 100.025L75.9206 99.8857L75.8837 99.7502L75.8466 99.6181L75.8094 99.4893L75.772 99.3639L75.7343 99.2419L75.6962 99.1232L75.6577 99.0078L75.6188 98.8958L75.5793 98.7872L75.5392 98.6818L75.4986 98.5798L75.4572 98.4812L75.4151 98.3858L75.3722 98.2938L75.3285 98.205L75.2838 98.1195L75.2382 98.0373L75.1916 97.9584L75.1439 97.8827L75.0951 97.8102L75.0452 97.7409L74.994 97.6748L74.9415 97.6119L74.8877 97.5521L74.8326 97.4954L74.776 97.4419L74.7179 97.3914L74.6584 97.344L74.5972 97.2997L74.5344 97.2583L74.47 97.22L74.4038 97.1846L74.3358 97.1521L74.2661 97.1225L74.1944 97.0958L74.1209 97.072L74.0454 97.0509L73.9679 97.0326L73.8884 97.0171L73.8068 97.0042L73.7231 96.9941L73.6372 96.9866L73.5491 96.9816L73.4587 96.9793L73.3661 96.9794L73.2711 96.9821L73.1738 96.9872L73.074 96.9947L72.9718 97.0045L72.8671 97.0167L72.7599 97.0312L72.6502 97.0479L72.5379 97.0668L72.4229 97.0878L72.3054 97.111L72.1851 97.1362L72.0621 97.1634L71.9364 97.1926L71.8079 97.2236L71.6766 97.2566L71.5425 97.2913L71.4055 97.3279L71.2656 97.3661L71.1229 97.406L70.9772 97.4475L70.8285 97.4906L70.6769 97.5352L70.5223 97.5813L70.3647 97.6287L70.2041 97.6776L70.0404 97.7277L69.8736 97.779L69.7037 97.8315L69.5308 97.8852L69.3547 97.9399L69.1755 97.9957L68.9931 98.0524L68.8076 98.1101L68.619 98.1685L68.4271 98.2278L68.2321 98.2878L68.0339 98.3485L67.8325 98.4098L67.6278 98.4717L67.42 98.534L67.209 98.5969L66.9947 98.66L66.7773 98.7236L66.5566 98.7874L66.3327 98.8514L66.1056 98.9155L65.8753 98.9797L65.6417 99.044L65.405 99.1082L65.1651 99.1723L64.922 99.2363L64.6757 99.3001L64.4262 99.3636L64.1735 99.4268L63.9177 99.4896L63.6588 99.5519L63.3967 99.6138L63.1315 99.675L62.8633 99.7356L62.5919 99.7956L62.3174 99.8548L62.04 99.9132L61.7594 99.9707L61.4759 100.027L61.1894 100.083L60.8999 100.138L60.6074 100.191L60.3121 100.243L60.0138 100.295L59.7127 100.344L59.4087 100.393L59.1019 100.44L58.7923 100.486L58.48 100.53L58.1649 100.573L57.8471 100.614L57.5267 100.653L57.2036 100.691L56.878 100.727L56.5497 100.761L56.219 100.794L55.8857 100.824L55.5501 100.852L55.212 100.879L54.8715 100.903L54.5287 100.925L54.1836 100.945L53.8363 100.963L53.4868 100.978L53.1351 100.991L52.7812 101.002L52.4254 101.01L52.0675 101.016L51.7076 101.02L51.3458 101.021L50.9821 101.019L50.6166 101.015L50.2493 101.007L49.8803 100.998L49.5096 100.985L49.1372 100.97L48.7634 100.952L48.3879 100.93L48.0111 100.906L47.6328 100.879L47.2532 100.849L46.8722 100.816L46.4901 100.78L46.1067 100.741L45.7222 100.699L45.3367 100.653L44.9502 100.605L44.5627 100.553L44.1743 100.498L43.7851 100.439L43.3952 100.377L43.0045 100.312L42.6132 100.244L42.2213 100.172L41.829 100.097L41.4361 100.018L41.0429 99.9357L40.6494 99.8499L40.2556 99.7607L39.8616 99.668L39.4675 99.5717L39.0733 99.4718L38.6792 99.3684L38.2851 99.2613L37.8912 99.1507L37.4974 99.0364L37.104 98.9184L36.7108 98.7969L36.3181 98.6716L35.9259 98.5427L35.5342 98.4101L35.1432 98.2738L34.7528 98.1338L34.3631 97.9901L33.9743 97.8427L33.5864 97.6916L33.1994 97.5368L32.8135 97.3782L32.4287 97.2159L32.045 97.0499L31.6625 96.8802L31.2814 96.7068L30.9016 96.5297L30.5233 96.3489L30.1465 96.1643L29.7712 95.9761L29.3976 95.7842L29.0258 95.5886L28.6557 95.3893L28.2874 95.1864L27.9211 94.9798L27.5568 94.7696L27.1945 94.5558L26.8343 94.3383L26.4764 94.1173L26.1207 93.8927L25.7673 93.6646L25.4163 93.4329L25.0678 93.1977L24.7218 92.959L24.3784 92.7168L24.0376 92.4711L23.6996 92.2221L23.3643 91.9696L23.0319 91.7138L22.7024 91.4546L22.3759 91.1921L22.0524 90.9262L21.732 90.6571L21.4148 90.3848L21.1008 90.1093L20.7901 89.8306L20.4828 89.5488L20.1788 89.2638L19.8783 88.9758L19.5813 88.6847L19.288 88.3907L18.9982 88.0937L18.7122 87.7937L18.4299 87.4909L18.1514 87.1853L17.8768 86.8768L17.6061 86.5656L17.3394 86.2516L17.0767 85.935L16.818 85.6158L16.5635 85.2939L16.3132 84.9696L16.0672 84.6427L15.8254 84.3134L15.5879 83.9817L15.3548 83.6476L15.1261 83.3113L14.9019 82.9727L14.6822 82.6319L14.4671 82.2889L14.2566 81.9439L14.0507 81.5968L13.8495 81.2477L13.6531 80.8967L13.4614 80.5438L13.2745 80.1891L13.0925 79.8326L12.9154 79.4744L12.7431 79.1146L12.5759 78.7531L12.4136 78.3901L12.2564 78.0257L12.1042 77.6598L11.9571 77.2925L11.8152 76.924L11.6784 76.5542L11.5468 76.1832L11.4204 75.8111L11.2992 75.438L11.1833 75.0638L11.0727 74.6888L10.9673 74.3128L10.8674 73.9361L10.7728 73.5586L10.6835 73.1804L10.5997 72.8016L10.5213 72.4223L10.4483 72.0424L10.3807 71.6622L10.3187 71.2816L10.2621 70.9007L10.211 70.5196L10.1654 70.1383L10.1254 69.7569L10.0908 69.3755L10.0618 68.9941L10.0384 68.6129L10.0205 68.2318L10.0081 67.851L10.0014 67.4704L10.0001 67.0902L10.0045 66.7105L10.0144 66.3313L10.0299 65.9526L10.051 65.5746L10.0777 65.1973L10.1099 64.8207L10.1477 64.445L10.191 64.0702L10.2399 63.6964L10.2943 63.3236L10.3543 62.9518L10.4198 62.5813L10.4908 62.212L10.5673 61.844L10.6493 61.4774L10.7368 61.1121L10.8297 60.7484L10.9281 60.3862L11.0319 60.0257L11.1412 59.6668L11.2558 59.3097L11.3758 58.9544L11.5012 58.601L11.6319 58.2495L11.7679 57.9L11.9092 57.5526L12.0557 57.2073L12.2075 56.8642L12.3644 56.5233L12.5266 56.1847L12.6939 55.8485L12.8663 55.5147L13.0438 55.1834L13.2264 54.8546L13.4139 54.5285L13.6065 54.2049L13.804 53.8841L14.0065 53.5661L14.2138 53.2509L14.4259 52.9385L14.6429 52.6291L14.8646 52.3227L15.091 52.0193L15.3222 51.719L15.5579 51.4218L15.7983 51.1279L16.0432 50.8371L16.2926 50.5497L16.5465 50.2656L16.8048 49.9849L17.0674 49.7076L17.3344 49.4338L17.6057 49.1635L17.8811 48.8968L18.1608 48.6337L18.4445 48.3743L18.7324 48.1185L19.0242 47.8666L19.32 47.6184L19.6198 47.374L19.9234 47.1335L20.2307 46.8968L20.5419 46.6642L20.8567 46.4355L21.1751 46.2108L21.4971 45.9901L21.8227 45.7735L22.1517 45.5611L22.4841 45.3528L22.8198 45.1486L23.1588 44.9487L23.501 44.753L23.8464 44.5615L24.1949 44.3744L24.5464 44.1915L24.9008 44.013L25.2582 43.8389L25.6184 43.6691L25.9814 43.5038L26.3471 43.3429L26.7155 43.1864L27.0864 43.0344L27.4599 42.8869L27.8358 42.7439L28.2141 42.6055L28.5947 42.4715L28.9776 42.3421L29.3626 42.2173L29.7498 42.097L30.139 41.9814L30.5302 41.8703L30.9234 41.7638L31.3183 41.662L31.7151 41.5648L32.1136 41.4721L32.5137 41.3842L32.9154 41.3008L33.3186 41.2221L33.7232 41.148L34.1292 41.0786L34.5365 41.0138L34.9451 40.9536L35.3548 40.898L35.7656 40.8471L36.1774 40.8008L36.5902 40.7592L37.0039 40.7221L37.4184 40.6896L37.8336 40.6617L38.2496 40.6384L38.6662 40.6197L39.0833 40.6055L39.5009 40.5959L39.9189 40.5908L40.3372 40.5902L40.7559 40.5942L41.1748 40.6026L41.5938 40.6154L42.0128 40.6327L42.432 40.6544L42.851 40.6805L43.2699 40.711L43.6887 40.7459L44.1072 40.7851L44.5254 40.8286L44.9433 40.8763L45.3607 40.9283L45.7776 40.9845L46.1939 41.045L46.6096 41.1096L47.0246 41.1783L47.4389 41.2511L47.8524 41.328L48.265 41.4089L48.6767 41.4938L49.0874 41.5826L49.497 41.6754L49.9056 41.7721L50.3129 41.8726L50.7191 41.977L51.124 42.0851L51.5275 42.1969L51.9297 42.3124L52.3305 42.4316L52.7297 42.5543L53.1274 42.6806L53.5235 42.8105L53.9179 42.9438L54.3107 43.0805L54.7017 43.2206L55.0909 43.364L55.4782 43.5106L55.8637 43.6606L56.2472 43.8137L56.6287 43.9699L57.0082 44.1292L57.3855 44.2915L57.7608 44.4568L58.1339 44.625L58.5048 44.796L58.8734 44.9699L59.2398 45.1465L59.6038 45.3259L59.9654 45.5078L60.3246 45.6924L60.6814 45.8795L61.0357 46.069L61.3874 46.261L61.7366 46.4554L62.0833 46.652L62.4273 46.8508L62.7686 47.0519L63.1073 47.255L63.4432 47.4603L63.7764 47.6675L64.1069 47.8766L64.4345 48.0876L64.7593 48.3005L65.0813 48.515L65.4004 48.7313L65.7166 48.9492L66.0298 49.1686L66.3402 49.3896L66.6475 49.6119L66.9519 49.8357L67.2533 50.0607L67.5517 50.287L67.8471 50.5144L68.1394 50.743L68.4286 50.9726L68.7148 51.2032L68.9979 51.4347L69.2779 51.6671L69.5547 51.9002L69.8285 52.1341L70.0992 52.3686L70.3667 52.6037L70.631 52.8394L70.8923 53.0755L71.1504 53.312L71.4053 53.5488L71.6571 53.7859L71.9057 54.0232L72.1512 54.2607L72.3935 54.4982L72.6327 54.7357L72.8687 54.9731L73.1016 55.2105L73.3314 55.4476L73.558 55.6845L73.7815 55.9211L74.0019 56.1573L74.2192 56.3931L74.4333 56.6284L74.6444 56.8631L74.8525 57.0972L75.0574 57.3306L75.2593 57.5632L75.4582 57.7951L75.6541 58.0261L75.847 58.2561L76.0368 58.4852L76.2238 58.7132L76.4077 58.9401L76.5888 59.1658L76.767 59.3903L76.9422 59.6135L77.1147 59.8354L77.2842 60.0559L77.451 60.2749L77.615 60.4924L77.7763 60.7084L77.9348 60.9227L78.0906 61.1354L78.2438 61.3463L78.3943 61.5555L78.5422 61.7628L78.6875 61.9683L78.8303 62.1718L78.9706 62.3733L79.1084 62.5728L79.2438 62.7703L79.3767 62.9656L79.5073 63.1587L79.6355 63.3496L79.7615 63.5383L79.8852 63.7246L80.0066 63.9086L80.1259 64.0901L80.2431 64.2692L80.3582 64.4459L80.4712 64.62L80.5822 64.7916L80.6912 64.9605L80.7983 65.1268L80.9035 65.2904L81.0069 65.4513L81.1085 65.6095L81.2083 65.7648L81.3065 65.9174L81.403 66.067L81.4979 66.2138L81.5912 66.3577L81.683 66.4986L81.7734 66.6365L81.8623 66.7714L81.9499 66.9033L82.0362 67.0321L82.1212 67.1578L82.205 67.2804L82.2877 67.3999L82.3692 67.5162L82.4497 67.6293L82.5292 67.7392L82.6077 67.8459L82.6853 67.9494L82.7621 68.0495L82.8381 68.1464L82.9134 68.24L82.988 68.3303L83.0619 68.4173L83.1353 68.5009L83.2082 68.5812L83.2805 68.6581L83.3525 68.7316L83.4241 68.8018L83.4955 68.8685L83.5665 68.9319L83.6374 68.9919L83.7082 69.0484L83.7788 69.1016L83.8495 69.1513L83.9201 69.1977L83.9909 69.2406L84.0618 69.2801L84.1329 69.3162L84.2042 69.3489L84.2758 69.3781L84.3478 69.404L84.4202 69.4265L84.4931 69.4456L84.5665 69.4613L84.6405 69.4736L84.7151 69.4826L84.7905 69.4882L84.8665 69.4905L84.9433 69.4894L85.021 69.4851L85.0996 69.4774L85.1791 69.4665L85.2597 69.4523L85.3413 69.4348L85.424 69.4141L85.5079 69.3902L85.5929 69.3632L85.6793 69.3329L85.767 69.2995L85.856 69.263L85.9464 69.2234L86.0383 69.1807L86.1317 69.135L86.2267 69.0862L86.3233 69.0345L86.4215 68.9798L86.5215 68.9222L86.6231 68.8617L86.7266 68.7983L86.8319 68.7321L86.9391 68.6631L87.0482 68.5913L87.1593 68.5168L87.2725 68.4396L87.3876 68.3598L87.5049 68.2773L87.6243 68.1923L87.7459 68.1047L87.8697 68.0146L87.9957 67.9221L88.1241 67.8271L88.2548 67.7298L88.3878 67.6302L88.5233 67.5282L88.6612 67.424L88.8016 67.3177L88.9445 67.2092L89.0899 67.0985L89.2379 66.9859L89.3886 66.8712L89.5418 66.7546L89.6977 66.636L89.8564 66.5156L90.0177 66.3934L90.1818 66.2695L90.3487 66.1438L90.5184 66.0165L90.6909 65.8876L90.8663 65.7572L91.0445 65.6252L91.2257 65.4919L91.4098 65.3571L91.5968 65.2211L91.7868 65.0838L91.9797 64.9452L92.1756 64.8055L92.3746 64.6647L92.5766 64.5229L92.7816 64.3801L92.9897 64.2364L93.2009 64.0918L93.4151 63.9464L93.6324 63.8002L93.8529 63.6534L94.0764 63.506L94.3031 63.358L94.5329 63.2095L94.7658 63.0605L95.0018 62.9112L95.241 62.7615L95.4834 62.6116L95.7288 62.4615L95.9775 62.3113L96.2292 62.161L96.4842 62.0107L96.7422 61.8604L97.0034 61.7103L97.2678 61.5603L97.5352 61.4105L97.8058 61.2611L98.0795 61.112L98.3563 60.9634L98.6362 60.8153L98.9192 60.6676L99.2053 60.5207L99.4944 60.3744L99.7866 60.2288L100.082 60.084L100.38 59.9401L100.681 59.7971L100.986 59.6551L101.293 59.5142L101.603 59.3743L101.916 59.2357L102.232 59.0982L102.551 58.9621L102.873 58.8273L103.197 58.6939L103.525 58.562L103.855 58.4316L104.188 58.3028L104.523 58.1757L104.862 58.0503L105.203 57.9266L105.546 57.8048L105.892 57.6848L106.241 57.5668L106.593 57.4508L106.947 57.3368L107.303 57.225L107.662 57.1153L108.023 57.0078L108.386 56.9026L108.752 56.7997L109.12 56.6992L109.491 56.6012L109.863 56.5056L110.238 56.4126L110.615 56.3221L110.993 56.2343L111.374 56.1492L111.757 56.0668L112.142 55.9872L112.529 55.9104L112.917 55.8365L113.307 55.7655L113.699 55.6975L114.093 55.6326L114.488 55.5706L114.885 55.5118L115.283 55.4562L115.683 55.4037L116.085 55.3545L116.487 55.3085L116.891 55.2658L117.296 55.2265L117.703 55.1906L118.11 55.1581L118.519 55.1291L118.928 55.1035L119.339 55.0815L119.75 55.0631L120.162 55.0483L120.575 55.0371L120.989 55.0295L121.404 55.0257L121.819 55.0255L122.234 55.0292L122.65 55.0366L123.067 55.0478L123.483 55.0628L123.9 55.0817L124.318 55.1045L124.735 55.1312L125.152 55.1618L125.57 55.1964L125.987 55.2349L126.405 55.2774L126.822 55.3239L127.239 55.3744L127.655 55.429L128.071 55.4876L128.487 55.5503L128.902 55.6171L129.317 55.6879L129.731 55.7629L130.144 55.8419L130.556 55.9251L130.968 56.0124L131.378 56.1039L131.788 56.1994L132.196 56.2992L132.604 56.403L133.01 56.511L133.415 56.6232L133.818 56.7396L134.221 56.86L134.621 56.9847L135.02 57.1134L135.418 57.2464L135.813 57.3834L136.207 57.5246L136.6 57.6699L136.99 57.8194L137.378 57.9729L137.765 58.1306L138.149 58.2923L138.531 58.4581L138.91 58.628L139.288 58.802L139.663 58.9799L140.036 59.1619L140.406 59.3479L140.773 59.5379L141.138 59.7318L141.5 59.9297L141.86 60.1315L142.216 60.3372L142.57 60.5468L142.921 60.7603L143.269 60.9775L143.613 61.1986L143.955 61.4235L144.293 61.6521L144.628 61.8844L144.96 62.1204L145.288 62.3601L145.613 62.6034L145.934 62.8502L146.251 63.1007L146.566 63.3547L146.876 63.6121L147.182 63.873L147.485 64.1374L147.784 64.4051L148.079 64.6761L148.37 64.9505L148.657 65.2281L148.94 65.5089L149.219 65.793L149.493 66.0801L149.763 66.3703L150.029 66.6636L150.291 66.9599L150.548 67.2591L150.801 67.5612L151.05 67.8662L151.293 68.174L151.533 68.4846L151.767 68.7979L151.997 69.1138L152.222 69.4323L152.443 69.7534L152.658 70.077L152.869 70.4031L153.075 70.7315L153.276 71.0623L153.472 71.3954L153.663 71.7307L153.849 72.0682L154.03 72.4078L154.206 72.7495L154.377 73.0932L154.542 73.4388L154.702 73.7863L154.858 74.1357L155.007 74.4868L155.152 74.8396L155.291 75.1941L155.425 75.5501L155.554 75.9077L155.677 76.2668L155.794 76.6272L155.907 76.989L156.013 77.352L156.115 77.7163L156.21 78.0817L156.301 78.4482L156.385 78.8158L156.465 79.1842L156.538 79.5536L156.606 79.9238L156.669 80.2948L156.725 80.6664L156.777 81.0387L156.822 81.4116L156.862 81.7849L156.896 82.1587L156.925 82.5328L156.948 82.9073L156.965 83.282L156.977 83.6568L156.983 84.0318L156.984 84.2374Z" stroke="url(#paint0_linear_534_281)"/>
    </g>
    <defs>
        <filter id="filter0_f_534_281" x="0.5" y="0.5" width="165.984" height="167.475" filterUnits="userSpaceOnUse" color-interpolation-filters="sRGB">
            <feFlood flood-opacity="0" result="BackgroundImageFix"/>
            <feBlend mode="normal" in="SourceGraphic" in2="BackgroundImageFix" result="shape"/>
            <feGaussianBlur stdDeviation="4.5" result="effect1_foregroundBlur_534_281"/>
        </filter>
        <linearGradient id="paint0_linear_534_281" x1="156.984" y1="113.789" x2="7.39888" y2="92.1035" gradientUnits="userSpaceOnUse">
            <stop stop-color="#94B3FD"/>
            <stop offset="0.499634" stop-color="#FB6BFE"/>
            <stop offset="1" stop-color="#42C2FF"/>
        </linearGradient>
    </defs>
</svg>
