<svg width="129" height="116" viewBox="0 0 129 116" fill="none" xmlns="http://www.w3.org/2000/svg">
    <g filter="url(#filter0_f_376_2329)">
        <path fill-rule="evenodd" clip-rule="evenodd" d="M118.996 58.0001L118.968 58.2743L118.913 58.548L118.832 58.8208L118.724 59.0922L118.59 59.362L118.43 59.6297L118.244 59.8949L118.031 60.1573L117.794 60.4165L117.53 60.6722L117.242 60.9239L116.928 61.1714L116.59 61.4142L116.228 61.6521L115.842 61.8847L115.432 62.1116L114.999 62.3327L114.544 62.5475L114.066 62.7558L113.567 62.9573L113.046 63.1517L112.505 63.3387L111.943 63.5182L111.362 63.6898L110.761 63.8534L110.143 64.0086L109.506 64.1554L108.852 64.2936L108.182 64.4229L107.495 64.5432L106.793 64.6544L106.077 64.7563L105.347 64.8488L104.604 64.9318L103.848 65.0053L103.08 65.0692L102.302 65.1233L101.513 65.1678L100.715 65.2025L99.9083 65.2274L99.0937 65.2427L98.2719 65.2482L97.4438 65.244L96.6102 65.2303L95.7719 65.207L94.9297 65.1744L94.0843 65.1324L93.2367 65.0812L92.3875 65.0209L91.5377 64.9518L90.6879 64.8739L89.839 64.7875L88.9919 64.6928L88.1472 64.59L87.3058 64.4793L86.4684 64.361L85.6359 64.2353L84.809 64.1025L83.9884 63.963L83.175 63.817L82.3694 63.6648L81.5723 63.5067L80.7846 63.3432L80.0068 63.1745L79.2398 63.001L78.4841 62.8232L77.7404 62.6413L77.0094 62.4558L76.2918 62.2671L75.588 62.0756L74.8989 61.8817L74.2248 61.6859L73.5664 61.4886L72.9243 61.2902L72.2989 61.0912L71.6907 60.8921L71.1004 60.6932L70.5282 60.4952L69.9748 60.2984L69.4404 60.1033L68.9255 59.9104L68.4304 59.7202L67.9556 59.5332L67.5014 59.3497L67.0681 59.1704L66.6559 58.9957L66.2651 58.826L65.896 58.6619L65.5488 58.5037L65.2236 58.3521L64.9207 58.2073L64.6402 58.07L64.3822 57.9406L64.1467 57.8194L63.9339 57.707L63.7438 57.6037L63.5765 57.51L63.4318 57.4264L63.3098 57.3531L63.2105 57.2907L63.1337 57.2395L63.0793 57.1999L63.0473 57.1722L63.0374 57.1569L63.0496 57.1541L63.0835 57.1644L63.139 57.1879L63.2158 57.225L63.3137 57.2759L63.4324 57.341L63.5716 57.4205L63.7309 57.5145L63.91 57.6235L64.1085 57.7474L64.3261 57.8866L64.5623 58.0412L64.8168 58.2113L65.089 58.3972L65.3785 58.5988L65.6848 58.8163L66.0075 59.0498L66.346 59.2992L66.6998 59.5648L67.0684 59.8464L67.4512 60.1441L67.8477 60.4578L68.2572 60.7876L68.6793 61.1333L69.1132 61.4948L69.5584 61.8721L70.0143 62.2651L70.4802 62.6735L70.9555 63.0972L71.4396 63.5361L71.9318 63.9899L72.4315 64.4584L72.938 64.9414L73.4507 65.4386L73.9688 65.9497L74.4918 66.4744L75.0189 67.0124L75.5496 67.5633L76.083 68.1268L76.6186 68.7026L77.1557 69.2901L77.6936 69.8891L78.2317 70.499L78.7692 71.1195L79.3057 71.75L79.8403 72.3901L80.3725 73.0393L80.9016 73.6971L81.4271 74.3629L81.9482 75.0363L82.4644 75.7166L82.975 76.4034L83.4796 77.096L83.9774 77.7938L84.468 78.4963L84.9507 79.2029L85.4251 79.9128L85.8906 80.6256L86.3467 81.3406L86.7928 82.0571L87.2285 82.7745L87.6534 83.4921L88.0668 84.2093L88.4685 84.9255L88.858 85.6398L89.2349 86.3517L89.5988 87.0606L89.9493 87.7656L90.286 88.4662L90.6086 89.1617L90.9169 89.8514L91.2105 90.5346L91.489 91.2107L91.7524 91.879L92.0002 92.5388L92.2324 93.1894L92.4487 93.8303L92.6488 94.4608L92.8327 95.0801L93.0003 95.6878L93.1513 96.2831L93.2857 96.8655L93.4034 97.4343L93.5044 97.989L93.5885 98.529L93.6558 99.0536L93.7064 99.5624L93.7401 100.055L93.757 100.53L93.7573 100.988L93.7409 101.428L93.7081 101.85L93.6588 102.252L93.5932 102.636L93.5115 102.999L93.4138 103.343L93.3004 103.665L93.1714 103.967L93.0271 104.248L92.8677 104.506L92.6935 104.743L92.5046 104.958L92.3015 105.15L92.0844 105.319L91.8536 105.465L91.6095 105.588L91.3524 105.688L91.0827 105.763L90.8006 105.816L90.5067 105.844L90.2013 105.849L89.8847 105.83L89.5575 105.786L89.2199 105.719L88.8726 105.628L88.5158 105.512L88.15 105.373L87.7758 105.21L87.3934 105.024L87.0035 104.813L86.6064 104.58L86.2027 104.323L85.7928 104.043L85.3771 103.741L84.9563 103.416L84.5307 103.069L84.1009 102.7L83.6672 102.309L83.2303 101.897L82.7906 101.465L82.3485 101.011L81.9046 100.538L81.4593 100.046L81.0131 99.5338L80.5664 99.0034L80.1198 98.4549L79.6736 97.8888L79.2284 97.3056L78.7846 96.706L78.3425 96.0904L77.9027 95.4596L77.4656 94.8141L77.0316 94.1545L76.601 93.4816L76.1744 92.7959L75.7519 92.0982L75.3342 91.3891L74.9214 90.6694L74.5139 89.9398L74.1122 89.2009L73.7164 88.4536L73.327 87.6986L72.9442 86.9366L72.5683 86.1685L72.1996 85.395L71.8384 84.6168L71.4848 83.8348L71.1391 83.0498L70.8016 82.2625L70.4724 81.4738L70.1516 80.6845L69.8396 79.8953L69.5364 79.1072L69.2422 78.3208L68.957 77.537L68.681 76.7567L68.4144 75.9805L68.157 75.2093L67.9091 74.444L67.6706 73.6852L67.4415 72.9338L67.222 72.1905L67.0119 71.4562L66.8112 70.7316L66.6199 70.0173L66.438 69.3143L66.2653 68.6231L66.1018 67.9445L65.9474 67.2793L65.802 66.6281L65.6654 65.9915L65.5374 65.3704L65.418 64.7652L65.3069 64.1766L65.204 63.6053L65.109 63.0518L65.0217 62.5168L64.942 62.0007L64.8695 61.5042L64.8041 61.0276L64.7454 60.5716L64.6932 60.1367L64.6472 59.7232L64.6071 59.3316L64.5726 58.9623L64.5433 58.6157L64.5191 58.2921L64.4995 57.992L64.4842 57.7156L64.4729 57.4632L64.4652 57.235L64.4607 57.0314L64.4592 56.8525L64.4602 56.6985L64.4633 56.5696L64.4683 56.4659L64.4747 56.3876L64.4821 56.3346L64.4902 56.3071L64.4986 56.3051L64.507 56.3286L64.5148 56.3776L64.5218 56.452L64.5276 56.5517L64.5318 56.6767L64.534 56.8268L64.5339 57.0018L64.5311 57.2017L64.5252 57.426L64.5159 57.6748L64.5028 57.9476L64.4856 58.2442L64.464 58.5642L64.4375 58.9074L64.406 59.2734L64.369 59.6618L64.3263 60.0722L64.2776 60.5042L64.2225 60.9573L64.1609 61.431L64.0923 61.9249L64.0167 62.4385L63.9337 62.9711L63.8431 63.5223L63.7447 64.0915L63.6383 64.678L63.5237 65.2813L63.4006 65.9008L63.269 66.5358L63.1287 67.1856L62.9795 67.8496L62.8214 68.5271L62.6541 69.2173L62.4777 69.9197L62.292 70.6333L62.097 71.3576L61.8926 72.0917L61.6788 72.8348L61.4555 73.5863L61.2229 74.3454L60.9808 75.1112L60.7294 75.883L60.4686 76.66L60.1986 77.4414L59.9194 78.2263L59.6311 79.014L59.3338 79.8037L59.0277 80.5946L58.7129 81.3858L58.3896 82.1766L58.0579 82.9661L57.718 83.7535L57.3701 84.5381L57.0146 85.319L56.6515 86.0954L56.2811 86.8666L55.9038 87.6318L55.5198 88.3902L55.1293 89.1411L54.7327 89.8836L54.3304 90.6171L53.9226 91.3408L53.5097 92.054L53.092 92.756L52.6699 93.4461L52.2439 94.1235L51.8142 94.7877L51.3812 95.438L50.9455 96.0737L50.5074 96.6942L50.0673 97.2989L49.6256 97.8873L49.1829 98.4587L48.7395 99.0126L48.2959 99.5485L47.8526 100.066L47.41 100.564L46.9686 101.043L46.5288 101.502L46.0912 101.94L45.6562 102.358L45.2243 102.754L44.796 103.129L44.3718 103.482L43.9521 103.813L43.5374 104.122L43.1282 104.407L42.725 104.67L42.3282 104.909L41.9384 105.125L41.556 105.318L41.1814 105.487L40.8151 105.632L40.4576 105.753L40.1093 105.85L39.7706 105.923L39.442 105.972L39.124 105.997L38.8168 105.998L38.5209 105.975L38.2367 105.928L37.9646 105.857L37.705 105.763L37.4581 105.645L37.2245 105.504L37.0043 105.339L36.7979 105.152L36.6056 104.942L36.4277 104.71L36.2645 104.455L36.1162 104.179L35.9832 103.881L35.8655 103.563L35.7634 103.223L35.6771 102.863L35.6068 102.483L35.5527 102.084L35.5148 101.665L35.4934 101.228L35.4884 100.773L35.5001 100.3L35.5284 99.8102L35.5734 99.3037L35.6351 98.7811L35.7135 98.243L35.8087 97.69L35.9205 97.1226L36.049 96.5416L36.194 95.9473L36.3555 95.3406L36.5333 94.7219L36.7273 94.092L36.9374 93.4515L37.1633 92.801L37.405 92.1411L37.6621 91.4726L37.9344 90.7961L38.2217 90.1122L38.5237 89.4217L38.8401 88.7252L39.1707 88.0234L39.515 87.317L39.8727 86.6066L40.2434 85.8929L40.6269 85.1766L41.0226 84.4584L41.4301 83.7389L41.8491 83.0188L42.279 82.2988L42.7194 81.5796L43.1698 80.8617L43.6297 80.1458L44.0986 79.4326L44.576 78.7226L45.0614 78.0166L45.5541 77.3151L46.0536 76.6187L46.5594 75.928L47.0708 75.2437L47.5873 74.5661L48.1082 73.896L48.633 73.2339L49.161 72.5802L49.6916 71.9356L50.2241 71.3004L50.7579 70.6752L51.2924 70.0605L51.8269 69.4567L52.3608 68.8642L52.8933 68.2834L53.4238 67.7149L53.9517 67.1589L54.4763 66.6158L54.997 66.0859L55.5129 65.5697L56.0236 65.0673L56.5283 64.5792L57.0263 64.1055L57.5171 63.6465L58 63.2024L58.4742 62.7735L58.9393 62.36L59.3944 61.962L59.8391 61.5796L60.2727 61.2131L60.6946 60.8625L61.1042 60.5278L61.5009 60.2093L61.8841 59.9069L62.2533 59.6206L62.6079 59.3505L62.9473 59.0965L63.2711 58.8586L63.5788 58.6369L63.8697 58.4311L64.1436 58.2412L64.3998 58.0671L64.6379 57.9088L64.8576 57.7659L65.0584 57.6384L65.2399 57.5261L65.4018 57.4288L65.5436 57.3462L65.6651 57.2782L65.7659 57.2245L65.8458 57.1848L65.9045 57.1589L65.9417 57.1464L65.9572 57.1471L65.9508 57.1605L65.9224 57.1865L65.8717 57.2246L65.7987 57.2744L65.7032 57.3357L65.5852 57.408L65.4445 57.4909L65.2812 57.5839L65.0952 57.6868L64.8866 57.7991L64.6553 57.9203L64.4015 58.05L64.1253 58.1878L63.8267 58.3331L63.5058 58.4856L63.1629 58.6448L62.7982 58.8102L62.4117 58.9813L62.0038 59.1577L61.5748 59.3388L61.1248 59.5243L60.6543 59.7136L60.1635 59.9062L59.6528 60.1017L59.1225 60.2996L58.5731 60.4994L58.005 60.7006L57.4186 60.9027L56.8143 61.1054L56.1927 61.3081L55.5543 61.5103L54.8995 61.7117L54.229 61.9117L53.5433 62.1099L52.8429 62.3059L52.1285 62.4993L51.4006 62.6896L50.6599 62.8764L49.9071 63.0593L49.1428 63.238L48.3676 63.4119L47.5823 63.5809L46.7876 63.7445L45.9842 63.9023L45.1728 64.0541L44.3541 64.1995L43.5289 64.3381L42.6979 64.4698L41.862 64.5942L41.0218 64.711L40.1782 64.82L39.3319 64.9209L38.4838 65.0136L37.6346 65.0978L36.7851 65.1732L35.9362 65.2399L35.0885 65.2974L34.2431 65.3458L33.4005 65.3849L32.5617 65.4145L31.7274 65.4346L30.8985 65.4451L30.0757 65.4459L29.2598 65.437L28.4516 65.4183L27.6519 65.3898L26.8615 65.3515L26.0812 65.3034L25.3116 65.2455L24.5535 65.178L23.8077 65.1008L23.0749 65.014L22.3559 64.9178L21.6512 64.8121L20.9617 64.6973L20.2879 64.5733L19.6306 64.4404L18.9904 64.2986L18.368 64.1483L17.7638 63.9896L17.1786 63.8226L16.6129 63.6477L16.0673 63.465L15.5423 63.2748L15.0384 63.0773L14.5561 62.8729L14.096 62.6617L13.6584 62.4442L13.2438 62.2206L12.8526 61.9911L12.4853 61.7562L12.1421 61.5161L11.8233 61.2712L11.5295 61.0218L11.2607 60.7683L11.0173 60.5111L10.7996 60.2504L10.6076 59.9867L10.4418 59.7203L10.3021 59.4517L10.1888 59.1811L10.1019 58.909L10.0415 58.6358L10.0078 58.3618L10.0007 58.0875L10.0202 57.8132L10.0664 57.5393L10.1392 57.2662L10.2384 56.9942L10.3641 56.7239L10.516 56.4555L10.6941 56.1894L10.8981 55.9261L11.1279 55.6658L11.3832 55.409L11.6637 55.156L11.9693 54.9071L12.2996 54.6628L12.6542 54.4233L13.0328 54.189L13.435 53.9602L13.8605 53.7372L14.3087 53.5204L14.7794 53.31L15.2719 53.1063L15.7859 52.9096L16.3207 52.7202L16.8759 52.5383L17.451 52.3642L18.0453 52.198L18.6582 52.0401L19.2893 51.8906L19.9377 51.7496L20.603 51.6175L21.2845 51.4943L21.9814 51.3802L22.6931 51.2753L23.419 51.1798L24.1582 51.0937L24.9101 51.0172L25.674 50.9503L26.449 50.893L27.2345 50.8455L28.0297 50.8077L28.8338 50.7796L29.646 50.7613L30.4656 50.7527L31.2918 50.7538L32.1237 50.7644L32.9606 50.7847L33.8016 50.8144L34.6461 50.8534L35.4931 50.9017L36.3419 50.9591L37.1916 51.0254L38.0415 51.1005L38.8907 51.1842L39.7385 51.2763L40.584 51.3766L41.4266 51.4848L42.2653 51.6007L43.0994 51.7241L43.9282 51.8546L44.7509 51.992L45.5667 52.136L46.3749 52.2863L47.1748 52.4425L47.9655 52.6043L48.7466 52.7714L49.5171 52.9434L50.2765 53.1199L51.0241 53.3005L51.7591 53.4849L52.4811 53.6727L53.1893 53.8633L53.8832 54.0565L54.5622 54.2517L55.2256 54.4486L55.873 54.6467L56.5038 54.8455L57.1174 55.0447L57.7135 55.2437L58.2915 55.442L58.851 55.6393L59.3915 55.8349L59.9126 56.0286L60.414 56.2197L60.8953 56.4078L61.3561 56.5924L61.7962 56.7731L62.2151 56.9494L62.6127 57.1207L62.9888 57.2867L63.343 57.4468L63.6752 57.6005L63.9852 57.7475L64.2729 57.8872L64.5381 58.0193L64.7807 58.1431L65.0007 58.2584L65.1981 58.3646L65.3727 58.4614L65.5246 58.5483L65.6538 58.6248L65.7603 58.6907L65.8443 58.7456L65.9058 58.7889L65.9449 58.8204L65.9618 58.8398L65.9567 58.8466L65.9297 58.8405L65.881 58.8212L65.811 58.7885L65.7197 58.742L65.6076 58.6814L65.475 58.6066L65.322 58.5172L65.1492 58.413L64.9568 58.2939L64.7452 58.1595L64.5149 58.0099L64.2662 57.8447L63.9996 57.6639L63.7156 57.4673L63.4145 57.2549L63.097 57.0265L62.7635 56.7821L62.4145 56.5217L62.0505 56.2452L61.6722 55.9526L61.28 55.644L60.8746 55.3193L60.4565 54.9787L60.0263 54.6222L59.5846 54.2499L59.1321 53.8619L58.6693 53.4584L58.1969 53.0396L57.7155 52.6055L57.2258 52.1564L56.7284 51.6925L56.224 51.2141L55.7132 50.7215L55.1967 50.2148L54.6752 49.6944L54.1494 49.1606L53.6198 48.6137L53.0872 48.0542L52.5522 47.4823L52.0155 46.8984L51.4778 46.3031L50.9397 45.6966L50.4019 45.0794L49.865 44.4521L49.3297 43.815L48.7967 43.1686L48.2665 42.5135L47.7398 41.8502L47.2173 41.1792L46.6995 40.501L46.187 39.8162L45.6804 39.1254L45.1804 38.4292L44.6874 37.7281L44.2021 37.0228L43.725 36.3138L43.2567 35.6018L42.7975 34.8875L42.3482 34.1714L41.9091 33.4542L41.4807 32.7366L41.0636 32.0192L40.6581 31.3027L40.2647 30.5877L39.8837 29.8749L39.5157 29.165L39.1609 28.4587L38.8197 27.7566L38.4926 27.0594L38.1797 26.3678L37.8814 25.6824L37.598 25.004L37.3298 24.3331L37.077 23.6706L36.8398 23.0169L36.6185 22.3729L36.4132 21.739L36.224 21.1161L36.0513 20.5046L35.895 19.9053L35.7553 19.3187L35.6323 18.7455L35.526 18.1863L35.4365 17.6416L35.3638 17.112L35.3079 16.5981L35.2688 16.1004L35.2465 15.6195L35.2409 15.1559L35.252 14.7101L35.2797 14.2826L35.3237 13.8739L35.3842 13.4843L35.4607 13.1144L35.5533 12.7646L35.6617 12.4353L35.7858 12.1268L35.9252 11.8395L36.0799 11.5738L36.2494 11.33L36.4337 11.1083L36.6322 10.9091L36.8449 10.7327L37.0714 10.5792L37.3113 10.4488L37.5643 10.3418L37.8301 10.2583L38.1082 10.1985L38.3984 10.1624L38.7002 10.1502L39.0133 10.1619L39.3371 10.1976L39.6714 10.2573L40.0157 10.341L40.3696 10.4486L40.7325 10.5801L41.1041 10.7355L41.4839 10.9146L41.8715 11.1173L42.2663 11.3434L42.668 11.5928L43.076 11.8652L43.4899 12.1605L43.9091 12.4783L44.3332 12.8184L44.7618 13.1805L45.1942 13.5643L45.6302 13.9695L46.0691 14.3955L46.5105 14.8422L46.9538 15.309L47.3988 15.7955L47.8447 16.3013L48.2913 16.8258L48.738 17.3686L49.1843 17.9292L49.6299 18.507L50.0742 19.1015L50.5169 19.712L50.9574 20.338L51.3954 20.9789L51.8305 21.634L52.2622 22.3028L52.6902 22.9845L53.114 23.6784L53.5333 24.384L53.9477 25.1004L54.3569 25.8269L54.7605 26.5629L55.1582 27.3076L55.5496 28.0603L55.9346 28.8201L56.3127 29.5864L56.6837 30.3583L57.0474 31.135L57.4034 31.9159L57.7516 32.7001L58.0918 33.4867L58.4237 34.275L58.7471 35.0642L59.0619 35.8535L59.368 36.6421L59.6651 37.4291L59.9531 38.2138L60.232 38.9954L60.5017 39.7729L60.762 40.5458L61.013 41.3131L61.2545 42.074L61.4865 42.8279L61.7091 43.5738L61.9222 44.3111L62.1259 45.0389L62.3202 45.7565L62.505 46.4632L62.6807 47.1583L62.847 47.8409L63.0043 48.5105L63.1526 49.1662L63.292 49.8075L63.4227 50.4336L63.5449 51.044L63.6586 51.6379L63.7641 52.2148L63.8616 52.774L63.9513 53.315L64.0334 53.8372L64.1081 54.34L64.1758 54.8229L64.2366 55.2855L64.2909 55.7272L64.3388 56.1476L64.3808 56.5463L64.417 56.9227L64.4479 57.2766L64.4737 57.6075L64.4947 57.9151L64.5113 58.1991L64.5239 58.4592L64.5327 58.6951L64.5382 58.9066L64.5406 59.0934L64.5404 59.2553L64.5379 59.3922L64.5334 59.504L64.5275 59.5904L64.5203 59.6515L64.5124 59.6871L64.504 59.6972L64.4956 59.6818L64.4876 59.641L64.4803 59.5747L64.4741 59.483L64.4693 59.366L64.4664 59.2239L64.4658 59.0568L64.4677 58.8648L64.4725 58.6482L64.4807 58.4072L64.4926 58.1421L64.5084 57.853L64.5286 57.5404L64.5535 57.2046L64.5834 56.8458L64.6186 56.4645L64.6594 56.061L64.7062 55.6359L64.7592 55.1895L64.8188 54.7222L64.8851 54.2347L64.9584 53.7274L65.039 53.2008L65.1272 52.6554L65.223 52.0919L65.3269 51.5108L65.4389 50.9128L65.5592 50.2984L65.6881 49.6683L65.8256 49.0231L65.972 48.3635L66.1272 47.6903L66.2916 47.004L66.4651 46.3055L66.6478 45.5954L66.8399 44.8744L67.0413 44.1434L67.2521 43.403L67.4723 42.6541L67.702 41.8973L67.941 41.1336L68.1895 40.3636L68.4473 39.5882L68.7144 38.8081L68.9907 38.0242L69.2761 37.2373L69.5705 36.4481L69.8738 35.6576L70.1859 34.8664L70.5065 34.0754L70.8356 33.2854L71.1729 32.4972L71.5182 31.7117L71.8713 30.9295L72.2321 30.1515L72.6001 29.3786L72.9753 28.6114L73.3572 27.8507L73.7456 27.0974L74.1403 26.3521L74.5408 25.6157L74.9469 24.8888L75.3582 24.1721L75.7744 23.4665L76.1952 22.7726L76.62 22.091L77.0486 21.4225L77.4805 20.7678L77.9154 20.1273L78.3528 19.5019L78.7923 18.8921L79.2335 18.2985L79.676 17.7216L80.1192 17.1621L80.5628 16.6204L81.0062 16.0971L81.4491 15.5927L81.891 15.1077L82.3313 14.6424L82.7696 14.1975L83.2055 13.7731L83.6384 13.3699L84.0679 12.988L84.4935 12.628L84.9147 12.29L85.3311 11.9744L85.7421 11.6814L86.1472 11.4114L86.5461 11.1645L86.9382 10.941L87.323 10.7409L87.7002 10.5645L88.0691 10.4119L88.4295 10.2833L88.7808 10.1785L89.1225 10.0978L89.4544 10.0412L89.7759 10.0086L90.0866 10L90.3861 10.0155L90.6741 10.0548L90.95 10.118L91.2137 10.2048L91.4646 10.3152L91.7025 10.449L91.9271 10.606L92.1379 10.786L92.3347 10.9887L92.5172 11.2139L92.6851 11.4614L92.8381 11.7307L92.9761 12.0216L93.0987 12.3337L93.2058 12.6667L93.2971 13.0202L93.3725 13.3938L93.4318 13.7871L93.4749 14.1995L93.5015 14.6307L93.5118 15.0802L93.5054 15.5475L93.4824 16.0321L93.4428 16.5334L93.3864 17.0509L93.3133 17.5841L93.2234 18.1325L93.1169 18.6953L92.9937 19.2721L92.854 19.8622L92.6977 20.465L92.5251 21.0799L92.3362 21.7063L92.1313 22.3435L91.9103 22.9909L91.6737 23.6479L91.4215 24.3137L91.154 24.9878L90.8714 25.6693L90.574 26.3578L90.2622 27.0525L89.9361 27.7527L89.5962 28.4577L89.2427 29.1669L88.876 29.8796L88.4966 30.5952L88.1048 31.3128L87.7009 32.032L87.2856 32.7519L86.8591 33.472L86.422 34.1916L85.9747 34.91L85.5178 35.6266L85.0517 36.3408L84.5769 37.0518L84.094 37.7591L83.6036 38.4621L83.1062 39.1602L82.6024 39.8528L82.0927 40.5392L81.5777 41.219L81.0581 41.8915L80.5345 42.5563L80.0075 43.2127L79.4777 43.8603L78.9457 44.4985L78.4122 45.1269L77.8778 45.745L77.3433 46.3524L76.8091 46.9485L76.2761 47.533L75.7449 48.1055L75.2161 48.6656L74.6903 49.2128L74.1684 49.7469L73.6509 50.2675L73.1384 50.7744L72.6318 51.2671L72.1315 51.7454L71.6384 52.2091L71.1529 52.6579L70.6759 53.0917L70.2078 53.5101L69.7494 53.9131L69.3013 54.3004L68.8641 54.672L68.4384 55.0277L68.0249 55.3675L67.624 55.6912L67.2364 55.9987L66.8627 56.2902L66.5034 56.5654L66.1591 56.8245L65.8302 57.0675L65.5174 57.2944L65.2211 57.5053L64.9417 57.7002L64.6799 57.8793L64.4359 58.0427L64.2103 58.1904L64.0034 58.3228L63.8158 58.4399L63.6476 58.542L63.4994 58.6292L63.3714 58.7018L63.2639 58.7601L63.1773 58.8042L63.1119 58.8345L63.0678 58.8512L63.0454 58.8547L63.0447 58.8453L63.0661 58.8233L63.1097 58.789L63.1756 58.7429L63.2639 58.6852L63.3748 58.6164L63.5082 58.5368L63.6643 58.447L63.8431 58.3471L64.0445 58.2378L64.2685 58.1194L64.5151 57.9924L64.7843 57.8571L65.0758 57.7141L65.3896 57.5639L65.7254 57.4068L66.0833 57.2433L66.4628 57.074L66.8639 56.8992L67.2862 56.7196L67.7296 56.5354L68.1936 56.3473L68.678 56.1557L69.1824 55.961L69.7065 55.7639L70.2498 55.5646L70.812 55.3638L71.3927 55.1619L71.9913 54.9593L72.6074 54.7566L73.2405 54.5542L73.8901 54.3525L74.5557 54.152L75.2367 53.9532L75.9324 53.7564L76.6425 53.5622L77.3661 53.3708L78.1028 53.1829L78.8518 52.9987L79.6125 52.8186L80.3843 52.6431L81.1665 52.4725L81.9582 52.3072L82.759 52.1475L83.5679 51.9937L84.3844 51.8463L85.2076 51.7055L86.0368 51.5715L86.8713 51.4448L87.7102 51.3255L88.5528 51.214L89.3983 51.1105L90.2459 51.0152L91.0948 50.9283L91.9443 50.85L92.7935 50.7806L93.6416 50.7201L94.4879 50.6687L95.3315 50.6267L96.1716 50.594L97.0074 50.5709L97.8381 50.5573L98.6629 50.5534L99.4811 50.5593L100.292 50.5749L101.094 50.6002L101.888 50.6354L102.671 50.6804L103.444 50.7351L104.206 50.7996L104.956 50.8737L105.693 50.9575L106.417 51.0507L107.126 51.1534L107.82 51.2653L108.499 51.3864L109.162 51.5165L109.808 51.6554L110.436 51.803L111.046 51.9591L111.637 52.1235L112.209 52.2959L112.761 52.4762L113.293 52.664L113.803 52.8592L114.293 53.0614L114.76 53.2705L115.205 53.486L115.627 53.7077L116.025 53.9354L116.4 54.1686L116.751 54.4071L117.078 54.6505L117.38 54.8984L117.656 55.1507L117.908 55.4068L118.134 55.6664L118.334 55.9292L118.508 56.1947L118.656 56.4627L118.778 56.7327L118.873 57.0043L118.942 57.2772L118.984 57.551L119 57.8253L118.989 58.0996L118.951 58.3737L118.887 58.6471L118.796 58.9195L118.679 59.1904L118.535 59.4594L118.365 59.7263L118.17 59.9905L117.948 60.2518L117.701 60.5098L117.428 60.764L117.131 61.0142L116.808 61.2601L116.461 61.5011L116.09 61.7371L115.696 61.9677L115.278 62.1926L114.836 62.4114L114.373 62.6239L113.887 62.8297L113.38 63.0287L112.852 63.2204L112.303 63.4047L111.734 63.5814L111.146 63.7501L110.539 63.9107L109.914 64.0629L109.271 64.2066L108.611 64.3415L107.934 64.4676L107.242 64.5846L106.535 64.6924L105.814 64.7909L105.079 64.88L104.331 64.9596L103.571 65.0296L102.799 65.09L102.017 65.1406L101.225 65.1815L100.423 65.2127L99.6135 65.2341L98.7962 65.2458L97.972 65.2478L97.1419 65.2402L96.3065 65.223L95.4666 65.1963L94.6232 65.1602L93.7769 65.1148L92.9286 65.0603L92.0791 64.9968L91.2292 64.9245L90.3797 64.8435L89.5313 64.7541L88.685 64.6564L87.8414 64.5507L87.0014 64.4372L86.1657 64.3162L85.3351 64.1879L84.5104 64.0527L83.6923 63.9107L82.8816 63.7624L82.0791 63.608L81.2853 63.448L80.5011 63.2825L79.7271 63.1121L78.9641 62.937L78.2127 62.7576L77.4736 62.5744L76.7474 62.3877L76.0347 62.1979L75.3362 62.0055L74.6524 61.8108L73.984 61.6144L73.3314 61.4167L72.6953 61.218L72.0761 61.0189L71.4744 60.8198L70.8906 60.6212L70.3252 60.4236L69.7786 60.2274L69.2512 60.033L68.7435 59.8411L68.2558 59.6519L67.7884 59.4661L67.3417 59.2841L66.916 59.1064L66.5116 58.9335L66.1286 58.7658L65.7674 58.6037L65.4282 58.4479L65.1111 58.2987L64.8163 58.1566L64.5439 58.0221L64.2941 57.8956L64.0669 57.7775L63.8623 57.6684L63.6805 57.5686L63.5213 57.4785L63.3849 57.3986L63.2712 57.3292L63.18 57.2708L63.1114 57.2238L63.0651 57.1885L63.0412 57.1652L63.0393 57.1544L63.0594 57.1563L63.1011 57.1714L63.1644 57.1998L63.2489 57.2418L63.3544 57.2979L63.4805 57.3682L63.6271 57.4529L63.7936 57.5523L63.9798 57.6667L64.1853 57.7962L64.4097 57.9409L64.6526 58.1012L64.9135 58.277L65.1921 58.4685L65.4877 58.6759L65.8001 58.8992L66.1286 59.1385L66.4727 59.3938L66.8319 59.6651L67.2057 59.9526L67.5936 60.2561L67.9948 60.5757L68.409 60.9112L68.8354 61.2627L69.2735 61.63L69.7226 62.0129L70.1822 62.4115L70.6516 62.8255L71.1302 63.2548L71.6173 63.6991L72.1124 64.1583L72.6146 64.6321L73.1234 65.1202L73.6381 65.6225L74.1581 66.1386L74.6827 66.6681L75.2112 67.2109L75.7429 67.7664L76.2772 68.3344L76.8134 68.9145L77.3509 69.5062L77.8889 70.1092L78.4269 70.723L78.9641 71.3472L79.5 71.9812L80.0338 72.6247L80.5649 73.2771L81.0928 73.9378L81.6167 74.6065L82.1361 75.2824L82.6504 75.9652L83.1589 76.6541L83.6611 77.3487L84.1563 78.0483L84.6441 78.7523L85.1239 79.4602L85.5951 80.1713L86.0572 80.8849L86.5098 81.6005L86.9522 82.3174L87.384 83.035L87.8048 83.7525L88.214 84.4694L88.6113 85.185L88.9963 85.8985L89.3685 86.6094L89.7275 87.3169L90.0731 88.0205L90.4047 88.7193L90.7222 89.4128L91.0252 90.1002L91.3133 90.7809L91.5864 91.4542L91.8441 92.1195L92.0863 92.776L92.3127 93.4232L92.5232 94.0604L92.7175 94.6869L92.8955 95.3021L93.057 95.9053L93.202 96.496L93.3303 97.0735L93.442 97.6373L93.5368 98.1867L93.6149 98.7212L93.6761 99.2401L93.7205 99.743L93.7482 100.229L93.7591 100.698L93.7533 101.15L93.7309 101.583L93.6921 101.998L93.6368 102.394L93.5654 102.77L93.4779 103.126L93.3745 103.462L93.2554 103.777L93.1208 104.071L92.971 104.344L92.8062 104.595L92.6266 104.824L92.4325 105.03L92.2243 105.214L92.0022 105.375L91.7666 105.512L91.5177 105.627L91.256 105.718L90.9817 105.785L90.6953 105.829L90.3971 105.849L90.0876 105.845L89.7672 105.817L89.4361 105.765L89.095 105.688L88.7441 105.588L88.384 105.465L88.0151 105.317L87.6379 105.145L87.2527 104.95L86.8602 104.731L86.4606 104.489L86.0546 104.224L85.6426 103.936L85.225 103.626L84.8024 103.293L84.3752 102.937L83.9439 102.56L83.509 102.162L83.071 101.743L82.6304 101.302L82.1876 100.842L81.7431 100.362L81.2974 99.8621L80.851 99.3434L80.4043 98.8064L79.9578 98.2514L79.5119 97.679L79.0671 97.0898L78.6239 96.4844L78.1826 95.8632L77.7438 95.227L77.3077 94.5763L76.8749 93.9118L76.4457 93.2342L76.0205 92.5441L75.5998 91.8421L75.1837 91.1291L74.7729 90.4057L74.3674 89.6727L73.9678 88.9306L73.5744 88.1805L73.1873 87.4228L72.807 86.6585L72.4337 85.8883L72.0676 85.113L71.7091 84.3334L71.3584 83.5502L71.0157 82.7643L70.6811 81.9764L70.355 81.1874L70.0374 80.398L69.7285 79.6091L69.4286 78.8215L69.1376 78.036L68.8558 77.2534L68.5832 76.4744L68.3199 75.7L68.0659 74.9308L67.8214 74.1678L67.5863 73.4116L67.3607 72.6631L67.1446 71.923L66.9379 71.192L66.7407 70.4711L66.5528 69.7608L66.3743 69.062L66.2049 68.3753L66.0448 67.7015L65.8936 67.0413L65.7514 66.3953L65.6179 65.7643L65.4931 65.1488L65.3767 64.5496L65.2686 63.9672L65.1686 63.4023L65.0764 62.8555L64.9919 62.3273L64.9149 61.8182L64.845 61.3289L64.782 60.8597L64.7257 60.4113L64.6758 59.9841L64.6319 59.5785L64.5939 59.1949L64.5614 58.8338L64.534 58.4956L64.5115 58.1805L64.4935 57.8889L64.4797 57.6212L64.4697 57.3775L64.4632 57.1583L64.4598 56.9636L64.4593 56.7937L64.4611 56.6488L64.4649 56.5291L64.4705 56.4345L64.4773 56.3654L64.485 56.3217L64.4933 56.3034L64.5017 56.3107L64.5099 56.3434L64.5175 56.4016L64.5241 56.4852L64.5293 56.5942L64.5329 56.7283L64.5343 56.8874L64.5332 57.0715L64.5293 57.2803L64.5222 57.5135L64.5116 57.771L64.4971 58.0525L64.4783 58.3576L64.4549 58.6861L64.4267 59.0376L64.3932 59.4118L64.3542 59.8083L64.3093 60.2265L64.2583 60.6662L64.2009 61.1269L64.1368 61.608L64.0657 62.1091L63.9875 62.6296L63.9017 63.169L63.8083 63.7268L63.707 64.3024L63.5977 64.8951L63.48 65.5043L63.3539 66.1295L63.2191 66.77L63.0756 67.425L62.9232 68.094L62.7617 68.7762L62.5912 69.4709L62.4114 70.1774L62.2223 70.895L62.0239 71.6229L61.8161 72.3604L61.5988 73.1067L61.3722 73.861L61.1361 74.6226L60.8906 75.3907L60.6358 76.1645L60.3717 76.9431L60.0983 77.7259L59.8158 78.5119L59.5242 79.3005L59.2237 80.0907L58.9145 80.8818L58.5965 81.6729L58.2701 82.4633L57.9354 83.2521L57.5926 84.0386L57.242 84.8219L56.8836 85.6013L56.5179 86.376L56.145 87.1451L55.7652 87.9079L55.3788 88.6636L54.9861 89.4116L54.5874 90.1509L54.183 90.8809L53.7733 91.6009L53.3586 92.3101L52.9393 93.0079L52.5157 93.6934L52.0883 94.3662L51.6574 95.0254L51.2234 95.6704L50.7868 96.3007L50.3479 96.9156L49.9071 97.5144L49.4651 98.0967L49.022 98.6618L48.5785 99.2092L48.135 99.7384L47.6918 100.249L47.2496 100.74L46.8088 101.212L46.3697 101.663L45.933 102.094L45.4991 102.504L45.0685 102.893L44.6416 103.26L44.2189 103.605L43.801 103.928L43.3882 104.228L42.9811 104.505L42.5802 104.76L42.1859 104.991L41.7987 105.198L41.4191 105.382L41.0475 105.542L40.6843 105.679L40.3301 105.791L39.9852 105.879L39.6502 105.944L39.3254 105.984L39.0112 106L38.7081 105.992L38.4164 105.96L38.1365 105.905L37.8689 105.826L37.6139 105.723L37.3718 105.596L37.143 105.447L36.9277 105.274L36.7264 105.078L36.5394 104.86L36.3668 104.62L36.209 104.358L36.0662 104.074L35.9386 103.768L35.8266 103.442L35.7302 103.095L35.6498 102.727L35.5853 102.34L35.5371 101.934L35.5052 101.509L35.4897 101.065L35.4907 100.603L35.5084 100.124L35.5428 99.6283L35.5938 99.1158L35.6616 98.5875L35.7461 98.044L35.8473 97.4857L35.9652 96.9133L36.0997 96.3274L36.2507 95.7285L36.4181 95.1174L36.6018 94.4946L36.8017 93.8608L37.0176 93.2165L37.2492 92.5625L37.4965 91.8995L37.7592 91.228L38.037 90.5487L38.3296 89.8624L38.6369 89.1696L38.9585 88.4711L39.2941 87.7675L39.6433 87.0596L40.0058 86.3479L40.3812 85.6332L40.7691 84.9161L41.1691 84.1974L41.5809 83.4776L42.0039 82.7575L42.4376 82.0377L42.8817 81.3188L43.3356 80.6016L43.7989 79.8866L44.271 79.1745L44.7513 78.4659L45.2394 77.7614L45.7346 77.0617L46.2365 76.3673L46.7444 75.6789L47.2577 74.9969L47.7759 74.322L48.2983 73.6548L48.8243 72.9956L49.3533 72.3452L49.8847 71.7039L50.4177 71.0723L50.9519 70.4509L51.4865 69.84L52.0208 69.2403L52.5542 68.652L53.0861 68.0757L53.6158 67.5116L54.1426 66.9602L54.6658 66.4219L55.1848 65.897L55.6989 65.3857L56.2075 64.8885L56.7098 64.4056L57.2053 63.9372L57.6933 63.4836L58.1731 63.045L58.6441 62.6217L59.1056 62.2137L59.5571 61.8214L59.9978 61.4448L60.4272 61.084L60.8447 60.7392L61.2497 60.4104L61.6416 60.0977L62.0198 59.8011L62.3837 59.5207L62.7329 59.2564L63.0667 59.0083L63.3847 58.7763L63.6863 58.5603L63.9711 58.3603L64.2386 58.1762L64.4883 58.0079L64.7198 57.8551L64.9327 57.7179L65.1265 57.5959L65.3009 57.4891L65.4556 57.3971L65.5901 57.3199L65.7041 57.2571L65.7974 57.2085L65.8696 57.1738L65.9205 57.1528L65.9498 57.1451L65.9574 57.1505L65.9431 57.1685L65.9066 57.1989L65.8478 57.2413L65.7666 57.2954L65.663 57.3607L65.5367 57.4368L65.3878 57.5235L65.2163 57.6202L65.0221 57.7265L64.8053 57.8421L64.5658 57.9664L64.3039 58.0991L64.0195 58.2397L63.7128 58.3877L63.3839 58.5426L63.0331 58.7041L62.6604 58.8716L62.2661 59.0447L61.8505 59.2229L61.4139 59.4056L60.9564 59.5926L60.4785 59.7831L59.9804 59.9768L59.4626 60.1733L58.9253 60.3719L58.369 60.5722L57.7942 60.7739L57.2013 60.9763L56.5907 61.179L55.9629 61.3816L55.3185 61.5835L54.658 61.7845L53.9819 61.9839L53.2907 62.1813L52.5852 62.3764L51.8658 62.5687L51.1332 62.7578L50.3881 62.9432L49.631 63.1247L48.8626 63.3017L48.0837 63.4739L47.295 63.6409L46.497 63.8025L45.6906 63.9581L44.8764 64.1076L44.0553 64.2506L43.2279 64.3867L42.395 64.5158L41.5575 64.6375L40.716 64.7515L39.8713 64.8576L39.0243 64.9555L38.1757 65.0451L37.3263 65.1262L36.4769 65.1985L35.6283 65.2618L34.7814 65.3161L33.9369 65.3611L33.0956 65.3968L32.2583 65.4229L31.4259 65.4396L30.5991 65.4465L29.7787 65.4438L28.9655 65.4313L28.1604 65.4091L27.364 65.377L26.5771 65.3351L25.8006 65.2835L25.0351 65.2221L24.2814 65.1511L23.5402 65.0704L22.8123 64.9802L22.0984 64.8805L21.3992 64.7715L20.7153 64.6533L20.0474 64.5261L19.3963 64.3899L18.7624 64.2451L18.1465 64.0917L17.5492 63.9299L16.971 63.76L16.4125 63.5822L15.8743 63.3968L15.3569 63.2039L14.8608 63.0039L14.3866 62.797L13.9345 62.5835L13.5053 62.3637L13.0991 62.1379L12.7165 61.9065L12.3579 61.6696L12.0235 61.4278L11.7138 61.1812L11.429 60.9303L11.1694 60.6754L10.9353 60.4168L10.7269 60.155L10.5444 59.8903L10.388 59.6231L10.2579 59.3537L10.1542 59.0825L10.0769 58.81L10.0262 58.5364L10.0021 58.2623L10.0047 57.9879L10.0339 57.7137L10.0897 57.44L10.1721 57.1673L10.281 56.8959L10.4162 56.6262L10.5776 56.3586L10.7651 56.0935L10.9785 55.8313L11.2176 55.5722L11.4821 55.3167L11.7718 55.0652L12.0863 54.8179L12.4255 54.5753L12.7888 54.3376L13.176 54.1053L13.5868 53.8786L14.0205 53.6578L14.477 53.4433L14.9556 53.2353L15.456 53.0341L15.9776 52.84L16.5199 52.6533L17.0824 52.4742L17.6645 52.3029L18.2656 52.1397L18.8852 51.9848L19.5226 51.8384L20.1773 51.7007L20.8485 51.5718L21.5357 51.4518L22.238 51.3411L22.955 51.2396L23.6858 51.1475L24.4297 51.0649L25.186 50.9918L25.954 50.9284L26.7329 50.8747L27.522 50.8306L28.3205 50.7964L29.1277 50.7718L29.9427 50.7571L30.7647 50.752L31.5931 50.7565L32.4269 50.7707L33.2654 50.7944L34.1078 50.8275L34.9532 50.8699L35.801 50.9215L36.6502 50.9821L37.5001 51.0517L38.3498 51.1299L39.1986 51.2167L40.0457 51.3118L40.8902 51.4149L41.7315 51.526L42.5686 51.6446L43.4009 51.7706L44.2276 51.9037L45.0478 52.0435L45.861 52.1898L46.6662 52.3423L47.4629 52.5006L48.2502 52.6644L49.0275 52.8333L49.794 53.007L50.5492 53.185L51.2923 53.367L52.0227 53.5527L52.7398 53.7415L53.4429 53.9331L54.1314 54.1271L54.8048 54.323L55.4624 54.5204L56.1039 54.7188L56.7285 54.9178L57.3358 55.1169L57.9254 55.3157L58.4967 55.5137L59.0494 55.7105L59.5829 55.9055L60.0969 56.0982L60.5911 56.2883L61.0649 56.4752L61.5183 56.6585L61.9507 56.8376L62.3619 57.0121L62.7517 57.1816L63.1199 57.3455L63.4661 57.5033L63.7903 57.6547L64.0922 57.7991L64.3717 57.9361L64.6288 58.0652L64.8632 58.186L65.075 58.298L65.2641 58.4008L65.4304 58.4941L65.5741 58.5773L65.695 58.65L65.7934 58.7119L65.8692 58.7626L65.9225 58.8017L65.9536 58.8289L65.9625 58.8437L65.9494 58.8459L65.9145 58.835L65.858 58.8109L65.7803 58.7732L65.6814 58.7217L65.5618 58.6559L65.4218 58.5758L65.2616 58.4811L65.0816 58.3715L64.8822 58.2469L64.6638 58.107L64.4267 57.9517L64.1715 57.7809L63.8985 57.5944L63.6082 57.3921L63.3012 57.1738L62.9778 56.9397L62.6386 56.6895L62.2841 56.4232L61.9149 56.1409L61.5314 55.8425L61.1344 55.528L60.7243 55.1976L60.3017 54.8512L59.8673 54.4889L59.4216 54.1109L58.9652 53.7173L58.4989 53.3082L58.0232 52.8838L57.5387 52.4442L57.0461 51.9897L56.5461 51.5206L56.0393 51.037L55.5264 50.5392L55.008 50.0275L54.4848 49.5022L53.9575 48.9636L53.4268 48.4121L52.8932 47.848L52.3575 47.2717L51.8204 46.6837L51.2825 46.0842L50.7444 45.4738L50.2069 44.8529L49.6705 44.222L49.136 43.5814L48.6039 42.9318L48.0749 42.2737L47.5497 41.6075L47.0288 40.9338L46.5128 40.2532L46.0024 39.5662L45.4981 38.8733L45.0006 38.1753L44.5104 37.4726L44.028 36.7658L43.554 36.0557L43.0889 35.3428L42.6333 34.6278L42.1876 33.9112L41.7524 33.1938L41.328 32.4762L40.915 31.759L40.5139 31.0429L40.1249 30.3287L39.7486 29.6169L39.3854 28.9082L39.0355 28.2033L38.6994 27.5029L38.3773 26.8077L38.0697 26.1183L37.7768 25.4353L37.4989 24.7596L37.2363 24.0917L36.9891 23.4323L36.7576 22.782L36.5421 22.1416L36.3426 21.5117L36.1594 20.8928L35.9926 20.2857L35.8424 19.6909L35.7087 19.1091L35.5917 18.5409L35.4915 17.9869L35.4081 17.4476L35.3415 16.9236L35.2918 16.4156L35.2588 15.9239L35.2426 15.4493L35.243 14.9921L35.2601 14.5528L35.2938 14.1321L35.3438 13.7302L35.4101 13.3478L35.4925 12.9851L35.5909 12.6427L35.705 12.3209L35.8346 12.02L35.9796 11.7406L36.1397 11.4828L36.3146 11.247L36.5041 11.0334L36.7078 10.8425L36.9255 10.6743L37.1569 10.5292L37.4016 10.4073L37.6593 10.3088L37.9296 10.2338L38.2122 10.1826L38.5066 10.1552L38.8126 10.1517L39.1296 10.1721L39.4573 10.2165L39.7953 10.2849L40.1431 10.3773L40.5003 10.4936L40.8664 10.6338L41.241 10.7978L41.6237 10.9854L42.014 11.1966L42.4114 11.4312L42.8154 11.689L43.2256 11.9697L43.6414 12.2732L44.0625 12.5992L44.4883 12.9473L44.9183 13.3173L45.3521 13.7089L45.7891 14.1217L46.229 14.5553L46.6712 15.0093L47.1152 15.4833L47.5605 15.9769L48.0068 16.4895L48.4534 17.0207L48.9 17.5701L49.3462 18.1369L49.7913 18.7209L50.2351 19.3212L50.677 19.9374L51.1167 20.5689L51.5537 21.2151L51.9876 21.8752L52.418 22.5487L52.8445 23.235L53.2667 23.9332L53.6843 24.6428L54.0968 25.3629L54.504 26.093L54.9055 26.8322L55.301 27.5799L55.6901 28.3353L56.0726 29.0975L56.4482 29.8659L56.8166 30.6397L57.1775 31.418L57.5307 32.2002L57.876 32.9853L58.2132 33.7727L58.5421 34.5614L58.8624 35.3507L59.174 36.1399L59.4768 36.928L59.7707 37.7142L60.0554 38.4979L60.331 39.2781L60.5973 40.054L60.8542 40.8249L61.1017 41.59L61.3398 42.3485L61.5684 43.0995L61.7876 43.8424L61.9972 44.5763L62.1975 45.3006L62.3883 46.0143L62.5699 46.7169L62.7421 47.4075L62.9052 48.0855L63.0592 48.7501L63.2042 49.4007L63.3405 50.0365L63.468 50.657L63.5871 51.2615L63.6978 51.8493L63.8004 52.4198L63.895 52.9725L63.9819 53.5067L64.0613 54.0219L64.1335 54.5176L64.1986 54.9932L64.257 55.4483L64.309 55.8823L64.3547 56.2949L64.3946 56.6855L64.4288 57.0538L64.4578 57.3994L64.4818 57.7219L64.5012 58.021L64.5164 58.2963L64.5275 58.5477L64.5351 58.7747L64.5394 58.9772L64.5408 59.155L64.5397 59.3079L64.5365 59.4357L64.5314 59.5383L64.525 59.6155L64.5175 59.6673L64.5094 59.6937L64.501 59.6946L64.4927 59.6699L64.4848 59.6198L64.4779 59.5443L64.4721 59.4434L64.468 59.3173L64.4659 59.1661L64.4661 58.99L64.4691 58.7891L64.4751 58.5636L64.4846 58.3138L64.4978 58.0399L64.5152 57.7423L64.5371 57.4212L64.5637 57.077L64.5955 56.71L64.6327 56.3206L64.6757 55.9092L64.7247 55.4763L64.7801 55.0223L64.842 54.5476L64.9108 54.0528L64.9868 53.5385L65.0701 53.005L65.161 52.453L65.2598 51.883L65.3666 51.2957L65.4816 50.6916L65.605 50.0715L65.737 49.4358L65.8777 48.7854L66.0273 48.1207L66.1858 47.4427L66.3535 46.7519L66.5303 46.0491L66.7164 45.3349L66.9119 44.6102L67.1167 43.8757L67.3309 43.1321L67.5546 42.3803L67.7876 41.6209L68.0301 40.8548L68.282 40.0827L68.5432 39.3055L68.8136 38.524L69.0932 37.7389L69.3819 36.9511L69.6796 36.1613L69.9861 35.3704L70.3013 34.5792L70.625 33.7885L70.9571 32.9991L71.2973 32.2118L71.6455 31.4274L72.0014 30.6466L72.3648 29.8704L72.7355 29.0994L73.1131 28.3345L73.4974 27.5764L73.8882 26.8259L74.285 26.0838L74.6876 25.3507L75.0956 24.6274L75.5088 23.9147L75.9266 23.2133L76.3489 22.5237L76.7751 21.8469L77.205 21.1833L77.638 20.5336L78.0739 19.8986L78.5121 19.2788L78.9523 18.6747L79.394 18.0871L79.8368 17.5165L80.2802 16.9634L80.7238 16.4283L81.1671 15.9118L81.6096 15.4144L82.051 14.9365L82.4906 14.4786L82.9281 14.041L83.363 13.6243L83.7947 13.2288L84.2229 12.8548L84.6469 12.5027L85.0664 12.1728L85.4809 11.8654L85.8898 11.5808L86.2927 11.3191L86.6892 11.0807L87.0787 10.8656L87.4608 10.6742L87.835 10.5064L88.2009 10.3625L88.558 10.2425L88.9059 10.1465L89.2442 10.0745L89.5723 10.0266L89.8899 10.0027L90.1966 10.0029L90.492 10.027L90.7756 10.075L91.0472 10.1468L91.3063 10.2422L91.5525 10.3611L91.7856 10.5033L92.0052 10.6687L92.2109 10.857L92.4026 11.0679L92.5798 11.3012L92.7424 11.5566L92.89 11.8338L93.0224 12.1324L93.1394 12.4522L93.2408 12.7927L93.3263 13.1535L93.3959 13.5343L93.4493 13.9346L93.4864 14.3539L93.5072 14.7918L93.5114 15.2478L93.499 15.7214L93.47 16.2121L93.4242 16.7194L93.3618 17.2427L93.2826 17.7814L93.1867 18.3351L93.0741 18.903L92.9449 19.4847L92.7992 20.0795L92.637 20.6868L92.4584 21.306L92.2637 21.9364L92.0529 22.5774L91.8263 23.2283L91.5839 23.8886L91.3262 24.5574L91.0531 25.2343L90.7652 25.9185L90.4625 26.6093L90.1455 27.306L89.8143 28.008L89.4694 28.7147L89.1111 29.4252L88.7398 30.139L88.3558 30.8554L87.9596 31.5737L87.5515 32.2932L87.1321 33.0133L86.7017 33.7333L86.2608 34.4525L85.81 35.1703L85.3496 35.8861L84.8803 36.5992L84.4026 37.309L83.9169 38.0148L83.4239 38.7161L82.9241 39.4123L82.418 40.1027L81.9064 40.7867L81.3897 41.4639L80.8685 42.1337L80.3436 42.7955L79.8155 43.4488L79.2848 44.093L78.7522 44.7278L78.2183 45.3525L77.6838 45.9667L77.1493 46.5701L76.6155 47.162L76.0831 47.7422L75.5526 48.3102L75.0249 48.8657L74.5004 49.4082L73.98 49.9375L73.4643 50.4531L72.9539 50.9548L72.4494 51.4423L71.9517 51.9154L71.4612 52.3737L70.9788 52.8171L70.5049 53.2453L70.0403 53.6582L69.5856 54.0555L69.1414 54.4371L68.7083 54.803L68.2869 55.1529L67.8779 55.4868L67.4818 55.8047L67.0992 56.1064L66.7306 56.3919L66.3767 56.6613L66.0379 56.9146L65.7148 57.1517L65.4079 57.3728L65.1177 57.5779L64.8447 57.767L64.5892 57.9404L64.3519 58.0981L64.133 58.2403L63.9331 58.3671L63.7525 58.4787L63.5915 58.5754L63.4506 58.6573L63.33 58.7246L63.2301 58.7777L63.1511 58.8168L63.0934 58.8421L63.0571 58.854L63.0426 58.8528L63.0499 58.8387L63.0794 58.8122L63.131 58.7736L63.205 58.7232L63.3015 58.6615L63.4206 58.5887L63.5623 58.5054L63.7266 58.4119L63.9136 58.3085L64.1232 58.1959L64.3554 58.0743L64.6102 57.9442L64.8875 57.8061L65.1871 57.6604L65.5089 57.5076L65.8528 57.3482L66.2185 57.1825L66.6059 57.0112L67.0148 56.8346L67.4447 56.6532L67.8956 56.4676L68.3671 56.2781L68.8588 56.0853L69.3704 55.8897L69.9015 55.6918L70.4517 55.4919L71.0207 55.2906L71.6079 55.0884L72.2129 54.8858L72.8353 54.6831L73.4744 54.4809L74.1299 54.2796L74.8011 54.0796L75.4875 53.8815L76.1885 53.6856L76.9036 53.4924L77.632 53.3022L78.3732 53.1156L79.1266 52.9328L79.8914 52.7544L80.667 52.5806L81.4527 52.4119L82.2479 52.2485L83.0517 52.091L83.8634 51.9395L84.6824 51.7944L85.5079 51.656L86.3391 51.5247L87.1752 51.4006L88.0156 51.2842L88.8593 51.1755L89.7057 51.0749L90.5539 50.9827L91.4031 50.8989L92.2526 50.8238L93.1015 50.7576L93.949 50.7004L94.7944 50.6524L95.6368 50.6137L96.4754 50.5845L97.3095 50.5648L98.1382 50.5548L98.9607 50.5544L99.7762 50.5638L100.584 50.5829L101.383 50.6119L102.173 50.6506L102.953 50.6991L103.722 50.7574L104.48 50.8254L105.225 50.903L105.957 50.9902L106.676 51.0869L107.38 51.1929L108.069 51.3082L108.742 51.4326L109.398 51.5659L110.038 51.708L110.659 51.8587L111.263 52.0178L111.847 52.1852L112.412 52.3605L112.956 52.5435L113.481 52.734L113.983 52.9318L114.465 53.1365L114.924 53.3479L115.36 53.5658L115.774 53.7897L116.164 54.0194L116.53 54.2545L116.873 54.4948L117.19 54.74L117.483 54.9895L117.751 55.2432L117.993 55.5006L118.21 55.7614L118.4 56.0252L118.565 56.2917L118.703 56.5605L118.816 56.8311L118.901 57.1032L118.961 57.3765L118.993 57.6505L118.999 57.9249L118.978 58.1992L118.931 58.4731L118.857 58.7461L118.757 59.018L118.63 59.2882L118.477 59.5565L118.297 59.8225L118.092 60.0857L117.861 60.3458L117.605 60.6025L117.323 60.8553L117.017 61.104L116.685 61.3481L116.33 61.5874L115.95 61.8215L115.547 62.05L115.12 62.2727L114.671 62.4893L114.199 62.6994L113.706 62.9027L113.191 63.0991L112.655 63.2882L112.099 63.4698L111.523 63.6435L110.928 63.8093L110.314 63.9669L109.682 64.116L109.033 64.2566L108.367 64.3883L107.685 64.5111L106.987 64.6248L106.275 64.7293L105.548 64.8244L104.809 64.91L104.056 64.9861L103.292 65.0526L102.516 65.1095L101.73 65.1566L100.935 65.1939L100.13 65.2216L99.3177 65.2395L98.4978 65.2476L97.6714 65.2461L96.8392 65.235L96.0021 65.2144L95.1609 65.1842L94.3163 65.1448L93.4692 65.0961L92.6204 65.0383L91.7707 64.9716L90.9208 64.8961L90.0716 64.812L89.2239 64.7196L88.3785 64.619L87.5361 64.5104L86.6975 64.3942L85.8636 64.2705L85.0351 64.1396L84.2127 64.0019L83.3972 63.8576L82.5894 63.7071L81.7899 63.5506L80.9995 63.3885L80.219 63.2212L79.4489 63.049L78.69 62.8723L77.943 62.6915L77.2085 62.507L76.4871 62.3191L75.7795 62.1283L75.0863 61.9351L74.408 61.7397L73.7453 61.5428L73.0986 61.3446L72.4686 61.1458L71.8557 60.9466L71.2604 60.7477L70.6832 60.5494L70.1246 60.3522L69.5849 60.1566L69.0646 59.9631L68.5641 59.7721L68.0838 59.5841L67.6239 59.3996L67.1848 59.2191L66.7667 59.0431L66.3701 58.872L65.995 58.7063L65.6418 58.5464L65.3106 58.393L65.0015 58.2463L64.7149 58.1069L64.4506 57.9752L64.209 57.8517L63.99 57.7369L63.7937 57.6311L63.6201 57.5347L63.4692 57.4483L63.341 57.3722L63.2355 57.3067L63.1525 57.2524L63.092 57.2096L63.0539 57.1786L63.0379 57.1598L63.044 57.1536L63.072 57.1603L63.1216 57.1801L63.1926 57.2134L63.2848 57.2606L63.3978 57.3217L63.5314 57.3972L63.6852 57.4873L63.8589 57.5921L64.0522 57.7119L64.2646 57.8469L64.4957 57.9973L64.7452 58.1632L65.0126 58.3447L65.2974 58.5419L65.5992 58.7551L65.9175 58.9842L66.2517 59.2293L66.6014 59.4904L66.9659 59.7676L67.3449 60.0609L67.7377 60.3703L68.1437 60.6956L68.5624 61.0369L68.9931 61.3942L69.4353 61.7671L69.8883 62.1558L70.3515 62.56L70.8243 62.9796L71.3061 63.4143L71.7961 63.8641L72.2938 64.3286L72.7985 64.8076L73.3096 65.3009L73.8263 65.8082L74.348 66.3292L74.8741 66.8636L75.4038 67.411L75.9365 67.9711L76.4716 68.5436L77.0084 69.1279L77.5461 69.7238L78.0842 70.3308L78.622 70.9484L79.1588 71.5762L79.694 72.2137L80.2269 72.8604L80.7569 73.5159L81.2834 74.1796L81.8058 74.851L82.3234 75.5295L82.8356 76.2145L83.3419 76.9056L83.8416 77.602L84.3343 78.3033L84.8192 79.0088L85.2959 79.7179L85.7639 80.43L86.2226 81.1444L86.6715 81.8606L87.1101 82.5778L87.538 83.2954L87.9547 84.0128L88.3596 84.7293L88.7525 85.4442L89.1329 86.1569L89.5004 86.8666L89.8545 87.5728L90.1951 88.2747L90.5216 88.9716L90.8338 89.663L91.1315 90.348L91.4142 91.0261L91.6817 91.6966L91.9339 92.3588L92.1703 93.012L92.391 93.6557L92.5956 94.289L92.784 94.9115L92.956 95.5224L93.1115 96.1212L93.2505 96.7072L93.3728 97.2798L93.4783 97.8384L93.5671 98.3824L93.6391 98.9113L93.6942 99.4245L93.7325 99.9215L93.7541 100.402L93.7589 100.864L93.7471 101.309L93.7187 101.736L93.6739 102.144L93.6128 102.533L93.5355 102.902L93.4422 103.251L93.3331 103.579L93.2083 103.887L93.0682 104.173L92.9129 104.438L92.7427 104.681L92.5578 104.901L92.3586 105.099L92.1453 105.275L91.9182 105.427L91.6777 105.557L91.4242 105.663L91.1578 105.745L90.8791 105.804L90.5884 105.839L90.2861 105.85L89.9726 105.837L89.6482 105.8L89.3135 105.74L88.9687 105.655L88.6145 105.546L88.2511 105.414L87.8792 105.257L87.499 105.077L87.1111 104.873L86.7159 104.646L86.314 104.396L85.9057 104.122L85.4916 103.826L85.0722 103.507L84.6478 103.166L84.2191 102.803L83.7864 102.418L83.3504 102.012L82.9114 101.585L82.4699 101.138L82.0264 100.67L81.5814 100.183L81.1354 99.676L80.6889 99.1506L80.2422 98.607L79.7958 98.0457L79.3503 97.4671L78.9061 96.8719L78.4635 96.2607L78.023 95.634L77.5852 94.9925L77.1502 94.3367L76.7187 93.6674L76.2909 92.9851L75.8673 92.2906L75.4482 91.5846L75.034 90.8677L74.6251 90.1407L74.2217 89.4043L73.8243 88.6593L73.4331 87.9063L73.0485 87.1462L72.6707 86.3796L72.3 85.6075L71.9366 84.8305L71.5809 84.0495L71.2331 83.2652L70.8933 82.4785L70.5618 81.6901L70.2387 80.9009L69.9243 80.1116L69.6186 79.3231L69.3219 78.5361L69.0343 77.7516L68.7558 76.9702L68.4865 76.1928L68.2266 75.4202L67.9761 74.6532L67.735 73.8925L67.5034 73.139L67.2812 72.3934L67.0685 71.6566L66.8653 70.9292L66.6714 70.212L66.4869 69.5058L66.3117 68.8113L66.1458 68.1292L65.9889 67.4603L65.841 66.8052L65.702 66.1645L65.5716 65.5391L65.4499 64.9294L65.3365 64.3363L65.2314 63.7602L65.1343 63.2018L65.0449 62.6616L64.9631 62.1403L64.8887 61.6383L64.8213 61.1562L64.7608 60.6946L64.7069 60.2538L64.6592 59.8344L64.6175 59.4367L64.5815 59.0612L64.5508 58.7084L64.5253 58.3785L64.5044 58.0719L64.488 57.789L64.4756 57.5299L64.4669 57.2951L64.4616 57.0848L64.4593 56.8991L64.4597 56.7382L64.4623 56.6024L64.4668 56.4918L64.4728 56.4065L64.48 56.3466L64.488 56.3121L64.4963 56.3031L64.5047 56.3196L64.5127 56.3616L64.52 56.429L64.5262 56.5218L64.5308 56.6399L64.5336 56.7831L64.5342 56.9514L64.5322 57.1444L64.5271 57.3621L64.5188 57.6042L64.5068 57.8704L64.4908 58.1605L64.4704 58.4742L64.4453 58.8111L64.4152 59.1708L64.3797 59.5531L64.3386 59.9576L64.2915 60.3837L64.2382 60.831L64.1784 61.2991L64.1118 61.7876L64.0382 62.2958L63.9572 62.8232L63.8687 63.3694L63.7725 63.9337L63.6683 64.5155L63.5559 65.1143L63.4352 65.7294L63.306 66.3602L63.1681 67.0061L63.0213 67.6662L62.8656 68.3401L62.7009 69.0269L62.527 69.726L62.3438 70.4366L62.1514 71.158L61.9495 71.8895L61.7383 72.6303L61.5177 73.3796L61.2876 74.1366L61.0481 74.9007L60.7992 75.6709L60.541 76.4466L60.2735 77.2268L59.9968 78.0108L59.711 78.7979L59.4162 79.5871L59.1125 80.3777L58.8001 81.1689L58.479 81.9599L58.1496 82.7498L57.8119 83.5379L57.4663 84.3233L57.1128 85.1053L56.7517 85.8831L56.3833 86.6558L56.0079 87.4227L55.6257 88.183L55.237 88.936L54.842 89.6809L54.4412 90.417L54.0349 91.1434L53.6233 91.8596L53.2069 92.5647L52.786 93.2581L52.361 93.9391L51.9323 94.607L51.5002 95.2612L51.0652 95.9009L50.6277 96.5257L50.1881 97.1348L49.7468 97.7277L49.3043 98.3038L48.8611 98.8625L48.4175 99.4034L47.9741 99.9259L47.5312 100.429L47.0894 100.914L46.6492 101.378L46.2109 101.822L45.7752 102.245L45.3424 102.648L44.9131 103.029L44.4876 103.388L44.0666 103.725L43.6505 104.039L43.2398 104.331L42.8349 104.6L42.4363 104.846L42.0446 105.069L41.66 105.268L41.2833 105.443L40.9147 105.594L40.5547 105.722L40.2038 105.826L39.8625 105.905L39.5311 105.961L39.2101 105.992L38.8999 106L38.6008 105.983L38.3134 105.943L38.038 105.879L37.7749 105.791L37.5245 105.679L37.2872 105.545L37.0633 105.387L36.8531 105.206L36.6569 105.002L36.475 104.776L36.3078 104.527L36.1554 104.257L36.0181 103.965L35.8962 103.652L35.7898 103.318L35.6992 102.964L35.6245 102.589L35.5659 102.195L35.5236 101.782L35.4976 101.35L35.4882 100.9L35.4952 100.432L35.519 99.9462L35.5594 99.4441L35.6165 98.9259L35.6903 98.392L35.7809 97.843L35.8882 97.2796L36.0121 96.7022L36.1526 96.1115L36.3096 95.5081L36.4829 94.8927L36.6725 94.2658L36.8782 93.6281L37.0998 92.9802L37.3372 92.3229L37.5901 91.6567L37.8582 90.9823L38.1415 90.3004L38.4395 89.6116L38.752 88.9167L39.0787 88.2163L39.4192 87.511L39.7733 86.8017L40.1405 86.0888L40.5205 85.3732L40.9129 84.6554L41.3172 83.9362L41.7331 83.2163L42.1601 82.4962L42.5976 81.7766L43.0454 81.0583L43.5027 80.3418L43.9692 79.6278L44.4444 78.9169L44.9276 78.2097L45.4183 77.5069L45.916 76.8091L46.4201 76.1168L46.9301 75.4306L47.4452 74.7512L47.965 74.079L48.4888 73.4146L49.016 72.7585L49.5459 72.1113L50.078 71.4735L50.6115 70.8456L51.1459 70.2279L51.6805 69.6211L52.2145 69.0254L52.7475 68.4414L53.2786 67.8695L53.8073 67.31L54.3329 66.7633L54.8547 66.2298L55.372 65.7098L55.8842 65.2036L56.3906 64.7116L56.8905 64.2339L57.3833 63.7708L57.8684 63.3227L58.3451 62.8896L58.8127 62.4718L59.2707 62.0695L59.7183 61.6829L60.155 61.312L60.5802 60.957L60.9932 60.618L61.3935 60.295L61.7804 59.9882L62.1535 59.6974L62.5122 59.4229L62.8558 59.1645L63.184 58.9222L63.4961 58.6961L63.7917 58.4859L64.0702 58.2917L64.3313 58.1133L64.5745 57.9506L64.7993 57.8035L65.0053 57.6718L65.1921 57.5554L65.3594 57.454L65.5067 57.3674L65.6338 57.2954L65.7404 57.2378L65.826 57.1943L65.8905 57.1647L65.9336 57.1485L65.9551 57.1456L65.9548 57.1556L65.9324 57.1782L65.8878 57.213L65.821 57.2596L65.7316 57.3178L65.6198 57.3871L65.4853 57.4671L65.3282 57.5574L65.1484 57.6577L64.946 57.7674L64.721 57.8862L64.4734 58.0136L64.2032 58.1492L63.9107 58.2925L63.596 58.4431L63.2591 58.6005L62.9003 58.7642L62.5198 58.9338L62.1178 59.1088L61.6945 59.2887L61.2502 59.473L60.7853 59.6613L60.3 59.8531L59.7947 60.0478L59.2698 60.2451L58.7256 60.4444L58.1625 60.6453L57.5811 60.8473L56.9817 61.0498L56.3648 61.2526L55.731 61.455L55.0806 61.6566L54.4144 61.857L53.7327 62.0558L53.0363 62.2525L52.3257 62.4466L51.6014 62.6377L50.8642 62.8255L50.1146 63.0096L49.3534 63.1894L48.5811 63.3647L47.7986 63.5351L47.0064 63.7002L46.2052 63.8597L45.3959 64.0131L44.5792 64.1603L43.7557 64.3008L42.9262 64.4344L42.0916 64.5608L41.2525 64.6797L40.4097 64.7909L39.5641 64.8941L38.7164 64.989L37.8674 65.0756L37.018 65.1534L36.1688 65.2225L35.3207 65.2826L34.4746 65.3335L33.6311 65.3751L32.7912 65.4074L31.9556 65.4301L31.1251 65.4432L30.3006 65.4467L29.4827 65.4404L28.6724 65.4244L27.8703 65.3986L27.0772 65.3629L26.294 65.3175L25.5214 65.2624L24.7601 65.1975L24.0109 65.1229L23.2745 65.0387L22.5516 64.9451L21.8429 64.842L21.1492 64.7297L20.471 64.6082L19.8091 64.4777L19.1642 64.3384L18.5368 64.1904L17.9276 64.0339L17.3371 63.8692L16.766 63.6964L16.2148 63.5158L15.6841 63.3276L15.1744 63.1321L14.6862 62.9296L14.2199 62.7203L13.7761 62.5045L13.3552 62.2825L12.9575 62.0546L12.5836 61.8211L12.2337 61.5824L11.9083 61.3388L11.6075 61.0906L11.3319 60.8382L11.0815 60.5819L10.8567 60.3222L10.6577 60.0593L10.4846 59.7936L10.3378 59.5255L10.2172 59.2555L10.1231 58.9837L10.0554 58.7108L10.0144 58.437L10 58.1627L10.0122 57.8883L10.0511 57.6143L10.1166 57.3409L10.2086 57.0686L10.327 56.7978L10.4718 56.5289L10.6427 56.2621L10.8396 55.998L11.0623 55.7368L11.3107 55.479L11.5843 55.2249L11.8831 54.9749L12.2066 54.7293L12.5545 54.4884L12.9266 54.2527L13.3224 54.0223L13.7415 53.7977L14.1836 53.5792L14.6482 53.367L15.1347 53.1615L15.6429 52.9628L16.172 52.7714L16.7217 52.5874L17.2914 52.4111L17.8805 52.2428L18.4884 52.0826L19.1145 51.9307L19.7583 51.7874L20.419 51.6528L21.0961 51.5272L21.7889 51.4106L22.4966 51.3032L23.2186 51.2051L23.9543 51.1164L24.7028 51.0372L25.4634 50.9677L26.2355 50.9078L27.0182 50.8576L27.8108 50.8171L28.6125 50.7863L29.4226 50.7654L30.2403 50.7541L31.0647 50.7525L31.8951 50.7606L32.7307 50.7782L33.5707 50.8053L34.4143 50.8418L35.2607 50.8876L36.1091 50.9425L36.9586 51.0064L37.8085 51.0791L38.658 51.1604L39.5063 51.2502L40.3525 51.3483L41.196 51.4543L42.0358 51.5682L42.8713 51.6895L43.7016 51.8181L44.526 51.9537L45.3438 52.0959L46.1542 52.2445L46.9564 52.3991L47.7497 52.5594L48.5335 52.7251L49.307 52.8958L50.0695 53.0711L50.8203 53.2506L51.5589 53.434L52.2845 53.6209L52.9966 53.8108L53.6945 54.0033L54.3776 54.198L55.0453 54.3945L55.6971 54.5923L56.3325 54.791L56.9509 54.9901L57.5519 55.1892L58.1349 55.3877L58.6995 55.5853L59.2452 55.7815L59.7717 55.9757L60.2786 56.1676L60.7654 56.3566L61.2319 56.5422L61.6776 56.724L62.1024 56.9015L62.5059 57.0743L62.8879 57.2417L63.2481 57.4035L63.5863 57.559L63.9024 57.7079L64.1962 57.8497L64.4676 57.9839L64.7165 58.11L64.9427 58.2277L65.1462 58.3364L65.3271 58.4358L65.4852 58.5254L65.6206 58.6049L65.7334 58.6738L65.8235 58.7317L65.8911 58.7782L65.9364 58.813L65.9594 58.8357L65.9603 58.846L65.9392 58.8434L65.8965 58.8278L65.8323 58.7988L65.7468 58.7561L65.6404 58.6995L65.5134 58.6285L65.3659 58.5432L65.1985 58.4431L65.0115 58.328L64.8051 58.1979L64.5799 58.0524L64.3362 57.8915L64.0745 57.715L63.7951 57.5228L63.4987 57.3147L63.1857 57.0907L62.8565 56.8507L62.5117 56.5947L62.1518 56.3226L61.7773 56.0344L61.3889 55.7302L60.987 55.4099L60.5723 55.0737L60.1454 54.7215L59.7068 54.3535L59.2572 53.9698L58.7971 53.5706L58.3273 53.1559L57.8483 52.726L57.3608 52.281L56.8655 51.8212L56.3629 51.3467L55.8538 50.8579L55.3389 50.355L54.8187 49.8384L54.2939 49.3082L53.7653 48.7649L53.2334 48.2088L52.699 47.6403L52.1627 47.0597L51.6252 46.4674L51.0872 45.8639L50.5492 45.2497L50.012 44.625L49.4763 43.9906L48.9425 43.3467L48.4115 42.6939L47.8838 42.0328L47.3601 41.3638L46.8409 40.6876L46.3269 40.0045L45.8186 39.3153L45.3168 38.6205L44.8218 37.9207L44.3344 37.2165L43.855 36.5085L43.3841 35.7973L42.9224 35.0835L42.4704 34.3678L42.0284 33.6509L41.5971 32.9333L41.1768 32.2158L40.7681 31.499L40.3713 30.7835L39.9869 30.07L39.6153 29.3593L39.2568 28.6519L38.9119 27.9486L38.5808 27.25L38.264 26.5567L37.9617 25.8696L37.6742 25.1892L37.4018 24.5162L37.1447 23.8513L36.9033 23.1952L36.6776 22.5484L36.4678 21.9117L36.2743 21.2857L36.097 20.6711L35.9362 20.0683L35.7919 19.4782L35.6643 18.9013L35.5534 18.3381L35.4593 17.7894L35.382 17.2556L35.3215 16.7374L35.2779 16.2352L35.251 15.7497L35.2408 15.2813L35.2473 14.8305L35.2704 14.398L35.31 13.984L35.366 13.5892L35.4381 13.2138L35.5264 12.8585L35.6305 12.5235L35.7502 12.2092L35.8855 11.9161L36.036 11.6445L36.2015 11.3946L36.3817 11.1669L36.5764 10.9615L36.7852 10.7788L37.0079 10.619L37.2442 10.4822L37.4936 10.3688L37.7559 10.2788L38.0308 10.2125L38.3177 10.1699L38.6163 10.1511L38.9264 10.1563L39.2473 10.1854L39.5788 10.2385L39.9204 10.3156L40.2716 10.4167L40.6321 10.5417L41.0014 10.6906L41.379 10.8632L41.7645 11.0594L42.1574 11.2791L42.5573 11.5221L42.9636 11.7882L43.3759 12.0773L43.7937 12.3889L44.2165 12.723L44.6439 13.0791L45.0753 13.457L45.5104 13.8563L45.9485 14.2767L46.3892 14.7177L46.8321 15.179L47.2767 15.6602L47.7224 16.1607L48.1688 16.6802L48.6155 17.218L49.062 17.7738L49.5079 18.3469L49.9526 18.9369L50.3957 19.5431L50.8369 20.1649L51.2756 20.8018L51.7116 21.4531L52.1442 22.1182L52.5732 22.7964L52.9982 23.487L53.4188 24.1894L53.8346 24.9029L54.2452 25.6268L54.6504 26.3603L55.0498 27.1027L55.443 27.8532L55.8297 28.6111L56.2097 29.3757L56.5827 30.1462L56.9484 30.9217L57.3066 31.7015L57.657 32.4848L57.9994 33.2709L58.3335 34.0588L58.6593 34.8478L58.9765 35.6372L59.285 36.426L59.5845 37.2136L59.8751 37.999L60.1565 38.7815L60.4287 39.5602L60.6916 40.3344L60.9451 41.1033L61.1892 41.8661L61.4239 42.622L61.649 43.3702L61.8647 44.1099L62.071 44.8404L62.2678 45.5609L62.4553 46.2706L62.6334 46.9689L62.8023 47.655L62.9621 48.3283L63.1129 48.9879L63.2547 49.6332L63.3878 50.2636L63.5122 50.8783L63.6282 51.4768L63.736 52.0584L63.8356 52.6225L63.9275 53.1685L64.0116 53.6959L64.0884 54.2041L64.1579 54.6926L64.2206 55.1608L64.2766 55.6083L64.3263 56.0346L64.3698 56.4392L64.4076 56.8218L64.4399 57.1819L64.4671 57.5191L64.4894 57.8331L64.5072 58.1237L64.5208 58.3903L64.5307 58.6329L64.537 58.8511L64.5402 59.0446L64.5407 59.2134L64.5388 59.3572L64.5348 59.4758L64.5292 59.5692L64.5224 59.6373L64.5146 59.6798L64.5063 59.697L64.4979 59.6886L64.4897 59.6547L64.4822 59.5954L64.4756 59.5106L64.4704 59.4006L64.467 59.2654L64.4657 59.1051L64.4669 58.9199L64.4709 58.7101L64.4781 58.4757L64.4889 58.2172L64.5036 57.9346L64.5226 57.6285L64.5462 57.2989L64.5747 56.9464L64.6084 56.5712L64.6477 56.1738L64.6928 55.7546L64.7441 55.3139L64.8018 54.8524L64.8662 54.3704L64.9376 53.8684L65.0162 53.347L65.1022 52.8067L65.196 52.2482L65.2976 51.6718L65.4074 51.0784L65.5254 50.4684L65.6519 49.8425L65.787 49.2014L65.931 48.5457L66.0838 47.8762L66.2456 47.1934L66.4166 46.4982L66.5968 45.7911L66.7863 45.0731L66.9851 44.3447L67.1934 43.6068L67.411 42.8602L67.6381 42.1055L67.8746 41.3436L68.1205 40.5752L68.3757 39.8012L68.6402 39.0224L68.914 38.2394L69.1969 37.4533L69.4889 36.6646L69.7898 35.8744L70.0995 35.0833L70.4178 34.2921L70.7445 33.5018L71.0796 32.7131L71.4228 31.9267L71.7738 31.1435L72.1324 30.3643L72.4985 29.5899L72.8717 28.8211L73.2518 28.0586L73.6385 27.3031L74.0315 26.5556L74.4305 25.8166L74.8351 25.087L75.245 24.3675L75.6599 23.6588L76.0794 22.9616L76.5031 22.2766L76.9307 21.6044L77.3618 20.9458L77.7959 20.3014L78.2327 19.6718L78.6717 19.0577L79.1124 18.4596L79.5546 17.878L79.9976 17.3137L80.4412 16.7671L80.8847 16.2387L81.3278 15.7291L81.77 15.2387L82.2108 14.768L82.6497 14.3174L83.0863 13.8874L83.5201 13.4783L83.9506 13.0906L84.3773 12.7245L84.7997 12.3804L85.2175 12.0586L85.63 11.7595L86.0368 11.4831L86.4374 11.2299L86.8314 10.9999L87.2183 10.7934L87.5976 10.6105L87.9688 10.4514L88.3316 10.3162L88.6854 10.2049L89.0298 10.1176L89.3644 10.0543L89.6888 10.0151L90.0025 10L90.3051 10.0089L90.5963 10.0416L90.8756 10.0983L91.1427 10.1787L91.3971 10.2826L91.6386 10.41L91.8669 10.5607L92.0815 10.7344L92.2821 10.9309L92.4686 11.15L92.6405 11.3914L92.7977 11.6547L92.9398 11.9397L93.0666 12.2461L93.178 12.5734L93.2736 12.9213L93.3534 13.2894L93.4171 13.6773L93.4647 14.0846L93.4959 14.5107L93.5106 14.9552L93.5088 15.4177L93.4904 15.8975L93.4553 16.3943L93.4035 16.9075L93.335 17.4365L93.2497 17.9807L93.1478 18.5396L93.0291 19.1126L92.8939 19.6991L92.7422 20.2985L92.5741 20.9102L92.3896 21.5335L92.189 22.1678L91.9725 22.8125L91.7401 23.4669L91.4921 24.1304L91.2288 24.8022L90.9503 25.4818L90.657 26.1684L90.3491 26.8615L90.0269 27.5602L89.6907 28.264L89.3409 28.9721L88.9778 29.684L88.6019 30.3988L88.2134 31.1159L87.8128 31.8347L87.4006 32.5545L86.9771 33.2747L86.5428 33.9944L86.0983 34.7132L85.644 35.4304L85.1803 36.1453L84.7079 36.8572L84.2272 37.5656L83.7388 38.2699L83.2432 38.9694L82.7411 39.6635L82.2329 40.3517L81.7194 41.0334L81.201 41.7079L80.6784 42.3748L80.1523 43.0336L79.6231 43.6837L79.0917 44.3245L78.5585 44.9557L78.0244 45.5767L77.4898 46.187L76.9555 46.7863L76.4221 47.374L75.8903 47.9498L75.3607 48.5133L74.8341 49.0641L74.3111 49.6018L73.7923 50.1262L73.2784 50.6368L72.7701 51.1334L72.268 51.6157L71.7728 52.0835L71.2852 52.5364L70.8058 52.9743L70.3352 53.3969L69.8741 53.8042L69.4231 54.1958L68.9828 54.5717L68.5539 54.9318L68.137 55.2759L67.7326 55.604L67.3413 55.916L66.9637 56.2119L66.6004 56.4916L66.252 56.7551L65.9188 57.0025L65.6015 57.2338L65.3006 57.4491L65.0166 57.6483L64.7499 57.8318L64.501 57.9994L64.2703 58.1515L64.0583 58.288L63.8653 58.4093L63.6917 58.5155L63.538 58.6068L63.4044 58.6834L63.2913 58.7455L63.199 58.7935L63.1277 58.8275L63.0777 58.848L63.0493 58.8551L63.0427 58.8491L63.0581 58.8305L63.0955 58.7996L63.1553 58.7567L63.2375 58.7021L63.3421 58.6363L63.4694 58.5597L63.6193 58.4726L63.7918 58.3755L63.987 58.2687L64.2049 58.1527L64.4453 58.028L64.7083 57.895L64.9936 57.7541L65.3013 57.6058L65.6312 57.4505L65.983 57.2887L66.3566 57.121L66.7518 56.9477L67.1684 56.7693L67.606 56.5863L68.0644 56.3992L68.5432 56.2085L69.0422 56.0147L69.5609 55.8181L70.099 55.6194L70.6561 55.419L71.2317 55.2173L71.8254 55.0149L72.4368 54.8122L73.0653 54.6096L73.7105 54.4077L74.3717 54.2068L75.0485 54.0075L75.7403 53.8101L76.4465 53.6151L77.1664 53.423L77.8996 53.234L78.6453 53.0488L79.4029 52.8675L80.1717 52.6908L80.9511 52.5188L81.7403 52.3519L82.5386 52.1907L83.3454 52.0353L84.1599 51.8861L84.9813 51.7434L85.809 51.6075L86.642 51.4788L87.4798 51.3575L88.3215 51.2438L89.1662 51.1381L90.0134 51.0405L90.862 50.9512L91.7114 50.8706L92.5608 50.7987L93.4093 50.7358L94.2561 50.6819L95.1005 50.6373L95.9417 50.602L96.7787 50.5763L97.6109 50.5601L98.4375 50.5535L99.2575 50.5567L100.07 50.5696L100.875 50.5923L101.671 50.6248L102.458 50.6671L103.234 50.7192L103.999 50.781L104.752 50.8525L105.492 50.9336L106.22 51.0242L106.933 51.1243L107.631 51.2337L108.315 51.3523L108.982 51.4799L109.632 51.6165L110.265 51.7617L110.88 51.9155L111.477 52.0776L112.054 52.2479L112.612 52.426L113.149 52.6118L113.666 52.805L114.161 53.0053L114.634 53.2125L115.085 53.4263L115.513 53.6463L115.918 53.8724L116.3 54.1041L116.657 54.3412L116.991 54.5833L117.299 54.83L117.583 55.0811L117.842 55.3362L118.074 55.5949L118.282 55.8568L118.463 56.1217L118.618 56.389L118.747 56.6585L118.85 56.9297L118.926 57.2023L118.975 57.4759L118.998 57.7501L118.995 58.0245L118.964 58.2986L118.907 58.5723L118.824 58.8449L118.714 59.1163L118.577 59.3859L118.415 59.6533L118.226 59.9183L118.011 60.1805L117.771 60.4394L117.506 60.6947L117.215 60.9461L116.899 61.1931L116.559 61.4355L116.194 61.673L115.806 61.9051L115.394 62.1315L114.96 62.352L114.502 62.5663L114.023 62.774L113.521 62.9748L112.999 63.1686L112.456 63.355L111.892 63.5337L111.309 63.7047L110.707 63.8675L110.087 64.022L109.449 64.1681L108.793 64.3054L108.121 64.4339L107.433 64.5534L106.73 64.6638L106.013 64.7649L105.281 64.8566L104.537 64.9388L103.78 65.0114L103.012 65.0744L102.232 65.1277L101.443 65.1713L100.644 65.2051L99.8363 65.2292L99.0209 65.2435L98.1986 65.2482L97.37 65.2432L96.5359 65.2286L95.6973 65.2045L94.8547 65.171L94.0091 65.1282L93.1613 65.0762L92.3121 65.0151L91.4622 64.9452L90.6125 64.8666L89.7637 64.7794L88.9167 64.684L88.0723 64.5805L87.2312 64.4691L86.3943 64.3501L85.5622 64.2238L84.7359 64.0904L83.9159 63.9503L83.1031 63.8037L82.2982 63.6509L81.502 63.4924L80.7151 63.3284L79.9382 63.1593L79.1722 62.9854L78.4175 62.8072L77.675 62.625L76.9451 62.4392L76.2287 62.2502L75.5262 62.0584L74.8384 61.8644L74.1657 61.6684L73.5087 61.471L72.868 61.2725L72.2442 61.0735L71.6376 60.8744L71.0488 60.6756L70.4783 60.4777L69.9265 60.281L69.3938 60.0861L68.8807 59.8934L68.3874 59.7035L67.9145 59.5167L67.4621 59.3336L67.0306 59.1547L66.6203 58.9804L66.2314 58.8112L65.8643 58.6476L65.519 58.49L65.1958 58.3389L64.8949 58.1948L64.6164 58.0582L64.3603 57.9294L64.1269 57.809L63.9161 57.6974L63.728 57.595L63.5627 57.5022L63.4201 57.4194L63.3001 57.3472L63.2027 57.2857L63.128 57.2355L63.0756 57.197L63.0455 57.1704L63.0376 57.1561L63.0517 57.1545L63.0875 57.1659L63.1449 57.1906L63.2236 57.2289L63.3234 57.2811L63.4439 57.3475L63.5849 57.4282L63.746 57.5236L63.9268 57.6339L64.1271 57.7592L64.3463 57.8997L64.5842 58.0557L64.8402 58.2272L65.114 58.4144L65.405 58.6175L65.7128 58.8364L66.0369 59.0713L66.3768 59.3222L66.732 59.5892L67.1019 59.8722L67.4859 60.1713L67.8835 60.4865L68.2942 60.8177L68.7173 61.1648L69.1523 61.5277L69.5984 61.9064L70.0552 62.3007L70.522 62.7105L70.9982 63.1356L71.483 63.5758L71.9759 64.0309L72.4762 64.5008L72.9833 64.985L73.4965 65.4834L74.0151 65.9957L74.5385 66.5216L75.0659 67.0608L75.5968 67.6129L76.1305 68.1775L76.6663 68.7543L77.2034 69.3429L77.7414 69.9428L78.2794 70.5537L78.817 71.1751L79.3532 71.8065L79.8877 72.4474L80.4196 73.0974L80.9485 73.7559L81.4735 74.4224L81.9942 75.0964L82.51 75.7774L83.0201 76.4647L83.5241 77.1577L84.0213 77.856L84.5112 78.5589L84.9932 79.2658L85.4668 79.9761L85.9315 80.6891L86.3867 81.4042L86.8319 82.1208L87.2667 82.8382L87.6905 83.5559L88.103 84.273L88.5036 84.989L88.892 85.7032L89.2678 86.4148L89.6305 87.1234L89.9797 87.8281L90.3152 88.5282L90.6366 89.2232L90.9436 89.9124L91.2358 90.595L91.5131 91.2704L91.775 91.9379L92.0215 92.597L92.2523 93.2468L92.4671 93.8868L92.6658 94.5162L92.8483 95.1346L93.0144 95.7412L93.1639 96.3354L93.2968 96.9166L93.413 97.4842L93.5125 98.0376L93.5952 98.5762L93.661 99.0994L93.71 99.6068L93.7423 100.098L93.7577 100.572L93.7565 101.028L93.7387 101.466L93.7043 101.886L93.6536 102.287L93.5866 102.669L93.5035 103.031L93.4044 103.372L93.2896 103.693L93.1592 103.993L93.0136 104.272L92.8528 104.528L92.6773 104.763L92.4872 104.976L92.2828 105.166L92.0645 105.333L91.8325 105.477L91.5872 105.598L91.329 105.695L91.0581 105.769L90.775 105.819L90.48 105.846L90.1736 105.848L89.8561 105.827L89.5279 105.781L89.1895 105.712L88.8412 105.618L88.4836 105.501L88.1171 105.36L87.7421 105.195L87.3591 105.006L86.9685 104.794L86.5708 104.558L86.1665 104.299L85.7561 104.017L85.34 103.713L84.9187 103.386L84.4927 103.037L84.0625 102.666L83.6286 102.273L83.1914 101.86L82.7514 101.425L82.3091 100.97L81.8651 100.495L81.4197 100.001L80.9734 99.4875L80.5267 98.9554L80.0801 98.4053L79.634 97.8376L79.1889 97.253L78.7452 96.6519L78.3034 96.035L77.8638 95.4028L77.4269 94.7561L76.9932 94.0953L76.563 93.4212L76.1367 92.7344L75.7146 92.0357L75.2973 91.3256L74.885 90.605L74.478 89.8745L74.0768 89.1349L73.6816 88.3869L73.2927 87.6312L72.9105 86.8687L72.5353 86.1L72.1672 85.326L71.8066 84.5475L71.4538 83.7652L71.1088 82.9799L70.772 82.1925L70.4435 81.4037L70.1236 80.6144L69.8123 79.8253L69.5099 79.0373L69.2165 78.2511L68.9321 77.4676L68.657 76.6875L68.3911 75.9118L68.1346 75.1411L67.8875 74.3763L67.6498 73.6182L67.4216 72.8674L67.2029 72.125L66.9937 71.3914L66.7938 70.6677L66.6034 69.9544L66.4223 69.2524L66.2504 68.5623L66.0878 67.8849L65.9342 67.2209L65.7895 66.5709L65.6537 65.9357L65.5265 65.316L65.4078 64.7122L65.2974 64.1252L65.1952 63.5554L65.1009 63.0036L65.0144 62.4702L64.9353 61.9558L64.8634 61.461L64.7986 60.9863L64.7405 60.5322L64.6888 60.0991L64.6434 59.6875L64.6038 59.2978L64.5698 58.9306L64.541 58.586L64.5172 58.2645L64.498 57.9665L64.483 57.6922L64.4721 57.4419L64.4646 57.2159L64.4605 57.0145L64.4592 56.8378L64.4604 56.6861L64.4637 56.5594L64.4688 56.4579L64.4753 56.3818L64.4828 56.3311L64.491 56.3059L64.4994 56.3062L64.5077 56.3319L64.5155 56.3831L64.5224 56.4598L64.5281 56.5618L64.5321 56.689L64.5341 56.8413L64.5338 57.0186L64.5307 57.2206L64.5245 57.4472L64.5149 57.698L64.5015 57.973L64.4839 58.2716L64.4618 58.5938L64.4349 58.939L64.4029 59.307L64.3655 59.6974L64.3222 60.1097L64.2729 60.5436L64.2173 60.9985L64.1551 61.4741L64.0859 61.9697L64.0096 62.485L63.926 63.0193L63.8347 63.5721L63.7356 64.1429L63.6285 64.7309L63.5131 65.3357L63.3893 65.9566L63.2569 66.5929L63.1158 67.244L62.9659 67.9093L62.8069 68.5879L62.6388 69.2792L62.4616 69.9826L62.2751 70.6972L62.0792 71.4224L61.874 72.1573L61.6593 72.9013L61.4353 73.6535L61.2018 74.4132L60.9589 75.1795L60.7066 75.9518L60.445 76.7292L60.1742 77.511L59.8941 78.2962L59.6051 79.0841L59.307 79.8739L59.0001 80.6649L58.6845 81.4561L58.3604 82.2467L58.028 83.0361L57.6874 83.8233L57.3389 84.6076L56.9826 85.3881L56.6189 86.1641L56.2479 86.9348L55.87 87.6995L55.4853 88.4572L55.0943 89.2074L54.6972 89.9491L54.2944 90.6818L53.8861 91.4046L53.4728 92.1168L53.0547 92.8178L52.6322 93.5068L52.2058 94.1831L51.7758 94.846L51.3427 95.495L50.9067 96.1294L50.4684 96.7486L50.0281 97.3519L49.5864 97.9387L49.1435 98.5086L48.7001 99.0609L48.2565 99.5952L47.8132 100.111L47.3707 100.607L46.9294 101.084L46.4899 101.541L46.0525 101.978L45.6177 102.394L45.1861 102.788L44.7582 103.161L44.3343 103.513L43.915 103.841L43.5008 104.148L43.0921 104.432L42.6895 104.692L42.2933 104.93L41.9041 105.144L41.5224 105.334L41.1485 105.501L40.783 105.644L40.4263 105.762L40.0788 105.857L39.741 105.928L39.4134 105.975L39.0962 105.998L38.79 105.997L38.4952 105.972L38.212 105.922L37.941 105.85L37.6825 105.753L37.4368 105.633L37.2043 105.49L36.9854 105.324L36.7802 105.134L36.5892 104.922L36.4126 104.688L36.2507 104.432L36.1038 104.154L35.9721 103.854L35.8558 103.533L35.7551 103.192L35.6702 102.83L35.6014 102.449L35.5487 102.047L35.5123 101.627L35.4923 101.189L35.4888 100.732L35.5019 100.257L35.5317 99.7659L35.5782 99.2579L35.6414 98.7339L35.7213 98.1945L35.8179 97.6402L35.9312 97.0716L36.0612 96.4893L36.2077 95.894L36.3706 95.2861L36.5499 94.6664L36.7453 94.0356L36.9568 93.3941L37.1842 92.7427L37.4272 92.0821L37.6856 91.4128L37.9593 90.7356L38.2479 90.0512L38.5512 89.3601L38.8689 88.6631L39.2007 87.9608L39.5462 87.254L39.9051 86.5433L40.277 85.8294L40.6615 85.1129L41.0583 84.3945L41.4669 83.675L41.8868 82.9549L42.3177 82.2349L42.759 81.5157L43.2103 80.798L43.671 80.0823L44.1407 79.3694L44.6188 78.6598L45.1048 77.9541L45.5982 77.253L46.0983 76.5571L46.6046 75.867L47.1165 75.1832L47.6334 74.5063L48.1547 73.8369L48.6798 73.1755L49.208 72.5226L49.7388 71.8787L50.2715 71.2445L50.8054 70.6202L51.3399 70.0064L51.8744 69.4036L52.4081 68.8121L52.9405 68.2325L53.4709 67.665L53.9985 67.1101L54.5228 66.5682L55.043 66.0395L55.5585 65.5245L56.0687 65.0234L56.5728 64.5365L57.0702 64.0641L57.5603 63.6064L58.0424 63.1637L58.5159 62.7362L58.9801 62.324L59.4344 61.9274L59.8781 61.5464L60.3107 61.1813L60.7315 60.8321L61.14 60.4989L61.5355 60.1818L61.9175 59.8808L62.2854 59.5959L62.6387 59.3272L62.9767 59.0747L63.2991 58.8383L63.6053 58.6179L63.8948 58.4136L64.167 58.2251L64.4217 58.0524L64.6582 57.8954L64.8762 57.754L65.0753 57.6278L65.2551 57.5169L65.4152 57.4209L65.5552 57.3396L65.6749 57.2729L65.7739 57.2204L65.8519 57.182L65.9087 57.1572L65.9439 57.1459L65.9575 57.1477L65.9492 57.1623L65.9188 57.1894L65.8662 57.2285L65.7911 57.2794L65.6936 57.3417L65.5736 57.4149L65.4309 57.4987L65.2656 57.5927L65.0776 57.6964L64.867 57.8095L64.6337 57.9315L64.3779 58.0619L64.0997 58.2004L63.7991 58.3464L63.4763 58.4995L63.1314 58.6592L62.7647 58.8251L62.3764 58.9967L61.9666 59.1736L61.5357 59.3551L61.0839 59.5409L60.6115 59.7305L60.1189 59.9235L59.6065 60.1192L59.0745 60.3172L58.5234 60.5172L57.9536 60.7185L57.3656 60.9207L56.7598 61.1234L56.1367 61.3261L55.4968 61.5283L54.8406 61.7295L54.1687 61.9294L53.4817 62.1274L52.78 62.3232L52.0643 62.5163L51.3353 62.7063L50.5935 62.8928L49.8397 63.0754L49.0743 63.2536L48.2983 63.4272L47.5121 63.5957L46.7166 63.7587L45.9124 63.9161L45.1003 64.0673L44.281 64.2121L43.4553 64.3501L42.6239 64.4811L41.7875 64.6049L40.947 64.721L40.1031 64.8293L39.2567 64.9295L38.4084 65.0214L37.5591 65.1048L36.7097 65.1795L35.8608 65.2453L35.0134 65.3021L34.1681 65.3497L33.3258 65.3879L32.4874 65.4167L31.6536 65.436L30.8251 65.4456L30.0029 65.4455L29.1877 65.4357L28.3802 65.4161L27.5814 65.3868L26.7918 65.3476L26.0124 65.2986L25.2438 65.2399L24.4868 65.1715L23.7421 65.0935L23.0105 65.0058L22.2927 64.9088L21.5894 64.8023L20.9012 64.6866L20.2289 64.5619L19.5731 64.4281L18.9344 64.2856L18.3136 64.1345L17.7111 63.9751L17.1276 63.8074L16.5636 63.6317L16.0198 63.4484L15.4967 63.2575L14.9947 63.0594L14.5144 62.8544L14.0562 62.6427L13.6206 62.4246L13.2081 62.2004L12.819 61.9705L12.4538 61.7351L12.1127 61.4945L11.7962 61.2492L11.5046 60.9995L11.238 60.7456L10.9969 60.488L10.7815 60.2271L10.5919 59.9631L10.4283 59.6966L10.291 59.4277L10.18 59.157L10.0954 58.8848L10.0375 58.6115L10.0061 58.3375L10.0014 58.0631L10.0233 57.7888L10.0718 57.515L10.1469 57.242L10.2485 56.9702L10.3765 56.7L10.5308 56.4318L10.7112 56.1659L10.9175 55.9028L11.1495 55.6429L11.4071 55.3864L11.6899 55.1337L11.9976 54.8852L12.3301 54.6413L12.6868 54.4023L13.0675 54.1684L13.4719 53.9401L13.8994 53.7177L14.3496 53.5014L14.8222 53.2916L15.3167 53.0885L15.8325 52.8925L16.3692 52.7037L16.9262 52.5225L17.503 52.3491L18.099 52.1837L18.7136 52.0265L19.3462 51.8777L19.9962 51.7376L20.6629 51.6062L21.3458 51.4838L22.044 51.3705L22.757 51.2665L23.4841 51.1718L24.2245 51.0866L24.9775 51.0109L25.7424 50.9448L26.5184 50.8884L27.3048 50.8417L28.1008 50.8048L28.9056 50.7776L29.7185 50.7601L30.5387 50.7524L31.3654 50.7543L32.1978 50.7659L33.0351 50.7869L33.8765 50.8175L34.7212 50.8573L35.5684 50.9064L36.4173 50.9646L37.2671 51.0317L38.1169 51.1076L38.9661 51.1921L39.8137 51.2849L40.659 51.3859L41.5012 51.4948L42.3396 51.6114L43.1733 51.7354L44.0016 51.8665L44.8237 52.0045L45.6388 52.1491L46.4463 52.2999L47.2454 52.4567L48.0353 52.619L48.8154 52.7865L49.585 52.9589L50.3434 53.1358L51.0899 53.3168L51.8238 53.5015L52.5446 53.6895L53.2516 53.8804L53.9441 54.0737L54.6217 54.2691L55.2838 54.4662L55.9297 54.6643L56.559 54.8632L57.1711 55.0624L57.7656 55.2613L58.342 55.4596L58.8998 55.6567L59.4386 55.8522L59.958 56.0456L60.4576 56.2365L60.9371 56.4243L61.3961 56.6087L61.8342 56.789L62.2513 56.9648L62.647 57.1357L63.0211 57.3011L63.3734 57.4607L63.7036 57.6139L64.0117 57.7602L64.2973 57.8993L64.5605 58.0306L64.8012 58.1537L65.0192 58.2682L65.2145 58.3736L65.3871 58.4695L65.537 58.5555L65.6641 58.6311L65.7687 58.6961L65.8506 58.7499L65.9101 58.7922L65.9473 58.8226L65.9622 58.8409L65.9552 58.8465L65.9262 58.8393L65.8757 58.8189L65.8037 58.7849L65.7106 58.7372L65.5967 58.6754L65.4622 58.5992L65.3075 58.5085L65.1329 58.403L64.9388 58.2826L64.7255 58.1469L64.4935 57.9958L64.2432 57.8293L63.9751 57.6471L63.6895 57.4491L63.387 57.2352L63.068 57.0055L62.7331 56.7596L62.3827 56.4978L62.0175 56.2199L61.6379 55.9259L61.2445 55.6158L60.838 55.2897L60.4187 54.9477L59.9875 54.5898L59.5448 54.2161L59.0914 53.8267L58.6277 53.4219L58.1545 53.0016L57.6723 52.5662L57.1819 52.1158L56.6839 51.6506L56.1789 51.171L55.6676 50.677L55.1506 50.1691L54.6287 49.6475L54.1025 49.1125L53.5726 48.5645L53.0397 48.0039L52.5046 47.4309L51.9678 46.846L51.43 46.2497L50.8919 45.6422L50.3541 45.0241L49.8174 44.3959L49.2823 43.7579L48.7495 43.1108L48.2196 42.4549L47.6932 41.7909L47.1711 41.1192L46.6537 40.4404L46.1417 39.7551L45.6357 39.0638L45.1363 38.3671L44.644 37.6656L44.1594 36.9599L43.6831 36.2507L43.2155 35.5385L42.7572 34.824L42.3088 34.1077L41.8706 33.3905L41.4432 32.6729L41.0271 31.9555L40.6226 31.2391L40.2303 30.5243L39.8505 29.8117L39.4836 29.1021L39.13 28.3961L38.7901 27.6944L38.4642 26.9977L38.1526 26.3066L37.8556 25.6219L37.5736 24.9441L37.3067 24.274L37.0553 23.6122L36.8195 22.9593L36.5996 22.3162L36.3957 21.6833L36.208 21.0613L36.0367 20.4509L35.8819 19.8527L35.7437 19.2673L35.6221 18.6953L35.5173 18.1373L35.4293 17.5939L35.3581 17.0657L35.3037 16.5532L35.2662 16.057L35.2454 15.5777L35.2413 15.1156L35.2538 14.6714L35.2829 14.2455L35.3285 13.8385L35.3903 13.4507L35.4683 13.0825L35.5623 12.7345L35.6721 12.407L35.7976 12.1004L35.9384 11.815L36.0943 11.5513L36.2652 11.3094L36.4507 11.0897L36.6506 10.8926L36.8645 10.7181L37.0921 10.5666L37.3332 10.4384L37.5874 10.3334L37.8543 10.252L38.1335 10.1943L38.4247 10.1603L38.7276 10.1502L39.0416 10.1641L39.3664 10.2019L39.7016 10.2637L40.0468 10.3496L40.4014 10.4593L40.7652 10.593L41.1375 10.7505L41.5181 10.9317L41.9063 11.1364L42.3018 11.3646L42.704 11.616L43.1125 11.8905L43.5269 12.1878L43.9466 12.5076L44.3711 12.8497L44.8 13.2137L45.2328 13.5995L45.669 14.0065L46.1082 14.4344L46.5498 14.8828L46.9933 15.3514L47.4383 15.8396L47.8844 16.3471L48.331 16.8733L48.7776 17.4177L49.2239 17.9798L49.6694 18.5591L50.1136 19.155L50.5561 19.767L50.9964 20.3943L51.4342 21.0365L51.869 21.6929L52.3004 22.3628L52.728 23.0456L53.1514 23.7406L53.5703 24.4472L53.9842 25.1645L54.3929 25.8919L54.796 26.6287L55.1932 27.3742L55.5841 28.1275L55.9684 28.8879L56.3459 29.6547L56.7163 30.4271L57.0793 31.2042L57.4347 31.9854L57.7822 32.7698L58.1216 33.5566L58.4527 34.3451L58.7754 35.1343L59.0895 35.9236L59.3947 36.7121L59.691 37.4989L59.9783 38.2834L60.2564 39.0646L60.5252 39.8418L60.7847 40.6142L61.0348 41.3809L61.2755 42.1413L61.5067 42.8944L61.7284 43.6396L61.9407 44.3761L62.1435 45.103L62.337 45.8197L62.521 46.5254L62.6958 47.2194L62.8614 47.9009L63.0179 48.5693L63.1654 49.2238L63.304 49.8637L63.4339 50.4885L63.5553 51.0974L63.6683 51.6898L63.7731 52.2652L63.8699 52.8228L63.9589 53.3621L64.0403 53.8826L64.1144 54.3837L64.1815 54.8649L64.2417 55.3256L64.2954 55.7655L64.3428 56.1839L64.3842 56.5806L64.42 56.9551L64.4504 57.3069L64.4757 57.6358L64.4964 57.9413L64.5126 58.2232L64.5248 58.4812L64.5333 58.7149L64.5385 58.9242L64.5407 59.1088L64.5402 59.2685L64.5375 59.4032L64.533 59.5127L64.5269 59.5969L64.5196 59.6557L64.5116 59.689L64.5033 59.6969L64.4949 59.6792L64.4869 59.6361L64.4797 59.5675L64.4736 59.4736L64.469 59.3544L64.4663 59.2101L64.4658 59.0407L64.468 58.8466L64.4731 58.6278L64.4816 58.3847L64.4938 58.1174L64.51 57.8262L64.5306 57.5115L64.5559 57.1736L64.5863 56.8128L64.622 56.4295L64.6634 56.0241L64.7107 55.5971L64.7643 55.1488L64.8244 54.6798L64.8913 54.1905L64.9653 53.6814L65.0465 53.1531L65.1354 52.6061L65.2319 52.041L65.3365 51.4584L65.4492 50.8589L65.5703 50.243L65.6999 49.6116L65.8383 48.9651L65.9854 48.3043L66.1415 47.6299L66.3066 46.9425L66.4809 46.2429L66.6645 45.5318L66.8574 44.8099L67.0596 44.078L67.2713 43.3368L67.4923 42.5871L67.7228 41.8298L67.9627 41.0654L68.212 40.2949L68.4706 39.5191L68.7385 38.7386L69.0157 37.9544L69.3019 37.1673L69.5971 36.378L69.9012 35.5873L70.214 34.7961L70.5354 34.0052L70.8652 33.2153L71.2032 32.4273L71.5493 31.642L71.9031 30.8602L72.2645 30.0827L72.6332 29.3102L73.0089 28.5436L73.3914 27.7835L73.7804 27.0309L74.1756 26.2863L74.5767 25.5507L74.9832 24.8247L75.395 24.109L75.8116 23.4044L76.2327 22.7115L76.6579 22.0311L77.0868 21.3638L77.519 20.7103L77.9541 20.0712L78.3918 19.4471L78.8314 18.8387L79.2728 18.2465L79.7153 17.6712L80.1586 17.1132L80.6022 16.5732L81.0456 16.0515L81.4884 15.5488L81.9301 15.0655L82.3703 14.6021L82.8085 14.1589L83.2441 13.7365L83.6767 13.3351L84.1059 12.9552L84.5311 12.597L84.9519 12.261L85.3678 11.9474L85.7783 11.6565L86.1829 11.3885L86.5812 11.1437L86.9727 10.9222L87.3568 10.7243L87.7333 10.55L88.1015 10.3996L88.4611 10.273L88.8115 10.1704L89.1524 10.0918L89.4834 10.0373L89.8039 10.0069L90.1136 10.0004L90.4121 10.018L90.699 10.0595L90.974 10.1247L91.2365 10.2137L91.4863 10.3262L91.723 10.462L91.9463 10.6211L92.1559 10.8031L92.3515 11.0078L92.5327 11.235L92.6993 11.4844L92.851 11.7557L92.9876 12.0485L93.1089 12.3625L93.2145 12.6973L93.3044 13.0526L93.3784 13.428L93.4363 13.8229L93.4779 14.2371L93.5031 14.6699L93.5119 15.121L93.504 15.5898L93.4796 16.0759L93.4384 16.5787L93.3806 17.0977L93.306 17.6322L93.2146 18.1819L93.1066 18.746L92.982 19.3239L92.8408 19.9152L92.6831 20.5191L92.509 21.1351L92.3187 21.7625L92.1123 22.4006L91.89 23.0489L91.6519 23.7067L91.3983 24.3733L91.1295 25.048L90.8456 25.7302L90.5469 26.4193L90.2338 27.1145L89.9065 27.8151L89.5653 28.5205L89.2106 29.2301L88.8429 29.9431L88.4623 30.6588L88.0694 31.3767L87.6645 32.0959L87.2481 32.8159L86.8207 33.536L86.3827 34.2555L85.9345 34.9737L85.4767 35.6901L85.0098 36.404L84.5343 37.1148L84.0508 37.8218L83.5597 38.5244L83.0617 39.222L82.5573 39.914L82.0471 40.5999L81.5318 41.279L81.0118 41.9509L80.4878 42.6149L79.9605 43.2706L79.4305 43.9173L78.8983 44.5547L78.3647 45.1823L77.8303 45.7994L77.2958 46.4058L76.7617 47.0009L76.2289 47.5844L75.6978 48.1558L75.1692 48.7147L74.6438 49.2608L74.1222 49.7937L73.6051 50.3131L73.0932 50.8187L72.5871 51.3101L72.0874 51.7872L71.5949 52.2496L71.1102 52.6971L70.6339 53.1295L70.1667 53.5465L69.7092 53.9481L69.262 54.3341L68.8258 54.7043L68.4012 55.0586L67.9887 55.3969L67.589 55.7191L67.2027 56.0253L66.8302 56.3153L66.4722 56.5891L66.1293 56.8468L65.8018 57.0883L65.4904 57.3138L65.1956 57.5232L64.9178 57.7167L64.6575 57.8944L64.4151 58.0564L64.1912 58.2028L63.986 58.3338L63.8 58.4496L63.6336 58.5503L63.4872 58.6363L63.361 58.7076L63.2554 58.7646L63.1707 58.8074L63.1071 58.8365L63.0649 58.8521L63.0444 58.8544L63.0457 58.8438L63.0691 58.8207L63.1146 58.7854L63.1825 58.7382L63.2728 58.6795L63.3857 58.6098L63.5212 58.5293L63.6793 58.4385L63.86 58.3378L64.0635 58.2277L64.2895 58.1085L64.5381 57.9807L64.8093 57.8447L65.1027 57.7011L65.4185 57.5502L65.7563 57.3925L66.1161 57.2285L66.4976 57.0587L66.9006 56.8835L67.3248 56.7034L67.77 56.5188L68.2358 56.3304L68.722 56.1385L69.2282 55.9436L69.754 55.7462L70.299 55.5468L70.8629 55.3459L71.4451 55.1439L72.0453 54.9413L72.663 54.7386L73.2976 54.5362L73.9486 54.3346L74.6156 54.1343L75.2979 53.9356L75.9949 53.739L76.7062 53.545L77.431 53.354L78.1688 53.1664L78.9189 52.9825L79.6807 52.8029L80.4534 52.6278L81.2364 52.4576L82.029 52.2928L82.8305 52.1336L83.6402 51.9804L84.4573 51.8335L85.281 51.6933L86.1107 51.56L86.9456 51.4339L87.7849 51.3153L88.6277 51.2045L89.4735 51.1017L90.3212 51.0071L91.1703 50.921L92.0197 50.8435L92.8689 50.7748L93.7169 50.7152L94.5629 50.6646L95.4062 50.6234L96.246 50.5916L97.0814 50.5693L97.9116 50.5566L98.7359 50.5536L99.5534 50.5603L100.363 50.5767L101.165 50.603L101.958 50.639L102.74 50.6849L103.513 50.7405L104.273 50.8058L105.022 50.8808L105.758 50.9654L106.48 51.0595L107.188 51.1629L107.881 51.2757L108.559 51.3976L109.22 51.5285L109.864 51.6682L110.491 51.8166L111.099 51.9734L111.689 52.1385L112.259 52.3116L112.809 52.4926L113.339 52.6811L113.848 52.8769L114.335 53.0797L114.8 53.2893L115.243 53.5054L115.663 53.7277L116.06 53.9559L116.432 54.1896L116.781 54.4285L117.106 54.6723L117.405 54.9207L117.68 55.1733L117.929 55.4297L118.153 55.6896L118.351 55.9526L118.522 56.2184L118.668 56.4866L118.788 56.7567L118.88 57.0285L118.947 57.3015L118.987 57.5754L119 57.8496L118.996 58.0001Z" stroke="url(#paint0_linear_376_2329)"/>
    </g>
    <defs>
        <filter id="filter0_f_376_2329" x="0.49939" y="0.499634" width="128.001" height="115.001" filterUnits="userSpaceOnUse" color-interpolation-filters="sRGB">
            <feFlood flood-opacity="0" result="BackgroundImageFix"/>
            <feBlend mode="normal" in="SourceGraphic" in2="BackgroundImageFix" result="shape"/>
            <feGaussianBlur stdDeviation="4.5" result="effect1_foregroundBlur_376_2329"/>
        </filter>
        <linearGradient id="paint0_linear_376_2329" x1="119" y1="77.1068" x2="8.78673" y2="58.7816" gradientUnits="userSpaceOnUse">
            <stop stop-color="#94B3FD"/>
            <stop offset="0.499634" stop-color="#FB6BFE"/>
            <stop offset="1" stop-color="#42C2FF"/>
        </linearGradient>
    </defs>
</svg>
